<?xml version="1.0" encoding="utf-8"?>
<!-- Generator: Adobe Illustrator 21.0.0, SVG Export Plug-In . SVG Version: 6.00 Build 0)  -->
<svg version="1.1" id="Layer_1" xmlns="http://www.w3.org/2000/svg" xmlns:xlink="http://www.w3.org/1999/xlink" x="0px" y="0px"
	 viewBox="0 0 1920 1080" style="enable-background:new 0 0 1920 1080;" xml:space="preserve">
<style type="text/css">
	.st0{fill:#896F4C;}
	.st1{opacity:0.2;fill:none;stroke:#000000;stroke-miterlimit:10;}
	.st2{fill:#7A5F43;}
	.st3{opacity:0.1;}
	.st4{fill:#534741;}
	.st5{opacity:0.15;}
	.st6{fill:none;stroke:#3D3530;stroke-linecap:round;stroke-linejoin:round;stroke-miterlimit:10;}
	.st7{opacity:0.36;}
	.st8{fill:#D6996F;}
	.st9{opacity:0.2;}
	.st10{opacity:0.5;}
	.st11{fill:#293842;}
	.st12{fill:#70573A;}
	.st13{fill:#FFBE91;}
	.st14{fill:#C1BEA5;}
	.st15{fill:#CC9833;}
	.st16{fill:#CB9832;}
	.st17{opacity:5.000000e-02;}
	.st18{fill:#F9F5E4;}
	.st19{fill:#332C28;}
	.st20{fill:#FFFFFF;}
	.st21{opacity:0.3;}
	.st22{fill:#1A2B3D;}
	.st23{fill:#FF6B00;}
	.st24{fill:#335880;}
	.st25{fill:#470500;}
	.st26{fill:#FFC579;}
	.st27{fill:#755D41;}
	.st28{fill:#594531;}
	.st29{fill:#FFBE73;}
	.st30{fill:#2B1E10;}
	.st31{fill:#352717;}
	.st32{fill:#2E6666;}
	.st33{fill:#FF8941;}
	.st34{fill:#B9421B;}
	.st35{fill:#45321D;}
	.st36{fill:#36230A;}
	.st37{fill:#8E5F0C;}
	.st38{fill:#AC5311;}
	.st39{fill:#FFA816;}
	.st40{fill:#23180C;}
</style>
<path class="st0" d="M1092.3,441.7c-11.5-4.3-22-4.2-30.2-3.9c-4.1,0.2-7.4,0.5-9.4,0.7c-8.6-1.9-25.8-4.1-39.8,5.5
	c-1.3,0.9-2.5,1.8-3.7,2.9c2.5,3.7,6.2,10.4,7.7,19.5c1.2,7,0.6,13-0.1,17c0,0,1.4,37.6,0.2,59l-4.1,48l75.5,0.7
	c-1.4-21-1.5-44.6,0.6-70.2c1-12.4,1.7-21.2,3.7-32.4c1.8-10.2,5.1-24.3,11.5-40.9C1099.4,444.6,1095.3,442.8,1092.3,441.7z"/>
<path class="st1" d="M1055.8,464c0,40.2,0,80.5-0.1,120.7"/>
<path class="st2" d="M1074.8,431.3c0,0-20.8-9.2-37.9,0l5.7,22.7h24.5L1074.8,431.3z"/>
<ellipse class="st3" cx="1047.5" cy="836.1" rx="85.1" ry="21.9"/>
<g>
	<path class="st4" d="M1075.4,803.4c0,0-0.2,11-1.8,17.8c0,0,0.2,3.3,8.3,4.8c8.2,1.5,14.2,7.5,17.2,12.7c3,5.2,27,3.8,27.5,3.5
		c0,0-11.5-15.3-18.7-22.3c-7.2-7-16.5-15.3-17.8-15.7C1088.7,803.9,1075.4,803.4,1075.4,803.4z"/>
	<path class="st5" d="M1097.9,810.6c-3.9-3.5-7.1-6.2-7.9-6.3c-1.3-0.3-14.7-0.8-14.7-0.8s-0.1,3.3-0.4,7.5
		C1082.7,810.9,1090.3,810.8,1097.9,810.6z"/>
	<path class="st6" d="M1094.9,807c0,0-8.7,6.7-7.7,12.7c1,6,5.7,3.2,5.1,0.2C1091.5,816.9,1093.5,808.7,1094.9,807z"/>
	<path class="st6" d="M1095.2,807.2c0,0,3.7,11.3,0,16.7"/>
</g>
<g>
	<path class="st4" d="M1027.7,810.5c0,0,0,16,0,18.5c0,2.4-22,0.8-35,10.5c0,0-16.5-3.3-20.3-4.8c0,0,5.3-10.8,13-12.8s24.3-7,25-12
		L1027.7,810.5z"/>
	<path class="st5" d="M1027.7,816.4c0-3.3,0-5.9,0-5.9l-17.3-0.5c-0.2,1.3-1.4,2.5-3.2,3.7C1013.6,815.7,1020.8,816,1027.7,816.4z"
		/>
	<path class="st6" d="M1005.6,814.8c0,0-12.7,12-6.7,15.6C1003.3,833,1006.2,815.6,1005.6,814.8z"/>
	<path class="st6" d="M1006.2,814.4c0,0,4.2,5.2,2.3,11.5"/>
</g>
<path class="st0" d="M1087.7,585c0.3,5.2,0.6,10.2,1,14.9c3,36.7,5.2,127,2.5,204.7c0,0-10.6-0.4-16.2-0.6
	c0.5-79.3-2.6-178.7-24.9-177.1c-8.2,0.6-16,26.5-19.3,82.8c-3.3,56.3-2.8,101.8-2.8,101.8l-18.6-0.3c3.7-163.4,1.1-171.3,2.1-211.3
	l1.5-15.4L1087.7,585z"/>
<path class="st7" d="M1088.4,597c-0.3-3.9-0.5-7.8-0.7-11.9l-74.8-0.7l-1.2,12.7H1088.4z"/>
<path class="st8" d="M1071.2,454.7c-0.8,2.8-2.4,6.1-4.6,8.8l-4.6-5c-0.5,1.2-1,2.5-1.6,3.8h-2.1l-2.6,4.8l0,0.1l0-0.1l-0.1,0.1
	l0-0.1l-2.6-4.8h-2.1c-0.5-1.3-1-2.5-1.5-3.8l-4.1,4.5c-3.2-3.1-5.4-6.8-4.9-9.1c0.5-2.4,0.7-9,0.8-15.3c0.1-6.5,0-12.4,0-12.4
	c22.9-3,29.4-2.2,29.9-0.3c0.1,0.3,0,0.7-0.1,3.3c0,2.1,0.1,3.6,0.1,4.7c0,1,0.1,1.9,0.1,2.8
	C1071.8,446.6,1071.9,451.8,1071.2,454.7z"/>
<path class="st5" d="M1071.5,456.5l-3.6,8.4l-5.9-6.5c-0.5,1.2-1,2.5-1.6,3.8h-2.1l-2.6,4.8l0,0.1l0-0.1l-0.1,0.1l0-0.1l-2.6-4.8
	h-2.1c-0.5-1.3-1-2.5-1.5-3.8l-5.9,6.5l-4.5-10.5c0.2,0,0.5,0,0.7,0c0,0,4.4-0.7,10.2-1.2c3.6-0.3,7.7-0.6,11.7-0.6h0
	c2.2,0,4.3,0.1,6.3,0.2c0,0,1.4,0.2,3.4,0.6C1071.5,454.5,1071.5,455.5,1071.5,456.5z"/>
<g class="st9">
	<path d="M1076.2,598.7c0,0,0.5,3.2,1.2,8.8c0.3,2.8,0.7,6.2,1.2,10.1c0.4,3.9,0.9,8.3,1.4,13.1c0.5,4.8,0.9,10,1.4,15.6
		c0.5,5.5,0.9,11.4,1.4,17.4c0.4,6,0.8,12.3,1.2,18.6c0.2,3.2,0.3,6.4,0.5,9.6c0.1,3.2,0.3,6.4,0.4,9.7c0.1,3.2,0.2,6.4,0.3,9.7
		c0.1,3.2,0.1,6.4,0.2,9.6c0.2,6.3,0.2,12.6,0.3,18.7c0,3,0.1,6,0,8.9c0,2.9-0.1,5.8-0.1,8.5c0,2.8-0.1,5.5-0.1,8.1
		c-0.1,2.6-0.2,5.1-0.2,7.5c-0.2,4.8-0.3,9.3-0.5,13.2c-0.2,3.9-0.4,7.3-0.6,10.2c-0.3,5.6-0.5,8.9-0.5,8.9s0.1-3.2,0.3-8.9
		c0.1-2.8,0.2-6.2,0.4-10.2c0.1-3.9,0.2-8.4,0.3-13.2c0-2.4,0.1-4.9,0.1-7.5c0-2.6,0-5.3,0-8.1c0-5.5,0-11.4-0.1-17.4
		c-0.1-6-0.1-12.3-0.3-18.6c-0.1-3.2-0.2-6.4-0.3-9.6c-0.1-3.2-0.3-6.4-0.4-9.7c-0.1-3.2-0.3-6.4-0.4-9.7c-0.2-3.2-0.3-6.4-0.5-9.6
		c-0.3-6.3-0.7-12.6-1.1-18.6c-0.4-6-0.8-11.9-1.2-17.4c-0.4-5.5-0.8-10.8-1.3-15.6c-0.8-9.6-1.6-17.7-2.2-23.3
		C1076.6,601.9,1076.2,598.7,1076.2,598.7z"/>
</g>
<g class="st9">
	<path d="M1023.4,598.7c0,0-1,13.1-2.5,32.8c-0.3,4.9-0.6,10.2-1,15.9c-0.2,2.8-0.4,5.7-0.5,8.7c-0.2,3-0.2,6-0.4,9.1
		c-0.1,3.1-0.2,6.2-0.4,9.4c-0.1,1.6-0.1,3.2-0.2,4.8c0,1.6,0,3.2-0.1,4.8c0,3.2-0.1,6.5-0.1,9.8c0,1.6,0,3.3-0.1,4.9l0.1,4.9
		c0.1,6.6,0.1,13.1,0.2,19.6c0.1,6.5,0.3,12.8,0.4,19c0.1,6.2,0.2,12.1,0.3,17.8c0.1,5.6,0.2,11,0.3,15.9
		c0.2,19.7,0.3,32.8,0.3,32.8s-0.3-13.1-0.9-32.8c-0.3-9.8-0.6-21.3-0.9-33.7c-0.2-6.2-0.3-12.5-0.5-19c-0.2-6.5-0.2-13-0.3-19.6
		l0-4.9c0-1.6,0-3.3,0.1-4.9c0-3.3,0.1-6.5,0.1-9.8c0-1.6,0-3.2,0.1-4.8c0.1-1.6,0.1-3.2,0.2-4.8c0.1-3.2,0.3-6.3,0.4-9.4
		c0.1-3.1,0.2-6.1,0.4-9.1c0.2-3,0.4-5.9,0.6-8.7c0.4-5.6,0.8-11,1.1-15.9c0.9-9.8,1.7-18,2.2-23.7
		C1023.1,602,1023.4,598.7,1023.4,598.7z"/>
</g>
<g class="st10">
	<path class="st11" d="M1037.6,557.2c0,0,2.2-0.3,5.5-0.8c1.7-0.2,3.6-0.6,5.6-0.9c2.1-0.4,4.2-0.8,6.4-1.2c2.2-0.5,4.3-1,6.3-1.6
		c1-0.3,2-0.6,2.8-0.9c0.9-0.3,1.7-0.7,2.5-1c0.7-0.4,1.4-0.7,2-1.1c0.3-0.2,0.5-0.3,0.8-0.5c0.2-0.2,0.5-0.3,0.6-0.5
		c0.2-0.2,0.3-0.3,0.5-0.4c0.1-0.1,0.2-0.3,0.3-0.4c0.2-0.2,0.3-0.3,0.3-0.3s-0.1,0.1-0.2,0.3c-0.1,0.2-0.4,0.5-0.7,0.9
		c-0.2,0.2-0.4,0.4-0.6,0.6c-0.2,0.2-0.5,0.4-0.7,0.6c-0.5,0.4-1.2,0.8-1.9,1.2c-1.5,0.8-3.3,1.6-5.3,2.3c-2,0.7-4.2,1.2-6.4,1.7
		c-2.2,0.5-4.4,0.9-6.5,1.1c-2.1,0.3-4,0.5-5.7,0.6c-1.7,0.2-3.1,0.2-4,0.2C1038.1,557.3,1037.6,557.2,1037.6,557.2z"/>
</g>
<g class="st10">
	<path class="st11" d="M1046.2,543.6c0,0,1.3-0.9,3.5-2.1c1.1-0.6,2.4-1.3,3.8-1.9c0.7-0.3,1.4-0.6,2.2-0.9c0.7-0.3,1.5-0.6,2.3-0.9
		c0.8-0.3,1.6-0.5,2.3-0.8c0.8-0.2,1.6-0.4,2.3-0.6c1.5-0.4,2.9-0.6,4.2-0.7c0.6-0.1,1.2-0.1,1.7-0.1c0.5,0,0.9,0,1.3,0
		c0.7,0,1.1,0,1.1,0s-0.4,0.1-1.1,0.1c-0.4,0.1-0.8,0.1-1.3,0.2c-0.5,0.1-1,0.2-1.6,0.3c-0.6,0.1-1.2,0.3-1.9,0.4
		c-0.7,0.2-1.4,0.4-2.1,0.6c-0.7,0.2-1.5,0.5-2.2,0.7c-0.8,0.3-1.5,0.5-2.3,0.8c-0.8,0.3-1.5,0.5-2.3,0.8c-0.7,0.3-1.5,0.6-2.2,0.9
		c-1.4,0.6-2.7,1.1-3.9,1.6C1047.7,542.9,1046.2,543.6,1046.2,543.6z"/>
</g>
<g class="st10">
	<path class="st11" d="M1038.9,531.2c0,0,0.4-0.2,1-0.6c0.7-0.4,1.6-0.9,2.8-1.4c1.2-0.5,2.6-1.1,4.1-1.6c0.8-0.3,1.6-0.5,2.4-0.7
		c0.8-0.2,1.6-0.4,2.5-0.6c0.8-0.1,1.7-0.4,2.5-0.5c0.8-0.1,1.7-0.2,2.5-0.3c0.8-0.1,1.6-0.1,2.3-0.1c0.7,0,1.4,0,2.1,0.1
		c0.6,0.1,1.2,0.1,1.7,0.2c0.5,0.1,1,0.2,1.3,0.3c0.7,0.2,1.1,0.3,1.1,0.3s-0.4,0-1.2-0.1c-0.4,0-0.8-0.1-1.3-0.1
		c-0.5,0-1.1,0-1.7,0c-0.6,0-1.3,0.1-2,0.1c-0.7,0-1.5,0.2-2.3,0.2c-0.8,0.1-1.6,0.2-2.4,0.4c-0.8,0.1-1.6,0.3-2.5,0.5
		c-0.8,0.2-1.6,0.4-2.4,0.6c-0.8,0.2-1.6,0.4-2.4,0.6c-1.5,0.4-2.9,0.9-4.1,1.3c-1.2,0.4-2.2,0.8-2.9,1
		C1039.3,531.1,1038.9,531.2,1038.9,531.2z"/>
</g>
<path class="st5" d="M1057.1,439.4c2.1,0.1,7.9-2.8,14.1-6.2c-0.1-4.5-0.2-9,0-9.6c0.4-1.1-29.9,0.2-29.9,0.2s0.1,6.1,0,11.1
	C1048.6,437.3,1055.4,439.3,1057.1,439.4z"/>
<polygon class="st12" points="1051.7,456 1049.5,458.4 1045.4,462.9 1043.6,464.9 1039.1,454.4 1034.6,443.8 1036.9,431.3 
	1041.3,438.6 1050,453.2 "/>
<polygon class="st12" points="1076.9,443.8 1071.5,456.5 1067.9,464.9 1066.6,463.4 1062,458.4 1059.8,456 1061.8,452.6 
	1061.8,452.6 1071.3,436.7 1074.6,431.3 "/>
<path class="st12" d="M1055.8,467.1L1055.8,467.1l-0.1-0.1l-2.6-4.8h-2.1c-0.5-1.3-1-2.5-1.5-3.8c0-0.1,0-0.1-0.1-0.2
	c0.8-0.8,1.5-1.5,2.3-2.3c0.2,1.6,0.5,3.2,0.7,4.8h2.1l1.2,6l0,0.1L1055.8,467.1z"/>
<path class="st12" d="M1062.1,458.3c0,0.1-0.1,0.1-0.1,0.2c-0.5,1.2-1,2.5-1.6,3.8h-2.1l-2.6,4.8l0,0l-0.1,0.1l0-0.1l0-0.1l1.2-6
	h2.1c0.2-1.6,0.5-3.2,0.7-4.8C1060.5,456.7,1061.3,457.5,1062.1,458.3z"/>
<path class="st5" d="M999.6,508.2c0.1,0.1,0.3,0.2,0.4,0.2C999.9,508.4,999.8,508.4,999.6,508.2
	C999.7,508.3,999.6,508.3,999.6,508.2z"/>
<path class="st5" d="M1001.5,509.3c1,0.5,2,0.9,2.9,1.2C1003.4,510.2,1002.5,509.9,1001.5,509.3z"/>
<path class="st0" d="M1009.2,446.9c0,0,19.1,3.6,7.7,44.6l-7.7,19.6c0,0-16.1,0.6-17.5-18.8L1009.2,446.9z"/>
<path class="st5" d="M1009.2,511.2c-5.8-6.3-11.7-12.6-17.5-18.8c0,1,0.2,10.7,7.9,15.9C1003.4,510.8,1007.2,511.1,1009.2,511.2z"/>
<path class="st5" d="M1087.2,558.7c-0.9,6.2-3.6,18-13.4,26.3c-1.4,1.2-2.8,2.2-4.2,3c-2.9,0.3-4.9,1-6.5,2.9
	c8.1,0.1,16.2,0.3,24.3,0.4c0-5.4-0.1-10.7-0.1-16.1C1087.3,569.7,1087.3,564.2,1087.2,558.7z"/>
<path class="st0" d="M1104,447.7c0,0-19.3,2.3-10.6,44l6.4,20.1c0,0,16.1,1.6,18.7-17.6L1104,447.7z"/>
<path class="st13" d="M1068,593.6c2.4,0.8,5,0.8,7,0.1c0,0-1.3,3.8-3.1,6.9c5.3,0.7,10.5,1.8,15.6,3.3c1.1-1.9,2-3.9,2.6-6.2
	c0.5-2.1,1.3-3.7,0.7-5c0.7-1.1,1.3-2.1,2-3.2c11.5-18.6,21.3-37.4,29.9-56.1c0.3-3,1.4-6.2,0.6-9.3c-0.6-2.5-1.1-4.6-1.7-7
	c-2.9-11.1-2.5-9.2-6.6-22.4c0,0-0.1-0.3-0.1-0.4c-1.5,0.2-4.6,0.9-7.6,3.2c-3.5,2.7-5,6-5.6,7.5c1,2.4,2,5.9,3.5,10
	c1.8,5,3,8,3,12.6c-0.1,5-1.6,8-5.9,16.9c-8.1,17-6.4,14.6-10.1,21.6c-1.4,2.7-3,5.6-4.8,8.8c-1.8,3.2-3.9,6.6-6.2,10.3
	c-0.8-0.2-1.5-0.1-2.1,0.2c-5.6,2.5-4.3,5.6-11.5,4.1C1067.5,589.3,1063.3,592.1,1068,593.6z"/>
<path class="st1" d="M1075.3,477.9h-9.3v15c0.3,0.9,1.3,3.3,3.9,4.9c3.5,2.2,8.3,1.9,10.9,0c2.2-1.6,3.9-4.9,3.9-4.9l0,0v-15H1075.3
	z"/>
<polyline class="st12" points="1066,483.5 1084.6,483.5 1084.6,477.9 1066,477.9 1066,483.5 "/>
<path class="st1" d="M1035.3,477.9h-9.3v15c0.3,0.9,1.3,3.3,3.9,4.9c3.5,2.2,8.3,1.9,10.9,0c2.2-1.6,3.9-4.9,3.9-4.9l0,0v-15H1035.3
	z"/>
<polyline class="st12" points="1026,483.5 1044.6,483.5 1044.6,477.9 1026,477.9 1026,483.5 "/>
<polyline class="st14" points="1028.7,473.9 1041.8,473.9 1041.8,471.1 1028.7,471.1 1028.7,473.9 "/>
<g>
	<polygon class="st15" points="1075.5,467.2 1078.2,467.2 1077.2,466.7 1076.6,466.7 	"/>
	<path class="st15" d="M1078.2,468L1078.2,468l-0.2-0.1v-0.1h-0.2v-0.4h-0.3l0.1,0.1v0.4h-0.3v-0.4l0.1-0.1h-0.3l0.1,0.1v0.4h-0.2
		v-0.4l0.1-0.1h-0.2h-0.2l0.1,0.1v0.4h-0.2v-0.4l0.1-0.1h-0.3l0.1,0.1v0.4h-0.3v-0.4l0.1-0.1h-0.3v0.4h-0.2v0.1h-0.2v0.1h-0.2
		c0,0,0,0.1,0,0.1c0.1,0.1,0.2,0.1,0.2,0.1c0,0,0.1,0,0.2,0c0.1,0,0.2,0,0.3,0.1c0.1,0,0.2,0.1,0.3,0.1c0.1,0.1,0.1,0.2,0.2,0.2
		c0,0,0,0.2,0.1,0.2c0,0,0.1,0,0.1,0c0,0,0.1,0,0.1,0c0.1-0.1,0.1-0.2,0.1-0.2c0-0.1,0.1-0.2,0.2-0.2c0.1-0.1,0.2-0.1,0.3-0.1
		c0.1,0,0.2,0,0.3-0.1c0.1,0,0.2,0,0.2,0c0,0,0.1,0,0.2-0.1c0,0,0-0.1,0-0.1H1078.2z"/>
	<path class="st15" d="M1078.5,468.1c-0.1,0.8-0.6,1.4-1.1,1.4c-0.1,0-0.3,0-0.6-0.2c-0.3,0.2-0.5,0.2-0.6,0.2c-0.5,0-1-0.6-1.1-1.4
		c0,0,0,0.1,0,0.1c0,0,0.1,0.1,0.1,0.1c0,0,0,0,0,0c0.1,0.1,0.2,0.1,0.2,0.1c0.1,0,0.1,0,0.2,0c0.1,0,0.2,0,0.4,0.1
		c0.1,0,0.2,0.1,0.3,0.1c0.1,0.1,0.1,0.2,0.2,0.3c0,0,0,0.2,0.2,0.2c0,0,0.1,0,0.1,0c0,0,0.1,0,0.1,0c0.1-0.1,0.2-0.2,0.2-0.2
		c0-0.1,0.1-0.2,0.2-0.3c0.1-0.1,0.2-0.1,0.3-0.1c0.1,0,0.2,0,0.4-0.1c0.1,0,0.2,0,0.2,0c0,0,0.1,0,0.2-0.1c0,0,0,0,0,0
		C1078.4,468.3,1078.4,468.3,1078.5,468.1C1078.5,468.2,1078.5,468.2,1078.5,468.1z"/>
	<g>
		<path class="st15" d="M1076.9,469.7c0,0-0.7,0.7-1.6,0.4c0.1,0,0.2,0,0.3,0c0.1,0,0.1,0,0.2-0.1c0.2-0.1,0.5-0.1,0.7-0.1
			c0.1,0,0.1,0,0.2-0.1C1076.7,469.8,1076.8,469.8,1076.9,469.7z"/>
		<path class="st15" d="M1076.3,469.9c0,0-0.6,0.2-0.9-0.2l0.2,0l0.1,0l0.1,0.1l0.2,0L1076.3,469.9z"/>
		<path class="st15" d="M1075.8,469.7c0,0-0.5-0.4-0.6-0.4l-0.2,0l-0.1-0.1c0,0,0.1,0.5,0.7,0.5
			C1075.6,469.6,1075.7,469.7,1075.8,469.7z"/>
		<path class="st15" d="M1075.5,469.4l-0.2-0.3c0,0,0-0.1-0.2-0.2l-0.1-0.2c0,0,0-0.1-0.1-0.1c-0.1,0-0.2-0.2-0.2-0.3
			c0,0,0,1,0.5,0.9L1075.5,469.4z"/>
		<path class="st15" d="M1075.7,470c0,0-0.2-0.1-0.2-0.1l-0.2,0l-0.2-0.1l-0.4,0c0,0-0.2,0-0.2-0.1
			C1074.5,469.8,1074.9,470.3,1075.7,470z"/>
		<path class="st15" d="M1075.4,469.8c0,0-0.1-0.1-0.1-0.1l-0.1-0.1l-0.2,0l-0.1-0.1c0,0-0.4,0.1-0.8-0.3
			C1074,469.2,1074.4,469.9,1075.4,469.8z"/>
		<path class="st15" d="M1075.1,469.5l-0.1-0.2l-0.2-0.1c0,0-0.1-0.1-0.2-0.2c-0.1-0.1-0.7-0.5-0.7-1
			C1073.8,468,1073.5,469.3,1075.1,469.5z"/>
		<path class="st15" d="M1074.8,469.1l-0.1-0.4c0,0-0.1-0.1-0.1-0.1c0,0-0.1-0.6-0.4-0.9c0,0-0.1-0.6,0.4-1.4
			C1074.6,466.3,1072.9,467.8,1074.8,469.1z"/>
	</g>
	<g>
		<path class="st15" d="M1076.9,469.7c0,0,0.7,0.7,1.6,0.4c-0.1,0-0.2,0-0.3,0c-0.1,0-0.1,0-0.2-0.1c-0.2-0.1-0.5-0.1-0.7-0.1
			c-0.1,0-0.1,0-0.2-0.1C1077.1,469.8,1077,469.8,1076.9,469.7z"/>
		<path class="st15" d="M1077.5,469.9c0,0,0.6,0.2,0.9-0.2l-0.2,0l-0.1,0l-0.1,0.1l-0.2,0L1077.5,469.9z"/>
		<path class="st15" d="M1078,469.7c0,0,0.5-0.4,0.6-0.4l0.2,0l0.1-0.1c0,0-0.1,0.5-0.7,0.5C1078.2,469.6,1078.1,469.7,1078,469.7z"
			/>
		<path class="st15" d="M1078.3,469.4l0.2-0.3c0,0,0-0.1,0.2-0.2l0.1-0.2c0,0,0-0.1,0.1-0.1c0.1,0,0.2-0.2,0.2-0.3c0,0,0,1-0.5,0.9
			L1078.3,469.4z"/>
		<path class="st15" d="M1078,470c0,0,0.2-0.1,0.2-0.1l0.2,0l0.2-0.1l0.4,0c0,0,0.2,0,0.2-0.1C1079.2,469.8,1078.9,470.3,1078,470z"
			/>
		<path class="st15" d="M1078.4,469.8c0,0,0.1-0.1,0.1-0.1l0.1-0.1l0.2,0l0.1-0.1c0,0,0.4,0.1,0.8-0.3
			C1079.7,469.2,1079.4,469.9,1078.4,469.8z"/>
		<path class="st15" d="M1078.7,469.5l0.1-0.2l0.2-0.1c0,0,0.1-0.1,0.2-0.2c0.1-0.1,0.7-0.5,0.7-1
			C1079.9,468,1080.3,469.3,1078.7,469.5z"/>
		<path class="st15" d="M1078.9,469.1l0.1-0.4c0,0,0.1-0.1,0.1-0.1c0,0,0.1-0.6,0.4-0.9c0,0,0.1-0.6-0.4-1.4
			C1079.2,466.3,1080.9,467.8,1078.9,469.1z"/>
	</g>
	<g>
		<path class="st16" d="M1076.3,464.2l-0.3,0.1L1076.3,464.2c-0.1,0-0.2-0.1-0.4,0.1C1075.9,464.3,1076.2,464.5,1076.3,464.2z"/>
		<path class="st16" d="M1076.5,464.5l0.2,0.1L1076.5,464.5c0,0,0,0.2,0.3,0.2C1076.8,464.7,1076.7,464.5,1076.5,464.5z"/>
		<path class="st16" d="M1076.3,464.6l0.2,0.1L1076.3,464.6c0,0,0,0.1,0.2,0.1C1076.5,464.8,1076.5,464.6,1076.3,464.6z"/>
		<path class="st16" d="M1075.8,464.7l-0.3,0L1075.8,464.7c0,0,0,0.2-0.4,0C1075.5,464.8,1075.8,464.6,1075.8,464.7z"/>
		<path class="st16" d="M1076.5,465l0.2,0.1L1076.5,465c0,0-0.1,0.2,0.3,0.2C1076.7,465.2,1076.6,464.9,1076.5,465z"/>
		<path class="st16" d="M1076.2,465l-0.2,0.2L1076.2,465c0,0,0.2,0.2-0.3,0.3C1076,465.3,1076,465,1076.2,465z"/>
		<path class="st16" d="M1075.8,465.1c0,0-0.3,0-0.3,0L1075.8,465.1c0,0,0,0.4-0.4,0C1075.3,465,1075.7,464.8,1075.8,465.1z"/>
		<path class="st16" d="M1075.6,466.3l0,0.2L1075.6,466.3c0,0,0.2,0.1,0,0.3C1075.6,466.6,1075.4,466.4,1075.6,466.3z"/>
		<path class="st16" d="M1076.3,465.9l-0.2,0.1L1076.3,465.9c0,0,0.2,0.3-0.3,0.2C1075.9,466.1,1076.1,465.8,1076.3,465.9z"/>
		<path class="st16" d="M1075.8,466c0,0,0.2,0.2,0.1,0.3C1075.8,466.2,1075.6,466.1,1075.8,466l0,0.1L1075.8,466z"/>
		<path class="st16" d="M1076.1,466.2l-0.2,0.2L1076.1,466.2c0,0,0.2,0.2-0.3,0.2C1075.8,466.4,1075.9,466.1,1076.1,466.2z"/>
		<path class="st16" d="M1076.5,465.9l0.1,0.2L1076.5,465.9c0,0,0.3-0.1,0.2,0.3C1076.7,466.2,1076.3,466,1076.5,465.9z"/>
		<path class="st16" d="M1076.4,466.2l0.1,0.2L1076.4,466.2c0,0-0.1,0.2,0.2,0.4C1076.6,466.5,1076.7,466.1,1076.4,466.2z"/>
		<g>
			<path class="st16" d="M1078.7,466.4c-0.1-0.2-0.3-0.2-0.3-0.2s0.1,0.1,0.2,0.1c-0.1,0-0.2-0.1-0.2-0.1l-0.1,0c0,0,0,0,0,0
				c0,0-0.2-0.3-0.2-0.3h0.3c0,0-0.1,0.1-0.1,0.1s0.3,0,0.3,0c0,0-0.3,0-0.3,0c0.2,0.2,0.4-0.1,0.4-0.1l-0.2-0.1
				c0,0,0.2-0.1,0.2-0.1c0,0-0.2,0-0.2,0s-0.1,0-0.1,0c0,0-0.4,0-0.4,0c0,0-0.2,0-0.2,0s-0.3-0.1-0.3-0.1c0,0-0.2,0-0.3,0
				c-0.1,0-0.2,0.1-0.2,0.1v-0.4c0.1-0.2,0.3-0.1,0.3-0.1l0.1,0.1l-0.1,0c-0.3,0-0.3,0.3-0.3,0.3c0.2,0,0.3-0.2,0.3-0.2l-0.2,0.1
				l0.3-0.2l0.1,0.2h0l0-0.1c0.2,0.1,0.4-0.2,0.4-0.2c-0.4-0.1-0.4,0.1-0.4,0.1l0.3,0c-0.1,0.1-0.3,0.1-0.3,0.1l-0.1-0.2
				c0,0,0.1,0,0.1,0c0,0,0.5,0.1,0.5,0.1l0.1,0.1l0,0c-0.3,0-0.3,0.3-0.3,0.3c0.3,0,0.3-0.2,0.3-0.2l-0.2,0.1c0.1,0,0.3-0.1,0.3-0.1
				l0.1,0.2l0,0l-0.1-0.1l0.1,0c0.1,0.3,0.4,0.2,0.4,0.2c-0.2-0.3-0.4-0.2-0.4-0.2l0.3,0.2c-0.1,0-0.3-0.2-0.3-0.2l-0.1,0l0-0.1
				c0,0,0,0,0.1,0c0.1,0,0.3,0,0.3,0c0,0,0.1,0,0.1,0c0,0,0,0,0,0c0,0-0.3,0-0.3,0c0,0-0.2,0-0.2,0l-0.4-0.1c0,0-0.2-0.1-0.3-0.1
				c-0.1,0-0.3,0.1-0.3,0.1h0V465l0.1-0.1c0,0,0.2,0,0.2,0c0.1,0.1,0.2,0.4,0.2,0.4h0l-0.1-0.2l0.1,0l-0.1,0l-0.1-0.1c0,0,0,0,0.2,0
				c0.2,0,0.3,0.1,0.3,0.1l0.2,0.4l0.2,0c0.2,0.2,0.5,0,0.5,0c-0.2-0.1-0.3-0.1-0.3-0.1c0.1,0,0.1-0.1,0.2-0.2c0,0-0.3-0.2-0.4,0
				c0,0,0.3,0,0.3,0l-0.3,0c0,0,0,0.2,0.2,0.1c0,0,0,0.1,0,0.1l0.3,0c-0.1,0-0.3,0-0.3,0l-0.1,0l-0.2-0.3l0.4,0l0,0h-0.5l-0.2-0.1
				c0,0-0.3,0-0.4,0c-0.1,0-0.2,0.1-0.2,0.1v-0.4c0.2-0.2,0.5-0.1,0.5-0.1l0,0l-0.1,0l0,0l0.1,0l0.2,0.3l0,0l0,0l0.1,0v0l-0.2,0
				l-0.1-0.2l0.4,0c0,0-0.3,0.1-0.3,0.1c0.2,0.2,0.4-0.1,0.4-0.1c-0.3-0.1-0.4,0.1-0.4,0.1l-0.2,0l-0.1-0.1c0,0,0.4,0,0.4,0v0
				c-0.5,0-0.6-0.1-0.6-0.1c0-0.1,0.2-0.2,0.2-0.2l0,0l-0.1,0.1c-0.1-0.3-0.4-0.2-0.4-0.2c0.1,0.3,0.3,0.3,0.3,0.3
				c-0.1,0-0.2-0.2-0.2-0.2c0.2,0,0.2,0.2,0.2,0.2c0,0-0.1,0.1-0.1,0.1c-0.2,0-0.3,0.1-0.3,0.1l0,0c0.2-0.2,0-0.4,0-0.4
				s-0.2,0.1,0,0.4l0,0c0,0-0.1-0.1-0.3-0.1c0,0,0-0.1-0.1-0.1c0,0,0.1-0.2,0.2-0.2c0,0-0.1,0.2-0.2,0.2c0,0,0.2,0,0.3-0.3
				c0,0-0.3,0-0.4,0.2l-0.1-0.1l0,0c0,0,0.1,0.1,0.2,0.2c0,0-0.1,0.1-0.6,0.1v0c0,0,0.4,0,0.4,0l-0.1,0.1l-0.2,0
				c0,0-0.1-0.2-0.4-0.1c0,0,0.2,0.3,0.4,0.1c0,0-0.3,0-0.3-0.1l0.4,0l-0.1,0.2l-0.2,0v0l0.1,0l0,0l0,0l0.2-0.3l0.1,0l0,0l-0.1,0
				l0,0c0,0,0.3-0.1,0.5,0.1v0.4c0,0-0.1-0.1-0.2-0.1c-0.1,0-0.4,0-0.4,0l-0.2,0.1h-0.5l0,0l0.4,0l-0.2,0.3l-0.1,0
				c0,0-0.3,0.1-0.3,0l0.3,0c0,0-0.1-0.2-0.4,0c0,0,0.2,0.2,0.5,0l0.2,0l0.2-0.4c0,0,0.1-0.1,0.3-0.1c0.2,0,0.2,0,0.2,0l-0.1,0.1
				l-0.1,0l0.1,0l-0.1,0.2h0c0,0,0.1-0.3,0.2-0.4c0.1-0.1,0.2,0,0.2,0l0.1,0.1v0.3h0c0,0-0.1-0.1-0.3-0.1c-0.1,0-0.3,0.1-0.3,0.1
				l-0.4,0.1c0,0-0.1,0-0.2,0c0,0-0.3,0-0.3,0c0,0,0,0,0,0c0,0,0,0,0.1,0c0,0,0.2,0,0.3,0c0.1,0,0.1,0,0.1,0l0,0.1l-0.1,0
				c0,0-0.2,0.2-0.3,0.2l0.3-0.2c0,0-0.2-0.1-0.4,0.2c0,0,0.3,0.1,0.4-0.2l0.1,0l-0.1,0.1l0,0l0.1-0.2c0,0,0.2,0.1,0.3,0.1l-0.2-0.1
				c0,0,0,0.2,0.3,0.2c0,0,0-0.3-0.3-0.3l0,0l0.1-0.1c0,0,0.5-0.1,0.5-0.1c0,0,0.1,0,0.1,0l-0.1,0.2c0,0-0.2,0-0.3-0.1l0.3,0
				c0,0,0-0.1-0.4-0.1c0,0,0.2,0.2,0.4,0.2l0,0.1h0l0.1-0.2l0.3,0.2l-0.2-0.1c0,0,0.1,0.2,0.3,0.2c0,0,0-0.3-0.3-0.3l-0.1,0l0.1-0.1
				c0,0,0.2,0,0.3,0.1v0.4c0,0-0.1-0.1-0.2-0.1c-0.1,0-0.2,0-0.3,0c0,0-0.3,0.1-0.3,0.1s-0.2,0-0.2,0c0,0-0.4,0-0.4,0
				c0,0-0.1,0-0.1,0s-0.2,0-0.2,0c0,0,0.1,0,0.2,0.1l-0.2,0.1c0,0,0.2,0.2,0.4,0.1c0,0-0.3,0-0.3,0c0,0,0.3,0,0.3,0s0-0.1-0.1-0.1
				h0.3c0,0-0.2,0.2-0.2,0.3s0,0,0,0l-0.1,0c0,0-0.1,0.1-0.2,0.1c0.1,0,0.2-0.1,0.2-0.1s-0.2,0-0.3,0.2c0,0,0.1,0.1,0.4-0.1l0,0
				l0,0.2c0,0-0.1,0.1-0.1,0.1c0,0,0,0.3,0,0.3s0.1,0,0.1,0c0,0,0-0.2,0-0.2c0,0,0.1-0.1,0.1-0.1l0,0.2l0.1,0l0-0.2l0-0.1l0-0.2
				l0.1-0.1l0.1-0.1c0,0,0.1,0.1,0.1,0.2c0,0.1,0,0.2,0,0.2c0,0-0.1,0.1-0.1,0.1c0,0,0,0.2,0,0.2s0,0,0,0c0,0,0-0.2,0-0.2
				c0,0,0-0.1,0.1,0c0,0.1,0,0.2,0,0.2s0.1,0,0.1-0.1c0,0,0-0.1,0-0.2c0,0,0,0-0.1-0.2c0-0.1,0-0.2,0-0.2l-0.1-0.1l-0.1-0.1
				c0,0,0.3,0,0.4,0c0.1,0,0.3-0.1,0.3-0.1c0,0-0.1,0.2-0.1,0.2c0,0-0.1,0.2-0.1,0.2c0,0.1,0,0.1,0,0.1s-0.1,0.1-0.1,0.1
				c0,0,0,0.2,0,0.2s0,0,0,0c0,0,0-0.1,0-0.1c0,0,0-0.1,0.1,0c0,0,0,0.1,0,0.1l0,0c0,0,0-0.3,0-0.3c0,0,0.1-0.2,0.1-0.2l0.1-0.2
				c0,0,0,0,0-0.1c0,0,0.1,0,0.1,0c0.1,0,0.1,0.1,0.1,0.1s0,0.2,0,0.2c0,0-0.1,0.2-0.1,0.2c0,0,0,0.1,0,0.1c0,0,0.1,0,0-0.1
				c0,0,0-0.1,0-0.1s0,0,0,0c0,0,0,0,0-0.1c0,0,0-0.1,0-0.2c0-0.1,0-0.2,0-0.2l0,0c0,0,0,0.5,0,0.6c0,0,0,0,0,0h0.2c0,0,0,0,0,0
				c0,0,0-0.6,0-0.6l0,0c0,0,0,0.2,0,0.2c0,0.1,0,0.1,0,0.2c0,0,0,0.1,0,0.1c0,0,0,0,0,0s0,0,0,0.1c0,0,0,0.1,0,0.1c0,0,0-0.1,0-0.1
				c0,0-0.1-0.2-0.1-0.2c0,0,0-0.2,0-0.2s0-0.1,0.1-0.1c0.1,0,0.1,0,0.1,0c0,0,0,0.1,0,0.1l0.1,0.2c0,0,0.1,0.2,0.1,0.2
				c0,0,0,0.3,0,0.3l0,0c0,0,0-0.1,0-0.1c0,0,0,0,0.1,0c0,0,0,0.1,0,0.1c0,0,0,0,0,0s0-0.1,0-0.2c0,0-0.1-0.1-0.1-0.1s0,0,0-0.1
				c0-0.1-0.1-0.2-0.1-0.2c0,0,0,0,0,0c0,0.1,0.1,0.1,0.4,0.1c0,0-0.2-0.3-0.3-0.2l0.2,0.1l-0.3-0.1c0,0,0,0.1,0,0.1
				c0-0.1-0.1-0.2-0.1-0.2c0,0,0.2,0,0.3,0.1c0.1,0,0.4,0,0.4,0l-0.1,0.1l0,0l0-0.1c0,0-0.2,0.2-0.1,0.3c0,0,0,0.1,0,0.1
				c0,0,0,0,0,0c0-0.1-0.1-0.2-0.3-0.2l0.2,0.2l-0.2-0.2c0,0-0.2,0.2,0.3,0.2c0,0.1,0,0.1-0.1,0.1c0,0,0,0.2,0,0.2
				c0,0.1,0.1,0.1,0.1,0.1s0-0.1,0-0.2c0-0.1,0.1,0,0.1,0c0,0,0,0.2,0,0.2c0,0,0,0,0,0s0-0.2,0-0.2c0,0-0.1-0.1-0.1-0.1
				c0,0,0-0.1,0-0.2c0.1,0,0.2-0.1,0.1-0.2c0,0,0,0,0,0l0.1,0.1l0.1,0.1l0,0.2l0,0.1l0,0.2l0.1,0l0-0.2c0,0,0,0.1,0.1,0.1
				c0,0,0,0.2,0,0.2s0.1,0,0.1,0s0-0.2,0-0.3c0,0-0.1-0.1-0.1-0.1l0-0.2l0,0C1078.6,466.5,1078.7,466.4,1078.7,466.4z M1076.9,464.3
				L1076.9,464.3l0-0.2L1076.9,464.3L1076.9,464.3z"/>
			<path class="st16" d="M1077.4,464.2c0.1,0.3,0.4,0.1,0.4,0.1C1077.7,464.1,1077.5,464.2,1077.4,464.2l0.3,0.1L1077.4,464.2z"/>
			<path class="st16" d="M1077,464.7c0.3,0,0.3-0.1,0.3-0.1L1077,464.7l0.3-0.2C1077,464.5,1077,464.7,1077,464.7z"/>
			<path class="st16" d="M1077.2,464.8c0.2,0,0.2-0.1,0.2-0.1L1077.2,464.8l0.2-0.1C1077.3,464.6,1077.2,464.8,1077.2,464.8z"/>
			<path class="st16" d="M1078.3,464.8c0,0-0.3-0.2-0.4,0l0.3,0l-0.3,0C1077.9,464.8,1077.9,465,1078.3,464.8z"/>
			<path class="st16" d="M1077,465.2c0.3,0,0.3-0.2,0.3-0.2L1077,465.2l0.3-0.2C1077.1,464.9,1077,465.2,1077,465.2z"/>
			<path class="st16" d="M1077.8,465.3c0,0,0-0.3-0.3-0.3L1077.8,465.3l-0.3-0.3C1077.5,465,1077.3,465.2,1077.8,465.3z"/>
			<path class="st16" d="M1078.2,466.3l0,0.2L1078.2,466.3c0,0-0.2,0.1,0,0.3C1078.2,466.6,1078.4,466.4,1078.2,466.3z"/>
			<path class="st16" d="M1077.1,466.2c0,0,0.3-0.2,0.2-0.3l-0.1,0.2l0.1-0.2C1077.3,465.9,1077,465.8,1077.1,466.2z"/>
			<path class="st16" d="M1077.2,466.4l0.1-0.2c-0.3-0.1-0.2,0.4-0.2,0.4c0.3-0.1,0.2-0.3,0.2-0.3L1077.2,466.4z"/>
		</g>
	</g>
</g>
<g>
	<path class="st13" d="M1098.2,374.6c0,0,3-4.9,6.8-4.2c3.8,0.7,3.1,8.8,2.6,12.2c-0.5,3.3-7,13.6-11.6,7.4
		C1093.5,386.6,1098.2,374.6,1098.2,374.6z"/>
	<path class="st13" d="M1014.1,371c0,0-4.9-6-7.8,1.2c-2.8,7.2-0.9,18.4,9.1,18.3C1019,390.5,1014.1,371,1014.1,371z"/>
	<path class="st13" d="M1013.7,407.5c0.7-7.7,2.2-19.2,0.3-30.8c-1.9-11.6-8.6-42.6,31.5-50.6c40.1-7.9,60.7,13.5,54.6,43.7
		c-6.1,30.2-2.5,27.1-3.6,36.1c-0.7,5.6-3.3,10.4-9.9,14c-9.5,5.2-27.9,12.6-31.6,12.3c-3.7-0.4-24.7-12.2-33.4-15.3
		C1013.3,414,1013.5,410.5,1013.7,407.5z"/>
	<g class="st17">
		<path d="M1100.6,339.6c-5.8-6.5-4.1-12.9-4.1-12.9s-3.8,0.8-7.8,0.7c-4-0.1-8.5-4.7-13.2-7.5c-4.7-2.9-12.5-0.1-12.5-0.1
			c0.4-4.3,6.4-5.2,6.4-5.2c-10.5,0.4-12.4,5.1-14.4,6c-2,0.9-9.1-2.5-9.1-2.5c-2.2-0.7-2,2.1-6.9,1.6c-5.6-0.5-7.9,0.5-7.9,0.5
			c5.4,0.5,8.4,3.2,8.4,3.2c-6.5-0.5-8.5,6.2-8.5,6.2c-4-3.1-11.1-1.2-15.6,1.9c-4.5,3.1,4.4,1,4.4,1l-2.5,7.4
			c-6.9,8.7-7.3,20.9-6.8,27.9c0.2,0.1,0.4,0.2,0.5,0.4c1.6,2.4,3.7,4.4,4.5,7.1l2.9,0.3c0-0.1,0-0.2,0-0.2l-1.4-8.9
			c0.4-0.6,4-1.9,5.1-6.9c1.1-5,1.5-5.8,1.5-5.8s7.7-2,8.6-2.4c0.8-0.4,7.7-4.9,7.7-4.9l9.5-2c0,0-5.7,5.7-8.4,7
			c2.5-0.6,9.1-2.3,12.3-2.6c3.9-0.4,3.9-0.4,3.9-0.4s10.7-1.2,12.5-1.2c0,0,1.3-3.1-1.1-5.2c0,0,6.4,3.7,8.8,3.6
			c2.4-0.1,6.1-0.5,6.1-0.5l3.7-1.1l1.9-0.4l-3.9,10.3c0,0,5-5.1,6-5.4c0,0-1.3,19.1-3.8,21.1c0,0,4.3-3.1,4.4-4.5
			c0,0-0.2,12.4-0.9,17.4l6,0.6c0.2-2,0.3-3.4,0.3-3.8c0-2.1,2.9-21.5,5.1-26.4C1104.7,348,1106.3,346,1100.6,339.6z"/>
		<path d="M1042.4,416.3c0,0,19.3,0.2,28-3.6c0,0-1.7,9.9-13.2,10C1045.8,422.9,1042.4,416.3,1042.4,416.3z"/>
	</g>
	<path class="st4" d="M1066.3,379.6c0,0-2.8-2.8-1.2-5.7c1.6-2.9,7.5-4.2,11.9-3.7c4.4,0.5,7.4,5,3.7,8.4
		C1077.1,382,1069,382.7,1066.3,379.6z"/>
	<path class="st18" d="M1066.4,380.2c0,0-2.8-2.8-1.2-5.7c1.6-2.9,7.4-3.6,11.8-3c4.4,0.5,7.4,4.3,3.8,7.7
		C1077.2,382.6,1069.1,383.3,1066.4,380.2z"/>
	
		<ellipse transform="matrix(9.513276e-02 -0.9955 0.9955 9.513276e-02 596.5212 1409.3872)" class="st19" cx="1073.5" cy="376.6" rx="2.7" ry="2.7"/>
	<path class="st4" d="M1022.1,365.4c0,0,2.5-1.6,7.3-3.4c3.7-1.4,8.3-1.7,10.6-1c2.4,0.7,6.3,4,4.9,4.6c-1.4,0.6-6.9-0.7-10.5-0.3
		c-3.8,0.4-7.1,1-9.1,1.4C1023.3,367.2,1021.4,367.1,1022.1,365.4z"/>
	<path class="st4" d="M1068,366.2c0,0-4.2,0.9-4.8-1.3c-0.6-2.2,1.8-2.9,6-2.6c4.1,0.3,13.6,3,15.2,5c1.5,2.1,1,1.7-0.4,1.8
		C1082.6,369.1,1076.8,365.7,1068,366.2z"/>
	<g>
		<path class="st4" d="M1103.1,333.3c-6-6.8-4.2-13.5-4.2-13.5s-3.9,0.8-8.1,0.7c-4.2-0.1-8.9-4.9-13.8-7.9
			c-4.9-3-13.1-0.1-13.1-0.1c0.4-4.5,6.7-5.4,6.7-5.4c-10.9,0.5-12.9,5.3-15,6.3c-2.1,1-9.5-2.6-9.5-2.6c-2.3-0.7-2,2.1-7.2,1.7
			c-5.8-0.6-8.3,0.5-8.3,0.5c5.6,0.5,8.7,3.3,8.7,3.3c-6.8-0.5-8.8,6.5-8.8,6.5c-4.2-3.2-11.6-1.3-16.3,2
			c-4.7,3.2-7.2,14.2-7.2,14.2l9.2-5.5c-10.7,13.5-6.4,35.1-6.4,35.1c3.1,1,2.8,2.3,4.1,6.1c1.3,3.8-0.7,25.6-1.2,28.5
			c-0.7,3.6,0,10,5.9,13.6c5.4,3.4,33.2,15.7,37,16.3c3.8,0.5,21.7-8,29.9-11.5c8.8-3.8,10.6-8.9,10.9-11.2
			c0.4-2.3,3.2-33.5,3.2-35.7c0-2.2,3-22.5,5.3-27.6C1107.4,342.1,1109.1,340.1,1103.1,333.3z M1085.4,397.8
			c-1.6,1.2-11.7,4.9-20.8,4c0,0-2,5-6.2,5.3c-4.2,0.3-8.3-0.7-9.7-1.4c-3.8-2-4.2-3.7-4.2-3.7s-9.8-0.3-13.1-1.3
			c-3.3-1-9.7-5.9-10.9-14c-1.2-8.2-3-15.7-3-15.7l-1.4-9.3c0.4-0.6,4.2-1.9,5.4-7.2c1.2-5.2,1.6-6,1.6-6s8.1-2.1,8.9-2.5
			c0.9-0.4,8-5.1,8-5.1l9.9-2.1c0,0-6,6-8.7,7.3c2.6-0.7,9.6-2.4,12.8-2.8c4.1-0.4,4.1-0.4,4.1-0.4s11.2-1.3,13-1.3
			c0,0,1.3-3.2-1.2-5.5c0,0,6.7,3.8,9.2,3.7c2.5-0.1,6.4-0.6,6.4-0.6l3.9-1.2l2-0.4l-4.1,10.8c0,0,5.2-5.4,6.2-5.6
			c0,0-1.4,20-4,22.1c0,0,4.5-3.3,4.6-4.7c0,0-0.3,15.4-1.2,19.3C1093,379.4,1090.5,394.2,1085.4,397.8z"/>
		<path class="st8" d="M1048.9,388.6c0,0-1.3,10.4-4.7,11.9c-3.3,1.5,4,7.4,10.4,7.2c6.4-0.2,10.1-2,10.1-5.6c0-3.5-1.9-4.9-1.9-4.9
			s2.3,4.4,0.2,6.2c-2,1.8-5.5,3.2-8.9,3.3c-3.4,0.2-10.7-3.7-9-5.4C1046.8,399.8,1049.7,394.7,1048.9,388.6z"/>
		<path class="st20" d="M1042.4,413.5c0,0,20.2,0.2,29.3-3.7c0,0-1.8,10.3-13.8,10.4C1045.9,420.3,1042.4,413.5,1042.4,413.5z"/>
	</g>
	<g class="st21">
		<g>
			<path class="st8" d="M1022.4,387.1c0,0,0.3-0.3,0.7-0.8c0.4-0.4,1-1,1.7-1.5c0.6-0.5,1.3-1,1.8-1.4c0.5-0.3,0.9-0.5,0.9-0.5
				s-0.3,0.3-0.7,0.8c-0.4,0.4-1,1-1.7,1.5c-0.6,0.5-1.3,1-1.8,1.4C1022.8,386.9,1022.4,387.1,1022.4,387.1z"/>
		</g>
		<g>
			<path class="st8" d="M1028.4,387c0,0,0.3-0.3,0.7-0.8c0.4-0.4,1-1,1.7-1.5c0.6-0.5,1.3-1,1.8-1.4c0.5-0.3,0.9-0.5,0.9-0.5
				s-0.3,0.3-0.7,0.8c-0.4,0.4-1,1-1.7,1.5c-0.6,0.5-1.3,1-1.8,1.4C1028.8,386.8,1028.4,387,1028.4,387z"/>
		</g>
		<g>
			<path class="st8" d="M1034.3,387.6c0,0,0.3-0.3,0.7-0.8c0.4-0.4,1-1,1.7-1.5c0.6-0.5,1.3-1,1.8-1.4c0.5-0.3,0.9-0.5,0.9-0.5
				s-0.3,0.3-0.7,0.8c-0.4,0.4-1,1-1.7,1.5c-0.6,0.5-1.3,1-1.8,1.4C1034.7,387.4,1034.3,387.6,1034.3,387.6z"/>
		</g>
		<g>
			<path class="st8" d="M1040.3,388.2c0,0,0.3-0.3,0.7-0.8c0.4-0.4,1-1,1.7-1.5c0.6-0.5,1.3-1,1.8-1.4c0.5-0.3,0.9-0.5,0.9-0.5
				s-0.3,0.3-0.7,0.8c-0.4,0.4-1,1-1.7,1.5c-0.6,0.5-1.3,1-1.8,1.4C1040.7,388,1040.3,388.2,1040.3,388.2z"/>
		</g>
	</g>
	<g class="st21">
		<g>
			<path class="st8" d="M1062.4,388.9c0,0,0.3-0.3,0.7-0.8c0.4-0.4,1-1,1.7-1.5c0.6-0.5,1.3-1,1.8-1.4c0.5-0.3,0.9-0.5,0.9-0.5
				s-0.3,0.3-0.7,0.8c-0.4,0.4-1,1-1.7,1.5c-0.6,0.5-1.3,1-1.8,1.4C1062.8,388.7,1062.4,388.9,1062.4,388.9z"/>
		</g>
		<g>
			<path class="st8" d="M1068.4,388.8c0,0,0.3-0.3,0.7-0.8c0.4-0.4,1-1,1.7-1.5c0.6-0.5,1.3-1,1.8-1.4c0.5-0.3,0.9-0.5,0.9-0.5
				s-0.3,0.3-0.7,0.8c-0.4,0.4-1,1-1.7,1.5c-0.6,0.5-1.3,1-1.8,1.4C1068.8,388.6,1068.4,388.8,1068.4,388.8z"/>
		</g>
		<g>
			<path class="st8" d="M1074.4,389.4c0,0,0.3-0.3,0.7-0.8c0.4-0.4,1-1,1.7-1.5c0.6-0.5,1.3-1,1.8-1.4c0.5-0.3,0.9-0.5,0.9-0.5
				s-0.3,0.3-0.7,0.8c-0.4,0.4-1,1-1.7,1.5c-0.6,0.5-1.3,1-1.8,1.4C1074.7,389.2,1074.4,389.4,1074.4,389.4z"/>
		</g>
		<g>
			<path class="st8" d="M1080.3,390c0,0,0.3-0.3,0.7-0.8c0.4-0.4,1-1,1.7-1.5c0.6-0.5,1.3-1,1.8-1.4c0.5-0.3,0.9-0.5,0.9-0.5
				s-0.3,0.3-0.7,0.8c-0.4,0.4-1,1-1.7,1.5c-0.6,0.5-1.3,1-1.8,1.4C1080.7,389.8,1080.3,390,1080.3,390z"/>
		</g>
	</g>
	<path class="st8" d="M1044.3,376.2c0,0-1.7-5-5.5-5c0,0,2.6,0.4,2.9,2.3c0,0-8.6-4.6-17.4,2.3c0,0,10-6,16.8-0.5c0,0-3.7-1.6-6.1,1
		c0,0,3.9-1.4,5.6,0C1043.5,378.7,1044.3,376.2,1044.3,376.2z"/>
	<g>
		<path class="st4" d="M1044.3,376.2c0,0-0.3-0.2-0.7-0.5c-0.5-0.3-1.2-0.8-2.1-1.2c-0.4-0.2-0.9-0.4-1.5-0.7
			c-0.5-0.2-1.1-0.4-1.7-0.6c-0.6-0.1-1.2-0.3-1.9-0.4c-0.3,0-0.6-0.1-1-0.1l-1,0c-0.7-0.1-1.3,0.1-1.9,0.1
			c-0.6,0.1-1.3,0.2-1.9,0.3c-0.6,0.2-1.2,0.3-1.7,0.5c-0.5,0.1-1,0.4-1.5,0.6c-0.5,0.2-0.9,0.4-1.2,0.6c-0.4,0.2-0.7,0.4-0.9,0.5
			c-0.5,0.3-0.8,0.4-0.8,0.4s0.3-0.2,0.8-0.5c0.2-0.2,0.5-0.4,0.9-0.6c0.3-0.2,0.7-0.4,1.2-0.7c0.5-0.2,0.9-0.5,1.5-0.7
			c0.5-0.2,1.1-0.4,1.7-0.6c0.6-0.1,1.3-0.3,1.9-0.4c0.7,0,1.3-0.2,2-0.1l1,0.1c0.3,0,0.7,0.1,1,0.1c0.7,0.1,1.3,0.3,1.9,0.4
			c0.6,0.2,1.2,0.4,1.7,0.6c0.5,0.2,1,0.5,1.4,0.7c0.9,0.5,1.5,1,2,1.4C1044,375.9,1044.3,376.2,1044.3,376.2z"/>
	</g>
</g>
<path class="st13" d="M1007.5,503.3c-0.1-0.6-0.5-1.3-0.8-1.8c-0.4-0.8-0.8-1.4-1.3-2.1c-0.4-0.6-0.7-1-1.1-1.5
	c-0.1-0.2-0.5-0.5-1-1c-0.6-0.5-1.4-1.2-2.6-1.9c-0.5-0.4-1-0.7-1.3-0.8c-0.3-0.1-0.2-0.1-1.1-0.5c-0.5-0.2-0.6-0.3-0.7-0.3
	c-0.6,0-1.1,1-1.3,1.5c-0.6,1.5-1.3,2.9-1.9,4.3c0,0-1.9,3.9-3.8,7c-1.7,2.8-3.2,4.9-4.3,6.3c-1.1-3.5-2.5-8.5-3.8-14.8
	c-0.4-1.8-0.6-3.7-1.9-11.3c-0.5-3.3-1.3-7.9-2.1-13.5c0.2-0.1,0.4-0.3,0.5-0.4c2.3-1.9,3.1-3.1,3.4-5.9c0.3-2.7,0.8-5.6-1-7.4
	c-1.1-1.1-1.2-1.4-2.3-1.4c0,0-0.1-0.1-0.2-0.4c-0.1-0.9-1.4-16.1-1.8-17.7c-0.9-3.7-5.4-3.1-5.4-0.3s0.2,6.7,1.3,14.6
	c0,0-0.6-1.3-2.5-1.2c-1.9,0.1-2.1,1.3-2.1,1.3s-1.9-1.2-3-0.8c-1.1,0.4-1.7,1.1-1.7,1.1s-2.8-0.6-3.1,0.4
	c-1.8,5.2,0.3,17.5,6.2,19.2c2.5,16.4,5.1,32.8,7.6,49.3c1.8,6.5,6,10.8,10,10.8c3.3-0.1,6-3.2,7.3-4.7c0.3-0.3,0.5-0.7,1.1-1.4
	c2-2.7,2.8-4.3,4.3-6.9c2-3.3,4-6.3,4.9-7.5c0.8-1.2,1.6-2.5,2.4-3.8C1006.7,506.5,1008,505,1007.5,503.3z"/>
<path class="st5" d="M991.7,492.3c5.8,6.3,11.7,12.6,17.5,18.8c0-1-0.2-10.7-7.9-15.9C997.5,492.7,993.6,492.4,991.7,492.3z"/>
<g>
	<g>
		<path class="st22" d="M939.9,582.2l-3.2-29.5c-0.1-0.7-0.6-1.1-1.3-1.1l-47.6,4.7l-2.9,0.4c-0.6,0.1-1,1.9-0.9,2.6l3.1,28.6
			c0.3,3.1,3.1,5.4,6.2,5.1l41.7-4.5C938,588.1,940.2,585.3,939.9,582.2z"/>
		<path class="st20" d="M941.1,581.3l-3.1-28.6c-0.1-0.7-0.6-1.1-1.3-1.1l-50.4,5.4c-0.6,0.1-1.1,0.7-1,1.3l3.1,28.6
			c0.3,3.1,3.1,5.4,6.2,5.1l41.7-4.5C939.2,587.3,941.4,584.5,941.1,581.3z"/>
		<path class="st22" d="M943,580.4l-3.1-28.6c-0.1-0.7-0.6-1.1-1.3-1.1l-50.4,5.4c-0.6,0.1-1.1,0.7-1,1.3l3.1,28.6
			c0.3,3.1,3.1,5.4,6.2,5.1l41.7-4.5C941.1,586.4,943.3,583.6,943,580.4z"/>
		
			<rect x="904.8" y="553.8" transform="matrix(0.9943 -0.1065 0.1065 0.9943 -55.6975 100.2671)" class="st23" width="12.4" height="35.6"/>
		
			<rect x="886.4" y="578.4" transform="matrix(0.9943 -0.1065 0.1065 0.9943 -56.4872 100.6852)" class="st24" width="56.3" height="1.8"/>
		<polygon class="st25" points="887,562 886.8,560.2 881.6,560.7 882.8,562.4 882,564.3 887.2,563.7 		"/>
	</g>
	<ellipse class="st3" cx="847.7" cy="792.4" rx="53.1" ry="11.9"/>
	<ellipse class="st3" cx="935.5" cy="792" rx="53.1" ry="11.9"/>
	<path class="st26" d="M922.6,587.9c-0.8-3,0-8.8-2.3-11c-0.5-0.5-1.1-0.9-1.8-1.1c0,0-0.1-0.1-0.1-0.1c-2.1-5.6-0.9-25.8,0.1-39.5
		c0.4-6.2-3-14.9-4.6-20.9c-1.1-4,1-11.8-4.4-12.4c-6.6-0.7-10.5,7.1-11.5,11.7c-2,8.6-1,8.8,0.2,20.8c1,9.5,13.7,32.3,7.7,41.5
		c0,0-2.8,3.4-3.3,3.9c-0.7,0.9-1.1,3-1.1,5.4c-0.1,2.2,2.2,2.2,2.7,4.3c0.5,2.2,0,6.8,0.9,7.2c3.2,1.5,3.1-0.6,5.7-0.8
		c5.2-0.5,7.1,0.6,10.4-3.2C923.1,591.4,923,589.4,922.6,587.9z"/>
	<path class="st0" d="M919,522.3c-0.8-3.9-3.5-12.1-4-17.1c-1.7-18.5-1.4-36.9-2.3-55.4c-0.3-6.4-1.1-12.8-1.6-19.3
		c-0.3-5.1-0.6-10.1-3-14.7c-0.3-0.5-0.8-0.4-1.1-0.1c-0.3,0-0.5,0.1-0.7,0.4c-1.6,3.7-1.4,7.9-2.4,11.8c-1.4,5.7-3.3,11.3-4.7,17
		c-2.6,10.9-3.5,22-3.8,33.2c-0.4,11.9-0.1,23.8,0.3,35.6c0.2,5.2,0.7,10.5,0.4,15.7c-0.1,3.4-0.9,7.1,0.9,10.2
		c1.2,2.1,4.2,2,6.2,1.7c4.4-0.7,8.8-1.4,13-2.8c1.5-0.5,5.6-1.5,5.8-3.2C922.5,530,920.7,530.3,919,522.3z"/>
	<path class="st27" d="M922.5,525.3c0,0-0.1,5.9-0.1,8.2c0,1.6,0.1,4.7-0.1,6.3c-0.1,1-2.4,2.1-14.8,2.7
		c-11.4,0.6-11.9,1.9-14.9,0.1c-4.8-2.8-7.2-14.5-3.1-17.4c3.1-2.2,13.4-0.4,17.8-0.5C911.1,524.6,919.6,523.2,922.5,525.3z"/>
	<path class="st28" d="M908.3,498.7c-1.2,0-2.5,0.2-3.7,0.5c-1,0.2-2.6,0.9-3,2c-0.4,1.1,1.4,1.6,1.6,0.6c0.2-0.7,1.6-1.1,2.1-1.4
		c0.9-0.5,1.9-1.1,2.9-1.3C908.5,499,908.5,498.7,908.3,498.7z M910.1,494.8c-3.9,0.3-7-0.6-10.8-1.4c-0.2-0.1-0.5,0.1-0.2,0.2
		c2.8,1.2,8.4,3,11.7,2.3C911.8,495.7,911.3,494.7,910.1,494.8z M906.9,490.9c-2.8-0.6-4.8-1.9-7.3-3.2c-0.2-0.1-0.4,0-0.2,0.1
		c1.7,1.4,5.3,3.9,7.8,4C907.9,491.8,907.8,491,906.9,490.9z"/>
	<path class="st2" d="M874.7,400.2c-0.9-2-4.5-2.7-6.4-3.1c-3.7-0.9-7.5-1.9-11.4-2.3c-4-0.4-9.1-1.8-12.8,0.2
		c-3.4-0.1-0.2,6.4,2.1,7.2c4.3,1.6,9.3,1.3,13.8,1.5c4.4,0.2,8.9,0.6,13.3-0.1C875.1,403.2,875.3,401.5,874.7,400.2z"/>
	<path class="st29" d="M900.5,411.5c-8.4-2.6-13.9-2.8-23.2-6.6c-7.9-3.5-7.1-15.4-6.4-25.9c-3.3-4.6-21.9-0.4-21.9-0.4
		s2.6,19.5-8.9,23.9c-0.3,0.1-0.5,0.3-0.8,0.4c-6,1.9-13,1.5-20.3,2.4c-18.8,2.3-13.7,2.7-10,31.6c0.6,4.8,7.1,28.3,10.4,49.3
		c2.3,15,1.6,46.4,1.6,51.4c0,14.1,5.9,31.3,9,33.7c1.8,1.4,18.6-1.3,34.4-0.4c11.5,0.7,22.4,6,26.6,2.7c10-7.6,9.4-17.2,10.1-30.6
		c0.5-9.5,2.5-55.2,4.6-82.6c0.8-10.8,1.8-19.1,1.8-20.8C907.5,416.2,911.7,415,900.5,411.5z"/>
	<path class="st30" d="M977.2,783.8c0-1.7-16-3.1-35.7-3.1c-19.7,0-35.7,1.4-35.7,3.1c0,0.4,0,2.4,0,3.1c0,2.7,16,4.9,35.7,4.9
		c19.7,0,35.7-2.2,35.7-4.9C977.2,786.2,977.2,784.2,977.2,783.8z"/>
	<path class="st31" d="M968.6,775.9c-3.4,0.6-31.4-8.4-35.3-10c-3.8-1.6-7.4-3.8-11.3-5c-4.8-1.4-10.8,3-13.4,7.2
		c-2.1,3.6-3.9,9.7-2.3,13.8c0.8,2,2.7,2.4,4.4,2.8c3.8,0.9,7.5,0.9,11.3,1.1c9,0.5,49.5,2.2,54.9-2.3
		C978.8,782,977.2,774.4,968.6,775.9z"/>
	<g>
		<path class="st0" d="M900.5,411.5c-8.4-2.6-13.9-2.8-23.2-6.6c-1.6-0.7-2.8-1.7-3.7-3l-5.4,9.1v-0.7H857v0.2l-11.8-11.8
			c-1.3,1.6-2.9,3-5,3.8c-0.3,0.1-0.5,0.3-0.8,0.4c-6,1.9-13,1.5-20.3,2.4c-18.8,2.3-13.7,2.7-10,31.6c0.6,4.8,7.1,28.3,10.4,49.3
			c2.3,15,1.6,46.4,1.6,51.4c0,14.1,5.9,31.3,9,33.7c1.8,1.4,18.6-1.3,34.4-0.4c8.5,0.5,16.6,3.5,21.9,3.7c1.5-0.3,3-0.6,4.5-0.9
			c0.1,0,0.1-0.1,0.2-0.1c10-7.6,9.4-17.2,10.1-30.6c0.5-9.8,2.5-55.6,4.6-82.6c0.7-9.6,1.8-19.3,1.8-20.8
			C907.5,416.2,911.7,415,900.5,411.5z"/>
		<path class="st0" d="M860.2,418.1c-0.1-0.8-0.2-1.5-0.3-2.3C860.1,416.5,860.2,417.3,860.2,418.1z"/>
	</g>
	<path class="st32" d="M901.4,538.8c-11.6,0.9-24.5,5.2-37.7,4.3c-15.4-1-29.8-3.2-42.6-6.3c-0.4,37.6,7.7,64.4,12.2,101.2
		c1.5,12.2,2.8,23.1,3.7,31.5c1.4,13.7,3.6,41.2,5.5,65.7c0.6,7.6-0.6,22.3-0.5,24c0.1,3.2,1.6,3.5,1.8,6.2c0.1,1.6-1.3,3.7-1.2,5.1
		c0.1,1.3,2.4,2.2,1.7,3.1c-0.8,0.9-4.9,4.2-1.5,7.1c3,2.6,19.2-0.4,19.2-0.4s15.6,1,18-1.9c1.5-1.8-1.6-5.7-3.7-6.3
		c-1.1-0.3,1.9-0.9,1.7-2.3c-0.2-1.4-2.1-4.9-2.4-6.5c-1.4-8.5-3.9-18.9-5.6-30.4c-3.5-23.4-6.8-49.6-6.5-63.6
		c0.2-9.1-1.5-17.7-2.1-31.7c-0.9-18.7-1.3-38.7-1.4-51.4c0-2.9,2.1-6.8,6.3-9.2c3.1-1.7,6.3,10,7.4,13.1
		c7.3,20.4,17.2,63.4,20.5,85.2c3,19.4,7.8,67.8,10.1,92.2c0.2,1.9-1.7,4.3-1.6,5.9c0.2,2,2.2,2.9,2.1,4.2c-0.2,2.3-0.4,3.5,0.8,4.5
		c3.1,2.5,10.2-2.6,13.6-4.5c3.6-2,9-13.1,17.4-10.6c1.7,0.5,3.1-1.5,1.9-4.4c-0.4-1-3.4-1.3-3.6-2.7c-0.2-1.2,0.5-2.8,0.2-4.2
		c-0.4-2-1.7-3.8-2.1-6c-4.8-25.1-13.1-64.7-16.4-84.7C911.4,634.3,900.7,584.4,901.4,538.8z"/>
	<path class="st32" d="M901.4,538.8c-11.6,0.9-24.5,5.2-37.7,4.3c-15.4-1-29.8-3.2-42.6-6.3c-0.4,37.6,7.7,64.4,12.2,101.2
		c1.5,12.2,2.8,23.1,3.7,31.5c1.4,13.7,3.6,41.2,5.5,65.7c0.6,7.6-0.6,22.3-0.5,24c0.1,3.2,1.6,3.5,1.8,6.2c0.1,1.6-1.3,3.7-1.2,5.1
		c0.1,1.3,2.4,2.2,1.7,3.1c-0.8,0.9-4.9,4.2-1.5,7.1c3,2.6,19.2-0.4,19.2-0.4s15.6,1,18-1.9c1.5-1.8-1.6-5.7-3.7-6.3
		c-1.1-0.3,1.9-0.9,1.7-2.3c-0.2-1.4-2.1-4.9-2.4-6.5c-1.4-8.5-3.9-18.9-5.6-30.4c-3.5-23.4-6.8-49.6-6.5-63.6
		c0.2-9.1-1.5-17.7-2.1-31.7c-0.9-18.7-1.3-38.7-1.4-51.4c0-2.9,2.1-6.8,6.3-9.2c3.1-1.7,6.3,10,7.4,13.1
		c7.3,20.4,17.2,63.4,20.5,85.2c3,19.4,7.8,67.8,10.1,92.2c0.2,1.9-1.7,4.3-1.6,5.9c0.2,2,2.2,2.9,2.1,4.2c-0.2,2.3-0.4,3.5,0.8,4.5
		c3.1,2.5,10.2-2.6,13.6-4.5c3.6-2,9-13.1,17.4-10.6c1.7,0.5,3.1-1.5,1.9-4.4c-0.4-1-3.4-1.3-3.6-2.7c-0.2-1.2,0.5-2.8,0.2-4.2
		c-0.4-2-1.7-3.8-2.1-6c-4.8-25.1-13.1-64.7-16.4-84.7C911.4,634.3,900.7,584.4,901.4,538.8z"/>
	<path class="st0" d="M901.4,538.8c-11.6,0.9-24.5,5.2-37.7,4.3c-15.4-1-29.8-3.2-42.6-6.3c-0.4,37.6,7.7,64.4,12.2,101.2
		c1.5,12.2,2.8,23.1,3.7,31.5c1.4,13.7,3.6,41.2,5.5,65.7c0.6,7.6-0.6,22.3-0.5,24c0.1,3.2,1.6,3.5,1.8,6.2c0.1,1.6-1.3,3.7-1.2,5.1
		c0.1,1.3,2.4,2.2,1.7,3.1c-0.8,0.9-4.9,4.2-1.5,7.1c3,2.6,19.2-0.4,19.2-0.4s15.6,1,18-1.9c1.5-1.8-1.6-5.7-3.7-6.3
		c-1.1-0.3,1.9-0.9,1.7-2.3c-0.2-1.4-2.1-4.9-2.4-6.5c-1.4-8.5-3.9-18.9-5.6-30.4c-3.5-23.4-6.8-49.6-6.5-63.6
		c0.2-9.1-1.5-17.7-2.1-31.7c-0.9-18.7-1.3-38.7-1.4-51.4c0-2.9,2.1-6.8,6.3-9.2c3.1-1.7,6.3,10,7.4,13.1
		c7.3,20.4,17.2,63.4,20.5,85.2c3,19.4,7.8,67.8,10.1,92.2c0.2,1.9-1.7,4.3-1.6,5.9c0.2,2,2.2,2.9,2.1,4.2c-0.2,2.3-0.4,3.5,0.8,4.5
		c3.1,2.5,10.2-2.6,13.6-4.5c3.6-2,9-13.1,17.4-10.6c1.7,0.5,3.1-1.5,1.9-4.4c-0.4-1-3.4-1.3-3.6-2.7c-0.2-1.2,0.5-2.8,0.2-4.2
		c-0.4-2-1.7-3.8-2.1-6c-4.8-25.1-13.1-64.7-16.4-84.7C911.4,634.3,900.7,584.4,901.4,538.8z"/>
	<path class="st7" d="M821,534.2c0,0,40.2,5.9,44.8,5.8c4.5-0.1,34.7-3.1,35.9-3.5l-0.4,6.6c0,0-26.3,4.2-29.1,4.3s-20.3-0.9-24.3-1
		s-21.8-2.9-21.8-2.9l-5.1-1.1V534.2z"/>
	<g>
		<path class="st28" d="M859.9,759.6c0.2,0,0.2-0.4,0-0.4c-5-1.3-13.2-2.3-17.6,2.5c0.5,1.1,1.1,1.9,1.3,3.5
			C846.5,759.3,855.4,759.6,859.9,759.6z"/>
		<path class="st28" d="M870.2,761.1c2.3,1.6,5.2,3.5,6.8,6.5c-0.6-1.5-1.4-3.3-1.6-4.3c-0.1-0.8-0.3-1.5-0.4-2.3
			c-0.8-0.5-1.7-0.9-2.5-1.3c-3.4-1.5-6.9-3-10.5-3.9c-0.4-0.1-0.6,0.6-0.2,0.8C864.6,758.1,867.6,759.2,870.2,761.1z"/>
	</g>
	<g>
		<path class="st28" d="M919,762.8c-0.2,0.1-0.1,0.4,0.1,0.3c4.9-1.3,14.7-4,19.2-0.2c0-0.1-0.1-0.2-0.1-0.4c-0.4-1-3.4-1.3-3.6-2.7
			c-0.1-0.3,0-0.7,0-1.1C929.3,758.6,923.1,760.9,919,762.8z"/>
		<path class="st28" d="M904,768.1c1.6-2.4,4.4-4.2,6.7-5.7c2.9-1.9,6.1-3.2,9.1-4.9c0.4-0.2,0.1-0.8-0.3-0.7
			c-4,1.2-7.8,2.9-11.6,4.6c-1.4,0.7-2.9,1.5-4.3,2.5c0.1,1.2,0.2,2.5,0.3,3.6C904.1,767.7,904,767.9,904,768.1z"/>
		<path class="st28" d="M920.5,767.7c-4,1.2-7.8,2.9-11.6,4.6c-1.8,0.9-3.8,2-5.5,3.4c0.6,0.7,1.2,1.3,1.1,2
			c-0.1,0.9-0.1,1.6-0.1,2.2c1.4-2.9,4.7-4.9,7.3-6.6c2.9-1.9,6.1-3.2,9.1-4.9C921.2,768.1,920.9,767.5,920.5,767.7z"/>
	</g>
	<path class="st26" d="M838.6,552.2c-3.2-2.7-6.5-7-11.1-7.9c-0.7-0.1-1.4-0.2-2.1-0.1c-0.1,0-0.1,0-0.2-0.1
		c-8.4-3.7-12.1-23.1-18.6-35.3c-2.9-5.5-10.1-12.7-14.7-17c-3.1-2.9-8.5-7.5-13.5-5.2c-6.1,2.7-5.1,11.4-3.5,15.8
		c3,8.4,5.6,7,11.4,17.7c3.1,5.9,27.4,27.2,28.7,34.2c0,0,0,0,0,0c-0.3,0.8-0.5,1.6-0.5,2.3c-0.4,3.4,3.6,8.9,4.9,11.4
		c1.8,3.5,3.6,5.1,6.4,6.4c2.9-2,5.8-3.8,7.9-5.3c4.2-3,7.2-7.1,11-10.3C843.1,556.3,841,554.2,838.6,552.2z"/>
	<path class="st0" d="M806.5,408.3c-5,5.2-15.1,35.5-18.2,43.9c-3.1,8.4-11.5,23.6-13.4,27.8c-5.6,12.1-6.9,16.7,1.8,27.8
		c10.8,13.7,9.5,14,10.2,15.4c0.7,1.4,24.1-9.3,22.7-12c-0.9-1.7-5.4-8.3-8.6-13.2c-0.5-0.7,0.9-4,0.5-4.6c-1-1.7-3.6-0.4-3.6-0.8
		c-0.1-0.6,3.7-1.3,4.1-2.4c0.3-1-2.1-1.4-1.5-2.8c0.6-1.5,1.7,0.5,2.2-1.4c2.9-10.8,10.6-24.9,12.2-27.2c4.8-7,3.3-21.1,1.2-31.5
		C811.6,405,806.5,408.3,806.5,408.3z"/>
	<path class="st27" d="M812.2,513.7c-0.7-1.8-2.2-3.8-3.5-5.1c-1-2-1.8-4.2-3.2-5.9c-0.1-0.5-0.5-0.9-0.9-1.2c0-0.3-0.2-0.6-0.6-0.7
		c-1.9-0.6-4,0.6-5.7,1.3c-3.9,1.8-7.6,4.2-11.1,6.5c-1.7,1.1-5.4,2.7-6.9,4.7c-0.5,0.5-0.8,1-0.9,1.6c-0.1,0.1-0.2,0.3-0.1,0.4
		c0,0,0.1,0.1,0.1,0.1c0.1,1,0.7,2.2,1.3,3.1c1.7,2.5,4,4.6,6,7c0.2,0.7,0.3,1.3,0.6,2c0.5,1.4,1.6,2.7,3.3,2.4
		c2.7-0.5,4.9-2.2,7.1-3.7c0.3-0.2,0.6-0.4,0.9-0.6c0.2-0.1,0.4-0.2,0.6-0.3c1.7-0.9,3.6-1.8,5.2-2.9c0.5-0.3,0.9-0.5,1.4-0.8
		c1.1-0.5,3.4-1.5,5-2.7c0.2,0,0.4,0,0.5-0.1C813.5,517.5,813.2,515.5,812.2,513.7z"/>
	<path class="st28" d="M794.3,518.2c-1,0.9-2.1,1.7-3,2.6c-0.9,1-2.2,2.3-2.2,3.7c0,0.3-0.2,0.7-0.6,0.7c-0.1,0-0.1,0-0.2,0
		c-0.5,0-0.8-0.5-0.7-1c0.2-1.5,1.5-2.8,2.6-3.6c1.3-1,2.6-1.9,4-2.7C794.3,517.9,794.5,518.1,794.3,518.2z M807.6,508.3
		c-4.5-3.1-10.3,2-13.1,5.2c-0.1,0.1,0,0.2,0.2,0.1c2.7-2,8.3-6.5,11.7-3.8C807.5,510.8,808.8,509.1,807.6,508.3z M786.4,513.2
		c-1.1,0.4-2.3,1-3.3,1.7c-0.9,0.6-2.1,1.7-2.1,2.9c0,1.1,1.9,1.1,1.7,0c-0.1-0.7,1.1-1.6,1.5-2.1c0.7-0.8,1.4-1.6,2.3-2.2
		C786.6,513.4,786.5,513.1,786.4,513.2z M799.4,486c-2.6-2.1-6.9-2.8-9.9-0.8c0,0,0,0.1,0,0.1c1.2,0.2,2.5-0.1,3.7-0.2
		c2-0.1,3.6,0.7,4.9,2.1C798.9,488.1,800.3,486.7,799.4,486z M796.5,491.8c-1.4-1-4.1-0.6-5.7-0.6c-2.2,0-4.5,0.3-6.4,1.4
		c-0.1,0.1,0,0.3,0.1,0.2c2.5-0.8,4.9-0.7,7.5-0.1c1.4,0.3,3.2,1,4.5,0.2C797,492.7,796.9,492.1,796.5,491.8z M782,493.9
		c-2.8,0.7-5.1,3-6.9,5.1c-1.2,1.4,1.6,2.6,1.8,0.7c0.3-2.6,3.2-4.2,5.2-5.6C782.3,494,782.2,493.9,782,493.9z M799.8,496.8
		c-2.9,0.2-5.2-0.5-8-1c-0.2,0-0.3,0.1-0.2,0.2c2.1,0.9,6.2,2.2,8.6,1.7C800.9,497.4,800.6,496.7,799.8,496.8z"/>
	<path class="st30" d="M881.2,785.8c0-1.7-9.8-3.1-22-3.1s-22,1.4-22,3.1c0,0.4,0,2.4,0,3.1c0,2.7,9.8,4.9,22,4.9s22-2.2,22-4.9
		C881.2,788.3,881.2,786.3,881.2,785.8z"/>
	<path class="st31" d="M837.7,785.5C837.7,785.5,837.7,785.5,837.7,785.5c-0.1,0.3-0.1,0.6,0.2,0.7c6,1.2,12.5,2,18.6,1.5
		c6.7,0.4,24.5-1,24.6-1.8c0.8-5.4,0-13.6-22-12.1C843.4,774.8,838.8,781,837.7,785.5z"/>
	<path class="st31" d="M865.5,776.1c-12.9-1.6-21.5,2.1-24.8,9.9c0,0.1,0.1,0.1,0.2,0.1c5.6,1.2,11.5,2,17.2,1.5
		c4.2,0.3,13.2-0.3,18.5-0.9C875.6,780.2,872.9,777.1,865.5,776.1z"/>
	<path class="st0" d="M826.1,592.4c-1.8-7.6-5.5-18.1-6.7-20.8c-1.2-2.7-1.2-2.9,1.6-4.4c2.8-1.5,17.2-8.6,20.2-16.9
		c0.9-2.4,3.2,0.5,4.2,1.5C846.3,552.7,841.8,585.6,826.1,592.4z"/>
	<path class="st0" d="M887.1,549.4c1.4-1.5,2.1-0.5,3.7,3.1c1.6,3.7,8.8,12.8,11.4,14c2.6,1.2,2.4,4.1,1.5,5.3
		c-0.9,1.2-0.6,11.8-0.1,15.7c-6.3-2-19.1-22.8-19-33.3C885.8,551.5,887.1,549.4,887.1,549.4z"/>
	<path class="st27" d="M845.4,551.9c0,0,0-0.1,0-0.1c-0.9-1-3.3-3.9-4.2-1.5c-3,8.3-17.4,15.4-20.2,16.9c-2.8,1.5-2.8,1.7-1.6,4.4
		c0.1,0.2,0.2,0.5,0.3,0.8C828.4,569.2,839.8,560.1,845.4,551.9z"/>
	<path class="st27" d="M902.2,566.5c-2.6-1.2-9.7-10.3-11.4-14c-1.6-3.7-2.3-4.6-3.7-3.1c0,0-0.3,0.5-0.8,1.3
		c3.3,7.6,10.6,17,17.2,21.5c0-0.1,0.1-0.2,0.1-0.3c0.2-1,0.4-1.7,0.6-2c0,0,0,0,0-0.1C904.4,568.6,903.8,567.2,902.2,566.5z"/>
	<path class="st28" d="M850.4,422.6c-5.4-3.7-17.1-20.8-19.2-21.5c3.6-4.1,11.5-6.9,14.2-6.8c-2.8,5.3,14.2,14.7,14.2,14.7
		s0,0-0.1,0.1c0.1,0,0.2,0.1,0.2,0.2c0.2,4.1,1.2,8.2,1.8,12.2c0.4,3.2,0.7,6.5,1,9.7c0.3,3,0.6,6.1,1,9.1c-0.5-0.6-1.1-1.1-1.7-1.5
		c-0.2-2.5-0.3-5.1-0.5-7.6c0-0.3-0.1-0.6-0.1-1c-0.6-3.3-0.9-6.7-1.5-10.1c-0.6-3.1,0-2.1-2.4-1.2
		C856.4,419.3,850.1,421.1,850.4,422.6z M866.2,409c0,0-1.4,4.9,1,7.2c2.7,2.5,9.4,2.7,10.3,6.2c5.2-6,11-17.7,11-17.7
		s-11.2-6.4-14.8-5.5C875.1,405.1,866.2,409,866.2,409z M866.4,423.2c-0.5,0.1-0.8,0.3-1,0.6c-0.7,0.1-0.9,1.3-0.4,1.9
		c0.9,1.2,2.3,0.9,2.9-0.4C868.3,424.3,867.5,423.1,866.4,423.2z M868.1,439.1c-1-0.6-1.8,0.4-2,1.3c-0.1,0.5,0.1,0.9,0.6,1.1
		c0.1,0,0.1,0,0.2,0c0.3,0.2,0.6,0.3,1,0.3c0.3,0,0.6,0,0.8-0.3C869,440.7,868.9,439.7,868.1,439.1z"/>
	<path class="st28" d="M859.7,409c0,0-8.5,4-11.2,9.4c-4.1-3.8-15.2-16.5-17.3-17.3c3.6-3.8,10.6-7.4,14.2-6.8
		C842.7,399.2,859.7,409,859.7,409z M866.2,409c0,0,11.3,4.9,12.3,9.9c6.1-6.2,10-14.3,10-14.3s-11.2-6.3-14.8-5.5
		C875.1,404.6,866.2,409,866.2,409z"/>
	<path class="st29" d="M847.9,552.4c-0.6,0.1-1.3-0.1-1.9-0.1c0,0-1.3-0.1-3.2-0.5c-1.8-0.3-7.3-2.5-9.3-4.3
		c-0.1-0.1-0.2,0.5-0.3,1.3c0.3,0.4,0.6,0.8,0.9,1.3c0.5,0.9,0.6,1.6,0.6,2.4c0.3,0.5,0.6,0.9,0.8,1.4c3.6,1.6,8.7,4.2,11.4,3.1
		c0.6-0.3,1.1-1.1,1.5-2.2C848.5,554,848.2,552.3,847.9,552.4z"/>
	<g>
		<path class="st28" d="M877.5,770.6c-4.9-1.6-11.2-1.4-15.4-0.8c-0.2,0-0.2,0.3,0,0.3c4.5,0.3,13.2,0.7,17.1,4.4
			c-0.8-1.2-2.1-2.2-3.1-2.5C875.2,771.8,876.8,771.4,877.5,770.6z"/>
		<path class="st28" d="M843.5,774.1c2-1.6,4.6-2.6,6.7-3.5c3.2-1.4,6.6-2.1,9.9-3.2c0.4-0.1,0.2-0.8-0.2-0.7
			c-4.1,0.5-8.2,1.4-12.2,2.5c-1.6,0.4-3.4,1-5,1.8c0.6,1,2.1,1.7,1.5,2.5C843.9,773.7,843.7,773.9,843.5,774.1z"/>
	</g>
	<g>
		<path class="st33" d="M826.7,335.7c0-2.9-0.1-5.7-0.5-8.5c-0.1-0.6-0.2-1-0.4-1.3c0-0.2,0-0.5-0.1-0.7c-0.1-0.7-0.2-1.1-0.5-1.5
			c0.1-0.9-0.2-1.9-0.8-2.3c-1.2-0.8-2.4-1-3.6-1c-0.1,0-0.2,0-0.3,0c-0.2-0.1-0.4-0.1-0.6,0c-1.6,0-3.1,0.5-4.3,2.1
			c-1.8,2.3-2,6.2-1.4,9.5c0,0.1,0.1,0.3,0.1,0.4c0.2,1.7,0.6,3.3,1.4,4.6c0.2,0.3,0.4,0.6,0.6,0.8c2.1,3.8,5.3,6,8.1,4
			c0.9-0.2,1.7-1.3,1.7-3.3c0-0.3,0-0.5,0-0.8C826.5,337.1,826.7,336.5,826.7,335.7z"/>
		<path class="st34" d="M824.3,333.9c0-1.1,0-2.2-0.2-3.3c0-0.2-0.1-0.4-0.2-0.5c0-0.1,0-0.2,0-0.3c0-0.3-0.1-0.4-0.2-0.6
			c0-0.3-0.1-0.7-0.3-0.9c-0.5-0.3-0.9-0.4-1.4-0.4c0,0-0.1,0-0.1,0c-0.1,0-0.1,0-0.2,0c-0.6,0-1.2,0.2-1.7,0.8
			c-0.7,0.9-0.8,2.4-0.5,3.7c0,0.1,0,0.1,0,0.2c0.1,0.7,0.3,1.3,0.6,1.8c0.1,0.1,0.2,0.2,0.2,0.3c0.8,1.5,2.1,2.4,3.2,1.6
			c0.4-0.1,0.7-0.5,0.7-1.3c0-0.1,0-0.2,0-0.3C824.2,334.5,824.3,334.2,824.3,333.9z"/>
	</g>
	<g>
		<path class="st33" d="M887.9,339c0.4-2.5,0.9-4.9,1.6-7.2c0.1-0.5,0.3-0.8,0.5-1.1c0.1-0.2,0.1-0.4,0.2-0.6
			c0.1-0.6,0.4-0.9,0.6-1.2c0.1-0.8,0.4-1.6,1-1.8c1.1-0.5,2.2-0.6,3.2-0.3c0.1,0,0.2,0,0.3,0c0.2,0,0.3,0,0.5,0
			c1.3,0.2,2.6,0.9,3.4,2.4c1.2,2.2,0.9,5.5-0.1,8.3c0,0.1-0.1,0.2-0.1,0.3c-0.4,1.4-1,2.8-1.8,3.8c-0.2,0.2-0.4,0.5-0.7,0.6
			c-2.3,3-5.4,4.4-7.5,2.3c-0.7-0.3-1.2-1.4-1-3c0-0.2,0.1-0.5,0.1-0.7C887.8,340.2,887.8,339.7,887.9,339z"/>
		<path class="st34" d="M891.5,337.2c0.2-1.1,0.4-2.1,0.7-3.1c0.1-0.2,0.1-0.3,0.2-0.5c0-0.1,0-0.2,0.1-0.3c0.1-0.2,0.2-0.4,0.3-0.5
			c0-0.3,0.2-0.7,0.4-0.8c0.5-0.2,0.9-0.2,1.4-0.1c0,0,0.1,0,0.1,0c0.1,0,0.1,0,0.2,0c0.6,0.1,1.1,0.4,1.4,1
			c0.5,0.9,0.4,2.4-0.1,3.5c0,0,0,0.1-0.1,0.1c-0.2,0.6-0.4,1.2-0.8,1.6c-0.1,0.1-0.2,0.2-0.3,0.3c-1,1.3-2.3,1.9-3.2,1
			c-0.3-0.1-0.5-0.6-0.4-1.3c0-0.1,0-0.2,0-0.3C891.5,337.7,891.5,337.5,891.5,337.2z"/>
	</g>
	<path class="st29" d="M892.3,338.6c3.3-5.1,2.2-22.5,1.7-26.9c-2.9-23.5-19-24.9-28.1-26.2c-16.9-2.4-38.6,1.8-41.7,18.5
		c-3.9,21.1-0.6,39.9,5.2,62.8c4.8,18.7,15.7,19.4,25.4,21.3c10,2,28.2,2.5,30.9-5.4C890.9,368.1,884.4,350.7,892.3,338.6z"/>
	<g>
		<path class="st29" d="M885.2,351.4c-28.2,3.1-37.6-3.3-45.6-4.4c-14.7-2-12.2,3.7-7.1,23.1c4.2,15.8,13.7,16.4,22.2,18.1
			c8.7,1.7,24.5,2.1,26.9-4.6C885.9,371.3,889,351,885.2,351.4z"/>
		<g>
			<path class="st35" d="M880.3,367.9c0,0-4.9,4.9-8.3,7.5c-3.5,2.6-5.3,1.6-12,0.9c-7.4-0.8-9.3-0.6-12.9-4.5
				c-2.8-3-6.9-9.7-7.5-10.5c-1.4-1.9,1.9-3.6,1.6-1.3c-0.3,2.3,2.1,3.3,4.6,4.4c4.4,1.9,1.8,0.8,14.7,2.8c12.2,2,12,3.1,14.2,2.4
				c1.6-0.5,3.3-1.9,3.3-1.9C878.7,363.7,880.3,367.9,880.3,367.9z"/>
			<path class="st20" d="M870.1,372.1c0.1-0.4,1-1.8,1.1-2c-0.1,0-0.2-0.1-0.4-0.1c-1.8-0.4-4.7-1.2-10.5-2.1
				c-3.8-0.6-6.1-0.9-7.5-1.1l-2.5-0.3c-0.8-0.1-1.4-0.2-1.9-0.3c0.2,0.2,0.4,2.2,0.4,2.2c-0.3,0.2-1.8,0.3-2,0.3
				c0.5,0.7,1.1,1.3,1.5,1.9c2.4,2.6,3.8,3.1,7.1,3.6c0.9,0.1,2,0.2,3.2,0.3l1.8,0.2c1,0.1,1.8,0.2,2.6,0.3l1.7,0.2
				c3.2,0.4,4.4,0.5,6.6-1.2c0.3-0.3,0.7-0.5,1.1-0.8C871.7,373.1,870.1,372.1,870.1,372.1z"/>
		</g>
	</g>
	<g>
		<path class="st36" d="M883.1,358.7c-2.6-1.5-4.6-3.2-7.6-3.7c-3.8-0.6-7.1,1.6-11.2,1.6c-1.4-0.6-2.9-1-4.4-1.6
			c-3.1-1.2-6.5-2.4-9.8-2.8c-2.2-0.3-5.6-0.5-8.4,0.3c-1-0.2-2,0-2.9,0.2c-0.7,0.2-1.4,0.5-1.7,1.2c-0.3,0.7-0.2,1.4,0.5,1.7
			c0.3,0.1,0.7,0.1,1.1,0c-0.1,0.4-0.2,0.8,0.1,1.1c0.5,0.6,1.9,0.5,2.6,0.4c0.1,0,0.2,0,0.3,0c0,1.1,0.9,2.2,2,1.7
			c0.3-0.1,0.6-0.3,1-0.4c-0.2,0.8,0.4,1.7,1.4,1.4c0.8-0.2,1.6-0.3,2.4-0.5c-0.1,0.1-0.1,0.2-0.2,0.4c-0.1,0.5,0.1,1.2,0.6,1.5
			c0.8,0.4,1.7,0.2,2.6-0.1c0.1,0.3,0.2,0.5,0.4,0.7c-0.5-0.4,0.1,0.2,0.3,0.3c0.7,0.7,1.6,0.5,2.2-0.1c0.1,0,0.1-0.1,0.2-0.2
			c0,0.1,0.1,0.1,0.1,0.2c0.6,0.9,2.2,1.4,3,0.4c0-0.1,0.1-0.1,0.1-0.2c0,0,0,0,0,0c0.3,1.2,1.4,2,2.6,1.5c0.2-0.1,0.3-0.2,0.4-0.3
			c0,0.1,0.1,0.1,0.2,0.2c0.9,0.9,2.4,1.5,3.4,0.4c0.2-0.2,0.3-0.4,0.4-0.6c0.1,0.1,0.3,0.2,0.5,0.3c0.7,0.3,1.8,0.9,2.4,0.2
			c0.2-0.2,0.3-0.3,0.4-0.5c0,0,0.1,0.1,0.1,0.1c0.6,0.3,1.1,0.7,1.8,0.6c0.7,0,1.2-0.4,1.5-0.9c1,0.8,2.2,1,3.3,0.4
			c0.3-0.1,0.5-0.4,0.7-0.7c0.6,0.3,1.2,0.6,1.9,0.7c0.7,0.1,1.2-0.5,1.4-1.1c0.9,0.3,1.8,0.4,2.6-0.2c0.4-0.3,0.7-0.8,0.7-1.3
			C883.5,361,884.3,359.4,883.1,358.7z"/>
		<path class="st37" d="M844.7,353.6c-0.7,0.6-1.8,0.4-2.7,0.6c-1,0.2-1.9,0.7-2.9,0.8c-0.2,0-0.3-0.2-0.1-0.4
			c0.7-0.8,2.1-1.3,3.1-1.6c0.8-0.3,1.9-0.6,2.6,0.1C844.8,353.2,844.8,353.5,844.7,353.6z M852.4,354.5c-2.7-0.3-5.4,0.7-7.5,2.2
			c-0.2,0.1-0.1,0.4,0.1,0.3c2.5-0.9,4.8-1.8,7.4-2.2C852.7,354.8,852.6,354.5,852.4,354.5z M857.4,355.7c-1-0.4-2.4,0.4-3.3,0.9
			c-1.4,0.8-2.6,1.8-4,2.6c-0.2,0.1,0,0.4,0.2,0.3c1.1-0.6,2.2-1.2,3.3-1.9c0.7-0.4,1.5-0.8,2.3-1.1c0.5-0.2,1.1-0.2,1.5-0.5
			C857.6,355.9,857.6,355.7,857.4,355.7z M861,357.6c-0.6,0-0.9,0.6-1.2,1c-0.5,0.7-0.8,1.4-0.9,2.2c-0.1,0.3,0.4,0.5,0.5,0.2
			c0.3-0.6,0.6-1.2,1-1.8c0.3-0.5,0.7-0.8,0.8-1.4C861.2,357.7,861.1,357.6,861,357.6z M868.6,361.1c-0.3-1-0.2-2.2-0.9-3.1
			c-0.1-0.1-0.2-0.2-0.4-0.2c0,0-0.1,0-0.1,0.1c-0.3,0.3,0,1.1,0,1.5c0.1,0.7,0.1,1.4,0.3,2C867.7,362,868.8,361.8,868.6,361.1z
			 M874,359c-0.7-0.7-1.4-1.4-2.1-1.9c-0.2-0.2-0.5,0.1-0.4,0.4c0.4,0.8,1.1,1.4,1.6,2.1c0.3,0.3,0.6,0.7,0.9,1.1
			c0.3,0.4,0.4,0.6,0.8,0.7c0.3,0.1,0.5-0.1,0.5-0.4C875.4,360.1,874.5,359.5,874,359z M879.7,358.1c-0.4-0.2-0.9-0.4-1.3-0.6
			c-0.5-0.2-1.2-0.3-1.6-0.7c-0.1-0.1-0.2,0.1-0.1,0.1c0.6,0.3,0.9,0.7,1.4,1.1c0.4,0.3,0.8,0.5,1.2,0.7c0.6,0.4,1.3,0.9,2,0.9
			c0.2,0,0.3-0.2,0.2-0.3C881.2,358.7,880.4,358.4,879.7,358.1z"/>
	</g>
	<g>
		<path class="st36" d="M817.5,305.5c0.2-1.8,0.6-4,1.3-5.9c0.2-1.3,0.5-2.6,0.8-3.7c0.9-3.6,3.2-10.5,7.2-12.2
			c0.1-0.1,0.2-0.1,0.3-0.2c1-1.3,2.3-2.4,3.3-3.1c2.1-1.4,5.6-1.7,8.2-0.6c0.7-1.7,0.9-3.7,1.9-5.1c0.1-0.2,0.5-0.2,0.6,0
			c0.5,1.1,0.5,2.7,0.5,4.1c2.3-1.5,4.7-2.6,7.3-3.2c1.7-0.4,3.5-0.6,5.3-0.7c2.1-0.5,4.1-0.7,5.6-1c4.5-0.9,11.7-5.8,15.9-2.1
			c0.1,0.1,0.1,0.2,0,0.3c-1.5,1.9-3.4,3.5-5.6,4.7c0.4,0.1,0.8,0.2,1.2,0.2c3.7-0.7,7.5-0.9,11.2-0.7c4.5,0.3,10.2,0.4,14.1,3
			c3.3,1,6.1,3.1,7.6,6.5c0.1,0.3-0.2,0.6-0.5,0.6c-1.5,0.1-2.5-0.3-4-0.7c-1.4-0.4-2.8-0.6-4.1-0.8c3.3,2.4,6.2,5.6,7.8,7.8
			c3.7,4.9,9.6,14.9,6,21.1c-0.4,0.6-1.2,0.6-1.6,0c-1.3-2-2.4-4.1-3.4-6.1c1,5.2,0.8,10.4-1.4,15.9c-0.2,0.4-0.6,0.4-0.8,0
			c-1.5-4.1-2-8.4-3-12.6c0.9,7.9,0.1,16.1-2.9,23.4c-0.2,0.6-1.2,0.7-1.3,0c-0.9-4.2-1.2-8.5-1.5-12.9c-0.2,0.9-0.4,1.7-0.7,2.6
			c-0.2,0.6-1.2,0.7-1.4,0c-1.4-5.1-2.8-10.2-4.5-15.1c-0.4-0.5-0.7-1-1.1-1.4c-2.2-2.7-4.8-5.1-7.5-7.4c0.2,1,0.5,3.9-1,3.3
			c-1.4-0.5-2.1-2.1-3.2-3.1c-2-2-4.2-3.7-6.6-5.2c-0.5-0.2-0.9-0.3-1.4-0.5c-1.7-0.6-3.5-1.3-5.2-2c-2.3-0.1-4.6-0.2-6.9-0.3
			c1,0.5,2,1.1,2.8,1.7c0.1,0.1,0.1,0.2,0,0.3c-0.1,0.1-0.3,0.1-0.4,0.2l0,0c0.2,0.1,0.1,0.3-0.1,0.3c-0.1,0-0.2,0-0.3-0.1
			c-0.7,0.3-1.5,0.6-2.2,0.7c2.3,0,4.3,0,6.7,1c0.2,0.1,0.2,0.2,0.2,0.4c0.6,0.1,0.5,1,0,1.2c-5.6,2.3-11.9,1.8-17.8,1.2
			c-2.3-0.2-4.9-0.3-7.4-0.7c-0.2,0.1-0.4,0.2-0.6,0.3c-0.2,0.1-0.5,0.3-0.8,0.5c-2.4,2.9-4.2,6.3-5.7,9.9c-0.3,2.2-0.9,4.5-1.1,6.6
			c-0.7,4.8-0.2,9.9-1.3,14.6c-0.1,0.6-0.9,0.5-1.1,0c-1.6-4.8-1.9-10.3-2.5-15.3c-0.1-0.7-0.1-1.3-0.1-2c-0.5,3-0.9,5.9-1.7,8.9
			c-0.2,0.8-1.4,0.8-1.6,0C817.8,316.7,816.7,311.2,817.5,305.5z"/>
		<path class="st37" d="M825.4,286.6c0.1-0.2,0.5,0,0.4,0.2c-1.6,2.9-2.8,6-3.6,9.3c-0.7,2.9-0.4,5.8-0.6,8.8c0,0.4-0.6,0.4-0.7,0.1
			C818.9,299.1,822.2,291.4,825.4,286.6z M823.3,310.5c0,0.3,0.5,0.4,0.6,0.1c1.1-2.8,1.2-6,2.1-9c1-2.9,2.2-5.7,3.8-8.3
			c0.1-0.1-0.1-0.2-0.2-0.1C826.4,297.7,822.6,304.7,823.3,310.5z M834.5,291.7c2.7,4.2,7.4,5.1,12,5.7c0.3,0,0.3-0.3,0.1-0.4
			c-3.1-1.2-6.9-1.6-9.3-4.1c-1-1-2.4-2.5-1.9-4.1c0.4-1.3,1.8-1.2,2.7-2c0.2-0.2,0.2-0.6-0.1-0.6c-1.3-0.6-3.1,0.1-3.8,1.3
			C833.4,288.9,833.7,290.4,834.5,291.7z M846.8,278.9c5.7-0.2,12.2-1.6,17.5-3.7c0.3-0.1,0.2-0.6-0.1-0.5
			c-5.7,1.8-12.2,1.1-17.6,3.5C846.2,278.3,846.4,278.9,846.8,278.9z M849.1,283.1c15.4,0.7,29-8.9,44.4-2.4c0.1,0,0.1-0.1,0.1-0.1
			c-14.4-6.5-29.7,0.3-44.4,2.3C848.9,282.9,849,283.1,849.1,283.1z M858.3,285.4c15.9-0.3,30.7-3,43.6,8.8c0.1,0.1,0.1,0,0.1-0.1
			c-11.8-11.1-28.4-13.1-43.8-9.2C858,285,858.1,285.4,858.3,285.4z M879.2,290.6c3.9,2.2,7.9,3.7,11.1,6.9
			c3.8,3.8,6.1,8.3,6.5,13.7c0,0.3,0.5,0.3,0.5,0c0-9.8-8.2-19.2-17.9-21.1C879.1,289.9,878.8,290.4,879.2,290.6z"/>
	</g>
	<g>
		<path class="st29" d="M887,340.5c2.9-4.3,1.9-15.5,1.5-19.1c-2.5-19.9-16.5-9.1-24.5-10.2c-14.7-2-33.6-8.1-36.3,6.1
			c-3.4,17.9,2.2,26.3,10.7,27.9C847.2,346.9,880.1,350.8,887,340.5z"/>
		<g>
			<g>
				<path class="st20" d="M846.3,326.9c-8.5,0-8.5,5.7,0,5.7C854.9,332.6,854.9,326.9,846.3,326.9z"/>
				<path class="st35" d="M846.6,327.9c-3.2,0-3.2,4.8,0,4.8C849.8,332.8,849.8,327.9,846.6,327.9z"/>
				<path class="st35" d="M847,327.2c3,0.1,4.3,2.8,5.1,2.6c2.3-0.7-3.4-4.1-5.7-3.7c-2.2,0.3-7.9,2.8-6.7,3.4
					C840.2,329.7,842.6,327.1,847,327.2z"/>
			</g>
			<g>
				<path class="st20" d="M875.8,328.8c-8.3,0-8.3,5.6,0,5.6C884.2,334.4,884.2,328.8,875.8,328.8z"/>
				<path class="st35" d="M876.9,329.1c3.4,0.1,4.7,2.3,5.3,2c1.5-0.8-3.7-3.7-6-3.4c-2.2,0.3-8,2.6-6.8,3.2
					C870,331.2,872.4,329,876.9,329.1z"/>
				<path class="st35" d="M875.9,329.6c-3.2,0-3.2,4.8,0,4.8C879.1,334.4,879.1,329.6,875.9,329.6z"/>
			</g>
			<g>
				<path class="st38" d="M852.9,318.3c-5.1-2-15.1-2.8-18.2,2.4c-1.3,2.1,0,2,1.8,0.2c3.7-3.7,10.8-0.9,15.1,0.5
					c0.7,0.2,2.7-0.1,3.2-1.1C855.2,319.4,854.1,318.8,852.9,318.3z"/>
				<path class="st39" d="M854,319c-5.4-2-16.8-4-19.5,2.4c0,0.1,0.1,0.1,0.1,0c4-5.3,13.2-4.2,18.8-1.6
					C854.1,320.2,854.6,319.3,854,319z"/>
			</g>
			<g>
				<path class="st38" d="M870,320.5c4.2-2.5,13.1-4.5,16.6-0.2c1.5,1.7,0.3,1.8-1.6,0.4c-3.8-2.8-9.8,0.6-13.4,2.4
					c-0.6,0.3-2.4,0.2-3-0.5C868.1,321.9,869,321.1,870,320.5z"/>
				<path class="st39" d="M869.1,321.3c4.6-2.5,14.4-5.7,17.7-0.4c0,0.1-0.1,0.1-0.1,0.1c-4.3-4.2-12.4-2.1-17,1.1
					C869.2,322.4,868.6,321.6,869.1,321.3z"/>
			</g>
		</g>
	</g>
	<path class="st40" d="M900,326.4c0.1-1-0.2-1.2-1.2-1.3c-1-0.1-9.5-0.9-15.8-1.5c-6.3-0.6-12.6-0.3-15.4,0.7
		c-2.8,1-5.4,0.8-6.6,0.7c-1.2-0.1-3.8-0.5-6.4-2c-2.5-1.5-8.6-3-14.9-3.6c-6.3-0.6-14.9-1.4-15.8-1.5c-1-0.1-1.4,0-1.4,1
		c-0.1,1-0.9,5.2,0.5,6.6c1.4,1.4,1.7,2.3,1.9,3.5c0.2,1.2,1,11.3,13.8,12.9c12.8,1.7,16.9-7.3,17.6-9c0.7-1.7,3.1-2.3,4.2-2.3
		c1.1,0.2,3.3,1.2,3.7,3c0.4,1.8,2.7,11.4,15.5,12.2c12.9,0.8,15.6-8.9,16.1-10.1c0.5-1.1,0.9-1.9,2.5-3
		C899.8,331.7,899.9,327.4,900,326.4z M853.7,333.8c-2.7,6.3-10,7.1-14.3,6.7c-12.7-1.6-11.8-13.3-11.5-16.1
		c0.3-2.8,1.4-3.1,5.3-3.2c3.9-0.1,13.1,0.9,18,2.7C855.9,325.7,856.4,327.5,853.7,333.8z M879.1,344.3c-4.3-0.4-11.3-2.6-12.7-9.3
		c-1.4-6.7-0.6-8.3,4.5-9.2c5.1-0.9,14.4-0.1,18.2,0.7c3.8,0.9,4.8,1.4,4.5,4.1C893.3,333.4,891.9,345.2,879.1,344.3z"/>
	<g>
		<path class="st34" d="M865.8,349c-1.5-3.3-2.1-5.1-3.5-8.6c-1.2-2.9-1.8-6.9-2.3-5.1c-0.4,1.3-1.7,9.5-2.2,13.4
			c-0.1,1-0.2,1-0.2,1.2c0,1,0.5,1.5,1.6,2.3c1.6,1.2,3.4,1.1,5.1,0.4C866.1,351.8,866.8,351.1,865.8,349z"/>
		<path class="st33" d="M865.4,347.9c-1.4-3.1-1.8-4.8-3.1-8c-1.1-2.7-1.7-6.4-2.2-4.8c-0.5,1.6-2.5,13.3-2.5,14.3
			c0,0.9,0.4,0.7,1.4,0.9c0.5,0.1,4.9,0.3,5.8,0.5C867,351.3,866.3,350,865.4,347.9z"/>
	</g>
	<path class="st1" d="M840.5,437l-11.3,0.9l1.4,17.2c0.5,1,1.8,3.6,5.1,5.2c4.4,2.1,10.2,1.4,13.2-1.1c2.5-2,4.2-5.9,4.2-5.9l0,0
		l-1.4-17.2L840.5,437z"/>
	<polyline class="st12" points="829.7,444.4 852.3,442.6 851.8,436.1 829.2,437.9 829.7,444.4 	"/>
	<path class="st1" d="M888.8,436l-11.3-0.3l-0.5,17.2c0.3,1,1.4,3.8,4.5,5.7c4.2,2.6,9.9,2.5,13.2,0.4c2.7-1.7,4.8-5.5,4.8-5.5l0,0
		l0.5-17.2L888.8,436z"/>
	<polyline class="st12" points="877.3,442.2 899.9,442.8 900.1,436.3 877.5,435.7 877.3,442.2 	"/>
	<polyline class="st14" points="834.1,434 847.2,433.4 847.1,430.6 834,431.2 834.1,434 	"/>
	<g>
		<polygon class="st15" points="888.8,426 891.6,426 890.5,425.5 889.9,425.5 		"/>
		<path class="st15" d="M891.5,426.8L891.5,426.8l-0.2-0.1v-0.1h-0.2v-0.4h-0.3l0.1,0.1v0.4h-0.3v-0.4l0.1-0.1h-0.3l0.1,0.1v0.4
			h-0.2v-0.4l0.1-0.1h-0.2H890l0.1,0.1v0.4h-0.2v-0.4l0.1-0.1h-0.3l0.1,0.1v0.4h-0.3v-0.4l0.1-0.1h-0.3v0.4H889v0.1h-0.2v0.1h-0.2
			c0,0,0,0.1,0,0.1c0.1,0.1,0.2,0.1,0.2,0.1c0,0,0.1,0,0.2,0c0.1,0,0.2,0,0.3,0.1c0.1,0,0.2,0.1,0.3,0.1c0.1,0.1,0.1,0.2,0.2,0.2
			c0,0,0,0.2,0.1,0.2c0,0,0.1,0,0.1,0c0,0,0.1,0,0.1,0c0.1-0.1,0.1-0.2,0.1-0.2c0-0.1,0.1-0.2,0.2-0.2c0.1-0.1,0.2-0.1,0.3-0.1
			c0.1,0,0.2,0,0.3-0.1c0.1,0,0.2,0,0.2,0c0,0,0.1,0,0.2-0.1c0,0,0-0.1,0-0.1H891.5z"/>
		<path class="st15" d="M891.8,426.9c-0.1,0.8-0.6,1.4-1.1,1.4c-0.1,0-0.3,0-0.6-0.2c-0.3,0.2-0.5,0.2-0.6,0.2c-0.5,0-1-0.6-1.1-1.4
			c0,0,0,0.1,0,0.1c0,0,0.1,0.1,0.1,0.1c0,0,0,0,0,0c0.1,0.1,0.2,0.1,0.2,0.1c0.1,0,0.1,0,0.2,0c0.1,0,0.2,0,0.4,0.1
			c0.1,0,0.2,0.1,0.3,0.1c0.1,0.1,0.1,0.2,0.2,0.3c0,0,0,0.2,0.2,0.2c0,0,0.1,0,0.1,0c0,0,0.1,0,0.1,0c0.1-0.1,0.2-0.2,0.2-0.2
			c0-0.1,0.1-0.2,0.2-0.3c0.1-0.1,0.2-0.1,0.3-0.1c0.1,0,0.2,0,0.4-0.1c0.1,0,0.2,0,0.2,0c0,0,0.1,0,0.2-0.1c0,0,0,0,0,0
			C891.7,427.1,891.8,427.1,891.8,426.9C891.8,427,891.8,427,891.8,426.9z"/>
		<g>
			<path class="st15" d="M890.2,428.6c0,0-0.7,0.7-1.6,0.4c0.1,0,0.2,0,0.3,0c0.1,0,0.1,0,0.2-0.1c0.2-0.1,0.5-0.1,0.7-0.1
				c0.1,0,0.1,0,0.2-0.1C890,428.7,890.1,428.6,890.2,428.6z"/>
			<path class="st15" d="M889.6,428.7c0,0-0.6,0.2-0.9-0.2l0.2,0l0.1,0l0.1,0.1l0.2,0L889.6,428.7z"/>
			<path class="st15" d="M889.1,428.5c0,0-0.5-0.4-0.6-0.4l-0.2,0l-0.1-0.1c0,0,0.1,0.5,0.7,0.5C888.9,428.5,889,428.5,889.1,428.5z
				"/>
			<path class="st15" d="M888.8,428.2l-0.2-0.3c0,0,0-0.1-0.2-0.2l-0.1-0.2c0,0,0-0.1-0.1-0.1s-0.2-0.2-0.2-0.3c0,0,0,1,0.5,0.9
				L888.8,428.2z"/>
			<path class="st15" d="M889.1,428.8c0,0-0.2-0.1-0.2-0.1l-0.2,0l-0.2-0.1l-0.4,0c0,0-0.2,0-0.2-0.1
				C887.9,428.6,888.2,429.1,889.1,428.8z"/>
			<path class="st15" d="M888.7,428.6c0,0-0.1-0.1-0.1-0.1l-0.1-0.1l-0.2,0l-0.1-0.1c0,0-0.4,0.1-0.8-0.3
				C887.4,428,887.7,428.7,888.7,428.6z"/>
			<path class="st15" d="M888.4,428.3l-0.1-0.2l-0.2-0.1c0,0-0.1-0.1-0.2-0.2s-0.7-0.5-0.7-1C887.2,426.8,886.8,428.1,888.4,428.3z"
				/>
			<path class="st15" d="M888.2,427.9l-0.1-0.4c0,0-0.1-0.1-0.1-0.1s-0.1-0.6-0.4-0.9c0,0-0.1-0.6,0.4-1.4
				C887.9,425.1,886.2,426.7,888.2,427.9z"/>
		</g>
		<g>
			<path class="st15" d="M890.2,428.6c0,0,0.7,0.7,1.6,0.4c-0.1,0-0.2,0-0.3,0c-0.1,0-0.1,0-0.2-0.1c-0.2-0.1-0.5-0.1-0.7-0.1
				c-0.1,0-0.1,0-0.2-0.1C890.4,428.7,890.3,428.6,890.2,428.6z"/>
			<path class="st15" d="M890.8,428.7c0,0,0.6,0.2,0.9-0.2l-0.2,0l-0.1,0l-0.1,0.1l-0.2,0L890.8,428.7z"/>
			<path class="st15" d="M891.3,428.5c0,0,0.5-0.4,0.6-0.4l0.2,0l0.1-0.1c0,0-0.1,0.5-0.7,0.5C891.5,428.5,891.4,428.5,891.3,428.5z
				"/>
			<path class="st15" d="M891.6,428.2l0.2-0.3c0,0,0-0.1,0.2-0.2l0.1-0.2c0,0,0-0.1,0.1-0.1c0.1,0,0.2-0.2,0.2-0.3c0,0,0,1-0.5,0.9
				L891.6,428.2z"/>
			<path class="st15" d="M891.3,428.8c0,0,0.2-0.1,0.2-0.1l0.2,0l0.2-0.1l0.4,0c0,0,0.2,0,0.2-0.1
				C892.6,428.6,892.2,429.1,891.3,428.8z"/>
			<path class="st15" d="M891.7,428.6c0,0,0.1-0.1,0.1-0.1l0.1-0.1l0.2,0l0.1-0.1c0,0,0.4,0.1,0.8-0.3
				C893,428,892.7,428.7,891.7,428.6z"/>
			<path class="st15" d="M892,428.3l0.1-0.2l0.2-0.1c0,0,0.1-0.1,0.2-0.2c0.1-0.1,0.7-0.5,0.7-1C893.2,426.8,893.6,428.1,892,428.3z
				"/>
			<path class="st15" d="M892.2,427.9l0.1-0.4c0,0,0.1-0.1,0.1-0.1s0.1-0.6,0.4-0.9c0,0,0.1-0.6-0.4-1.4
				C892.5,425.1,894.2,426.7,892.2,427.9z"/>
		</g>
		<g>
			<path class="st16" d="M889.6,423l-0.3,0.1L889.6,423c-0.1,0-0.2-0.1-0.4,0.1C889.3,423.1,889.6,423.3,889.6,423z"/>
			<path class="st16" d="M889.8,423.3l0.2,0.1L889.8,423.3c0,0,0,0.2,0.3,0.2C890.1,423.5,890.1,423.3,889.8,423.3z"/>
			<path class="st16" d="M889.6,423.5l0.2,0.1L889.6,423.5c0,0,0,0.1,0.2,0.1C889.9,423.6,889.8,423.4,889.6,423.5z"/>
			<path class="st16" d="M889.2,423.6l-0.3,0L889.2,423.6c0,0,0,0.2-0.4,0C888.8,423.6,889.1,423.4,889.2,423.6z"/>
			<path class="st16" d="M889.8,423.8l0.2,0.1L889.8,423.8c0,0-0.1,0.2,0.3,0.2C890.1,424,889.9,423.7,889.8,423.8z"/>
			<path class="st16" d="M889.5,423.8l-0.2,0.2L889.5,423.8c0,0,0.2,0.2-0.3,0.3C889.3,424.1,889.3,423.8,889.5,423.8z"/>
			<path class="st16" d="M889.1,423.9c0,0-0.3,0-0.3,0L889.1,423.9c0,0,0,0.4-0.4,0C888.6,423.8,889,423.6,889.1,423.9z"/>
			<path class="st16" d="M888.9,425.1l0,0.2L888.9,425.1c0,0,0.2,0.1,0,0.3C888.9,425.4,888.7,425.2,888.9,425.1z"/>
			<path class="st16" d="M889.6,424.7l-0.2,0.1L889.6,424.7c0,0,0.2,0.3-0.3,0.2C889.2,424.9,889.4,424.6,889.6,424.7z"/>
			<path class="st16" d="M889.1,424.8c0,0,0.2,0.2,0.1,0.3C889.2,425.1,888.9,424.9,889.1,424.8l0,0.1L889.1,424.8z"/>
			<path class="st16" d="M889.5,425l-0.2,0.2L889.5,425c0,0,0.2,0.2-0.3,0.2C889.2,425.2,889.3,425,889.5,425z"/>
			<path class="st16" d="M889.8,424.7l0.1,0.2L889.8,424.7c0,0,0.3-0.1,0.2,0.3C890,425,889.6,424.8,889.8,424.7z"/>
			<path class="st16" d="M889.7,425l0.1,0.2L889.7,425c0,0-0.1,0.2,0.2,0.4C889.9,425.3,890,424.9,889.7,425z"/>
			<g>
				<path class="st16" d="M892,425.2c-0.1-0.2-0.3-0.2-0.3-0.2s0.1,0.1,0.2,0.1c-0.1,0-0.2-0.1-0.2-0.1l-0.1,0c0,0,0,0,0,0
					c0,0-0.2-0.3-0.2-0.3h0.3c0,0-0.1,0.1-0.1,0.1s0.3,0,0.3,0c0,0-0.3,0-0.3,0c0.2,0.2,0.4-0.1,0.4-0.1l-0.2-0.1
					c0,0,0.2-0.1,0.2-0.1c0,0-0.2,0-0.2,0s-0.1,0-0.1,0s-0.4,0-0.4,0c0,0-0.2,0-0.2,0s-0.3-0.1-0.3-0.1s-0.2,0-0.3,0
					c-0.1,0-0.2,0.1-0.2,0.1v-0.4c0.1-0.2,0.3-0.1,0.3-0.1l0.1,0.1l-0.1,0c-0.3,0-0.3,0.3-0.3,0.3c0.2,0,0.3-0.2,0.3-0.2l-0.2,0.1
					l0.3-0.2l0.1,0.2h0l0-0.1c0.2,0.1,0.4-0.2,0.4-0.2c-0.4-0.1-0.4,0.1-0.4,0.1l0.3,0c-0.1,0.1-0.3,0.1-0.3,0.1l-0.1-0.2
					c0,0,0.1,0,0.1,0c0,0,0.5,0.1,0.5,0.1l0.1,0.1l0,0c-0.3,0-0.3,0.3-0.3,0.3c0.3,0,0.3-0.2,0.3-0.2l-0.2,0.1
					c0.1,0,0.3-0.1,0.3-0.1l0.1,0.2l0,0l-0.1-0.1l0.1,0c0.1,0.3,0.4,0.2,0.4,0.2c-0.2-0.3-0.4-0.2-0.4-0.2l0.3,0.2
					c-0.1,0-0.3-0.2-0.3-0.2l-0.1,0l0-0.1c0,0,0,0,0.1,0c0.1,0,0.3,0,0.3,0c0,0,0.1,0,0.1,0c0,0,0,0,0,0c0,0-0.3,0-0.3,0
					c0,0-0.2,0-0.2,0l-0.4-0.1c0,0-0.2-0.1-0.3-0.1c-0.1,0-0.3,0.1-0.3,0.1h0v-0.3l0.1-0.1c0,0,0.2,0,0.2,0c0.1,0.1,0.2,0.4,0.2,0.4
					h0l-0.1-0.2l0.1,0l-0.1,0l-0.1-0.1c0,0,0,0,0.2,0s0.3,0.1,0.3,0.1l0.2,0.4l0.2,0c0.2,0.2,0.5,0,0.5,0c-0.2-0.1-0.3-0.1-0.3-0.1
					c0.1,0,0.1-0.1,0.2-0.2c0,0-0.3-0.2-0.4,0c0,0,0.3,0,0.3,0l-0.3,0c0,0,0,0.2,0.2,0.1c0,0,0,0.1,0,0.1l0.3,0c-0.1,0-0.3,0-0.3,0
					l-0.1,0l-0.2-0.3l0.4,0l0,0h-0.5l-0.2-0.1c0,0-0.3,0-0.4,0c-0.1,0-0.2,0.1-0.2,0.1v-0.4c0.2-0.2,0.5-0.1,0.5-0.1l0,0l-0.1,0l0,0
					l0.1,0l0.2,0.3l0,0l0,0l0.1,0v0l-0.2,0l-0.1-0.2l0.4,0c0,0-0.3,0.1-0.3,0.1c0.2,0.2,0.4-0.1,0.4-0.1c-0.3-0.1-0.4,0.1-0.4,0.1
					l-0.2,0l-0.1-0.1c0,0,0.4,0,0.4,0v0c-0.5,0-0.6-0.1-0.6-0.1c0-0.1,0.2-0.2,0.2-0.2l0,0l-0.1,0.1c-0.1-0.3-0.4-0.2-0.4-0.2
					c0.1,0.3,0.3,0.3,0.3,0.3c-0.1,0-0.2-0.2-0.2-0.2c0.2,0,0.2,0.2,0.2,0.2c0,0-0.1,0.1-0.1,0.1c-0.2,0-0.3,0.1-0.3,0.1l0,0
					c0.2-0.2,0-0.4,0-0.4s-0.2,0.1,0,0.4l0,0c0,0-0.1-0.1-0.3-0.1c0,0,0-0.1-0.1-0.1c0,0,0.1-0.2,0.2-0.2c0,0-0.1,0.2-0.2,0.2
					c0,0,0.2,0,0.3-0.3c0,0-0.3,0-0.4,0.2l-0.1-0.1l0,0c0,0,0.1,0.1,0.2,0.2c0,0-0.1,0.1-0.6,0.1v0c0,0,0.4,0,0.4,0l-0.1,0.1l-0.2,0
					c0,0-0.1-0.2-0.4-0.1c0,0,0.2,0.3,0.4,0.1c0,0-0.3,0-0.3-0.1l0.4,0l-0.1,0.2l-0.2,0v0l0.1,0l0,0l0,0l0.2-0.3l0.1,0l0,0l-0.1,0
					l0,0c0,0,0.3-0.1,0.5,0.1v0.4c0,0-0.1-0.1-0.2-0.1c-0.1,0-0.4,0-0.4,0l-0.2,0.1h-0.5l0,0l0.4,0l-0.2,0.3l-0.1,0
					c0,0-0.3,0.1-0.3,0l0.3,0c0,0-0.1-0.2-0.4,0c0,0,0.2,0.2,0.5,0l0.2,0l0.2-0.4c0,0,0.1-0.1,0.3-0.1s0.2,0,0.2,0l-0.1,0.1l-0.1,0
					l0.1,0l-0.1,0.2h0c0,0,0.1-0.3,0.2-0.4c0.1-0.1,0.2,0,0.2,0l0.1,0.1v0.3h0c0,0-0.1-0.1-0.3-0.1c-0.1,0-0.3,0.1-0.3,0.1l-0.4,0.1
					c0,0-0.1,0-0.2,0c0,0-0.3,0-0.3,0c0,0,0,0,0,0c0,0,0,0,0.1,0c0,0,0.2,0,0.3,0c0.1,0,0.1,0,0.1,0l0,0.1l-0.1,0
					c0,0-0.2,0.2-0.3,0.2l0.3-0.2c0,0-0.2-0.1-0.4,0.2c0,0,0.3,0.1,0.4-0.2l0.1,0l-0.1,0.1l0,0l0.1-0.2c0,0,0.2,0.1,0.3,0.1
					l-0.2-0.1c0,0,0,0.2,0.3,0.2c0,0,0-0.3-0.3-0.3l0,0l0.1-0.1c0,0,0.5-0.1,0.5-0.1c0,0,0.1,0,0.1,0l-0.1,0.2c0,0-0.2,0-0.3-0.1
					l0.3,0c0,0,0-0.1-0.4-0.1c0,0,0.2,0.2,0.4,0.2l0,0.1h0l0.1-0.2l0.3,0.2l-0.2-0.1c0,0,0.1,0.2,0.3,0.2c0,0,0-0.3-0.3-0.3l-0.1,0
					l0.1-0.1c0,0,0.2,0,0.3,0.1v0.4c0,0-0.1-0.1-0.2-0.1c-0.1,0-0.2,0-0.3,0c0,0-0.3,0.1-0.3,0.1s-0.2,0-0.2,0c0,0-0.4,0-0.4,0
					s-0.1,0-0.1,0s-0.2,0-0.2,0c0,0,0.1,0,0.2,0.1l-0.2,0.1c0,0,0.2,0.2,0.4,0.1c0,0-0.3,0-0.3,0c0,0,0.3,0,0.3,0s0-0.1-0.1-0.1h0.3
					c0,0-0.2,0.2-0.2,0.3c0,0,0,0,0,0l-0.1,0c0,0-0.1,0.1-0.2,0.1c0.1,0,0.2-0.1,0.2-0.1s-0.2,0-0.3,0.2c0,0,0.1,0.1,0.4-0.1l0,0
					l0,0.2c0,0-0.1,0.1-0.1,0.1c0,0,0,0.3,0,0.3s0.1,0,0.1,0c0,0,0-0.2,0-0.2c0,0,0.1-0.1,0.1-0.1l0,0.2l0.1,0l0-0.2l0-0.1l0-0.2
					l0.1-0.1l0.1-0.1c0,0,0.1,0.1,0.1,0.2c0,0.1,0,0.2,0,0.2c0,0-0.1,0.1-0.1,0.1c0,0,0,0.2,0,0.2s0,0,0,0c0,0,0-0.2,0-0.2
					c0,0,0-0.1,0.1,0c0,0.1,0,0.2,0,0.2s0.1,0,0.1-0.1c0,0,0-0.1,0-0.2c0,0,0,0-0.1-0.2c0-0.1,0-0.2,0-0.2l-0.1-0.1l-0.1-0.1
					c0,0,0.3,0,0.4,0c0.1,0,0.3-0.1,0.3-0.1c0,0-0.1,0.2-0.1,0.2c0,0-0.1,0.2-0.1,0.2c0,0.1,0,0.1,0,0.1s-0.1,0.1-0.1,0.1
					c0,0,0,0.2,0,0.2s0,0,0,0c0,0,0-0.1,0-0.1c0,0,0-0.1,0.1,0c0,0,0,0.1,0,0.1l0,0c0,0,0-0.3,0-0.3s0.1-0.2,0.1-0.2l0.1-0.2
					c0,0,0,0,0-0.1c0,0,0.1,0,0.1,0c0.1,0,0.1,0.1,0.1,0.1s0,0.2,0,0.2c0,0-0.1,0.2-0.1,0.2c0,0,0,0.1,0,0.1c0,0,0.1,0,0-0.1
					c0,0,0-0.1,0-0.1s0,0,0,0c0,0,0,0,0-0.1c0,0,0-0.1,0-0.2c0-0.1,0-0.2,0-0.2l0,0c0,0,0,0.5,0,0.6c0,0,0,0,0,0h0.2c0,0,0,0,0,0
					c0,0,0-0.6,0-0.6l0,0c0,0,0,0.2,0,0.2c0,0.1,0,0.1,0,0.2c0,0,0,0.1,0,0.1c0,0,0,0,0,0s0,0,0,0.1c0,0,0,0.1,0,0.1
					c0,0,0-0.1,0-0.1c0,0-0.1-0.2-0.1-0.2c0,0,0-0.2,0-0.2s0-0.1,0.1-0.1c0.1,0,0.1,0,0.1,0c0,0,0,0.1,0,0.1l0.1,0.2
					c0,0,0.1,0.2,0.1,0.2s0,0.3,0,0.3l0,0c0,0,0-0.1,0-0.1c0,0,0,0,0.1,0c0,0,0,0.1,0,0.1c0,0,0,0,0,0s0-0.1,0-0.2
					c0,0-0.1-0.1-0.1-0.1s0,0,0-0.1c0-0.1-0.1-0.2-0.1-0.2c0,0,0,0,0,0c0,0.1,0.1,0.1,0.4,0.1c0,0-0.2-0.3-0.3-0.2l0.2,0.1l-0.3-0.1
					c0,0,0,0.1,0,0.1c0-0.1-0.1-0.2-0.1-0.2c0,0,0.2,0,0.3,0.1c0.1,0,0.4,0,0.4,0l-0.1,0.1l0,0l0-0.1c0,0-0.2,0.2-0.1,0.3
					c0,0,0,0.1,0,0.1c0,0,0,0,0,0c0-0.1-0.1-0.2-0.3-0.2l0.2,0.2l-0.2-0.2c0,0-0.2,0.2,0.3,0.2c0,0.1,0,0.1-0.1,0.1c0,0,0,0.2,0,0.2
					c0,0.1,0.1,0.1,0.1,0.1s0-0.1,0-0.2c0-0.1,0.1,0,0.1,0c0,0,0,0.2,0,0.2c0,0,0,0,0,0s0-0.2,0-0.2c0,0-0.1-0.1-0.1-0.1
					c0,0,0-0.1,0-0.2c0.1,0,0.2-0.1,0.1-0.2c0,0,0,0,0,0l0.1,0.1l0.1,0.1l0,0.2l0,0.1l0,0.2l0.1,0l0-0.2c0,0,0,0.1,0.1,0.1
					c0,0,0,0.2,0,0.2s0.1,0,0.1,0s0-0.2,0-0.3c0,0-0.1-0.1-0.1-0.1l0-0.2l0,0C891.9,425.3,892,425.2,892,425.2z M890.2,423.1
					L890.2,423.1l0-0.2L890.2,423.1L890.2,423.1z"/>
				<path class="st16" d="M890.8,423c0.1,0.3,0.4,0.1,0.4,0.1C891,422.9,890.8,423,890.8,423l0.3,0.1L890.8,423z"/>
				<path class="st16" d="M890.3,423.5c0.3,0,0.3-0.1,0.3-0.1L890.3,423.5l0.3-0.2C890.3,423.3,890.3,423.5,890.3,423.5z"/>
				<path class="st16" d="M890.5,423.6c0.2,0,0.2-0.1,0.2-0.1L890.5,423.6l0.2-0.1C890.6,423.4,890.5,423.6,890.5,423.6z"/>
				<path class="st16" d="M891.6,423.6c0,0-0.3-0.2-0.4,0l0.3,0l-0.3,0C891.2,423.6,891.2,423.8,891.6,423.6z"/>
				<path class="st16" d="M890.3,424c0.3,0,0.3-0.2,0.3-0.2L890.3,424l0.3-0.2C890.5,423.7,890.3,424,890.3,424z"/>
				<path class="st16" d="M891.1,424.1c0,0,0-0.3-0.3-0.3L891.1,424.1l-0.3-0.3C890.8,423.8,890.7,424,891.1,424.1z"/>
				<path class="st16" d="M891.5,425.1l0,0.2L891.5,425.1c0,0-0.2,0.1,0,0.3C891.5,425.4,891.7,425.2,891.5,425.1z"/>
				<path class="st16" d="M890.4,425c0,0,0.3-0.2,0.2-0.3l-0.1,0.2l0.1-0.2C890.6,424.7,890.4,424.6,890.4,425z"/>
				<path class="st16" d="M890.6,425.2l0.1-0.2c-0.3-0.1-0.2,0.4-0.2,0.4c0.3-0.1,0.2-0.3,0.2-0.3L890.6,425.2z"/>
			</g>
		</g>
	</g>
</g>
</svg>
