<?xml version="1.0" encoding="utf-8"?>
<!-- Generator: Adobe Illustrator 21.0.0, SVG Export Plug-In . SVG Version: 6.00 Build 0)  -->
<svg version="1.1" id="Layer_1" xmlns="http://www.w3.org/2000/svg" xmlns:xlink="http://www.w3.org/1999/xlink" x="0px" y="0px"
	 viewBox="0 0 1080 1920" style="enable-background:new 0 0 1080 1920;" xml:space="preserve">
<style type="text/css">
	.st0{fill:#896F4C;}
	.st1{opacity:0.2;fill:none;stroke:#000000;stroke-miterlimit:10;}
	.st2{opacity:0.15;}
	.st3{fill:#7A5F43;}
	.st4{opacity:0.1;}
	.st5{fill:#534741;}
	.st6{fill:none;stroke:#3D3530;stroke-linecap:round;stroke-linejoin:round;stroke-miterlimit:10;}
	.st7{opacity:0.36;}
	.st8{fill:#D6996F;}
	.st9{opacity:0.2;}
	.st10{opacity:0.5;}
	.st11{fill:#293842;}
	.st12{fill:#FFBE91;}
	.st13{fill:#F9F5E4;}
	.st14{opacity:5.000000e-02;}
	.st15{fill:#332C28;}
	.st16{fill:#FFFFFF;}
	.st17{opacity:0.3;}
	.st18{fill:#70573A;}
	.st19{fill:#C1BEA5;}
	.st20{fill:#CC9833;}
	.st21{fill:#CB9832;}
</style>
<path class="st0" d="M687.6,566.3c-38-12.9-72.5-12.7-99.4-11.6c-13.6,0.6-24.4,1.5-30.8,2c-28.4-5.6-85-12.4-131,16.3
	c-4.1,2.6-8.3,5.5-12.3,8.8c8.1,11.1,20.3,31.1,25.2,58.3c3.8,21,1.9,38.8-0.5,50.6c0,0,4.8,112.2,0.5,175.8l-13.5,143.2l248.4,2.1
	c-4.5-62.8-5-133.1,1.9-209.3c3.3-36.9,5.6-63.2,12.3-96.7c6.1-30.3,16.9-72.5,37.7-121.9C710.8,575,697.3,569.6,687.6,566.3z"/>
<path class="st1" d="M567.3,632.8c-0.1,120-0.1,240-0.2,360"/>
<path class="st2" d="M434.4,918c13.2,41.1,31,69.7,42.2,78.5c6.6,5.2,13.7,9,13.7,9c9.4,0.9,16.1,2.8,21.4,8.5
	c-28.6,0.3-57.1,0.6-85.7,0.9c1.3-16,2.6-32,4-48.1C431.5,950.5,432.9,934.3,434.4,918z"/>
<path class="st3" d="M629.9,535.2c0,0-68.3-27.5-124.7,0l18.9,67.6h80.5L629.9,535.2z"/>
<ellipse class="st4" cx="540" cy="1742.6" rx="280.2" ry="65.3"/>
<g>
	<path class="st5" d="M631.9,1645.2c0,0-0.5,32.8-6,53.2c0,0,0.6,9.9,27.4,14.4c26.9,4.5,46.6,22.4,56.5,37.8
		c9.9,15.4,88.9,11.4,90.5,10.4c0,0-37.8-45.7-61.4-66.6c-23.6-20.9-54.3-45.7-58.7-46.7C675.8,1646.7,631.9,1645.2,631.9,1645.2z"
		/>
	<path class="st2" d="M706,1666.6c-12.9-10.5-23.4-18.4-25.9-18.9c-4.4-1-48.3-2.5-48.3-2.5s-0.2,10-1.2,22.4
		C655.8,1667.6,680.9,1667.2,706,1666.6z"/>
	<path class="st6" d="M695.9,1656c0,0-28.5,19.9-25.4,37.9c3.1,18,18.9,9.6,16.7,0.7C685,1685.6,691.3,1661,695.9,1656z"/>
	<path class="st6" d="M697.1,1656.6c0,0,12.3,33.8,0,49.7"/>
</g>
<g>
	<path class="st5" d="M474.7,1666.3c0,0,0,47.7,0,55.2c0,7.1-72.4,2.2-115.2,31.3c0,0-54.3-9.7-66.6-14.2c0,0,17.3-32.1,42.8-38
		s79.8-20.9,82.3-35.8L474.7,1666.3z"/>
	<path class="st2" d="M474.7,1683.9c0-9.8,0-17.6,0-17.6l-56.8-1.5c-0.6,3.8-4.6,7.5-10.5,11.2
		C428.5,1682,452.3,1682.8,474.7,1683.9z"/>
	<path class="st6" d="M402.1,1679.2c0,0-41.9,35.9-22,46.5C394.5,1733.4,404.2,1681.5,402.1,1679.2z"/>
	<path class="st6" d="M404.2,1678.1c0,0,13.8,15.6,7.7,34.2"/>
</g>
<path class="st0" d="M672.3,993.8c0.9,15.4,1.9,30.3,3.2,44.5c9.8,109.4,17.3,378.7,8.3,610.6c0,0-34.9-1.1-53.3-1.8
	c1.5-236.4-8.4-533-81.9-528.3c-27,1.7-52.5,79-63.5,246.8c-11,167.9-9.3,303.6-9.3,303.6l-61.3-1c12.1-487.4,3.7-510.9,6.8-630.4
	l5-46.1L672.3,993.8z"/>
<path class="st7" d="M674.8,1029.4c-0.9-11.5-1.8-23.4-2.5-35.6l-246.1-2.2l-4.1,37.8H674.8z"/>
<path class="st8" d="M617.9,604.9c-2.5,8.5-7.8,18.2-15.1,26.2l-15-14.9c-1.7,3.7-3.4,7.5-5.1,11.2h-6.8l-8.6,14.2l0.1,0.4l-0.2-0.3
	L567,642l0.1-0.4l-8.6-14.2h-6.8c-1.7-3.7-3.4-7.5-5.1-11.2l-13.4,13.3c-10.6-9.3-17.8-20.1-16.1-27.1c1.7-7,2.3-27,2.5-45.5
	c0.2-19.2-0.1-37-0.1-37c75.2-9,96.9-6.4,98.5-0.8c0.3,1-0.1,2.1-0.2,9.8c0,6.3,0.2,10.8,0.3,14c0.1,2.9,0.3,5.8,0.4,8.4
	C619.9,581,620.4,596.5,617.9,604.9z"/>
<path class="st2" d="M618.9,610.3l-11.8,25.1l-19.4-19.2c-1.7,3.7-3.4,7.5-5.1,11.2h-6.8l-8.6,14.2l0.1,0.4l-0.2-0.3L567,642
	l0.1-0.4l-8.6-14.2h-6.8c-1.7-3.7-3.4-7.5-5.1-11.2l-19.4,19.3l-14.7-31.2c0.8,0,1.5-0.1,2.3-0.1c0,0,14.3-2.1,33.7-3.6
	c11.7-1,25.3-1.7,38.6-1.7h0c7.1,0,14.1,0.2,20.7,0.7c0,0,4.5,0.7,11.1,1.7C618.9,604.3,618.9,607.4,618.9,610.3z"/>
<g class="st9">
	<path d="M634.5,1034.6c3.7,25.4,6.8,50.9,9.7,76.4c0.7,6.4,1.3,12.8,2,19.1c0.7,6.4,1.4,12.8,2,19.2c1.2,12.8,2.5,25.6,3.6,38.3
		c4.5,51.1,7.8,102.4,10,153.7c1.2,25.6,1.7,51.3,2.4,77c0.2,12.8,0.3,25.7,0.4,38.5l0.2,19.3l-0.2,19.3l-0.4,38.5l-1.2,38.5
		l-0.6,19.2l-1.1,19.2l-2.1,38.4l1.9-38.5l0.9-19.2l0.5-19.2l1.1-38.5l0.3-38.5l0.1-19.2l-0.2-19.2c-0.2-12.8-0.3-25.7-0.5-38.5
		c-0.8-25.7-1.3-51.3-2.6-76.9c-2.1-51.3-5.3-102.5-9.7-153.7c-1.1-12.8-2.3-25.6-3.5-38.3c-1.3-12.8-2.6-25.5-3.9-38.3
		C641,1085.6,638.1,1060.1,634.5,1034.6z"/>
</g>
<g class="st9">
	<path d="M460.7,1034.6c-2.4,26-5,52-7.1,78.1l-1.7,19.5l-1.5,19.5l-1.5,19.5l-1.3,19.6c-0.4,6.5-0.9,13-1.3,19.6l-1,19.6
		c-0.8,13-1.1,26.1-1.6,39.2l-0.2,4.9l-0.1,4.9l-0.2,9.8l-0.2,9.8c-0.1,3.3-0.1,6.5-0.1,9.8c0,13.1-0.2,26.1,0,39.2
		c0.3,52.3,2.1,104.5,3.3,156.8c0.6,26.1,1.3,52.3,1.8,78.4l0.4,19.6l0.3,19.6l0.6,39.2l-0.8-39.2l-0.4-19.6l-0.5-19.6
		c-0.6-26.1-1.3-52.3-1.9-78.4c-1.4-52.3-3.2-104.5-3.7-156.8c-0.2-13.1,0-26.1,0.1-39.2c0-3.3,0.1-6.5,0.1-9.8l0.2-9.8l0.2-9.8
		l0.1-4.9l0.2-4.9c0.5-13.1,0.9-26.1,1.7-39.2l1.1-19.6c0.4-6.5,0.9-13,1.3-19.6l1.3-19.6l1.6-19.5l1.6-19.5l1.8-19.5
		C455.4,1086.7,458.1,1060.7,460.7,1034.6z"/>
</g>
<g class="st10">
	<path class="st11" d="M507.4,910.9c4.8-0.4,9.7-0.9,14.5-1.5c4.8-0.5,9.6-1.1,14.4-1.8c9.6-1.3,19.2-2.8,28.7-4.7
		c9.5-1.8,18.9-4.1,28.2-7c4.6-1.5,9.1-3.2,13.4-5.4c4.3-2.2,8.5-4.8,11.6-8.5c-1.5,1.9-3.2,3.6-5.2,5l-1.5,1.1l-1.5,1l-1.6,1
		l-1.6,0.9c-4.3,2.3-8.8,4.1-13.4,5.7c-9.2,3.1-18.7,5.4-28.2,7.3c-9.5,1.8-19.1,3.3-28.8,4.4C526.7,909.5,517.1,910.4,507.4,910.9z
		"/>
</g>
<g class="st10">
	<path class="st11" d="M535.9,870.1c6.3-3.4,12.7-6.4,19.3-9.1c6.6-2.8,13.2-5.2,20-7.4c6.8-2.1,13.7-4,20.7-5.3
		c7-1.3,14.1-2.1,21.2-2l-5.3,0.3l-1.3,0.1l-1.3,0.2l-2.6,0.3l-2.6,0.3c-0.9,0.1-1.7,0.3-2.6,0.5c-1.7,0.3-3.5,0.6-5.2,1
		c-6.9,1.5-13.8,3.4-20.5,5.5c-6.8,2.1-13.4,4.6-20,7.2c-3.3,1.3-6.6,2.7-9.8,4.1C542.3,867.2,539.1,868.6,535.9,870.1z"/>
</g>
<g class="st10">
	<path class="st11" d="M511.8,833.4c6.7-3.3,13.6-5.9,20.7-8.3c7.1-2.3,14.3-4.2,21.6-5.7l5.5-1c1.8-0.3,3.7-0.5,5.5-0.7l2.8-0.3
		l2.8-0.2c1.9-0.1,3.7-0.3,5.6-0.3c7.4-0.3,14.9,0.3,22.2,1.6c-3.7-0.3-7.4-0.9-11.1-0.9l-2.8-0.1l-1.4-0.1c-0.5,0-0.9,0-1.4,0
		l-5.5,0.2c-7.4,0.5-14.8,1.3-22,2.8c-7.3,1.4-14.4,3.3-21.5,5.4c-3.5,1.1-7.1,2.2-10.6,3.5C518.6,830.6,515.2,831.9,511.8,833.4z"
		/>
</g>
<path class="st2" d="M571.5,559.4c6.8,0.3,26.1-8.4,46.5-18.4c-0.3-13.4-0.8-26.9-0.1-28.7c1.2-3.2-98.5,0.5-98.5,0.5
	s0.5,18.1-0.1,33.2C543.7,553.3,565.9,559.2,571.5,559.4z"/>
<g>
	<path class="st12" d="M707.6,370.5c0,0,9.7-14.6,22.4-12.4c12.7,2.2,10.1,26.4,8.5,36.3c-1.6,9.9-23.1,40.7-38.1,22.2
		C692.2,406.3,707.6,370.5,707.6,370.5z"/>
	<path class="st12" d="M430.9,359.7c0,0-16.3-17.9-25.6,3.6c-9.3,21.5-3,54.8,30,54.6C447.1,417.9,430.9,359.7,430.9,359.7z"/>
	<path class="st12" d="M429.6,468.5c2.3-22.8,7.2-57.2,0.9-91.8c-6.3-34.5-28.2-127.2,103.8-150.8
		c131.9-23.6,199.6,40.1,179.6,130.2c-20.1,90.1-8.2,80.9-12,107.8c-2.4,16.8-10.9,30.9-32.5,41.8c-31.1,15.6-91.8,37.7-104,36.6
		c-12.2-1.1-81.3-36.4-110-45.6C428.1,488,428.7,477.6,429.6,468.5z"/>
	<path class="st5" d="M475.7,384.5c-4.6-2.2-10.9-5.3-6.7-17.9c4.2-12.6,29.2-14.2,40.2-10.1c11,4.1,24.2,12.2,17.8,18.9
		C520.6,382,497.2,394.6,475.7,384.5z"/>
	<path class="st13" d="M475.5,386.6c-4.6-2.2-11.4-6.1-6.7-17.9c3.5-8.6,30.7-12.5,41.7-8.4c11,4.1,22.7,10.5,16.2,17.2
		C520.3,384.1,496.9,396.7,475.5,386.6z"/>
	<g class="st14">
		<path d="M715.3,265.9c-19.1-19.3-13.4-38.5-13.4-38.5s-12.4,2.3-25.5,2.1c-13.2-0.2-28.1-13.9-43.5-22.4
			c-15.5-8.5-41.1-0.2-41.1-0.2c1.3-12.8,21.1-15.4,21.1-15.4c-34.4,1.3-40.6,15.1-47.3,17.9c-6.6,2.8-29.8-7.4-29.8-7.4
			c-7.2-2.1-6.4,6.1-22.7,4.7c-18.4-1.6-26,1.6-26,1.6c17.8,1.5,27.5,9.6,27.5,9.6c-21.5-1.4-27.8,18.6-27.8,18.6
			c-13.3-9.3-36.5-3.6-51.2,5.6c-14.7,9.2,14.4,3,14.4,3l-8.1,22c-21.9,25.2-23.8,60-22.4,81.3c0.9,0.3,1.6,0.9,1.9,1.9
			c1.6,5.2,5.7,8.9,8.4,13.5c1.6,2.8,2.5,5.8,3.7,8.7l12.1,1.1c-0.1-0.3-0.1-0.5-0.1-0.5l-4.6-26.7c1.2-1.8,13.2-5.5,16.9-20.5
			c3.7-15,5-17.3,5-17.3s25.4-5.9,28.2-7.1c2.8-1.2,25.3-14.5,25.3-14.5l31.2-5.9c0,0-18.9,17-27.5,21c8.3-1.9,30.1-6.9,40.4-7.9
			c12.8-1.3,12.8-1.3,12.8-1.3s35.2-3.6,41-3.6c0,0,4.1-9.2-3.6-15.6c0,0,21,10.9,29,10.6c7.9-0.3,20.2-1.6,20.2-1.6l12.2-3.3
			l6.4-1.2l-12.9,30.8c0,0,16.4-15.3,19.6-16c0,0-4.4,57-12.5,63c0,0,14.2-9.3,14.6-13.6c0,0-0.8,37.1-3.1,51.8l19.9,1.7
			c0.5-6,0.9-10.2,0.9-11.4c0.1-6.2,9.4-64.2,16.8-78.9C729,291,734.4,285.3,715.3,265.9z"/>
		<path d="M524.1,494.8c0,0,63.6,0.7,92.3-10.6c0,0-5.5,29.4-43.3,29.8C535.2,514.4,524.1,494.8,524.1,494.8z"/>
	</g>
	<path class="st5" d="M602.6,385.4c0,0-9.3-8.3-3.9-17.1c5.4-8.8,24.6-12.6,39.1-11c14.5,1.5,24.2,14.8,12.3,25
		C638.2,392.5,611.5,394.5,602.6,385.4z"/>
	<path class="st13" d="M602.8,387.2c0,0-9.3-8.3-3.9-17.1c5.4-8.8,24.4-10.6,38.8-9.1c14.5,1.5,24.4,12.8,12.5,23
		C638.3,394.4,611.7,396.4,602.8,387.2z"/>
	<path class="st15" d="M507.9,373.5c-0.5,4.4-4.8,7.7-9.7,7.2c-4.9-0.4-8.5-4.4-8-8.8s4.8-7.7,9.7-7.2
		C504.8,365.2,508.3,369.1,507.9,373.5z"/>
	<path class="st15" d="M635.2,377.1c-0.5,4.4-4.8,7.7-9.7,7.2c-4.9-0.4-8.5-4.4-8-8.8c0.5-4.4,4.8-7.7,9.7-7.2
		C632,368.7,635.6,372.6,635.2,377.1z"/>
	<path class="st5" d="M457.2,342.9c0,0,8.4-4.8,24-10c12.2-4.1,27.3-5.1,35-3c7.7,2.1,20.7,11.9,16.1,13.8c-4.7,1.9-22.5-2.2-34.6-1
		c-12.5,1.2-23.2,2.9-30.1,4.3C461.1,348.3,454.7,348.1,457.2,342.9z"/>
	<path class="st5" d="M608.2,345.3c0,0-14,2.5-15.8-4c-1.9-6.5,6-8.7,19.6-7.8c13.6,0.9,44.9,8.8,50,15c5.1,6.2,3.3,5.2-1.2,5.4
		C656.3,354.1,637.3,343.8,608.2,345.3z"/>
	<g>
		<path class="st5" d="M723.6,247.3c-19.9-20.2-13.9-40.2-13.9-40.2s-12.9,2.4-26.7,2.2c-13.8-0.2-29.3-14.5-45.5-23.4
			c-16.1-8.9-42.9-0.2-42.9-0.2c1.4-13.4,22.1-16.1,22.1-16.1c-36,1.4-42.4,15.8-49.4,18.7c-6.9,2.9-31.1-7.7-31.1-7.7
			c-7.5-2.1-6.7,6.4-23.7,4.9c-19.2-1.7-27.2,1.6-27.2,1.6c18.6,1.6,28.7,10,28.7,10c-22.4-1.4-29.1,19.5-29.1,19.5
			c-13.9-9.7-38.2-3.8-53.5,5.8c-15.3,9.7-23.8,42.4-23.8,42.4l30.4-16.3c-35.1,40.4-21,104.6-21,104.6c10.2,2.9,9.2,6.8,13.5,18.2
			c4.3,11.4-2.2,76.3-4,85.1c-2.3,10.8-0.1,29.7,19.4,40.6c17.9,10,109.1,46.9,121.6,48.5c12.5,1.6,71.3-23.8,98.4-34.4
			c29-11.4,34.8-26.5,36-33.3c1.3-6.9,10.5-100,10.7-106.4c0.1-6.5,9.8-67.1,17.5-82.4C737.9,273.6,743.5,267.5,723.6,247.3z
			 M665.3,439.6c-5.4,3.4-38.3,14.5-68.4,11.9c0,0-6.6,15-20.5,15.8c-13.9,0.8-27.5-2.1-32.1-4.3c-12.5-5.9-13.7-11.2-13.7-11.2
			s-32.3-1-43.1-3.9c-10.7-2.9-31.8-17.6-35.9-41.9c-4-24.3-9.9-46.8-9.9-46.8l-4.8-27.9c1.3-1.9,13.8-5.8,17.7-21.4
			c3.9-15.6,5.2-18,5.2-18s26.5-6.2,29.4-7.4c2.9-1.2,26.4-15.2,26.4-15.2l32.6-6.2c0,0-19.8,17.8-28.7,21.9
			c8.6-2,31.4-7.2,42.2-8.2c13.4-1.3,13.4-1.3,13.4-1.3s36.8-3.8,42.8-3.8c0,0,4.3-9.6-3.8-16.3c0,0,21.9,11.4,30.2,11.1
			c8.3-0.3,21.1-1.7,21.1-1.7l12.8-3.4l6.6-1.2l-13.5,32.1c0,0,17.1-16,20.5-16.7c0,0-4.6,59.5-13,65.8c0,0,14.8-9.7,15.3-14.2
			c0,0-1,45.9-3.9,57.6C690.4,384.8,682.2,428.7,665.3,439.6z"/>
		<path class="st8" d="M545.3,412.2c0,0-4.4,31.1-15.3,35.6c-10.9,4.5,13.1,22.1,34.1,21.4c21-0.7,33.2-6.1,33.2-16.6
			c0-10.5-6.2-14.5-6.2-14.5s7.4,13.1,0.8,18.5c-6.6,5.4-18.1,9.4-29.2,10c-11.1,0.5-35.2-11-29.7-16.1
			C538.5,445.5,547.8,430.4,545.3,412.2z"/>
		<g>
			<path class="st16" d="M608.6,486.1c-0.4,1.3-1.2,2.4-2.1,3.3c-1,0.9-2,1.7-3.2,2.4c-2.3,1.3-4.7,2.3-7.2,3.1
				c-5,1.6-10.2,2.3-15.5,2.6c-2.6,0.1-5.2,0.1-7.9-0.1c-2.6-0.2-5.2-0.4-7.8-0.9c-2.6-0.5-5.1-1-7.6-1.8c-2.5-0.8-5-1.7-7.3-2.8
				c4.9,1.8,10,3.1,15.1,3.8c5.1,0.7,10.3,1,15.5,0.7c5.2-0.2,10.3-1,15.3-2.4c2.5-0.7,4.9-1.6,7.2-2.8c1.1-0.6,2.2-1.3,3.2-2.1
				C607.2,488.4,608.1,487.4,608.6,486.1z"/>
		</g>
	</g>
	<g class="st17">
		<g>
			<path class="st8" d="M458.1,407.6c2.7-2.2,5.4-4.3,8.2-6.5c2.8-2.1,5.6-4.1,8.5-6.1c-2.7,2.3-5.4,4.3-8.2,6.5
				C463.8,403.6,461,405.7,458.1,407.6z"/>
		</g>
		<g>
			<path class="st8" d="M477.8,407.5c2.7-2.2,5.4-4.3,8.2-6.5c2.8-2.1,5.6-4.1,8.5-6.1c-2.7,2.3-5.4,4.3-8.2,6.5
				C483.5,403.5,480.8,405.6,477.8,407.5z"/>
		</g>
		<g>
			<path class="st8" d="M497.4,409.2c2.7-2.3,5.4-4.3,8.2-6.5c2.8-2.1,5.6-4.1,8.5-6.1c-2.7,2.3-5.4,4.3-8.2,6.5
				C503.1,405.2,500.3,407.3,497.4,409.2z"/>
		</g>
		<g>
			<path class="st8" d="M517,410.9c2.7-2.3,5.4-4.3,8.2-6.5c2.8-2.1,5.6-4.1,8.5-6.1c-2.7,2.3-5.4,4.3-8.2,6.5
				C522.7,406.9,519.9,409,517,410.9z"/>
		</g>
	</g>
	<g class="st17">
		<g>
			<path class="st8" d="M589.8,412.9c2.7-2.3,5.4-4.3,8.2-6.5c2.8-2.1,5.6-4.1,8.5-6.1c-2.7,2.3-5.4,4.3-8.2,6.5
				C595.5,408.9,592.7,411,589.8,412.9z"/>
		</g>
		<g>
			<path class="st8" d="M609.6,412.9c2.7-2.2,5.4-4.3,8.2-6.5c2.8-2.1,5.6-4.1,8.5-6.1c-2.7,2.3-5.4,4.3-8.2,6.5
				C615.3,408.9,612.5,410.9,609.6,412.9z"/>
		</g>
		<g>
			<path class="st8" d="M629.1,414.6c2.7-2.2,5.4-4.3,8.2-6.5c2.8-2.1,5.6-4.1,8.5-6.1c-2.7,2.3-5.4,4.3-8.2,6.5
				C634.8,410.6,632,412.6,629.1,414.6z"/>
		</g>
		<g>
			<path class="st8" d="M648.7,416.2c2.7-2.2,5.4-4.3,8.2-6.5c2.8-2.1,5.6-4.1,8.5-6.1c-2.7,2.3-5.4,4.3-8.2,6.5
				C654.4,412.3,651.6,414.3,648.7,416.2z"/>
		</g>
	</g>
</g>
<polygon class="st18" points="553.9,608.8 546.5,616.2 533.2,629.5 527.2,635.4 512.4,604.2 497.5,572.6 505.2,535.2 519.5,556.9 
	548.4,600.4 "/>
<polygon class="st18" points="636.7,572.6 618.9,610.3 607.1,635.4 602.8,631.1 587.8,616.2 580.4,608.8 587,598.7 587.1,598.7 
	618.5,551.3 629.1,535.2 "/>
<path class="st18" d="M567.3,642l-0.2-0.3l-0.1-0.1l-8.6-14.2h-6.8c-1.7-3.7-3.4-7.5-5.1-11.2c-0.1-0.2-0.2-0.3-0.2-0.5
	c2.5-2.3,5.1-4.6,7.6-6.9c0.8,4.8,1.6,9.5,2.3,14.3h7.1l3.8,18l0.1,0.4L567.3,642z"/>
<path class="st18" d="M588,615.7c-0.1,0.2-0.2,0.3-0.2,0.5c-1.7,3.7-3.4,7.5-5.1,11.2h-6.8l-8.6,14.2l-0.1,0.1L567,642l0.1-0.4
	l0.1-0.4l3.8-18h7c0.8-4.8,1.6-9.5,2.4-14.3C582.9,611.1,585.5,613.4,588,615.7z"/>
<path class="st2" d="M388.6,768c3.3,1.5,6.5,2.6,9.4,3.4C395,770.7,391.8,769.5,388.6,768z"/>
<path class="st0" d="M414,581.8c0,0,62.8,10.7,25.3,133.1L414,773.5c0,0-53.1,1.7-57.6-56.2L414,581.8z"/>
<path class="st2" d="M414,773.5c-19.2-18.7-38.4-37.5-57.6-56.2c0,3,0.6,31.8,26.1,47.4C394.8,772.2,407.5,773.3,414,773.5z"/>
<path class="st12" d="M500.5,1023.2c-8,1.8-16.6,1.3-23.1-1.2c0,0,3.5,11.5,8.7,21.1c-17.4,1.1-34.8,3.3-52,6.7
	c-3.1-5.7-5.6-12-7-18.9c-1.3-6.3-3.6-11.2-1.2-15c-1.9-3.3-3.9-6.5-5.8-9.8c-33.6-57.7-62-115.5-85.9-172.8
	c-0.4-9.1-3.1-18.8,0-27.8c2.5-7.2,4.7-13.5,7.3-20.4c12-32.4,10.3-26.8,26.5-65.4c0-0.1,0.4-1,0.4-1.1c4.9,1,14.9,3.5,24.4,11
	c11.1,8.6,15.3,18.9,16.8,23.3c-3.6,6.9-7.9,17.1-13.8,29.2c-7.1,14.5-11.7,23.4-12.5,36.8c-0.9,14.8,3.6,24,15.6,51.5
	c22.9,52.3,17.9,44.7,28.4,66.1c4,8.2,8.6,17.3,14,27.2c5.3,9.9,11.4,20.6,18.1,31.8c2.5-0.3,4.9-0.1,6.9,0.9
	c17.8,8.6,13,17.5,36.9,14.4C503.3,1010.8,516.3,1019.6,500.5,1023.2z"/>
<path class="st2" d="M356.4,717.3c19.2,18.7,38.4,37.5,57.6,56.2c0-3-0.6-31.8-26.1-47.4C375.5,718.5,362.8,717.4,356.4,717.3z"/>
<path class="st2" d="M670.8,915.3c-2.9,18.5-11.9,53.7-44,78.3c-4.5,3.5-9.1,6.5-13.7,9c-9.4,0.9-16.1,2.8-21.4,8.5
	c26.6,0.4,53.2,0.8,79.8,1.3c-0.1-16-0.2-32-0.3-48.1C671.1,948,671,931.6,670.8,915.3z"/>
<path class="st0" d="M726,584c0,0-63.4,6.9-34.9,131.3l21,59.9c0,0,52.8,4.8,61.5-52.6L726,584z"/>
<path class="st2" d="M712.1,775.2c20.5-17.5,41-35.1,61.5-52.6c-0.2,2.9-2.9,31.7-29.5,45.8C731.3,775.2,718.5,775.5,712.1,775.2z"
	/>
<path class="st12" d="M607.5,1019.3c7.9,2.3,16.4,2.3,23.2,0.2c0,0-4.3,11.3-10.2,20.5c17.3,2.1,34.5,5.4,51.4,9.7
	c3.5-5.5,6.4-11.6,8.4-18.4c1.8-6.2,4.4-10.9,2.3-14.9c2.2-3.2,4.4-6.3,6.5-9.5c37.7-55.6,70.2-111.5,98.2-167.3
	c1-9,4.5-18.6,2-27.8c-2-7.4-3.7-13.7-5.7-20.8c-9.6-33-8.4-27.4-21.7-66.9c0-0.1-0.3-1-0.4-1.1c-5,0.7-15.1,2.6-25.2,9.5
	c-11.7,8-16.6,18-18.4,22.2c3.1,7.1,6.7,17.6,11.7,30c6,14.9,10,24,9.8,37.5c-0.2,14.8-5.4,23.7-19.3,50.4
	c-26.6,50.8-21.1,43.5-33.1,64.3c-4.6,7.9-9.9,16.7-15.9,26.3c-6,9.5-12.8,19.8-20.4,30.7c-2.5-0.5-4.9-0.4-7,0.5
	c-18.4,7.5-14.3,16.6-37.8,12.1C605.7,1006.7,592.1,1014.8,607.5,1019.3z"/>
<path class="st2" d="M773.6,722.6c-20.5,17.5-41,35.1-61.5,52.6c0.2-2.9,2.9-31.7,29.5-45.8C754.4,722.6,767.2,722.3,773.6,722.6z"
	/>
<path class="st1" d="M631.5,674.1h-30.6V719c1,2.7,4.2,9.7,12.7,14.5c11.5,6.5,27.2,5.7,35.9,0c7.2-4.7,12.7-14.5,12.7-14.5l0,0
	v-44.9H631.5z"/>
<polyline class="st18" points="600.9,691 662.2,691 662.2,674.1 600.9,674.1 600.9,691 "/>
<path class="st1" d="M499.9,674.1h-30.6V719c1,2.7,4.2,9.7,12.7,14.5c11.5,6.5,27.2,5.7,35.9,0c7.2-4.7,12.7-14.5,12.7-14.5l0,0
	v-44.9H499.9z"/>
<polyline class="st18" points="469.2,691 530.5,691 530.5,674.1 469.2,674.1 469.2,691 "/>
<polyline class="st19" points="478.3,662.3 521.4,662.3 521.4,653.8 478.3,653.8 478.3,662.3 "/>
<g>
	<polygon class="st20" points="629.4,649.6 638.4,649.6 634.9,648.2 633,648.2 	"/>
	<path class="st20" d="M638.2,652v-0.3h-0.5v-0.3h-0.6v-1.3h-0.9l0.2,0.2v1.1h-0.8v-1.1l0.2-0.2h-1.1l0.2,0.2v1.1h-0.8v-1.1l0.2-0.2
		h-0.5h-0.5l0.2,0.2v1.1h-0.8v-1.1l0.2-0.2H632l0.2,0.2v1.1h-0.8v-1.1l0.2-0.2h-0.9v1.3h-0.6v0.3h-0.5v0.3H629
		c0,0.1,0.1,0.3,0.1,0.3c0.2,0.3,0.6,0.3,0.7,0.3c0.2,0,0.4,0,0.7,0c0.4,0,0.8,0,1.1,0.2c0.3,0.1,0.6,0.2,0.9,0.4
		c0.3,0.3,0.5,0.6,0.5,0.7c0,0.1,0.1,0.5,0.5,0.7c0.1,0.1,0.2,0.1,0.3,0.1c0.1,0,0.2,0,0.3-0.1c0.4-0.2,0.5-0.6,0.5-0.7
		c0.1-0.2,0.2-0.5,0.5-0.7c0.3-0.3,0.7-0.4,0.9-0.4c0.4-0.1,0.7-0.1,1.1-0.2c0.3,0,0.5,0,0.7,0c0.1,0,0.4,0,0.7-0.3
		c0.1-0.1,0.1-0.2,0.1-0.3H638.2z"/>
	<path class="st20" d="M639.3,652.5c-0.2,2.5-1.9,4.2-3.5,4.3c-0.3,0-1,0-1.9-0.5c-0.9,0.5-1.6,0.5-1.9,0.5
		c-1.7-0.1-3.3-1.8-3.5-4.3c0,0.1,0.1,0.2,0.2,0.3c0.1,0.1,0.2,0.2,0.3,0.2c0,0,0,0,0,0c0.2,0.3,0.6,0.3,0.7,0.3c0.2,0,0.4,0,0.7,0
		c0.4,0,0.8,0,1.2,0.2c0.3,0.1,0.6,0.2,1,0.4c0.4,0.3,0.5,0.6,0.5,0.8c0,0.1,0.1,0.5,0.5,0.7c0.1,0.1,0.2,0.1,0.4,0.1
		c0.1,0,0.2,0,0.4-0.1c0.4-0.2,0.5-0.6,0.5-0.7c0.1-0.2,0.2-0.5,0.5-0.8c0.3-0.3,0.7-0.4,1-0.4c0.4-0.1,0.8-0.1,1.2-0.2
		c0.3,0,0.5,0,0.7,0c0.1,0,0.5,0,0.7-0.3c0,0,0,0,0,0c0.1,0,0.2-0.1,0.3-0.2C639.3,652.7,639.3,652.6,639.3,652.5z"/>
	<g>
		<path class="st20" d="M633.9,657.3c0,0-2.2,2-5.3,1.3c0.3,0,0.6-0.1,0.9-0.1c0.2-0.1,0.4-0.1,0.6-0.2c0.8-0.2,1.6-0.3,2.2-0.4
			c0.2,0,0.4-0.1,0.7-0.2C633.3,657.6,633.7,657.5,633.9,657.3z"/>
		<path class="st20" d="M631.9,657.8c0,0-2,0.6-3-0.6l0.5,0.1l0.5-0.1l0.4,0.3l0.6,0L631.9,657.8z"/>
		<path class="st20" d="M630.4,657.2c0,0-1.6-1.2-1.9-1.3l-0.8,0l-0.3-0.3c0,0,0.5,1.6,2.3,1.4C629.7,657,630.1,657.3,630.4,657.2z"
			/>
		<path class="st20" d="M629.3,656.2l-0.6-0.9c0,0,0-0.4-0.6-0.5l-0.2-0.6c0,0-0.1-0.2-0.4-0.3c-0.3,0-0.6-0.4-0.7-0.7
			c0,0,0.1,2.9,1.7,2.6L629.3,656.2z"/>
		<path class="st20" d="M630.2,658.1c0,0-0.7-0.2-0.8-0.3l-0.7,0l-0.5-0.2l-1.3,0.1c0,0-0.5-0.1-0.7-0.3
			C626.2,657.5,627.4,658.9,630.2,658.1z"/>
		<path class="st20" d="M629,657.5c0,0-0.5-0.4-0.5-0.4l-0.3-0.2l-0.7,0l-0.4-0.2c0,0-1.4,0.2-2.5-1
			C624.6,655.6,625.7,657.7,629,657.5z"/>
		<path class="st20" d="M627.9,656.6l-0.4-0.6l-0.6-0.3c0,0-0.3-0.4-0.7-0.6c-0.4-0.2-2.1-1.6-2.2-2.9
			C624,652.2,622.8,655.9,627.9,656.6z"/>
		<path class="st20" d="M627.2,655.5l-0.5-1.3c0,0-0.3-0.2-0.4-0.3c-0.1-0.1-0.3-1.7-1.3-2.7c0,0-0.4-1.9,1.3-4.2
			C626.3,647,620.8,651.7,627.2,655.5z"/>
	</g>
	<g>
		<path class="st20" d="M634,657.3c0,0,2.2,2,5.3,1.3c-0.3,0-0.6-0.1-0.9-0.1c-0.2-0.1-0.4-0.1-0.6-0.2c-0.8-0.2-1.6-0.3-2.2-0.4
			c-0.2,0-0.4-0.1-0.7-0.2C634.6,657.6,634.2,657.5,634,657.3z"/>
		<path class="st20" d="M636,657.8c0,0,2,0.6,3-0.6l-0.5,0.1l-0.5-0.1l-0.4,0.3l-0.6,0L636,657.8z"/>
		<path class="st20" d="M637.5,657.2c0,0,1.6-1.2,1.9-1.3l0.8,0l0.3-0.3c0,0-0.5,1.6-2.3,1.4C638.2,657,637.8,657.3,637.5,657.2z"/>
		<path class="st20" d="M638.6,656.2l0.6-0.9c0,0,0-0.4,0.6-0.5l0.2-0.6c0,0,0.1-0.2,0.4-0.3s0.6-0.4,0.7-0.7c0,0-0.1,2.9-1.7,2.6
			L638.6,656.2z"/>
		<path class="st20" d="M637.7,658.1c0,0,0.7-0.2,0.8-0.3l0.7,0l0.5-0.2l1.3,0.1c0,0,0.5-0.1,0.7-0.3
			C641.7,657.5,640.5,658.9,637.7,658.1z"/>
		<path class="st20" d="M638.9,657.5c0,0,0.5-0.4,0.5-0.4l0.3-0.2l0.7,0l0.4-0.2c0,0,1.4,0.2,2.5-1
			C643.3,655.6,642.2,657.7,638.9,657.5z"/>
		<path class="st20" d="M640,656.6l0.4-0.6l0.6-0.3c0,0,0.3-0.4,0.7-0.6c0.4-0.2,2.1-1.6,2.2-2.9C643.9,652.2,645.1,655.9,640,656.6
			z"/>
		<path class="st20" d="M640.7,655.5l0.5-1.3c0,0,0.3-0.2,0.4-0.3c0.1-0.1,0.3-1.7,1.3-2.7c0,0,0.4-1.9-1.3-4.2
			C641.6,647,647.1,651.7,640.7,655.5z"/>
	</g>
	<g>
		<path class="st21" d="M632.1,640.8l-0.9,0.3l0.7-0.4c0,0-0.6-0.3-1.1,0.4C630.8,641.2,631.8,641.6,632.1,640.8z"/>
		<path class="st21" d="M632.7,641.8l0.8,0.4L632.7,641.8c0,0.1,0,0.5,1,0.5C633.6,642.3,633.5,641.6,632.7,641.8z"/>
		<path class="st21" d="M632,642.1l0.6,0.2l-0.6-0.1c0,0,0.2,0.2,0.8,0.2C632.8,642.5,632.7,642.1,632,642.1z"/>
		<path class="st21" d="M630.5,642.4l-0.9,0L630.5,642.4c0,0.1,0.1,0.7-1.3,0C629.3,642.5,630.3,641.9,630.5,642.4z"/>
		<path class="st21" d="M632.6,643.2l0.7,0.4L632.6,643.2c0,0.1-0.2,0.5,0.9,0.6C633.5,643.8,633,642.9,632.6,643.2z"/>
		<path class="st21" d="M631.7,643.2l-0.6,0.6l0.7-0.6c0,0,0.5,0.6-1,0.8C630.9,643.9,630.9,643,631.7,643.2z"/>
		<path class="st21" d="M630.2,643.4c0,0-1-0.1-1-0.1l1.1,0.1c0,0-0.2,1.1-1.5-0.2C628.8,643.3,629.9,642.7,630.2,643.4z"/>
		<path class="st21" d="M629.6,646.9l0.1,0.7v-0.8c0,0,0.6,0.3,0,1C629.7,647.8,629,647.3,629.6,646.9z"/>
		<path class="st21" d="M631.9,645.9l-0.7,0.4l0.9-0.4c0,0,0.4,0.8-1.3,0.6C630.8,646.5,631.3,645.6,631.9,645.9z"/>
		<path class="st21" d="M630.3,646.1c0,0,0.6,0.5,0.2,0.8c0,0-0.7-0.4-0.3-0.7l0.2,0.3L630.3,646.1z"/>
		<path class="st21" d="M631.5,646.8l-0.6,0.5l0.7-0.5c0,0,0.7,0.7-1.1,0.6C630.5,647.4,630.8,646.6,631.5,646.8z"/>
		<path class="st21" d="M632.6,645.8l0.5,0.6l-0.5-0.7c0,0,0.8-0.2,0.7,1C633.2,646.7,632.1,646.3,632.6,645.8z"/>
		<path class="st21" d="M632.3,646.7l0.5,0.7l-0.6-0.7c0,0-0.2,0.6,0.7,1C632.9,647.7,633.3,646.3,632.3,646.7z"/>
		<g>
			<path class="st21" d="M640,647.4c-0.4-0.7-1-0.6-1-0.6s0.3,0.3,0.5,0.4c-0.2-0.1-0.6-0.4-0.6-0.4l-0.2,0.1c0,0,0,0-0.1-0.1
				c-0.1-0.1-0.7-0.8-0.7-0.8h0.9c-0.1,0.1-0.2,0.2-0.2,0.2s0.8,0,0.9,0c0,0-1,0.1-1,0.1c0.7,0.6,1.3-0.2,1.3-0.2l-0.7-0.3
				c0.2,0,0.5-0.2,0.5-0.2c-0.1,0-0.7,0-0.7,0s-0.5,0-0.5,0s-1.2,0-1.3,0c-0.1,0-0.7-0.1-0.7-0.1s-0.9-0.2-0.9-0.2s-0.7-0.1-0.8,0
				c-0.2,0.1-0.6,0.3-0.6,0.3v-1.3c0.3-0.5,1.1-0.4,1.1-0.4l0.2,0.3l-0.2,0c-0.9,0.1-0.9,0.9-0.9,0.9c0.8,0.1,1.1-0.6,1.1-0.6
				l-0.8,0.3l0.8-0.5l0.2,0.7h0.1l0-0.2c0.7,0.3,1.2-0.5,1.2-0.5c-1.2-0.2-1.2,0.2-1.2,0.2l0.9-0.1c-0.3,0.2-1.1,0.2-1.1,0.2
				l-0.3-0.7c0,0,0.2,0,0.3,0c0.1,0,1.7,0.3,1.7,0.3l0.3,0.3l-0.1,0.1c-0.9,0-1,0.8-1,0.8c1.1,0,1.1-0.6,1.1-0.6l-0.8,0.3
				c0.2-0.1,0.9-0.4,0.9-0.4l0.3,0.5l0.1-0.1l-0.3-0.4l0.3,0c0.5,0.8,1.5,0.5,1.5,0.5c-0.5-1-1.3-0.7-1.3-0.7l0.9,0.6
				c-0.5-0.1-1-0.5-1-0.5l-0.4,0l-0.1-0.2c0,0,0.1,0,0.3,0c0.2,0,0.9-0.1,1-0.1c0.1,0,0.2-0.1,0.2-0.1c0,0,0,0,0,0
				c0,0-0.9,0.1-1,0.1c-0.2,0-0.6-0.1-0.6-0.1l-1.4-0.3c0,0-0.7-0.2-1.1-0.2c-0.4,0-0.8,0.3-0.8,0.3h-0.1v-1l0.4-0.3
				c0,0,0.6-0.1,0.8,0c0.2,0.2,0.6,1.1,0.6,1.1h0.1l-0.2-0.6l0.2-0.1l-0.2-0.1l-0.4-0.4c0,0,0,0,0.6,0s0.9,0.3,0.9,0.3l0.6,1.1
				l0.6,0c0.7,0.5,1.5-0.1,1.5-0.1c-0.5-0.4-0.9-0.4-1.1-0.3c0.2-0.1,0.4-0.2,0.6-0.5c0,0-1.1-0.6-1.4,0.1c0,0,0.8,0,1-0.1l-1.1,0.1
				c0,0,0.1,0.6,0.7,0.4c-0.1,0.1-0.1,0.2-0.1,0.2l1,0.1c-0.3,0.1-1.1,0-1.1,0l-0.4,0l-0.6-1l1.4-0.1l0.1-0.1h-1.6l-0.7-0.2
				c0,0-1,0-1.3,0c-0.3,0-0.8,0.4-0.8,0.4v-1.3c0.5-0.6,1.6-0.2,1.6-0.2l0,0.1l-0.4,0.1l0,0.1l0.4-0.1l0.8,1l0.1,0l0-0.1l0.4,0v-0.1
				l-0.6,0l-0.4-0.5l1.5-0.1c-0.1,0.1-1,0.2-1,0.2c0.6,0.6,1.3-0.3,1.3-0.3c-0.9-0.3-1.3,0.2-1.3,0.2l-0.6,0l-0.3-0.3
				c0.1,0,1.4,0,1.4,0v-0.1c-1.8,0-2-0.2-2-0.2c0.1-0.2,0.5-0.6,0.5-0.6l-0.1-0.1l-0.3,0.2c-0.2-0.8-1.2-0.7-1.2-0.7
				c0.2,1,0.9,0.9,0.9,0.9c-0.2-0.1-0.7-0.7-0.7-0.7c0.5,0.1,0.8,0.7,0.8,0.7c0,0-0.2,0.3-0.2,0.3c-0.7,0-1,0.3-1,0.3l0-0.1
				c0.5-0.7-0.1-1.1-0.1-1.1s-0.6,0.4-0.1,1.1l0,0.1c0,0-0.4-0.3-1-0.3c0,0-0.1-0.3-0.2-0.3c0,0,0.3-0.6,0.8-0.7
				c0,0-0.5,0.6-0.7,0.7c0,0,0.8,0.1,0.9-0.9c0,0-1-0.1-1.2,0.7l-0.3-0.2l-0.1,0.1c0,0,0.4,0.4,0.5,0.6c0,0-0.2,0.2-2,0.2v0.1
				c0,0,1.3,0,1.4,0l-0.3,0.3l-0.6,0c0,0-0.4-0.5-1.3-0.2c0,0,0.8,1,1.3,0.3c0,0-0.9-0.1-1-0.2l1.5,0.1l-0.4,0.5l-0.6,0v0.1l0.4,0
				l0,0.1l0.1,0l0.8-1l0.4,0.1l0-0.1l-0.4-0.1l0-0.1c0,0,1.1-0.3,1.6,0.2v1.3c0,0-0.5-0.4-0.8-0.4c-0.3,0-1.3,0-1.3,0l-0.7,0.2h-1.6
				l0.1,0.1l1.4,0.1l-0.6,1l-0.4,0c0,0-0.9,0.2-1.1,0l1-0.1c0,0-0.3-0.7-1.5,0.1c0,0,0.8,0.6,1.5,0.1l0.6,0l0.6-1.1
				c0,0,0.3-0.3,0.9-0.3s0.6,0,0.6,0l-0.4,0.4l-0.2,0.1l0.2,0.1L632,644h0.1c0,0,0.4-0.9,0.6-1.1c0.2-0.2,0.8,0,0.8,0l0.4,0.3v1
				h-0.1c0,0-0.4-0.3-0.8-0.3c-0.4,0-1.1,0.2-1.1,0.2l-1.4,0.3c0,0-0.5,0.1-0.6,0.1c-0.2,0-1-0.1-1-0.1c0,0,0,0,0,0
				c0,0,0.1,0.1,0.2,0.1c0.1,0,0.8,0.1,1,0.1c0.2,0,0.3,0,0.3,0l-0.1,0.2l-0.4,0c0,0-0.5,0.5-1,0.5l0.9-0.6c0,0-0.8-0.3-1.3,0.7
				c0,0,1,0.3,1.5-0.5l0.3,0l-0.3,0.4l0.1,0.1l0.3-0.5c0,0,0.7,0.4,0.9,0.4l-0.8-0.3c0,0,0.1,0.6,1.1,0.6c0,0-0.1-0.8-1-0.8
				l-0.1-0.1l0.3-0.3c0,0,1.5-0.3,1.7-0.3c0.1,0,0.3,0,0.3,0l-0.3,0.7c0,0-0.8,0-1.1-0.2l0.9,0.1c0,0,0.1-0.4-1.2-0.2
				c0,0,0.6,0.7,1.2,0.5l0,0.2h0.1l0.2-0.7l0.8,0.5l-0.8-0.3c0,0,0.3,0.7,1.1,0.6c0,0,0-0.8-0.9-0.9l-0.2,0l0.2-0.3
				c0,0,0.8-0.1,1.1,0.4v1.3c0,0-0.4-0.2-0.6-0.3c-0.2-0.1-0.8,0-0.8,0s-0.9,0.2-0.9,0.2s-0.6,0.1-0.7,0.1c-0.1,0-1.3,0-1.3,0
				s-0.5,0-0.5,0s-0.6-0.1-0.7,0c0,0,0.4,0.1,0.5,0.2l-0.7,0.3c0,0,0.7,0.7,1.3,0.2c0,0-0.9-0.1-1-0.1c0,0,0.9,0,0.9,0
				s-0.1-0.2-0.2-0.2h0.9c0,0-0.6,0.7-0.7,0.8c-0.1,0.1-0.1,0.1-0.1,0.1l-0.2-0.1c0,0-0.4,0.3-0.6,0.4c0.2-0.1,0.5-0.4,0.5-0.4
				s-0.5-0.1-1,0.6c0,0,0.4,0.3,1.2-0.3l0.1-0.1l-0.1,0.5c0,0-0.2,0.3-0.2,0.4c0,0.1,0,0.8,0,0.8s0.2,0,0.2-0.1c0,0-0.1-0.6,0-0.6
				c0,0,0.2-0.2,0.2-0.2l0.1,0.7l0.2,0l0-0.6l-0.2-0.2l0-0.7l0.3-0.4l0.5-0.4c0,0,0.3,0.4,0.3,0.6c0,0.2,0.1,0.6,0,0.7
				c-0.1,0.1-0.2,0.4-0.2,0.4c0,0.1,0,0.6,0,0.6s0.1,0,0.1-0.1c0-0.1,0-0.5,0-0.5c0,0,0.2-0.3,0.2-0.1c0.1,0.2,0,0.6,0,0.6
				s0.3,0,0.2-0.2c0,0,0-0.4,0-0.5c0,0-0.2-0.1-0.2-0.5c0-0.4-0.1-0.6-0.1-0.6l-0.2-0.4l-0.2-0.2c0,0,1-0.1,1.2-0.1
				c0.2-0.1,0.9-0.2,1-0.2c0,0-0.3,0.6-0.3,0.7c0,0.1-0.2,0.5-0.2,0.7c0,0.2,0,0.3,0,0.3s-0.3,0.3-0.3,0.3c0,0,0,0.5,0,0.5
				s0.1,0,0.1,0c0,0,0.1-0.4,0.1-0.4c0-0.1,0.1-0.2,0.2-0.1s0,0.3,0,0.3l0.1,0c0,0,0-0.9,0-0.9c0-0.1,0.2-0.5,0.2-0.5l0.3-0.6
				c0,0,0.1-0.1,0.1-0.2c0,0,0.3-0.1,0.5,0c0.2,0.1,0.4,0.4,0.4,0.4s0,0.5-0.1,0.6c-0.1,0.1-0.3,0.5-0.3,0.6c0,0.1,0,0.4,0.1,0.4
				c0.1,0,0.2-0.1,0.1-0.2c-0.1-0.1,0-0.2,0-0.2s0.1,0.1,0.1,0.1c0,0,0.2-0.1,0.1-0.2c-0.1-0.1,0-0.3,0.1-0.5
				c0.1-0.2,0.1-0.7,0.1-0.7l0.1,0c0,0,0,1.6-0.1,1.7c-0.1,0.1-0.1,0.1-0.1,0.1h0.7c0,0,0,0-0.1-0.1c-0.1-0.1-0.1-1.7-0.1-1.7l0.1,0
				c0,0,0,0.5,0.1,0.7c0.1,0.2,0.2,0.4,0.1,0.5c-0.1,0.1,0.1,0.2,0.1,0.2c0,0,0.1-0.1,0.1-0.1s0,0.1,0,0.2c-0.1,0.1,0.1,0.3,0.1,0.2
				c0.1,0,0.1-0.3,0.1-0.4c0-0.1-0.2-0.5-0.3-0.6c-0.1-0.1-0.1-0.6-0.1-0.6s0.2-0.3,0.4-0.4c0.2-0.1,0.4,0,0.5,0
				c0,0,0.1,0.2,0.1,0.2l0.3,0.6c0,0,0.2,0.5,0.2,0.5c0,0.1,0,0.9,0,0.9l0.1,0c0,0,0-0.3,0-0.3s0.1,0.1,0.2,0.1
				c0,0.1,0.1,0.4,0.1,0.4c0,0,0.1,0,0.1,0s0-0.4,0-0.5c0,0-0.3-0.3-0.3-0.3s0-0.1,0-0.3c0-0.2-0.2-0.5-0.2-0.7c0,0,0-0.1-0.1-0.1
				c0.1,0.2,0.4,0.3,1.3,0.2c0,0-0.6-0.9-1.1-0.6l0.7,0.4l-0.9-0.4c0,0-0.1,0.2,0,0.3c-0.1-0.2-0.3-0.5-0.2-0.5c0,0,0.8,0.1,1,0.2
				c0.2,0.1,1.2,0.1,1.2,0.1l-0.2,0.2l0,0.1l0.1-0.3c0,0-0.6,0.4-0.2,0.8c0,0.1,0,0.2,0,0.4c0,0,0,0,0,0c-0.1-0.2-0.4-0.6-0.9-0.5
				l0.6,0.5l-0.7-0.5c0,0-0.7,0.7,1,0.6c-0.1,0.3-0.2,0.3-0.2,0.3c0,0,0,0.5,0,0.5c-0.1,0.2,0.2,0.2,0.2,0.2s0-0.4,0-0.6
				c0.1-0.2,0.2,0,0.2,0.1c0,0,0,0.5,0,0.5c0,0.1,0.1,0.1,0.1,0.1s0-0.6,0-0.6c0-0.1-0.2-0.3-0.2-0.4c0-0.1,0-0.3,0-0.6
				c0.2-0.1,0.5-0.4,0.2-0.6c0.1-0.1,0.1-0.1,0.1-0.1l0.5,0.4l0.3,0.4l0,0.7l-0.2,0.2l0,0.6l0.2,0l0.1-0.7c0,0,0.1,0.2,0.2,0.2
				c0,0,0,0.6,0,0.6c0,0,0.2,0.1,0.2,0.1s0-0.7,0-0.8c0-0.1-0.2-0.4-0.2-0.4l-0.1-0.5l0.1,0.1C639.6,647.7,640,647.4,640,647.4z
				 M633.9,641.2L633.9,641.2l0-0.6L633.9,641.2L633.9,641.2z"/>
			<path class="st21" d="M635.8,640.8c0.2,0.8,1.3,0.4,1.3,0.4c-0.5-0.7-1.1-0.4-1.1-0.4l0.7,0.4L635.8,640.8z"/>
			<path class="st21" d="M634.2,642.3c0.9,0,1-0.4,1-0.4l-0.8,0.3l0.8-0.4C634.4,641.6,634.2,642.3,634.2,642.3z"/>
			<path class="st21" d="M635.1,642.5c0.6,0,0.8-0.2,0.8-0.2l-0.6,0.1l0.6-0.2C635.2,642.1,635.1,642.5,635.1,642.5z"/>
			<path class="st21" d="M638.6,642.5c0,0-1.1-0.5-1.3,0l0.9,0l-0.9,0C637.3,642.5,637.2,643.1,638.6,642.5z"/>
			<path class="st21" d="M634.4,643.8c1.1-0.1,0.9-0.5,0.9-0.5l-0.7,0.4l0.7-0.4C634.8,642.9,634.4,643.8,634.4,643.8z"/>
			<path class="st21" d="M637,643.9c0,0,0-0.9-0.8-0.8l0.6,0.6l-0.7-0.6C636,643.2,635.5,643.8,637,643.9z"/>
			<path class="st21" d="M638.2,646.9l-0.1,0.7v-0.8c0,0-0.6,0.3,0,1C638.1,647.8,638.9,647.3,638.2,646.9z"/>
			<path class="st21" d="M634.6,646.7c0,0,1.1-0.5,0.7-0.9l-0.5,0.6l0.5-0.7C635.3,645.7,634.4,645.5,634.6,646.7z"/>
			<path class="st21" d="M635.1,647.4l0.5-0.7c-1-0.3-0.6,1.1-0.6,1.1c0.9-0.4,0.7-1,0.7-1L635.1,647.4z"/>
		</g>
	</g>
</g>
</svg>
