<?xml version="1.0" encoding="utf-8"?>
<!-- Generator: Adobe Illustrator 21.0.0, SVG Export Plug-In . SVG Version: 6.00 Build 0)  -->
<svg version="1.1" id="Layer_1" xmlns="http://www.w3.org/2000/svg" xmlns:xlink="http://www.w3.org/1999/xlink" x="0px" y="0px"
	 viewBox="0 0 1080 1920" style="enable-background:new 0 0 1080 1920;" xml:space="preserve">
<style type="text/css">
	.st0{opacity:0.15;}
	.st1{fill:#896F4C;}
	.st2{fill:#FFBE91;}
	.st3{opacity:0.2;fill:none;stroke:#000000;stroke-miterlimit:10;}
	.st4{fill:#7A5F43;}
	.st5{opacity:0.1;}
	.st6{fill:#534741;}
	.st7{fill:none;stroke:#3D3530;stroke-linecap:round;stroke-linejoin:round;stroke-miterlimit:10;}
	.st8{opacity:0.36;}
	.st9{fill:#D6996F;}
	.st10{opacity:0.2;}
	.st11{opacity:0.5;}
	.st12{fill:#293842;}
	.st13{fill:#F9F5E4;}
	.st14{opacity:5.000000e-02;}
	.st15{fill:#332C28;}
	.st16{fill:#FFFFFF;}
	.st17{opacity:0.3;}
	.st18{fill:#70573A;}
	.st19{fill:#C1BEA5;}
	.st20{fill:#CC9833;}
	.st21{fill:#CB9832;}
</style>
<g>
	<path class="st0" d="M743.5,782.5c-0.4,0.2-0.8,0.5-1.2,0.7c0.3-0.1,0.6-0.3,0.9-0.5C743.3,782.6,743.4,782.6,743.5,782.5z"/>
	<path class="st1" d="M714.4,602.2c-14.4,5.5-23.2,12.9-28.4,18.6c-24.2,26.3-23.2,70.5,1.4,112.1l25,58.4c0,0,52.5,1.7,57-56
		C751,690.8,732.7,646.5,714.4,602.2z"/>
	<path class="st0" d="M712.4,791.2c19-18.7,38-37.3,57-56c0,2.9-0.6,31.7-25.8,47.2C731.3,790,718.7,791.1,712.4,791.2z"/>
	<path class="st2" d="M931.6,628.7c-0.5-5.8-9.5-6.3-9.5-6.3c4.2-10.6-3.4-15.7-7.9-15c-7.6,1.2-7.4,8.7-8.5,14
		c-1.1,5.3-11.6,13-21.1,19.8c-9.5,6.8-35.4,9.2-35.4,9.2c3.7-5.3,9-14.5,5.8-28.5c-3.2-14-12.7-4.3-12.7-4.3
		c-0.5,21.2-14.3,26-26.9,39.6c-6.6,7.1-5.6,13.5-3.1,18c-2.7,17.8-5.2,32.3-7.1,42.4c-4.1,22.4-5,28.1-6.1,33.4
		c-4.1,18.5-8.7,33.6-12.2,43.8c-3.3-3.9-8.5-10.2-13.8-18.6c-6-9.3-12.2-20.8-12.2-20.8c-2-4.2-4.2-8.5-6.3-12.9
		c-0.6-1.3-2.1-4.3-4.1-4.4c-0.4,0-0.5,0.1-2.2,0.8c-3.1,1.3-2.9,1.1-3.7,1.5c-1.1,0.5-2.6,1.3-4.3,2.5c-3.9,2.1-6.7,4.1-8.6,5.6
		c-1.8,1.5-2.9,2.5-3.4,3c-1.4,1.5-2.3,2.6-3.7,4.5c-1.5,2-2.8,3.7-4.2,6.2c-0.9,1.6-2.2,3.8-2.7,5.5c-1.4,5,2.9,9.4,10.5,19.8
		c2.7,3.7,5.1,7.5,7.9,11.1c2.8,3.7,9.5,12.6,15.9,22.3c5,7.6,7.7,12.4,14.1,20.4c1.7,2.1,2.6,3.2,3.5,4.2
		c4.3,4.6,13.1,13.7,23.8,14c13,0.3,26.7-12.7,32.6-32c7.4-44,14.9-88.1,22.3-132.1c0.8,0.1,1.6,0.2,2.4,0.2
		c57-1.4,85.7-56.8,85.7-56.8C939,633.1,931.6,628.7,931.6,628.7z"/>
	<path class="st0" d="M769.3,735.2c-19,18.7-38,37.3-57,56c0-2.9,0.6-31.7,25.8-47.3C750.4,736.4,763,735.3,769.3,735.2z"/>
	<path class="st1" d="M675.4,583.2c-36.7-12.9-70.4-12.7-98.4-11.5c-13.4,0.6-24.2,1.5-30.5,2c-28.1-5.6-84-12.3-129.6,16.2
		c-4.1,2.6-8.2,5.5-12.2,8.7c8,11.1,20.1,31,25,58.1c3.8,20.9,1.8,38.6-0.5,50.4c0,0,4.7,111.8,0.5,175.2l-13.3,142.8l245.7,2.1
		c-4.4-62.6-4.9-132.6,1.9-208.6c3.5-38.9,5.6-64.1,12.2-96.4c6.1-30,17-71.6,38.2-120.2C698.9,592.4,685.1,586.6,675.4,583.2z"/>
	<path class="st3" d="M556.4,649.5c-0.1,119.6-0.1,239.2-0.2,358.8"/>
	<path class="st0" d="M424.9,933.8c13,41,30.6,69.5,41.8,78.3c6.6,5.2,13.6,9,13.6,9c9.3,0.9,16,2.8,21.2,8.5
		c-28.2,0.3-56.5,0.6-84.7,0.9c1.3-15.9,2.6-31.9,3.9-47.9C422,966.2,423.5,950,424.9,933.8z"/>
	<path class="st4" d="M618.3,552.3c0,0-67.6-27.4-123.4,0l18.7,67.4h79.6L618.3,552.3z"/>
	<ellipse class="st5" cx="529.4" cy="1755.6" rx="277.2" ry="65.1"/>
	<g>
		<path class="st6" d="M620.3,1658.5c0,0-0.5,32.7-6,53c0,0,0.5,9.9,27.1,14.4c26.6,4.5,46.1,22.3,55.9,37.7
			c9.8,15.4,87.9,11.4,89.5,10.4c0,0-37.4-45.6-60.8-66.4c-23.3-20.8-53.7-45.6-58.1-46.6C663.7,1660,620.3,1658.5,620.3,1658.5z"/>
		<path class="st0" d="M693.6,1679.8c-12.8-10.4-23.2-18.3-25.6-18.8c-4.3-1-47.8-2.5-47.8-2.5s-0.2,10-1.2,22.3
			C643.9,1680.8,668.8,1680.4,693.6,1679.8z"/>
		<path class="st7" d="M683.6,1669.2c0,0-28.2,19.9-25.1,37.8c3.1,17.9,18.7,9.6,16.5,0.7C672.8,1698.7,679.1,1674.3,683.6,1669.2z"
			/>
		<path class="st7" d="M684.8,1669.9c0,0,12.2,33.6,0,49.6"/>
	</g>
	<g>
		<path class="st6" d="M464.8,1679.5c0,0,0,47.6,0,55c0,7.1-71.6,2.2-113.9,31.2c0,0-53.7-9.7-65.9-14.1c0,0,17.1-32,42.3-37.9
			s78.9-20.8,81.4-35.7L464.8,1679.5z"/>
		<path class="st0" d="M464.8,1697c0-9.7,0-17.5,0-17.5l-56.2-1.5c-0.6,3.8-4.5,7.5-10.4,11.1C419.1,1695.1,442.7,1695.9,464.8,1697
			z"/>
		<path class="st7" d="M393,1692.4c0,0-41.4,35.8-21.8,46.3C385.4,1746.4,395.1,1694.7,393,1692.4z"/>
		<path class="st7" d="M395.1,1691.2c0,0,13.7,15.5,7.6,34"/>
	</g>
	<path class="st1" d="M660.3,1009.3c0.9,15.3,1.9,30.2,3.2,44.3c9.7,109,17.1,377.4,8.2,608.5c0,0-34.5-1.1-52.7-1.8
		c1.5-235.6-8.4-531.1-81.1-526.5c-26.8,1.7-51.9,78.7-62.8,246c-10.9,167.3-9.2,302.5-9.2,302.5l-60.7-1
		c12-485.7,3.6-509.1,6.7-628.2l4.9-45.9L660.3,1009.3z"/>
	<path class="st8" d="M662.7,1044.8c-0.9-11.4-1.7-23.3-2.4-35.5l-243.4-2.1l-4,37.7H662.7z"/>
	<path class="st9" d="M606.5,621.7c-2.5,8.4-7.7,18.1-14.9,26.1L576.7,633c-1.7,3.7-3.4,7.4-5,11.1h-6.8l-8.5,14.2l0.1,0.4l-0.2-0.3
		l-0.2,0.3l0.1-0.4l-8.5-14.2h-6.8c-1.7-3.7-3.4-7.5-5-11.1l-13.2,13.3c-10.5-9.2-17.6-20.1-16-27c1.7-7,2.3-26.9,2.4-45.4
		c0.2-19.2-0.1-36.8-0.1-36.8c74.4-8.9,95.8-6.4,97.5-0.8c0.3,1-0.1,2.1-0.2,9.8c0,6.3,0.2,10.8,0.3,13.9c0.1,2.9,0.3,5.7,0.4,8.4
		C608.5,597.9,609,613.3,606.5,621.7z"/>
	<path class="st0" d="M607.5,627.1l-11.7,25L576.7,633c-1.7,3.7-3.4,7.4-5,11.1h-6.8l-8.5,14.2l0.1,0.4l-0.2-0.3l-0.2,0.3l0.1-0.4
		l-8.5-14.2h-6.8c-1.7-3.7-3.4-7.5-5-11.1l-19.2,19.2L502.1,621c0.7,0,1.5-0.1,2.3-0.1c0,0,14.2-2.1,33.3-3.6
		c11.6-1,25-1.7,38.2-1.7h0c7,0,13.9,0.2,20.5,0.7c0,0,4.4,0.7,10.9,1.7C607.4,621.1,607.5,624.2,607.5,627.1z"/>
	<g class="st10">
		<path d="M622.9,1050c3.7,25.3,6.7,50.7,9.6,76.1c0.7,6.4,1.3,12.7,2,19.1c0.6,6.4,1.3,12.7,1.9,19.1c1.2,12.7,2.4,25.5,3.5,38.2
			c4.5,51,7.7,102,9.9,153.2c1.2,25.6,1.7,51.1,2.4,76.7c0.2,12.8,0.3,25.6,0.4,38.4l0.2,19.2l-0.2,19.2l-0.4,38.4l-1.1,38.4
			l-0.6,19.2l-1,19.2l-2.1,38.3l1.8-38.3l0.9-19.2l0.5-19.2l1-38.3l0.3-38.4l0.1-19.2l-0.2-19.2c-0.2-12.8-0.3-25.6-0.5-38.4
			c-0.8-25.6-1.3-51.1-2.6-76.7c-2.1-51.1-5.2-102.2-9.6-153.1c-1.1-12.7-2.3-25.5-3.4-38.2c-1.2-12.7-2.5-25.4-3.9-38.2
			C629.3,1100.8,626.4,1075.3,622.9,1050z"/>
	</g>
	<g class="st10">
		<path d="M451,1050c-2.4,25.9-4.9,51.9-7.1,77.8l-1.7,19.5l-1.5,19.5l-1.5,19.5l-1.3,19.5c-0.4,6.5-0.9,13-1.3,19.5l-1,19.5
			c-0.8,13-1.1,26-1.6,39c-0.1,3.3-0.2,6.5-0.3,9.8l-0.2,9.8l-0.2,9.8c-0.1,3.3-0.1,6.5-0.1,9.8c0,13-0.2,26,0,39.1
			c0.3,52.1,2,104.2,3.3,156.2c0.6,26,1.3,52.1,1.8,78.1l0.4,19.5l0.3,19.5l0.5,39.1l-0.8-39.1l-0.4-19.5l-0.5-19.5
			c-0.6-26-1.2-52.1-1.9-78.1c-1.4-52.1-3.2-104.1-3.6-156.2c-0.2-13,0-26.1,0.1-39.1c0-3.3,0.1-6.5,0.1-9.8l0.2-9.8l0.2-9.8
			c0.1-3.3,0.1-6.5,0.3-9.8c0.5-13,0.9-26,1.7-39l1.1-19.5c0.4-6.5,0.9-13,1.3-19.5l1.3-19.5l1.6-19.5l1.6-19.5l1.7-19.5
			C445.7,1101.8,448.4,1075.9,451,1050z"/>
	</g>
	<g class="st11">
		<path class="st12" d="M497.1,926.7c4.8-0.4,9.6-0.9,14.3-1.5c4.8-0.5,9.5-1.1,14.3-1.8c9.5-1.3,19-2.8,28.4-4.7
			c9.4-1.8,18.7-4,27.9-7c4.5-1.5,9-3.2,13.3-5.4c4.3-2.1,8.4-4.7,11.5-8.4c-2.9,3.8-7.1,6.6-11.3,8.9c-4.3,2.3-8.7,4.1-13.3,5.7
			c-9.1,3.1-18.5,5.3-27.9,7.3c-9.4,1.8-18.9,3.3-28.5,4.4C516.3,925.3,506.7,926.2,497.1,926.7z"/>
	</g>
	<g class="st11">
		<path class="st12" d="M525.3,886.1c6.2-3.4,12.6-6.3,19-9.1c6.5-2.7,13.1-5.2,19.8-7.4c6.7-2.1,13.5-4,20.5-5.3
			c6.9-1.3,14-2.1,21-2l-5.3,0.3l-1.3,0.1l-1.3,0.2l-2.6,0.3l-2.6,0.3c-0.9,0.1-1.7,0.3-2.6,0.5c-1.7,0.3-3.5,0.6-5.2,1
			c-6.9,1.5-13.6,3.4-20.3,5.5c-6.7,2.1-13.3,4.6-19.8,7.2c-3.3,1.3-6.5,2.6-9.7,4.1C531.7,883.1,528.5,884.6,525.3,886.1z"/>
	</g>
	<g class="st11">
		<path class="st12" d="M501.5,849.4c6.6-3.2,13.5-5.9,20.5-8.2c7-2.3,14.1-4.2,21.3-5.7l5.4-1c1.8-0.3,3.7-0.5,5.5-0.7l2.7-0.3
			l2.8-0.2c1.8-0.1,3.7-0.3,5.5-0.3c7.4-0.3,14.8,0.3,22,1.6c-3.7-0.3-7.3-0.9-11-0.9l-2.7-0.1l-1.4-0.1c-0.5,0-0.9,0-1.4,0
			l-5.5,0.2c-7.3,0.5-14.6,1.3-21.8,2.8c-7.2,1.4-14.3,3.3-21.3,5.4c-3.5,1.1-7,2.2-10.4,3.5C508.3,846.6,504.8,848,501.5,849.4z"/>
	</g>
	<path class="st0" d="M560.6,576.4c6.7,0.3,25.8-8.3,46-18.4c-0.3-13.3-0.8-26.8-0.1-28.6c1.2-3.2-97.5,0.5-97.5,0.5
		s0.5,18-0.1,33.1C533.1,570.3,555,576.2,560.6,576.4z"/>
	<g>
		<path class="st2" d="M695.3,388.1c0,0,9.6-14.5,22.1-12.4c12.5,2.2,10,26.3,8.4,36.2c-1.6,9.9-22.9,40.6-37.7,22.1
			C679.9,423.8,695.3,388.1,695.3,388.1z"/>
		<path class="st2" d="M421.5,377.3c0,0-16.1-17.8-25.3,3.6c-9.2,21.4-3,54.6,29.6,54.4C437.5,435.3,421.5,377.3,421.5,377.3z"/>
		<path class="st2" d="M420.2,485.8c2.3-22.8,7.1-57,0.9-91.5c-6.2-34.4-27.9-126.8,102.7-150.3c130.5-23.5,197.5,40,177.6,129.8
			c-19.8,89.8-8.1,80.7-11.8,107.4c-2.3,16.7-10.8,30.8-32.2,41.6c-30.8,15.6-90.9,37.6-102.9,36.5c-12.1-1.1-80.4-36.3-108.8-45.5
			C418.7,505.2,419.3,494.9,420.2,485.8z"/>
		<path class="st6" d="M465.8,402c-4.6-2.2-10.8-5.3-6.6-17.8c4.2-12.6,28.9-14.2,39.8-10c10.9,4.1,23.9,12.2,17.6,18.8
			C510.2,399.6,487,412.1,465.8,402z"/>
		<path class="st13" d="M465.6,404.2c-4.6-2.2-11.3-6.1-6.6-17.8c3.4-8.6,30.4-12.5,41.3-8.4c10.9,4.1,22.4,10.5,16.1,17.1
			C509.9,401.7,486.8,414.3,465.6,404.2z"/>
		<g class="st14">
			<path d="M702.8,283.9c-18.9-19.3-13.2-38.3-13.2-38.3s-12.2,2.3-25.3,2.1c-13-0.2-27.8-13.9-43.1-22.3
				c-15.3-8.5-40.7-0.2-40.7-0.2c1.3-12.8,20.9-15.3,20.9-15.3c-34.1,1.3-40.2,15.1-46.8,17.8c-6.6,2.8-29.5-7.3-29.5-7.3
				c-7.1-2.1-6.4,6.1-22.4,4.7c-18.2-1.6-25.7,1.6-25.7,1.6c17.6,1.5,27.2,9.5,27.2,9.5c-21.3-1.4-27.5,18.6-27.5,18.6
				c-13.1-9.2-36.2-3.6-50.7,5.6c-14.5,9.2,14.3,3,14.3,3l-8,21.9c-21.7,25.1-23.5,59.8-22.2,81c0.8,0.3,1.6,0.9,1.9,1.9
				c1.5,5.2,5.7,8.8,8.3,13.5c1.6,2.8,2.5,5.8,3.7,8.7l12,1c-0.1-0.3-0.1-0.5-0.1-0.5l-4.5-26.6c1.2-1.8,13.1-5.5,16.8-20.5
				c3.7-14.9,4.9-17.2,4.9-17.2s25.2-5.9,27.9-7.1c2.7-1.2,25-14.5,25-14.5l30.9-5.9c0,0-18.7,17-27.2,20.9
				c8.2-1.9,29.8-6.8,39.9-7.9c12.7-1.3,12.7-1.3,12.7-1.3s34.8-3.6,40.6-3.6c0,0,4.1-9.2-3.6-15.6c0,0,20.8,10.9,28.6,10.6
				c7.9-0.3,20-1.6,20-1.6l12.1-3.3l6.3-1.2l-12.8,30.7c0,0,16.2-15.3,19.4-15.9c0,0-4.4,56.8-12.3,62.8c0,0,14-9.3,14.5-13.5
				c0,0-0.8,37-3,51.7l19.7,1.7c0.5-6,0.9-10.2,0.9-11.3c0.1-6.2,9.3-64,16.6-78.6C716.4,308.9,721.7,303.2,702.8,283.9z"/>
			<path d="M513.6,512c0,0,63,0.7,91.3-10.6c0,0-5.5,29.3-42.9,29.7C524.7,531.5,513.6,512,513.6,512z"/>
		</g>
		<path class="st6" d="M591.4,403c0,0-9.2-8.3-3.9-17c5.3-8.7,24.3-12.5,38.6-11c14.3,1.5,24,14.8,12.2,24.9
			C626.5,410.1,600.2,412.1,591.4,403z"/>
		<path class="st13" d="M591.5,404.8c0,0-9.2-8.3-3.9-17c5.3-8.7,24.1-10.6,38.4-9c14.3,1.5,24.2,12.8,12.4,23
			C626.7,411.9,600.3,413.9,591.5,404.8z"/>
		<path class="st15" d="M497.6,391.1c-0.5,4.4-4.7,7.6-9.6,7.2c-4.8-0.4-8.4-4.3-7.9-8.7c0.5-4.4,4.8-7.6,9.6-7.2
			C494.5,382.8,498.1,386.7,497.6,391.1z"/>
		<path class="st15" d="M623.5,394.7c-0.5,4.4-4.7,7.6-9.6,7.2c-4.8-0.4-8.4-4.3-7.9-8.7c0.5-4.4,4.7-7.6,9.6-7.2
			C620.5,386.3,624,390.3,623.5,394.7z"/>
		<path class="st6" d="M447.4,360.6c0,0,8.3-4.7,23.7-10c12.1-4.1,27-5.1,34.7-3c7.7,2.1,20.5,11.9,15.9,13.8
			c-4.6,1.9-22.3-2.1-34.2-1c-12.4,1.2-23,2.9-29.7,4.3C451.3,366,445,365.8,447.4,360.6z"/>
		<path class="st6" d="M596.8,363c0,0-13.8,2.5-15.7-4c-1.8-6.5,6-8.7,19.4-7.8c13.4,0.9,44.4,8.8,49.5,15c5,6.2,3.2,5.2-1.2,5.4
			C644.4,371.7,625.6,361.5,596.8,363z"/>
		<g>
			<path class="st6" d="M711,265.4c-19.7-20.1-13.8-40-13.8-40s-12.8,2.4-26.4,2.2c-13.6-0.2-29-14.5-45-23.3
				c-16-8.9-42.5-0.2-42.5-0.2c1.4-13.3,21.8-16,21.8-16c-35.6,1.4-42,15.7-48.8,18.6c-6.8,2.9-30.8-7.7-30.8-7.7
				c-7.4-2.1-6.7,6.4-23.4,4.9c-19-1.7-26.9,1.6-26.9,1.6c18.4,1.6,28.4,9.9,28.4,9.9c-22.2-1.4-28.7,19.4-28.7,19.4
				c-13.7-9.7-37.8-3.8-52.9,5.8c-15.2,9.6-23.5,42.2-23.5,42.2l30-16.3c-34.7,40.3-20.7,104.2-20.7,104.2
				c10.1,2.9,9.1,6.8,13.4,18.1c4.3,11.3-2.1,76-4,84.8c-2.3,10.8-0.1,29.6,19.2,40.5c17.7,10,107.9,46.8,120.3,48.3
				c12.4,1.6,70.5-23.7,97.3-34.3c28.7-11.4,34.4-26.4,35.6-33.2c1.3-6.9,10.4-99.6,10.6-106.1c0.1-6.5,9.7-66.8,17.3-82.1
				C725.2,291.5,730.7,285.5,711,265.4z M653.4,456.9c-5.3,3.4-37.9,14.5-67.6,11.9c0,0-6.6,15-20.3,15.8
				c-13.7,0.8-27.2-2.1-31.7-4.3c-12.4-5.9-13.6-11.1-13.6-11.1s-32-1-42.6-3.9c-10.6-2.9-31.5-17.5-35.5-41.8
				c-4-24.2-9.8-46.6-9.8-46.6l-4.7-27.8c1.3-1.9,13.7-5.8,17.5-21.4c3.8-15.6,5.2-18,5.2-18s26.3-6.2,29.1-7.4
				c2.9-1.2,26.1-15.1,26.1-15.1l32.3-6.1c0,0-19.5,17.7-28.4,21.8c8.5-2,31.1-7.1,41.7-8.2c13.2-1.3,13.2-1.3,13.2-1.3
				s36.4-3.8,42.4-3.8c0,0,4.3-9.6-3.7-16.3c0,0,21.7,11.4,29.9,11.1c8.2-0.3,20.9-1.7,20.9-1.7l12.6-3.4l6.6-1.2l-13.3,32
				c0,0,16.9-15.9,20.3-16.6c0,0-4.6,59.3-12.9,65.6c0,0,14.6-9.7,15.1-14.1c0,0-1,45.7-3.8,57.4
				C678.1,402.4,670.1,446.2,653.4,456.9z"/>
			<path class="st9" d="M534.7,429.7c0,0-4.3,31-15.2,35.5c-10.8,4.5,13,22,33.7,21.4c20.8-0.7,32.8-6.1,32.8-16.5
				c0-10.5-6.1-14.5-6.1-14.5s7.4,13.1,0.8,18.5c-6.6,5.4-17.9,9.4-28.8,9.9c-11,0.5-34.8-11-29.4-16
				C527.9,462.9,537.1,447.8,534.7,429.7z"/>
			<g>
				<path class="st16" d="M597.2,503.4c-0.4,1.3-1.1,2.3-2.1,3.2c-0.9,0.9-2,1.7-3.1,2.4c-2.2,1.3-4.7,2.3-7.1,3.1
					c-5,1.6-10.1,2.3-15.3,2.6c-2.6,0.1-5.2,0.1-7.8-0.1c-2.6-0.2-5.2-0.4-7.7-0.9c-2.6-0.5-5.1-1-7.6-1.8c-2.5-0.8-4.9-1.7-7.2-2.8
					c4.8,1.8,9.8,3,14.9,3.8c5.1,0.7,10.2,1,15.3,0.7c5.1-0.2,10.2-1,15.1-2.4c2.5-0.7,4.9-1.6,7.1-2.8c1.1-0.6,2.2-1.3,3.2-2.1
					C595.9,505.6,596.8,504.6,597.2,503.4z"/>
			</g>
		</g>
		<g class="st17">
			<g>
				<path class="st9" d="M448.4,425.1c2.6-2.2,5.4-4.3,8.1-6.4c2.8-2.1,5.5-4.1,8.4-6c-2.6,2.2-5.4,4.3-8.1,6.4
					C454,421.1,451.3,423.2,448.4,425.1z"/>
			</g>
			<g>
				<path class="st9" d="M467.9,425c2.6-2.2,5.4-4.3,8.1-6.4c2.8-2.1,5.5-4.1,8.4-6c-2.6,2.2-5.4,4.3-8.1,6.4
					C473.6,421,470.8,423.1,467.9,425z"/>
			</g>
			<g>
				<path class="st9" d="M487.3,426.7c2.6-2.2,5.4-4.3,8.1-6.4c2.8-2.1,5.5-4.1,8.4-6c-2.6,2.2-5.4,4.3-8.1,6.4
					C492.9,422.7,490.1,424.8,487.3,426.7z"/>
			</g>
			<g>
				<path class="st9" d="M506.6,428.4c2.6-2.2,5.4-4.3,8.1-6.4c2.8-2.1,5.5-4.1,8.4-6c-2.6,2.2-5.4,4.3-8.1,6.4
					C512.3,424.4,509.5,426.5,506.6,428.4z"/>
			</g>
		</g>
		<g class="st17">
			<g>
				<path class="st9" d="M578.7,430.4c2.6-2.2,5.4-4.3,8.1-6.4c2.8-2.1,5.5-4.1,8.4-6c-2.6,2.2-5.4,4.3-8.1,6.4
					C584.3,426.4,581.6,428.5,578.7,430.4z"/>
			</g>
			<g>
				<path class="st9" d="M598.2,430.3c2.6-2.2,5.4-4.3,8.1-6.4c2.8-2.1,5.5-4.1,8.4-6c-2.6,2.2-5.4,4.3-8.1,6.4
					C603.9,426.4,601.1,428.4,598.2,430.3z"/>
			</g>
			<g>
				<path class="st9" d="M617.6,432c2.6-2.2,5.4-4.3,8.1-6.4c2.8-2.1,5.5-4.1,8.4-6c-2.6,2.2-5.4,4.3-8.1,6.4
					C623.2,428,620.5,430.1,617.6,432z"/>
			</g>
			<g>
				<path class="st9" d="M636.9,433.7c2.6-2.2,5.4-4.3,8.1-6.4c2.8-2.1,5.5-4.1,8.4-6c-2.6,2.2-5.4,4.3-8.1,6.4
					C642.6,429.7,639.8,431.8,636.9,433.7z"/>
			</g>
		</g>
	</g>
	<polygon class="st18" points="543.2,625.6 535.9,633 522.7,646.2 516.7,652.2 502.1,621 487.4,589.5 494.9,552.3 509.1,573.9 
		537.7,617.3 	"/>
	<polygon class="st18" points="625.1,589.5 607.5,627.1 595.8,652.1 591.5,647.8 576.7,633 569.3,625.6 575.9,615.6 575.9,615.6 
		607,568.3 617.6,552.3 	"/>
	<path class="st18" d="M556.4,658.7l-0.2-0.3l-0.1-0.1l-8.5-14.2h-6.8c-1.7-3.7-3.4-7.5-5-11.1c-0.1-0.2-0.2-0.3-0.2-0.5
		c2.5-2.3,5-4.5,7.6-6.8c0.8,4.8,1.6,9.5,2.3,14.3h7l3.8,18l0.1,0.4L556.4,658.7z"/>
	<path class="st18" d="M576.9,632.4c-0.1,0.2-0.2,0.3-0.2,0.5c-1.7,3.7-3.4,7.4-5,11.1h-6.8l-8.5,14.2l-0.1,0.1l-0.2,0.3l0.1-0.4
		l0.1-0.4l3.7-18h7c0.8-4.8,1.6-9.5,2.3-14.3C571.8,627.9,574.4,630.2,576.9,632.4z"/>
	<path class="st0" d="M373.5,781c0.4,0.2,0.8,0.5,1.2,0.7c-0.3-0.1-0.6-0.3-0.9-0.5C373.7,781.2,373.6,781.1,373.5,781z"/>
	<path class="st0" d="M379.6,784.3c3.2,1.5,6.4,2.6,9.3,3.4C386,786.9,382.8,785.8,379.6,784.3z"/>
	<path class="st1" d="M404.7,598.7c0,0,62.1,10.6,25,132.7l-25,58.4c0,0-52.5,1.7-57-56L404.7,598.7z"/>
	<path class="st0" d="M404.7,789.7c-19-18.7-38-37.3-57-56c0,2.9,0.6,31.7,25.8,47.2C385.8,788.5,398.4,789.6,404.7,789.7z"/>
	<path class="st2" d="M490.4,1038.6c-7.9,1.8-16.4,1.3-22.9-1.2c0,0,3.5,11.5,8.6,21c-17.2,1.1-34.4,3.3-51.4,6.6
		c-3.1-5.7-5.5-11.9-7-18.8c-1.3-6.3-3.6-11.1-1.2-15c-1.9-3.3-3.8-6.5-5.7-9.8c-33.2-57.5-61.3-115.1-84.9-172.2
		c-0.4-9-3.1-18.7,0-27.7c2.5-7.2,4.6-13.4,7.2-20.3c11.9-32.3,10.2-26.7,26.3-65.2c0-0.1,0.4-1,0.4-1.1c4.9,1,14.7,3.5,24.2,10.9
		c11,8.6,15.1,18.8,16.6,23.2c-3.6,6.9-7.9,17.1-13.7,29.1c-7,14.4-11.6,23.3-12.4,36.7c-0.8,14.7,3.6,23.9,15.5,51.3
		c22.6,52.1,17.7,44.5,28.1,65.9c4,8.1,8.5,17.2,13.8,27.1c5.3,9.8,11.2,20.5,17.9,31.7c2.5-0.3,4.9-0.1,6.9,0.9
		c17.6,8.5,12.9,17.4,36.5,14.3C493.1,1026.2,505.9,1035.1,490.4,1038.6z"/>
	<path class="st0" d="M347.7,733.7c19,18.7,38,37.3,57,56c0-2.9-0.6-31.7-25.8-47.3C366.7,734.9,354.1,733.8,347.7,733.7z"/>
	<path class="st3" d="M619.9,690.7h-30.3v44.7c1,2.7,4.1,9.7,12.5,14.5c11.3,6.5,26.9,5.7,35.5,0c7.2-4.7,12.5-14.5,12.5-14.5l0,0
		v-44.7H619.9z"/>
	<polyline class="st18" points="589.6,707.5 650.3,707.5 650.3,690.7 589.6,690.7 589.6,707.5 	"/>
	<path class="st3" d="M489.7,690.7h-30.3v44.7c1,2.7,4.1,9.7,12.5,14.5c11.3,6.5,26.9,5.7,35.5,0c7.2-4.7,12.5-14.5,12.5-14.5l0,0
		v-44.7H489.7z"/>
	<polyline class="st18" points="459.4,707.5 520,707.5 520,690.7 459.4,690.7 459.4,707.5 	"/>
	<polyline class="st19" points="468.4,678.9 511,678.9 511,670.5 468.4,670.5 468.4,678.9 	"/>
	<g>
		<polygon class="st20" points="617.7,668.4 626.6,668.4 623.1,667 621.2,667 		"/>
		<path class="st20" d="M626.4,670.7v-0.3h-0.5v-0.3h-0.6v-1.3h-0.9l0.2,0.2v1.1h-0.8v-1.1l0.2-0.2H623l0.2,0.2v1.1h-0.8v-1.1
			l0.2-0.2h-0.5h-0.5l0.2,0.2v1.1h-0.8v-1.1l0.2-0.2h-1.1l0.2,0.2v1.1h-0.8v-1.1l0.2-0.2H619v1.3h-0.6v0.3h-0.5v0.3h-0.6
			c0,0.1,0.1,0.3,0.1,0.3c0.2,0.3,0.6,0.3,0.7,0.3c0.2,0,0.4,0,0.7,0c0.4,0,0.7,0,1.1,0.2c0.3,0.1,0.6,0.2,0.9,0.4
			c0.3,0.3,0.5,0.6,0.5,0.7c0,0.1,0.1,0.5,0.5,0.7c0.1,0.1,0.2,0.1,0.3,0.1c0.1,0,0.2,0,0.3-0.1c0.4-0.2,0.5-0.6,0.5-0.7
			c0.1-0.2,0.2-0.5,0.5-0.7c0.3-0.3,0.7-0.4,0.9-0.4c0.4-0.1,0.7-0.1,1.1-0.2c0.3,0,0.5,0,0.7,0c0.1,0,0.4,0,0.7-0.3
			c0.1-0.1,0.1-0.2,0.1-0.3H626.4z"/>
		<path class="st20" d="M627.5,671.3c-0.2,2.5-1.8,4.1-3.5,4.3c-0.3,0-1,0-1.9-0.5c-0.9,0.5-1.6,0.5-1.9,0.5
			c-1.7-0.1-3.3-1.8-3.5-4.3c0,0.1,0.1,0.2,0.2,0.3c0.1,0.1,0.2,0.2,0.3,0.2c0,0,0,0,0,0c0.2,0.3,0.6,0.3,0.7,0.3c0.2,0,0.4,0,0.7,0
			c0.4,0,0.8,0,1.2,0.2c0.3,0.1,0.6,0.2,1,0.4c0.3,0.3,0.5,0.6,0.5,0.8c0,0.1,0.1,0.5,0.5,0.7c0.1,0.1,0.2,0.1,0.3,0.1
			c0.1,0,0.2,0,0.3-0.1c0.4-0.2,0.5-0.6,0.5-0.7c0.1-0.2,0.2-0.5,0.5-0.8c0.3-0.3,0.7-0.4,1-0.4c0.4-0.1,0.8-0.1,1.2-0.2
			c0.3,0,0.5,0,0.7,0c0.1,0,0.5,0,0.7-0.3c0,0,0,0,0,0c0.1,0,0.2-0.1,0.3-0.2C627.4,671.4,627.5,671.4,627.5,671.3z"/>
		<g>
			<path class="st20" d="M622.2,676.1c0,0-2.2,2-5.3,1.3c0.3,0,0.6-0.1,0.8-0.1c0.2-0.1,0.4-0.1,0.6-0.2c0.8-0.2,1.5-0.3,2.2-0.4
				c0.2,0,0.4-0.1,0.7-0.2C621.6,676.4,621.9,676.2,622.2,676.1z"/>
			<path class="st20" d="M620.1,676.5c0,0-2,0.6-3-0.6l0.5,0.1l0.4-0.1l0.4,0.3l0.6,0L620.1,676.5z"/>
			<path class="st20" d="M618.7,676c0,0-1.6-1.2-1.8-1.3l-0.8,0l-0.3-0.3c0,0,0.5,1.6,2.2,1.4C618,675.8,618.4,676,618.7,676z"/>
			<path class="st20" d="M617.6,674.9L617,674c0,0,0-0.4-0.6-0.5l-0.2-0.6c0,0-0.1-0.2-0.4-0.3s-0.6-0.4-0.7-0.7
				c0,0,0.1,2.9,1.7,2.6L617.6,674.9z"/>
			<path class="st20" d="M618.5,676.8c0,0-0.7-0.2-0.8-0.3l-0.7,0l-0.5-0.2l-1.3,0.1c0,0-0.5-0.1-0.7-0.3
				C614.5,676.2,615.7,677.6,618.5,676.8z"/>
			<path class="st20" d="M617.3,676.2c0,0-0.5-0.4-0.5-0.4l-0.2-0.2l-0.7,0l-0.4-0.2c0,0-1.4,0.2-2.5-1
				C612.9,674.4,614,676.4,617.3,676.2z"/>
			<path class="st20" d="M616.2,675.3l-0.4-0.6l-0.6-0.3c0,0-0.3-0.4-0.7-0.6c-0.4-0.2-2.1-1.6-2.2-2.9
				C612.3,671,611.1,674.6,616.2,675.3z"/>
			<path class="st20" d="M615.5,674.2l-0.5-1.3c0,0-0.3-0.2-0.4-0.3c-0.1-0.1-0.3-1.7-1.3-2.7c0,0-0.4-1.9,1.3-4.2
				C614.6,665.7,609.2,670.4,615.5,674.2z"/>
		</g>
		<g>
			<path class="st20" d="M622.2,676.1c0,0,2.2,2,5.3,1.3c-0.3,0-0.6-0.1-0.8-0.1c-0.2-0.1-0.4-0.1-0.6-0.2c-0.8-0.2-1.5-0.3-2.2-0.4
				c-0.2,0-0.4-0.1-0.7-0.2C622.8,676.4,622.5,676.2,622.2,676.1z"/>
			<path class="st20" d="M624.3,676.5c0,0,2,0.6,3-0.6l-0.5,0.1l-0.4-0.1l-0.4,0.3l-0.6,0L624.3,676.5z"/>
			<path class="st20" d="M625.7,676c0,0,1.6-1.2,1.8-1.3l0.8,0l0.3-0.3c0,0-0.5,1.6-2.2,1.4C626.4,675.8,626,676,625.7,676z"/>
			<path class="st20" d="M626.8,674.9l0.6-0.9c0,0,0-0.4,0.6-0.5l0.2-0.6c0,0,0.1-0.2,0.4-0.3s0.6-0.4,0.7-0.7c0,0-0.1,2.9-1.7,2.6
				L626.8,674.9z"/>
			<path class="st20" d="M625.9,676.8c0,0,0.7-0.2,0.8-0.3l0.7,0l0.5-0.2l1.3,0.1c0,0,0.5-0.1,0.7-0.3
				C629.8,676.2,628.7,677.6,625.9,676.8z"/>
			<path class="st20" d="M627.1,676.2c0,0,0.5-0.4,0.5-0.4l0.2-0.2l0.7,0l0.4-0.2c0,0,1.4,0.2,2.5-1
				C631.4,674.4,630.4,676.4,627.1,676.2z"/>
			<path class="st20" d="M628.1,675.3l0.4-0.6l0.6-0.3c0,0,0.3-0.4,0.7-0.6c0.4-0.2,2.1-1.6,2.2-2.9
				C632.1,671,633.3,674.6,628.1,675.3z"/>
			<path class="st20" d="M628.8,674.2l0.5-1.3c0,0,0.3-0.2,0.4-0.3c0.1-0.1,0.3-1.7,1.3-2.7c0,0,0.4-1.9-1.3-4.2
				C629.7,665.7,635.2,670.4,628.8,674.2z"/>
		</g>
		<g>
			<path class="st21" d="M620.3,659.6l-0.9,0.3l0.7-0.4c0,0-0.6-0.3-1.1,0.4C619.1,660,620.1,660.4,620.3,659.6z"/>
			<path class="st21" d="M620.9,660.5l0.8,0.4L620.9,660.5c0,0.1,0,0.5,0.9,0.5C621.8,661.1,621.7,660.3,620.9,660.5z"/>
			<path class="st21" d="M620.2,660.9l0.6,0.2l-0.6-0.1c0,0,0.2,0.2,0.8,0.2C621,661.2,620.9,660.9,620.2,660.9z"/>
			<path class="st21" d="M618.8,661.2l-0.9,0L618.8,661.2c0,0.1,0.1,0.7-1.2,0C617.5,661.2,618.6,660.7,618.8,661.2z"/>
			<path class="st21" d="M620.8,662l0.7,0.4L620.8,662c0,0.1-0.2,0.5,0.9,0.6C621.7,662.6,621.3,661.7,620.8,662z"/>
			<path class="st21" d="M620,661.9l-0.6,0.6l0.7-0.6c0,0,0.5,0.6-1,0.8C619.2,662.7,619.1,661.8,620,661.9z"/>
			<path class="st21" d="M618.5,662.1c0,0-1-0.1-1-0.1l1.1,0.1c0,0-0.2,1.1-1.5-0.2C617.1,662.1,618.2,661.5,618.5,662.1z"/>
			<path class="st21" d="M617.9,665.7l0.1,0.7v-0.8c0,0,0.6,0.3,0,1C618,666.6,617.2,666.1,617.9,665.7z"/>
			<path class="st21" d="M620.1,664.7l-0.7,0.4l0.8-0.4c0,0,0.4,0.8-1.3,0.6C619,665.3,619.6,664.4,620.1,664.7z"/>
			<path class="st21" d="M618.6,664.8c0,0,0.6,0.5,0.2,0.8c0,0-0.7-0.4-0.3-0.7l0.2,0.3L618.6,664.8z"/>
			<path class="st21" d="M619.8,665.5l-0.6,0.5l0.7-0.5c0,0,0.7,0.7-1.1,0.6C618.8,666.2,619.1,665.3,619.8,665.5z"/>
			<path class="st21" d="M620.8,664.6l0.5,0.6l-0.5-0.7c0,0,0.8-0.2,0.7,1C621.5,665.5,620.4,665,620.8,664.6z"/>
			<path class="st21" d="M620.5,665.4l0.5,0.7l-0.6-0.7c0,0-0.2,0.6,0.7,1C621.1,666.5,621.5,665.1,620.5,665.4z"/>
			<g>
				<path class="st21" d="M628.2,666.1c-0.4-0.7-1-0.6-1-0.6s0.3,0.3,0.5,0.4c-0.2-0.1-0.6-0.4-0.6-0.4l-0.2,0.1c0,0,0,0-0.1-0.1
					c-0.1-0.1-0.7-0.8-0.7-0.8h0.9c-0.1,0.1-0.2,0.2-0.2,0.2s0.8,0,0.9,0c0,0-1,0.1-1,0.1c0.7,0.6,1.3-0.2,1.3-0.2l-0.7-0.3
					c0.2,0,0.5-0.2,0.5-0.2c-0.1,0-0.7,0-0.7,0s-0.4,0-0.5,0c0,0-1.2,0-1.3,0c-0.1,0-0.7-0.1-0.7-0.1s-0.9-0.2-0.9-0.2
					c0,0-0.6-0.1-0.8,0c-0.2,0.1-0.6,0.3-0.6,0.3v-1.3c0.3-0.5,1.1-0.4,1.1-0.4l0.2,0.3l-0.2,0c-0.9,0.1-0.9,0.9-0.9,0.9
					c0.8,0.1,1.1-0.6,1.1-0.6l-0.8,0.3l0.8-0.5l0.2,0.7h0.1l0-0.2c0.7,0.3,1.2-0.5,1.2-0.5c-1.2-0.2-1.2,0.2-1.2,0.2l0.9-0.1
					c-0.3,0.2-1.1,0.2-1.1,0.2l-0.3-0.7c0,0,0.2,0,0.3,0c0.1,0,1.6,0.3,1.6,0.3l0.3,0.3l-0.1,0.1c-0.9,0-1,0.8-1,0.8
					c1,0,1.1-0.6,1.1-0.6l-0.8,0.3c0.2-0.1,0.9-0.4,0.9-0.4l0.3,0.5l0.1-0.1l-0.3-0.4l0.3,0c0.4,0.8,1.5,0.5,1.5,0.5
					c-0.5-1-1.3-0.7-1.3-0.7l0.9,0.6c-0.5-0.1-1-0.5-1-0.5l-0.4,0l-0.1-0.2c0,0,0.1,0,0.3,0c0.2,0,0.9-0.1,1-0.1
					c0.1,0,0.2-0.1,0.2-0.1c0,0,0,0,0,0c0,0-0.9,0.1-1,0.1c-0.2,0-0.6-0.1-0.6-0.1l-1.4-0.3c0,0-0.7-0.2-1.1-0.2
					c-0.4,0-0.8,0.3-0.8,0.3h-0.1v-1l0.4-0.3c0,0,0.6-0.1,0.7,0c0.2,0.2,0.6,1.1,0.6,1.1h0.1l-0.2-0.6l0.2-0.1l-0.2-0.1l-0.4-0.4
					c0,0,0,0,0.6,0s0.9,0.3,0.9,0.3l0.6,1.1l0.6,0c0.7,0.5,1.5-0.1,1.5-0.1c-0.5-0.4-0.9-0.4-1.1-0.3c0.2-0.1,0.4-0.2,0.6-0.5
					c0,0-1.1-0.6-1.4,0.1c0,0,0.8,0,1-0.1l-1.1,0.1c0,0,0.1,0.6,0.7,0.4c-0.1,0.1-0.1,0.2-0.1,0.2l1,0.1c-0.3,0.1-1.1,0-1.1,0
					l-0.4,0l-0.6-1l1.4-0.1l0.1-0.1H625l-0.7-0.2c0,0-1,0-1.3,0c-0.3,0-0.8,0.4-0.8,0.4v-1.3c0.5-0.6,1.6-0.2,1.6-0.2l0,0.1
					l-0.4,0.1l0,0.1l0.4-0.1l0.8,1l0.1,0l0-0.1l0.4,0v-0.1l-0.6,0l-0.4-0.5l1.4-0.1c-0.1,0.1-1,0.2-1,0.2c0.6,0.6,1.3-0.3,1.3-0.3
					c-0.9-0.3-1.3,0.2-1.3,0.2l-0.6,0l-0.3-0.3c0.1,0,1.4,0,1.4,0v-0.1c-1.7,0-1.9-0.2-1.9-0.2c0.1-0.2,0.5-0.6,0.5-0.6l-0.1-0.1
					l-0.3,0.2c-0.2-0.8-1.2-0.7-1.2-0.7c0.2,1,0.9,0.9,0.9,0.9c-0.2-0.1-0.7-0.7-0.7-0.7c0.5,0.1,0.8,0.7,0.8,0.7
					c0,0-0.2,0.3-0.2,0.3c-0.7,0-1,0.3-1,0.3l0-0.1c0.5-0.7-0.1-1.1-0.1-1.1s-0.6,0.4-0.1,1.1l0,0.1c0,0-0.4-0.3-1-0.3
					c0,0-0.1-0.3-0.2-0.3c0,0,0.3-0.6,0.8-0.7c0,0-0.5,0.6-0.7,0.7c0,0,0.7,0.1,0.9-0.9c0,0-1-0.1-1.2,0.7l-0.3-0.2l-0.1,0.1
					c0,0,0.4,0.4,0.5,0.6c0,0-0.2,0.2-1.9,0.2v0.1c0,0,1.3,0,1.4,0l-0.3,0.3l-0.6,0c0,0-0.4-0.5-1.3-0.2c0,0,0.8,1,1.3,0.3
					c0,0-0.9-0.1-1-0.2l1.4,0.1l-0.4,0.5l-0.6,0v0.1l0.4,0l0,0.1l0.1,0l0.8-1l0.4,0.1l0-0.1l-0.4-0.1l0-0.1c0,0,1.1-0.3,1.6,0.2v1.3
					c0,0-0.5-0.4-0.8-0.4c-0.3,0-1.3,0-1.3,0l-0.7,0.2h-1.6l0.1,0.1l1.4,0.1l-0.6,1l-0.4,0c0,0-0.9,0.2-1.1,0l1-0.1
					c0,0-0.3-0.7-1.4,0.1c0,0,0.8,0.6,1.5,0.1l0.6,0l0.6-1.1c0,0,0.3-0.3,0.9-0.3c0.6,0,0.6,0,0.6,0l-0.4,0.4l-0.2,0.1l0.2,0.1
					l-0.2,0.6h0.1c0,0,0.4-0.9,0.6-1.1c0.2-0.2,0.7,0,0.7,0l0.4,0.3v1h-0.1c0,0-0.4-0.3-0.8-0.3c-0.4,0-1.1,0.2-1.1,0.2l-1.4,0.3
					c0,0-0.4,0.1-0.6,0.1c-0.2,0-1-0.1-1-0.1c0,0,0,0,0,0c0,0,0.1,0.1,0.2,0.1c0.1,0,0.8,0.1,1,0.1c0.2,0,0.3,0,0.3,0l-0.1,0.2
					l-0.4,0c0,0-0.5,0.5-1,0.5l0.9-0.6c0,0-0.8-0.3-1.3,0.7c0,0,1,0.3,1.5-0.5l0.3,0l-0.3,0.4l0.1,0.1l0.3-0.5c0,0,0.7,0.4,0.9,0.4
					l-0.8-0.3c0,0,0.1,0.6,1.1,0.6c0,0-0.1-0.8-1-0.8l-0.1-0.1l0.3-0.3c0,0,1.5-0.3,1.6-0.3c0.1,0,0.3,0,0.3,0l-0.3,0.7
					c0,0-0.8,0-1.1-0.2l0.9,0.1c0,0,0.1-0.4-1.2-0.2c0,0,0.6,0.7,1.2,0.5l0,0.2h0.1l0.2-0.7l0.8,0.5l-0.8-0.3c0,0,0.3,0.7,1.1,0.6
					c0,0,0-0.8-0.9-0.9l-0.2,0l0.2-0.3c0,0,0.8-0.1,1.1,0.4v1.3c0,0-0.4-0.2-0.6-0.3c-0.2-0.1-0.8,0-0.8,0c0,0-0.9,0.2-0.9,0.2
					s-0.6,0.1-0.7,0.1c-0.1,0-1.3,0-1.3,0c0,0-0.5,0-0.5,0s-0.6-0.1-0.7,0c0,0,0.4,0.1,0.5,0.2l-0.7,0.3c0,0,0.7,0.7,1.3,0.2
					c0,0-0.9-0.1-1-0.1c0,0,0.9,0,0.9,0s-0.1-0.2-0.2-0.2h0.9c0,0-0.6,0.7-0.7,0.8c-0.1,0.1-0.1,0.1-0.1,0.1l-0.2-0.1
					c0,0-0.4,0.3-0.6,0.4c0.2-0.1,0.5-0.4,0.5-0.4s-0.5-0.1-1,0.6c0,0,0.4,0.3,1.2-0.3l0.1-0.1l-0.1,0.5c0,0-0.2,0.3-0.2,0.4
					c0,0.1,0,0.7,0,0.7s0.2,0,0.2-0.1c0,0-0.1-0.6,0-0.6c0,0,0.2-0.2,0.2-0.2l0.1,0.7l0.2,0l0-0.6l-0.1-0.2l0-0.7l0.3-0.4l0.5-0.4
					c0,0,0.3,0.4,0.3,0.6c0,0.2,0.1,0.6,0,0.7c-0.1,0.1-0.2,0.4-0.2,0.4c0,0.1,0,0.6,0,0.6s0.1,0,0.1-0.1c0-0.1,0-0.5,0-0.5
					c0,0,0.2-0.3,0.2-0.1c0.1,0.2,0,0.6,0,0.6s0.3,0,0.2-0.2c0,0,0-0.4,0-0.5c0,0-0.1-0.1-0.2-0.5c0-0.4-0.1-0.6-0.1-0.6l-0.2-0.4
					l-0.2-0.2c0,0,1-0.1,1.2-0.1c0.2-0.1,0.9-0.2,1-0.2c0,0-0.3,0.6-0.3,0.7c0,0.1-0.2,0.5-0.2,0.7c0,0.2,0,0.3,0,0.3
					s-0.3,0.3-0.3,0.3c0,0,0,0.5,0,0.5s0.1,0,0.1,0c0,0,0.1-0.4,0.1-0.4c0-0.1,0.1-0.2,0.2-0.1c0.1,0.1,0,0.3,0,0.3l0.1,0
					c0,0,0-0.9,0-0.9c0-0.1,0.2-0.5,0.2-0.5l0.3-0.6c0,0,0.1-0.1,0.1-0.2c0,0,0.3-0.1,0.5,0c0.2,0.1,0.4,0.4,0.4,0.4s0,0.5-0.1,0.6
					c-0.1,0.1-0.3,0.5-0.3,0.6c0,0.1,0,0.4,0.1,0.4c0.1,0,0.2-0.1,0.1-0.2c-0.1-0.1,0-0.2,0-0.2s0.1,0.1,0.1,0.1
					c0,0,0.2-0.1,0.1-0.2c-0.1-0.1,0-0.3,0.1-0.5c0.1-0.2,0.1-0.7,0.1-0.7l0.1,0c0,0,0,1.6-0.1,1.6c-0.1,0.1-0.1,0.1-0.1,0.1h0.7
					c0,0,0,0-0.1-0.1c-0.1-0.1-0.1-1.6-0.1-1.6l0.1,0c0,0,0,0.5,0.1,0.7c0.1,0.2,0.2,0.4,0.1,0.5c-0.1,0.1,0.1,0.2,0.1,0.2
					c0,0,0.1-0.1,0.1-0.1s0,0.1,0,0.2c-0.1,0.1,0.1,0.3,0.1,0.2c0.1,0,0.1-0.3,0.1-0.4c0-0.1-0.2-0.5-0.3-0.6
					c-0.1-0.1-0.1-0.6-0.1-0.6s0.2-0.3,0.4-0.4c0.2-0.1,0.4,0,0.5,0c0,0,0.1,0.2,0.1,0.2l0.3,0.6c0,0,0.2,0.5,0.2,0.5
					c0,0.1,0,0.9,0,0.9l0.1,0c0,0,0-0.2,0-0.3c0.1-0.1,0.1,0.1,0.2,0.1c0,0.1,0.1,0.4,0.1,0.4c0,0,0.1,0,0.1,0s0-0.4,0-0.5
					c0,0-0.3-0.3-0.3-0.3s0-0.1,0-0.3c0-0.2-0.2-0.5-0.2-0.7c0,0,0-0.1-0.1-0.1c0.1,0.2,0.4,0.3,1.2,0.2c0,0-0.6-0.9-1.1-0.6
					l0.7,0.4l-0.8-0.4c0,0-0.1,0.2,0,0.3c-0.1-0.2-0.3-0.5-0.2-0.5c0,0,0.8,0.1,1,0.2c0.2,0.1,1.2,0.1,1.2,0.1l-0.2,0.2l0,0.1l0-0.3
					c0,0-0.5,0.4-0.2,0.8c0,0.1,0,0.2,0,0.4c0,0,0,0,0,0c-0.1-0.2-0.4-0.6-0.9-0.5l0.6,0.5l-0.7-0.5c0,0-0.7,0.7,1,0.6
					c-0.1,0.3-0.2,0.3-0.2,0.3c0,0,0,0.5,0,0.5c-0.1,0.2,0.2,0.2,0.2,0.2s0-0.4,0-0.6c0.1-0.2,0.2,0,0.2,0.1c0,0,0,0.5,0,0.5
					c0,0.1,0.1,0.1,0.1,0.1s0-0.6,0-0.6c0-0.1-0.2-0.3-0.2-0.4c0-0.1,0-0.3,0-0.5c0.2-0.1,0.5-0.4,0.2-0.6c0.1-0.1,0.1-0.1,0.1-0.1
					l0.5,0.4l0.3,0.4l0,0.7l-0.1,0.2l0,0.6l0.2,0l0.1-0.7c0,0,0.1,0.2,0.2,0.2c0,0,0,0.6,0,0.6c0,0,0.2,0.1,0.2,0.1s0-0.7,0-0.7
					c0-0.1-0.2-0.4-0.2-0.4l-0.1-0.5l0.1,0.1C627.8,666.4,628.2,666.1,628.2,666.1z M622.2,660L622.2,660l0-0.6L622.2,660L622.2,660
					z"/>
				<path class="st21" d="M624,659.6c0.2,0.8,1.2,0.4,1.2,0.4c-0.5-0.7-1.1-0.4-1.1-0.4l0.7,0.4L624,659.6z"/>
				<path class="st21" d="M622.5,661.1c0.9,0,0.9-0.4,0.9-0.4l-0.8,0.3l0.8-0.4C622.6,660.3,622.5,661.1,622.5,661.1z"/>
				<path class="st21" d="M623.3,661.2c0.6,0,0.8-0.2,0.8-0.2l-0.6,0.1l0.6-0.2C623.4,660.9,623.3,661.2,623.3,661.2z"/>
				<path class="st21" d="M626.8,661.2c0,0-1.1-0.5-1.2,0l0.9,0l-0.9,0C625.5,661.3,625.4,661.9,626.8,661.2z"/>
				<path class="st21" d="M622.6,662.6c1.1-0.1,0.9-0.5,0.9-0.5l-0.7,0.4l0.7-0.4C623,661.7,622.6,662.6,622.6,662.6z"/>
				<path class="st21" d="M625.2,662.7c0,0,0-0.9-0.8-0.8l0.6,0.6l-0.7-0.6C624.2,661.9,623.7,662.5,625.2,662.7z"/>
				<path class="st21" d="M626.4,665.7l-0.1,0.7v-0.8c0,0-0.6,0.3,0,1C626.3,666.6,627.1,666.1,626.4,665.7z"/>
				<path class="st21" d="M622.8,665.5c0,0,1.1-0.5,0.7-0.9l-0.5,0.6l0.5-0.7C623.5,664.5,622.7,664.3,622.8,665.5z"/>
				<path class="st21" d="M623.3,666.2l0.5-0.7c-1-0.3-0.6,1.1-0.6,1.1c0.9-0.4,0.7-1,0.7-1L623.3,666.2z"/>
			</g>
		</g>
	</g>
</g>
</svg>
