<?xml version="1.0" encoding="utf-8"?>
<!-- Generator: Adobe Illustrator 21.0.0, SVG Export Plug-In . SVG Version: 6.00 Build 0)  -->
<svg version="1.1" id="Layer_1" xmlns="http://www.w3.org/2000/svg" xmlns:xlink="http://www.w3.org/1999/xlink" x="0px" y="0px"
	 viewBox="0 0 1080 1920" style="enable-background:new 0 0 1080 1920;" xml:space="preserve">
<style type="text/css">
	.st0{fill:#896F4C;}
	.st1{opacity:0.2;fill:none;stroke:#000000;stroke-miterlimit:10;}
	.st2{fill:#7A5F43;}
	.st3{opacity:0.1;}
	.st4{fill:#534741;}
	.st5{opacity:0.15;}
	.st6{fill:none;stroke:#3D3530;stroke-linecap:round;stroke-linejoin:round;stroke-miterlimit:10;}
	.st7{opacity:0.36;}
	.st8{fill:#D6996F;}
	.st9{opacity:0.2;}
	.st10{opacity:0.5;}
	.st11{fill:#293842;}
	.st12{fill:#70573A;}
	.st13{fill:#FFBE91;}
	.st14{fill:#C1BEA5;}
	.st15{fill:#CC9833;}
	.st16{fill:#CB9832;}
	.st17{opacity:5.000000e-02;}
	.st18{fill:#F9F5E4;}
	.st19{fill:#332C28;}
	.st20{fill:#FFFFFF;}
	.st21{opacity:0.3;}
</style>
<g>
	<path class="st0" d="M659.9,614.9c-35.7-12.5-68.2-12.2-93.4-11.1c-12.7,0.5-23,1.4-29,2c-26.7-5.4-79.8-11.9-123.1,15.7
		c-3.9,2.5-7.8,5.3-11.6,8.4c7.6,10.7,19.1,29.9,23.7,56.2c3.6,20.2,1.8,37.3-0.5,48.7c0,0,4.5,108.1,0.5,169.4l-12.7,138l233.4,2.1
		c-4.2-60.5-4.7-128.1,1.8-201.6c3.1-35.5,5.3-60.9,11.6-93.2c5.7-29.2,15.9-69.9,35.4-117.4C681.7,623.4,669,618.1,659.9,614.9z"/>
	<path class="st1" d="M546.8,679c-0.1,115.6-0.1,231.2-0.2,346.7"/>
	<path class="st2" d="M605.7,585c0,0-64.2-26.5-117.2,0l17.8,65.1h75.7L605.7,585z"/>
	<ellipse class="st3" cx="521.2" cy="1747.9" rx="263.3" ry="62.9"/>
	<g>
		<path class="st4" d="M607.5,1654c0,0-0.5,31.6-5.7,51.2c0,0,0.5,9.6,25.8,13.9c25.3,4.3,43.8,21.5,53.1,36.4
			c9.3,14.8,83.5,11,85,10.1c0,0-35.6-44.1-57.7-64.2c-22.2-20.1-51-44.1-55.1-45C648.8,1655.5,607.5,1654,607.5,1654z"/>
		<path class="st5" d="M677.2,1674.6c-12.1-10.1-22-17.7-24.3-18.2c-4.1-1-45.4-2.4-45.4-2.4s-0.2,9.6-1.2,21.5
			C630,1675.6,653.6,1675.2,677.2,1674.6z"/>
		<path class="st6" d="M667.7,1664.4c0,0-26.8,19.2-23.9,36.5c3,17.3,17.7,9.3,15.7,0.6C657.4,1692.9,663.3,1669.3,667.7,1664.4z"/>
		<path class="st6" d="M668.8,1665.1c0,0,11.6,32.5,0,47.9"/>
	</g>
	<g>
		<path class="st4" d="M459.9,1674.4c0,0,0,46,0,53.1c0,6.8-68,2.2-108.2,30.2c0,0-51-9.3-62.6-13.6c0,0,16.2-30.9,40.2-36.6
			s75-20.1,77.3-34.5L459.9,1674.4z"/>
		<path class="st5" d="M459.9,1691.3c0-9.4,0-16.9,0-16.9l-53.3-1.4c-0.6,3.6-4.3,7.3-9.9,10.8
			C416.4,1689.5,438.8,1690.2,459.9,1691.3z"/>
		<path class="st6" d="M391.6,1686.8c0,0-39.4,34.6-20.7,44.8C384.4,1739,393.6,1689,391.6,1686.8z"/>
		<path class="st6" d="M393.6,1685.7c0,0,13,15,7.2,32.9"/>
	</g>
	<path class="st0" d="M645.5,1026.7c0.8,14.8,1.8,29.2,3,42.9c9.2,105.3,16.2,364.7,7.8,588c0,0-32.8-1.1-50.1-1.7
		c1.4-227.7-7.9-513.3-77-508.8c-25.4,1.6-49.3,76.1-59.7,237.7c-10.3,161.7-8.7,292.3-8.7,292.3l-57.6-1
		c11.4-469.4,3.4-492,6.4-607.1l4.7-44.4L645.5,1026.7z"/>
	<path class="st7" d="M647.8,1061c-0.9-11.1-1.7-22.5-2.3-34.3l-231.2-2.1l-3.8,36.4H647.8z"/>
	<path class="st8" d="M594.4,652.2c-2.4,8.2-7.3,17.5-14.2,25.2L566.1,663c-1.6,3.6-3.2,7.2-4.8,10.8h-6.4l-8.1,13.7l0.1,0.4
		l-0.2-0.3l-0.2,0.3l0.1-0.4l-8.1-13.7h-6.4c-1.6-3.6-3.2-7.2-4.8-10.8l-12.6,12.8c-10-8.9-16.7-19.4-15.2-26.1
		c1.6-6.8,2.2-26,2.3-43.9c0.2-18.5-0.1-35.6-0.1-35.6c70.7-8.6,91-6.2,92.6-0.8c0.3,1-0.1,2-0.2,9.4c0,6.1,0.2,10.4,0.3,13.5
		c0.1,2.8,0.2,5.5,0.4,8.1C596.3,629.1,596.8,644,594.4,652.2z"/>
	<path class="st5" d="M595.4,657.4l-11.1,24.2L566.1,663c-1.6,3.6-3.2,7.2-4.8,10.8h-6.4l-8.1,13.7l0.1,0.4l-0.2-0.3l-0.2,0.3
		l0.1-0.4l-8.1-13.7h-6.4c-1.6-3.6-3.2-7.2-4.8-10.8l-18.2,18.6l-13.8-30.1c0.7,0,1.4-0.1,2.2-0.1c0,0,13.5-2,31.6-3.5
		c11-0.9,23.8-1.6,36.3-1.6h0c6.6,0,13.2,0.2,19.5,0.7c0,0,4.2,0.6,10.4,1.7C595.3,651.6,595.4,654.6,595.4,657.4z"/>
	<g class="st9">
		<path d="M610,1066c3.5,24.5,6.4,49,9.1,73.6c1.3,12.3,2.6,24.6,3.8,36.9c1.1,12.3,2.3,24.6,3.3,36.9c4.2,49.3,7.3,98.6,9.4,148
			c1.2,24.7,1.6,49.4,2.3,74.1c0.2,12.4,0.2,24.7,0.4,37.1l0.2,18.5l-0.2,18.5l-0.4,37.1l-1.1,37.1l-0.6,18.5l-1,18.5l-2,37l1.7-37
			l0.9-18.5l0.5-18.5l1-37.1l0.3-37.1l0.1-18.5l-0.2-18.5c-0.2-12.4-0.2-24.7-0.5-37.1c-0.7-24.7-1.2-49.4-2.4-74.1
			c-2-49.4-5-98.7-9.1-148c-1-12.3-2.2-24.6-3.3-36.9c-1.2-12.3-2.4-24.6-3.7-36.9C616.1,1115.1,613.3,1090.5,610,1066z"/>
	</g>
	<g class="st9">
		<path d="M446.7,1066c-2.3,25.1-4.7,50.1-6.7,75.2l-1.6,18.8l-1.4,18.8l-1.4,18.8l-1.2,18.8c-0.4,6.3-0.8,12.6-1.2,18.8l-1,18.9
			c-0.7,12.6-1,25.1-1.5,37.7c-0.1,3.1-0.2,6.3-0.3,9.4l-0.2,9.4l-0.2,9.4c-0.1,3.1-0.1,6.3-0.1,9.4c0,12.6-0.2,25.2,0,37.7
			c0.3,50.3,1.9,100.7,3.1,151c0.6,25.2,1.2,50.3,1.7,75.5l0.3,18.9l0.3,18.9l0.5,37.8l-0.8-37.7l-0.4-18.9l-0.5-18.9
			c-0.5-25.2-1.2-50.3-1.8-75.5c-1.3-50.3-3-100.6-3.5-151c-0.1-12.6,0-25.2,0.1-37.8c0-3.1,0.1-6.3,0.1-9.4l0.2-9.4l0.2-9.4
			c0.1-3.1,0.1-6.3,0.3-9.4c0.5-12.6,0.8-25.2,1.6-37.7l1-18.9c0.4-6.3,0.8-12.6,1.2-18.8l1.3-18.8l1.5-18.8l1.5-18.8l1.7-18.8
			C441.7,1116.1,444.2,1091.1,446.7,1066z"/>
	</g>
	<g class="st10">
		<path class="st11" d="M490.5,946.9c4.5-0.4,9.1-0.9,13.6-1.5c4.5-0.5,9.1-1.1,13.6-1.7c9-1.3,18.1-2.7,27-4.5
			c8.9-1.8,17.8-3.9,26.5-6.8c4.3-1.5,8.6-3.1,12.6-5.2c4-2.1,7.9-4.6,10.9-8.1c-2.8,3.7-6.6,6.3-10.6,8.5c-4,2.2-8.3,3.9-12.6,5.5
			c-8.7,3-17.6,5.2-26.5,7c-9,1.7-18,3.2-27.1,4.3C508.7,945.5,499.6,946.4,490.5,946.9z"/>
	</g>
	<g class="st10">
		<path class="st11" d="M517.3,907.6c5.9-3.3,11.9-6.1,18.1-8.8c6.2-2.7,12.4-5,18.8-7.2c6.4-2,12.9-3.9,19.4-5.1
			c6.6-1.2,13.3-2,20-1.9l-5,0.3l-1.2,0.1l-1.2,0.2l-2.5,0.3l-2.5,0.3c-0.8,0.1-1.6,0.3-2.5,0.4c-1.6,0.3-3.3,0.6-4.9,1
			c-6.5,1.4-12.9,3.2-19.3,5.3c-6.4,2-12.6,4.4-18.8,6.9c-3.1,1.2-6.2,2.6-9.2,3.9C523.4,904.7,520.3,906.2,517.3,907.6z"/>
	</g>
	<g class="st10">
		<path class="st11" d="M494.6,872.2c6.3-3.1,12.8-5.7,19.4-7.9c6.6-2.2,13.4-4,20.3-5.5l5.2-0.9c1.7-0.3,3.5-0.5,5.2-0.7l2.6-0.3
			l2.6-0.2c1.7-0.1,3.5-0.3,5.2-0.3c7-0.2,14,0.3,20.9,1.6c-3.5-0.3-6.9-0.9-10.4-0.9l-2.6-0.1l-1.3,0c-0.4,0-0.9,0-1.3,0l-5.2,0.2
			c-6.9,0.5-13.9,1.3-20.7,2.7c-6.8,1.4-13.6,3.1-20.2,5.2c-3.3,1-6.6,2.2-9.9,3.4C501.1,869.5,497.9,870.8,494.6,872.2z"/>
	</g>
	<path class="st5" d="M550.8,608.4c6.4,0.3,24.5-8.1,43.7-17.8c-0.3-12.9-0.7-25.9-0.1-27.6c1.1-3.1-92.6,0.5-92.6,0.5
		s0.5,17.4-0.1,32C524.7,602.4,545.5,608.1,550.8,608.4z"/>
	<polygon class="st12" points="534.3,655.9 527.3,663 514.8,675.8 509.1,681.6 495.3,651.5 481.3,621 488.5,585 501.9,605.9 
		529.1,647.9 	"/>
	<polygon class="st12" points="612.1,621 595.4,657.4 584.3,681.5 580.2,677.4 566.1,663 559.1,655.9 565.4,646.2 565.4,646.2 
		594.9,600.5 605,585 	"/>
	<path class="st12" d="M546.9,687.9l-0.2-0.3l-0.1-0.1l-8.1-13.7h-6.4c-1.6-3.6-3.2-7.2-4.8-10.8c-0.1-0.2-0.2-0.3-0.2-0.5
		c2.4-2.2,4.8-4.4,7.2-6.6c0.7,4.6,1.5,9.2,2.2,13.8h6.6l3.6,17.4l0.1,0.4L546.9,687.9z"/>
	<path class="st12" d="M566.3,662.5c-0.1,0.2-0.2,0.3-0.2,0.5c-1.6,3.6-3.2,7.2-4.8,10.8h-6.4l-8.1,13.7l-0.1,0.1l-0.2,0.3l0.1-0.4
		l0.1-0.4l3.6-17.4h6.6c0.7-4.6,1.5-9.2,2.2-13.8C561.5,658.1,563.9,660.3,566.3,662.5z"/>
	<path class="st5" d="M373.1,806.1c0.4,0.2,0.8,0.5,1.1,0.7c-0.3-0.1-0.6-0.3-0.9-0.5C373.3,806.2,373.2,806.2,373.1,806.1z"/>
	<path class="st5" d="M378.9,809.3c3.1,1.4,6.1,2.5,8.9,3.3C384.9,811.8,382,810.7,378.9,809.3z"/>
	<path class="st0" d="M402.7,629.9c0,0,59,10.3,23.8,128.2l-23.8,56.4c0,0-49.9,1.6-54.1-54.1L402.7,629.9z"/>
	<path class="st5" d="M402.7,814.5c-18-18-36.1-36.1-54.1-54.1c0,2.8,0.5,30.6,24.5,45.7C384.7,813.3,396.7,814.4,402.7,814.5z"/>
	<path class="st5" d="M644.1,951.1c-2.7,17.9-11.2,51.7-41.3,75.4c-4.2,3.3-8.6,6.2-12.9,8.7c-8.9,0.9-15.2,2.7-20.1,8.2
		c25,0.4,50,0.8,75,1.2c-0.1-15.4-0.2-30.9-0.3-46.3C644.4,982.6,644.3,966.8,644.1,951.1z"/>
	<path class="st0" d="M696,632c0,0-59.6,6.6-32.8,126.5l19.7,57.7c0,0,49.7,4.7,57.8-50.7L696,632z"/>
	<path class="st13" d="M584.6,1051.2c7.4,2.2,15.4,2.2,21.8,0.2c0,0-4.1,10.9-9.6,19.8c16.2,2.1,32.4,5.2,48.3,9.4
		c3.3-5.3,6-11.2,7.9-17.7c1.7-6,4.2-10.5,2.2-14.4c2-3,4.1-6.1,6.1-9.1c35.5-53.5,66-107.4,92.3-161.1c1-8.7,4.2-17.9,1.9-26.7
		c-1.9-7.1-3.5-13.2-5.4-20c-9-31.8-7.9-26.3-20.4-64.4c0-0.1-0.3-1-0.3-1.1c-4.7,0.6-14.2,2.5-23.7,9.1
		c-11,7.7-15.6,17.3-17.3,21.4c2.9,6.8,6.3,16.9,11,28.9c5.6,14.3,9.4,23.1,9.2,36.1c-0.2,14.3-5,22.9-18.2,48.5
		c-25,49-19.8,41.9-31.1,61.9c-4.3,7.6-9.3,16.1-15,25.3c-5.7,9.2-12.1,19.1-19.2,29.5c-2.4-0.5-4.6-0.4-6.6,0.5
		c-17.3,7.2-13.4,16-35.5,11.7C582.9,1039.1,570.1,1046.9,584.6,1051.2z"/>
	<path class="st1" d="M607.2,718.8h-28.8V762c1,2.6,3.9,9.4,11.9,14c10.8,6.2,25.5,5.5,33.8,0c6.8-4.6,11.9-14,11.9-14l0,0v-43.2
		H607.2z"/>
	<polyline class="st12" points="578.4,735.1 636,735.1 636,718.8 578.4,718.8 578.4,735.1 	"/>
	<path class="st1" d="M483.5,718.8h-28.8V762c1,2.6,3.9,9.4,11.9,14c10.8,6.2,25.5,5.5,33.8,0c6.8-4.6,11.9-14,11.9-14l0,0v-43.2
		H483.5z"/>
	<polyline class="st12" points="454.7,735.1 512.3,735.1 512.3,718.8 454.7,718.8 454.7,735.1 	"/>
	<polyline class="st14" points="463.2,707.4 503.7,707.4 503.7,699.3 463.2,699.3 463.2,707.4 	"/>
	<g>
		<polygon class="st15" points="607.8,688.1 616.3,688.1 612.9,686.7 611.2,686.7 		"/>
		<path class="st15" d="M616.1,690.3v-0.3h-0.5v-0.2h-0.5v-1.2h-0.8l0.2,0.2v1h-0.8v-1l0.2-0.2h-1.1l0.2,0.2v1h-0.7v-1l0.2-0.2h-0.5
			h-0.5l0.2,0.2v1h-0.7v-1l0.2-0.2h-1.1l0.2,0.2v1h-0.8v-1l0.2-0.2H609v1.2h-0.5v0.2H608v0.3h-0.6c0,0.1,0.1,0.2,0.1,0.3
			c0.2,0.3,0.6,0.3,0.6,0.3c0.2,0,0.4,0,0.6,0c0.4,0,0.7,0,1.1,0.1c0.2,0.1,0.6,0.2,0.9,0.4c0.3,0.3,0.4,0.6,0.5,0.7
			c0,0.1,0.1,0.5,0.5,0.7c0.1,0.1,0.2,0.1,0.3,0.1c0.1,0,0.2,0,0.3-0.1c0.4-0.2,0.5-0.6,0.5-0.7c0.1-0.2,0.2-0.4,0.5-0.7
			c0.3-0.3,0.6-0.3,0.9-0.4c0.4-0.1,0.7-0.1,1.1-0.1c0.3,0,0.5,0,0.6,0c0,0,0.4,0,0.6-0.3c0.1-0.1,0.1-0.2,0.1-0.3H616.1z"/>
		<path class="st15" d="M617.2,690.9c-0.2,2.4-1.7,4-3.3,4.1c-0.3,0-0.9,0-1.8-0.5c-0.8,0.5-1.5,0.5-1.8,0.5
			c-1.6-0.1-3.1-1.7-3.3-4.1c0,0.1,0.1,0.2,0.2,0.3c0.1,0.1,0.2,0.2,0.3,0.2c0,0,0,0,0,0c0.2,0.3,0.6,0.3,0.7,0.3c0.2,0,0.4,0,0.6,0
			c0.4,0,0.7,0,1.1,0.2c0.3,0.1,0.6,0.2,0.9,0.4c0.3,0.3,0.5,0.6,0.5,0.7c0,0.1,0.1,0.5,0.5,0.7c0.1,0.1,0.2,0.1,0.3,0.1
			c0.1,0,0.2,0,0.3-0.1c0.4-0.2,0.5-0.6,0.5-0.7c0.1-0.2,0.2-0.5,0.5-0.7c0.3-0.3,0.7-0.4,0.9-0.4c0.4-0.1,0.7-0.1,1.1-0.2
			c0.3,0,0.5,0,0.6,0c0.1,0,0.4,0,0.7-0.3c0,0,0,0,0,0c0.1,0,0.2-0.1,0.3-0.2C617.1,691,617.1,690.9,617.2,690.9z"/>
		<g>
			<path class="st15" d="M612.1,695.5c0,0-2,1.9-5,1.3c0.3,0,0.5-0.1,0.8-0.1c0.2-0.1,0.4-0.1,0.6-0.2c0.8-0.2,1.5-0.3,2.1-0.4
				c0.2,0,0.4-0.1,0.6-0.2C611.5,695.8,611.8,695.6,612.1,695.5z"/>
			<path class="st15" d="M610.1,696c0,0-1.9,0.6-2.9-0.6l0.5,0.1l0.4-0.1l0.4,0.3l0.6,0L610.1,696z"/>
			<path class="st15" d="M608.8,695.4c0,0-1.5-1.2-1.7-1.3l-0.7,0l-0.3-0.2c0,0,0.4,1.5,2.1,1.3
				C608.1,695.2,608.5,695.4,608.8,695.4z"/>
			<path class="st15" d="M607.8,694.4l-0.6-0.8c0,0,0-0.3-0.5-0.5l-0.2-0.5c0,0-0.1-0.2-0.4-0.3c-0.3,0-0.6-0.4-0.7-0.7
				c0,0,0.1,2.8,1.6,2.5L607.8,694.4z"/>
			<path class="st15" d="M608.6,696.2c0,0-0.6-0.2-0.7-0.3l-0.6,0l-0.5-0.2l-1.3,0.1c0,0-0.5-0.1-0.6-0.2
				C604.8,695.6,605.9,697,608.6,696.2z"/>
			<path class="st15" d="M607.4,695.6c0,0-0.4-0.4-0.4-0.4l-0.2-0.2l-0.7,0l-0.4-0.2c0,0-1.3,0.2-2.4-0.9
				C603.3,693.9,604.3,695.8,607.4,695.6z"/>
			<path class="st15" d="M606.4,694.8l-0.4-0.6l-0.6-0.3c0,0-0.3-0.4-0.7-0.6c-0.4-0.2-2-1.5-2.1-2.8
				C602.7,690.6,601.6,694.1,606.4,694.8z"/>
			<path class="st15" d="M605.8,693.7l-0.5-1.2c0,0-0.3-0.2-0.4-0.3c-0.1-0.1-0.3-1.6-1.2-2.6c0,0-0.4-1.8,1.2-4.1
				C604.9,685.5,599.8,690,605.8,693.7z"/>
		</g>
		<g>
			<path class="st15" d="M612.1,695.5c0,0,2,1.9,5,1.3c-0.3,0-0.5-0.1-0.8-0.1c-0.2-0.1-0.4-0.1-0.6-0.2c-0.8-0.2-1.5-0.3-2.1-0.4
				c-0.2,0-0.4-0.1-0.6-0.2C612.7,695.8,612.4,695.6,612.1,695.5z"/>
			<path class="st15" d="M614.1,696c0,0,1.9,0.6,2.9-0.6l-0.5,0.1l-0.4-0.1l-0.4,0.3l-0.6,0L614.1,696z"/>
			<path class="st15" d="M615.4,695.4c0,0,1.5-1.2,1.7-1.3l0.7,0l0.3-0.2c0,0-0.4,1.5-2.1,1.3C616.1,695.2,615.7,695.4,615.4,695.4z
				"/>
			<path class="st15" d="M616.4,694.4l0.6-0.8c0,0,0-0.3,0.5-0.5l0.2-0.5c0,0,0.1-0.2,0.4-0.3c0.3,0,0.6-0.4,0.7-0.7
				c0,0-0.1,2.8-1.6,2.5L616.4,694.4z"/>
			<path class="st15" d="M615.6,696.2c0,0,0.6-0.2,0.7-0.3l0.6,0l0.5-0.2l1.3,0.1c0,0,0.5-0.1,0.6-0.2
				C619.4,695.6,618.3,697,615.6,696.2z"/>
			<path class="st15" d="M616.8,695.6c0,0,0.4-0.4,0.4-0.4l0.2-0.2l0.7,0l0.4-0.2c0,0,1.3,0.2,2.4-0.9
				C620.9,693.9,619.9,695.8,616.8,695.6z"/>
			<path class="st15" d="M617.7,694.8l0.4-0.6l0.6-0.3c0,0,0.3-0.4,0.7-0.6c0.4-0.2,2-1.5,2.1-2.8
				C621.5,690.6,622.6,694.1,617.7,694.8z"/>
			<path class="st15" d="M618.4,693.7l0.5-1.2c0,0,0.3-0.2,0.4-0.3c0.1-0.1,0.3-1.6,1.2-2.6c0,0,0.4-1.8-1.2-4.1
				C619.3,685.5,624.4,690,618.4,693.7z"/>
		</g>
		<g>
			<path class="st16" d="M610.3,679.6l-0.9,0.3l0.7-0.4c0,0-0.5-0.3-1,0.4C609.2,680,610.1,680.3,610.3,679.6z"/>
			<path class="st16" d="M610.9,680.5l0.8,0.4L610.9,680.5c0,0.1,0,0.5,0.9,0.5C611.8,681,611.7,680.3,610.9,680.5z"/>
			<path class="st16" d="M610.2,680.8l0.5,0.2l-0.5-0.1c0,0,0.2,0.2,0.8,0.2C611,681.2,610.9,680.8,610.2,680.8z"/>
			<path class="st16" d="M608.9,681.1l-0.8,0L608.9,681.1c0,0.1,0.1,0.6-1.2,0C607.7,681.2,608.7,680.7,608.9,681.1z"/>
			<path class="st16" d="M610.8,681.9l0.7,0.4L610.8,681.9c0,0.1-0.2,0.5,0.9,0.6C611.7,682.5,611.2,681.6,610.8,681.9z"/>
			<path class="st16" d="M610,681.8l-0.6,0.5l0.7-0.5c0,0,0.5,0.6-0.9,0.8C609.2,682.6,609.2,681.7,610,681.8z"/>
			<path class="st16" d="M608.6,682c0,0-0.9-0.1-0.9-0.1l1.1,0.1c0,0-0.2,1-1.4-0.2C607.3,682,608.3,681.4,608.6,682z"/>
			<path class="st16" d="M608,685.5l0.1,0.7v-0.8c0,0,0.6,0.3,0,1C608.1,686.3,607.4,685.8,608,685.5z"/>
			<path class="st16" d="M610.2,684.5l-0.7,0.4l0.8-0.4c0,0,0.4,0.8-1.2,0.5C609.1,685,609.6,684.2,610.2,684.5z"/>
			<path class="st16" d="M608.7,684.6c0,0,0.6,0.5,0.2,0.8c0,0-0.7-0.4-0.3-0.7l0.2,0.3L608.7,684.6z"/>
			<path class="st16" d="M609.8,685.3l-0.6,0.5l0.7-0.4c0,0,0.6,0.7-1,0.6C608.9,685.9,609.1,685.1,609.8,685.3z"/>
			<path class="st16" d="M610.8,684.4l0.5,0.6l-0.5-0.7c0,0,0.8-0.2,0.6,1C611.4,685.3,610.4,684.8,610.8,684.4z"/>
			<path class="st16" d="M610.5,685.2l0.5,0.7l-0.6-0.7c0,0-0.2,0.6,0.7,1C611.1,686.2,611.5,684.9,610.5,685.2z"/>
			<g>
				<path class="st16" d="M617.8,685.9c-0.4-0.7-0.9-0.6-0.9-0.6s0.3,0.3,0.5,0.4c-0.2-0.1-0.6-0.4-0.6-0.4l-0.2,0.1
					c0,0,0,0-0.1-0.1c-0.1-0.1-0.6-0.8-0.6-0.8h0.9c-0.1,0.1-0.2,0.2-0.2,0.2s0.8,0,0.8,0c0,0-0.9,0.1-0.9,0.1
					c0.6,0.5,1.3-0.2,1.3-0.2l-0.7-0.3c0.1,0,0.5-0.1,0.5-0.1c-0.1,0-0.7,0-0.7,0s-0.4,0-0.5,0s-1.1,0-1.2,0c-0.1,0-0.7-0.1-0.7-0.1
					s-0.8-0.2-0.9-0.2s-0.6-0.1-0.8,0c-0.2,0.1-0.5,0.3-0.5,0.3v-1.2c0.3-0.5,1-0.4,1-0.4l0.2,0.3l-0.2,0c-0.9,0.1-0.9,0.8-0.9,0.8
					c0.8,0.1,1.1-0.6,1.1-0.6l-0.8,0.3l0.8-0.5l0.2,0.7h0.1l0-0.2c0.6,0.2,1.2-0.5,1.2-0.5c-1.2-0.2-1.1,0.2-1.1,0.2l0.8-0.1
					c-0.3,0.2-1,0.2-1,0.2l-0.3-0.7c0,0,0.2,0,0.3,0c0.1,0,1.6,0.3,1.6,0.3l0.3,0.3l-0.1,0.1c-0.8,0-0.9,0.8-0.9,0.8
					c1,0,1.1-0.5,1.1-0.5l-0.8,0.3c0.2-0.1,0.8-0.4,0.8-0.4l0.3,0.4l0.1-0.1l-0.2-0.4l0.3,0c0.4,0.8,1.4,0.5,1.4,0.5
					c-0.5-1-1.2-0.7-1.2-0.7l0.8,0.6c-0.4-0.1-0.9-0.5-0.9-0.5l-0.4,0l-0.1-0.2c0,0,0.1,0,0.3,0c0.2,0,0.8-0.1,0.9-0.1
					c0.1,0,0.2-0.1,0.2-0.1c0,0,0,0,0,0c0,0-0.8,0.1-1,0.1c-0.2,0-0.6-0.1-0.6-0.1l-1.3-0.3c0,0-0.7-0.1-1.1-0.2
					c-0.4,0-0.8,0.2-0.8,0.2h-0.1v-1l0.4-0.3c0,0,0.5-0.1,0.7,0c0.2,0.1,0.5,1,0.5,1h0.1l-0.2-0.6l0.2-0.1l-0.2-0.1l-0.4-0.4
					c0,0,0,0,0.6,0c0.6,0,0.9,0.3,0.9,0.3l0.6,1.1l0.6,0c0.7,0.5,1.4-0.1,1.4-0.1c-0.5-0.3-0.8-0.4-1-0.3c0.2-0.1,0.4-0.2,0.6-0.4
					c0,0-1-0.6-1.3,0.1c0,0,0.8,0,0.9-0.1l-1,0.1c0,0,0.1,0.6,0.7,0.4c-0.1,0.1-0.1,0.2-0.1,0.2l1,0.1c-0.3,0.1-1.1,0-1.1,0l-0.4,0
					l-0.5-1l1.3-0.1l0.1-0.1h-1.5l-0.7-0.2c0,0-0.9,0-1.2,0c-0.3,0-0.7,0.4-0.7,0.4v-1.2c0.5-0.5,1.5-0.2,1.5-0.2l0,0.1l-0.3,0.1
					l0,0.1l0.4-0.1l0.8,0.9l0.1,0l0-0.1l0.4,0v-0.1l-0.5,0l-0.3-0.5l1.4-0.1c-0.1,0.1-0.9,0.2-0.9,0.2c0.6,0.6,1.3-0.3,1.3-0.3
					c-0.9-0.3-1.2,0.2-1.2,0.2l-0.5,0l-0.3-0.3c0.1,0,1.3,0,1.3,0v-0.1c-1.6,0-1.8-0.2-1.8-0.2c0.1-0.2,0.5-0.6,0.5-0.6l-0.1-0.1
					l-0.3,0.2c-0.2-0.7-1.1-0.7-1.1-0.7c0.2,0.9,0.9,0.8,0.9,0.8c-0.2-0.1-0.6-0.7-0.6-0.7c0.5,0.1,0.8,0.7,0.8,0.7
					c0,0-0.2,0.3-0.2,0.3c-0.6,0-1,0.3-1,0.3l0-0.1c0.5-0.6-0.1-1.1-0.1-1.1s-0.6,0.4-0.1,1.1l0,0.1c0,0-0.3-0.3-1-0.3
					c0,0-0.1-0.3-0.2-0.3c0,0,0.3-0.6,0.8-0.7c0,0-0.5,0.6-0.6,0.7c0,0,0.7,0.1,0.9-0.8c0,0-1-0.1-1.1,0.7l-0.3-0.2l-0.1,0.1
					c0,0,0.4,0.4,0.5,0.6c0,0-0.2,0.2-1.8,0.2v0.1c0,0,1.2,0,1.3,0l-0.3,0.3l-0.5,0c0,0-0.4-0.4-1.2-0.2c0,0,0.7,0.9,1.3,0.3
					c0,0-0.8-0.1-0.9-0.2l1.4,0.1l-0.3,0.5l-0.5,0v0.1l0.4,0l0,0.1l0.1,0l0.8-0.9l0.4,0.1l0-0.1l-0.3-0.1l0-0.1c0,0,1-0.3,1.5,0.2
					v1.2c0,0-0.5-0.4-0.7-0.4c-0.3,0-1.2,0-1.2,0l-0.7,0.2h-1.5l0.1,0.1l1.3,0.1l-0.5,1l-0.4,0c0,0-0.8,0.2-1.1,0l1-0.1
					c0,0-0.3-0.6-1.4,0.1c0,0,0.7,0.6,1.4,0.1l0.6,0l0.6-1.1c0,0,0.3-0.3,0.9-0.3c0.6,0,0.6,0,0.6,0l-0.4,0.4l-0.2,0.1l0.2,0.1
					l-0.2,0.6h0.1c0,0,0.4-0.9,0.5-1c0.2-0.1,0.7,0,0.7,0l0.4,0.3v1h-0.1c0,0-0.4-0.3-0.8-0.2c-0.4,0-1.1,0.2-1.1,0.2l-1.3,0.3
					c0,0-0.4,0.1-0.6,0.1c-0.2,0-0.9-0.1-1-0.1c0,0,0,0,0,0c0,0,0.1,0.1,0.2,0.1c0.1,0,0.7,0.1,0.9,0.1c0.2,0,0.3,0,0.3,0l-0.1,0.2
					l-0.4,0c0,0-0.5,0.5-0.9,0.5l0.8-0.6c0,0-0.7-0.3-1.2,0.7c0,0,1,0.3,1.4-0.5l0.3,0l-0.2,0.4l0.1,0.1l0.3-0.4
					c0,0,0.6,0.3,0.8,0.4l-0.8-0.3c0,0,0.1,0.6,1.1,0.5c0,0-0.1-0.8-0.9-0.8l-0.1-0.1l0.3-0.3c0,0,1.4-0.3,1.6-0.3
					c0.1,0,0.3,0,0.3,0l-0.3,0.7c0,0-0.8,0-1-0.2l0.8,0.1c0,0,0.1-0.4-1.1-0.2c0,0,0.5,0.7,1.2,0.5l0,0.2h0.1l0.2-0.7l0.8,0.5
					l-0.8-0.3c0,0,0.3,0.7,1.1,0.6c0,0,0-0.8-0.9-0.8l-0.2,0l0.2-0.3c0,0,0.7-0.1,1,0.4v1.2c0,0-0.4-0.2-0.5-0.3
					c-0.2-0.1-0.8,0-0.8,0c0,0-0.9,0.2-0.9,0.2s-0.6,0.1-0.7,0.1c-0.1,0-1.2,0-1.2,0s-0.5,0-0.5,0s-0.5-0.1-0.7,0
					c0,0,0.4,0.1,0.5,0.1l-0.7,0.3c0,0,0.6,0.7,1.3,0.2c0,0-0.9-0.1-0.9-0.1c0,0,0.8,0,0.8,0s-0.1-0.2-0.2-0.2h0.9
					c0,0-0.5,0.7-0.6,0.8c-0.1,0.1-0.1,0.1-0.1,0.1l-0.2-0.1c0,0-0.4,0.2-0.6,0.4c0.2-0.1,0.5-0.4,0.5-0.4s-0.5-0.1-0.9,0.6
					c0,0,0.3,0.3,1.1-0.2l0.1-0.1l-0.1,0.4c0,0-0.2,0.3-0.2,0.3c0,0.1,0,0.7,0,0.7s0.2,0,0.2-0.1s-0.1-0.6,0-0.6
					c0,0,0.2-0.2,0.2-0.2l0.1,0.7l0.2,0l0-0.6l-0.1-0.2l0-0.7l0.3-0.4l0.4-0.4c0,0,0.3,0.4,0.3,0.6c0,0.2,0.1,0.6,0,0.7
					c-0.1,0.1-0.2,0.4-0.2,0.4c0,0.1,0,0.6,0,0.6s0.1,0,0.1-0.1c0-0.1,0-0.5,0-0.5c0,0,0.1-0.3,0.2-0.1c0.1,0.2,0,0.6,0,0.6
					s0.3,0,0.2-0.1c0,0,0-0.4,0-0.5c0,0-0.1-0.1-0.2-0.4c0-0.4-0.1-0.6-0.1-0.6l-0.2-0.4l-0.2-0.2c0,0,0.9-0.1,1.1-0.1
					c0.2-0.1,0.9-0.2,0.9-0.2c0,0-0.3,0.6-0.3,0.7c0,0.1-0.2,0.4-0.2,0.6c0,0.2,0,0.3,0,0.3s-0.3,0.3-0.3,0.3c0,0,0,0.4,0,0.4
					s0.1,0,0.1,0c0,0,0.1-0.4,0.1-0.4c0-0.1,0.1-0.2,0.2-0.1c0.1,0.1,0,0.3,0,0.3l0.1,0c0,0,0-0.8,0-0.9c0-0.1,0.2-0.5,0.2-0.5
					l0.3-0.6c0,0,0.1-0.1,0.1-0.2c0,0,0.3-0.1,0.5,0c0.2,0.1,0.3,0.4,0.3,0.4s0,0.5-0.1,0.5c-0.1,0.1-0.3,0.5-0.3,0.6
					c0,0.1,0,0.4,0.1,0.4c0.1,0,0.2-0.1,0.1-0.2c-0.1-0.1,0-0.2,0-0.2s0.1,0.1,0.1,0.1c0,0,0.1-0.1,0.1-0.2s0-0.3,0.1-0.5
					s0.1-0.6,0.1-0.6l0.1,0c0,0,0,1.5-0.1,1.6c-0.1,0.1-0.1,0.1-0.1,0.1h0.7c0,0,0,0-0.1-0.1c-0.1-0.1-0.1-1.6-0.1-1.6l0.1,0
					c0,0,0,0.5,0.1,0.6s0.1,0.4,0.1,0.5c-0.1,0.1,0.1,0.2,0.1,0.2c0,0,0.1-0.1,0.1-0.1s0,0.1,0,0.2c-0.1,0.1,0.1,0.3,0.1,0.2
					c0.1,0,0.1-0.3,0.1-0.4c0-0.1-0.2-0.5-0.3-0.6c-0.1-0.1-0.1-0.5-0.1-0.5s0.1-0.3,0.3-0.4c0.2-0.1,0.4,0,0.5,0
					c0,0,0.1,0.2,0.1,0.2l0.3,0.6c0,0,0.2,0.4,0.2,0.5c0,0.1,0,0.9,0,0.9l0.1,0c0,0,0-0.2,0-0.3c0.1-0.1,0.1,0.1,0.2,0.1
					c0,0.1,0.1,0.4,0.1,0.4c0,0,0.1,0,0.1,0s0-0.4,0-0.4c0,0-0.3-0.3-0.3-0.3s0-0.1,0-0.3c0-0.2-0.2-0.5-0.2-0.6c0,0,0-0.1-0.1-0.1
					c0.1,0.2,0.4,0.3,1.2,0.2c0,0-0.5-0.9-1-0.5l0.7,0.4l-0.8-0.4c0,0-0.1,0.1,0,0.3c-0.1-0.2-0.3-0.5-0.2-0.5c0,0,0.8,0.1,0.9,0.2
					c0.2,0.1,1.1,0.1,1.1,0.1l-0.2,0.2l0,0.1l0-0.3c0,0-0.5,0.4-0.2,0.8c0,0.1,0,0.2,0,0.4c0,0,0,0,0,0c-0.1-0.2-0.4-0.6-0.9-0.5
					l0.6,0.5l-0.7-0.4c0,0-0.6,0.6,1,0.6c0,0.3-0.1,0.3-0.2,0.3c0,0,0,0.5,0,0.5c-0.1,0.2,0.2,0.1,0.2,0.1s0-0.4,0-0.6
					c0.1-0.2,0.2,0,0.2,0.1c0,0,0,0.4,0,0.5c0,0.1,0.1,0.1,0.1,0.1s0-0.6,0-0.6c0-0.1-0.2-0.3-0.2-0.4c0-0.1,0-0.3,0-0.5
					c0.2-0.1,0.5-0.4,0.2-0.6c0.1-0.1,0.1-0.1,0.1-0.1l0.4,0.4l0.3,0.4l0,0.7l-0.1,0.2l0,0.6l0.2,0l0.1-0.7c0,0,0.1,0.2,0.2,0.2
					c0,0,0,0.6,0,0.6s0.2,0.1,0.2,0.1s0-0.7,0-0.7c0-0.1-0.2-0.3-0.2-0.3l-0.1-0.4l0.1,0.1C617.4,686.2,617.8,685.9,617.8,685.9z
					 M612.1,679.9L612.1,679.9l0-0.5L612.1,679.9L612.1,679.9z"/>
				<path class="st16" d="M613.8,679.6c0.2,0.7,1.2,0.4,1.2,0.4c-0.5-0.7-1-0.4-1-0.4l0.7,0.4L613.8,679.6z"/>
				<path class="st16" d="M612.4,681c0.9,0,0.9-0.4,0.9-0.4l-0.8,0.3l0.8-0.4C612.5,680.3,612.4,681,612.4,681z"/>
				<path class="st16" d="M613.1,681.2c0.6,0,0.8-0.2,0.8-0.2l-0.5,0.1l0.5-0.2C613.3,680.8,613.1,681.2,613.1,681.2z"/>
				<path class="st16" d="M616.4,681.2c0,0-1-0.5-1.2,0l0.8,0l-0.8,0C615.3,681.2,615.2,681.8,616.4,681.2z"/>
				<path class="st16" d="M612.5,682.5c1.1-0.1,0.9-0.5,0.9-0.5l-0.7,0.4l0.7-0.4C612.9,681.6,612.5,682.5,612.5,682.5z"/>
				<path class="st16" d="M614.9,682.6c0,0,0-0.9-0.8-0.8l0.6,0.5l-0.7-0.5C614,681.8,613.5,682.4,614.9,682.6z"/>
				<path class="st16" d="M616.1,685.5l-0.1,0.7v-0.8c0,0-0.6,0.3,0,1C616,686.3,616.7,685.8,616.1,685.5z"/>
				<path class="st16" d="M612.7,685.3c0,0,1.1-0.5,0.6-0.9l-0.5,0.6l0.5-0.7C613.3,684.3,612.6,684.1,612.7,685.3z"/>
				<path class="st16" d="M613.2,685.9l0.5-0.7c-1-0.3-0.6,1-0.6,1c0.9-0.4,0.7-1,0.7-1L613.2,685.9z"/>
			</g>
		</g>
	</g>
	<g>
		<path class="st13" d="M678.1,422.2c0,0,9.1-14,21-11.9c11.9,2.1,9.5,25.4,8,35c-1.5,9.6-21.7,39.2-35.8,21.4
			C663.5,456.7,678.1,422.2,678.1,422.2z"/>
		<path class="st13" d="M418.1,411.9c0,0-15.3-17.2-24,3.5c-8.7,20.7-2.8,52.7,28.2,52.6C433.2,467.9,418.1,411.9,418.1,411.9z"/>
		<path class="st13" d="M416.8,516.6c2.2-22,6.8-55.1,0.8-88.4c-5.9-33.3-26.5-122.5,97.5-145.2c124-22.7,187.6,38.7,168.7,125.4
			c-18.8,86.8-7.7,77.9-11.2,103.8c-2.2,16.2-10.2,29.8-30.6,40.2c-29.3,15.1-86.3,36.3-97.8,35.3c-11.5-1-76.4-35.1-103.4-44
			C415.4,535.4,416,525.4,416.8,516.6z"/>
		<g class="st17">
			<path d="M685.3,321.5c-17.9-18.6-12.6-37-12.6-37s-11.6,2.2-24,2c-12.4-0.2-26.4-13.4-40.9-21.6c-14.5-8.2-38.6-0.2-38.6-0.2
				c1.3-12.3,19.9-14.8,19.9-14.8c-32.4,1.3-38.2,14.6-44.4,17.2c-6.2,2.7-28-7.1-28-7.1c-6.7-2-6.1,5.9-21.3,4.6
				c-17.3-1.5-24.5,1.5-24.5,1.5c16.7,1.5,25.8,9.2,25.8,9.2c-20.2-1.3-26.1,17.9-26.1,17.9c-12.5-8.9-34.3-3.5-48.1,5.4
				c-13.8,8.9,13.6,2.9,13.6,2.9l-7.6,21.2c-21.2,25-22.4,59.9-20.9,80.2c0.6,0.2,1.1,0.5,1.6,1.1c5.1,6.8,11.4,12.6,13.9,20.5
				l8.9,0.8c-0.1-0.3-0.1-0.5-0.1-0.5l-4.3-25.7c1.2-1.7,12.4-5.3,15.9-19.8c3.5-14.4,4.7-16.6,4.7-16.6s23.9-5.7,26.5-6.9
				c2.6-1.2,23.7-14,23.7-14l29.3-5.7c0,0-17.8,16.4-25.8,20.2c7.8-1.8,28.3-6.6,37.9-7.6c12-1.2,12-1.2,12-1.2s33.1-3.5,38.5-3.5
				c0,0,3.9-8.9-3.4-15c0,0,19.7,10.5,27.2,10.2c7.5-0.3,19-1.5,19-1.5l11.5-3.2l6-1.1l-12.1,29.6c0,0,15.4-14.8,18.4-15.4
				c0,0-4.2,54.9-11.7,60.7c0,0,13.3-8.9,13.7-13.1c0,0-0.7,35.8-2.9,49.9l18.7,1.7c0.5-5.8,0.8-9.8,0.9-11c0.1-6,8.8-61.8,15.8-76
				C698.2,345.7,703.2,340.1,685.3,321.5z"/>
			<path d="M505.6,542c0,0,59.8,0.6,86.7-10.2c0,0-5.2,28.4-40.7,28.7C516,560.8,505.6,542,505.6,542z"/>
		</g>
		<path class="st4" d="M579.4,436.6c0,0-8.8-8-3.7-16.4c5.1-8.4,23.1-12.1,36.7-10.6c13.6,1.5,22.8,14.3,11.6,24.1
			C612.8,443.4,587.8,445.4,579.4,436.6z"/>
		<path class="st18" d="M579.5,438.4c0,0-8.8-8-3.7-16.4c5.1-8.4,22.9-10.2,36.5-8.7c13.6,1.5,23,12.3,11.8,22.2
			C612.9,445.2,587.9,447.2,579.5,438.4z"/>
		<path class="st19" d="M610,428.6c-0.4,4.3-4.5,7.4-9.1,7c-4.6-0.4-7.9-4.2-7.5-8.5c0.4-4.3,4.5-7.4,9.1-7S610.4,424.3,610,428.6z"
			/>
		<path class="st4" d="M442.7,395.6c0,0,7.8-4.6,22.5-9.7c11.5-4,25.6-5,32.9-2.9c7.3,2,19.5,11.5,15.1,13.3
			c-4.4,1.8-21.2-2.1-32.5-0.9c-11.8,1.2-21.8,2.8-28.3,4.2C446.4,400.9,440.4,400.7,442.7,395.6z"/>
		<path class="st4" d="M584.6,397.9c0,0-13.1,2.4-14.9-3.8c-1.7-6.3,5.7-8.4,18.4-7.5c12.8,0.9,42.2,8.5,47,14.5
			c4.8,6,3.1,5-1.1,5.2C629.8,406.4,612,396.5,584.6,397.9z"/>
		<g>
			<path class="st4" d="M693.1,303.6c-18.7-19.5-13.1-38.7-13.1-38.7s-12.1,2.3-25.1,2.1c-12.9-0.2-27.6-14-42.7-22.6
				c-15.2-8.6-40.4-0.2-40.4-0.2c1.3-12.9,20.8-15.5,20.8-15.5c-33.8,1.3-39.9,15.2-46.4,18c-6.5,2.8-29.3-7.4-29.3-7.4
				c-7-2.1-6.3,6.2-22.2,4.8c-18.1-1.6-25.5,1.6-25.5,1.6c17.4,1.6,27,9.6,27,9.6c-21.1-1.4-27.3,18.7-27.3,18.7
				c-13-9.3-35.9-3.7-50.3,5.6c-14.4,9.3-22.3,40.8-22.3,40.8l28.5-15.7c-33,38.9-19.7,100.7-19.7,100.7c9.6,2.8,8.6,6.5,12.7,17.5
				c4.1,10.9-2,73.4-3.8,81.9c-2.1,10.4-0.1,28.6,18.2,39.1c16.8,9.6,102.5,45.2,114.3,46.7c11.8,1.5,67-22.9,92.5-33.1
				c27.3-11,32.7-25.5,33.9-32.1c1.2-6.6,9.9-96.3,10-102.5c0.1-6.2,9.2-64.6,16.5-79.3C706.5,328.9,711.8,323.1,693.1,303.6z
				 M638.3,488.7c-5.1,3.3-36,14-64.3,11.5c0,0-6.2,14.5-19.3,15.3c-13,0.8-25.8-2-30.1-4.1c-11.8-5.7-12.9-10.8-12.9-10.8
				s-30.4-0.9-40.5-3.7c-10.1-2.8-29.9-16.9-33.7-40.4c-3.8-23.4-9.3-45.1-9.3-45.1l-4.5-26.9c1.2-1.8,13-5.6,16.6-20.6
				c3.6-15.1,4.9-17.4,4.9-17.4s24.9-6,27.7-7.2c2.7-1.2,24.8-14.6,24.8-14.6l30.6-5.9c0,0-18.6,17.1-27,21.1
				c8.1-1.9,29.5-6.9,39.6-7.9c12.6-1.3,12.6-1.3,12.6-1.3s34.5-3.7,40.2-3.6c0,0,4.1-9.3-3.6-15.7c0,0,20.6,11,28.4,10.7
				c7.8-0.3,19.8-1.6,19.8-1.6l12-3.3l6.2-1.2l-12.7,31c0,0,16.1-15.4,19.3-16.1c0,0-4.4,57.3-12.2,63.4c0,0,13.9-9.3,14.4-13.6
				c0,0-0.9,44.2-3.6,55.5C661.8,436,654.2,478.3,638.3,488.7z"/>
			<path class="st8" d="M525.5,462.4c0,0-4.1,29.9-14.4,34.3c-10.3,4.4,12.3,21.3,32,20.6c19.7-0.6,31.2-5.9,31.2-16
				c0-10.1-5.8-14-5.8-14s7,12.6,0.7,17.9c-6.2,5.2-17,9.1-27.4,9.6c-10.4,0.5-33.1-10.6-27.9-15.5
				C519.1,494.5,527.9,479.9,525.5,462.4z"/>
			<path class="st20" d="M505.4,533.9c0,0,62.5,0.7,90.6-10.7c0,0-5.4,29.6-42.5,30C516.3,553.5,505.4,533.9,505.4,533.9z"/>
		</g>
		<g class="st21">
			<g>
				<path class="st8" d="M443.6,458c2.5-2.2,5.1-4.2,7.7-6.2c2.6-2,5.3-4,8-5.8c-2.5,2.2-5.1,4.2-7.7,6.2
					C448.9,454.1,446.3,456.1,443.6,458z"/>
			</g>
			<g>
				<path class="st8" d="M462.1,457.9c2.5-2.2,5.1-4.2,7.7-6.2c2.6-2,5.3-4,8-5.8c-2.5,2.2-5.1,4.2-7.7,6.2
					C467.5,454,464.9,456,462.1,457.9z"/>
			</g>
			<g>
				<path class="st8" d="M480.5,459.5c2.5-2.2,5.1-4.2,7.7-6.2c2.6-2,5.3-4,8-5.8c-2.5,2.2-5.1,4.2-7.7,6.2
					C485.9,455.7,483.3,457.7,480.5,459.5z"/>
			</g>
			<g>
				<path class="st8" d="M498.9,461.2c2.5-2.2,5.1-4.2,7.7-6.2c2.6-2,5.3-4,8-5.8c-2.5,2.2-5.1,4.2-7.7,6.2
					C504.3,457.3,501.6,459.3,498.9,461.2z"/>
			</g>
		</g>
		<g class="st21">
			<g>
				<path class="st8" d="M567.3,463.1c2.5-2.2,5.1-4.2,7.7-6.2c2.6-2,5.3-4,8-5.8c-2.5,2.2-5.1,4.2-7.7,6.2
					C572.7,459.3,570.1,461.3,567.3,463.1z"/>
			</g>
			<g>
				<path class="st8" d="M585.9,463c2.5-2.2,5.1-4.2,7.7-6.2c2.6-2,5.3-4,8-5.8c-2.5,2.2-5.1,4.2-7.7,6.2
					C591.3,459.2,588.6,461.2,585.9,463z"/>
			</g>
			<g>
				<path class="st8" d="M604.3,464.7c2.5-2.2,5.1-4.2,7.7-6.2c2.6-2,5.3-4,8-5.8c-2.5,2.2-5.1,4.2-7.7,6.2
					C609.7,460.8,607,462.8,604.3,464.7z"/>
			</g>
			<g>
				<path class="st8" d="M622.7,466.3c2.5-2.2,5.1-4.2,7.7-6.2c2.6-2,5.3-4,8-5.8c-2.5,2.2-5.1,4.2-7.7,6.2
					C628,462.4,625.4,464.4,622.7,466.3z"/>
			</g>
		</g>
		<path class="st8" d="M511.2,426.6c0,0-5.2-14.5-16.9-14.4c0,0,8,1.2,9.1,6.5c0,0-26.7-13.3-53.7,6.5c0,0,31-17.4,52-1.4
			c0,0-11.4-4.5-18.9,3c0,0,12.2-3.9,17.3,0.1C508.8,433.8,511.2,426.6,511.2,426.6z"/>
		<g>
			<path class="st4" d="M511.2,426.6c-2.1-1.7-4.4-3.1-6.8-4.4c-2.4-1.3-4.9-2.4-7.4-3.3c-5.1-1.8-10.5-2.9-15.9-2.9
				c-1.4-0.1-2.7,0-4.1,0.1c-1.3,0.1-2.7,0.2-4,0.4c-2.7,0.4-5.3,1-7.9,1.8c-5.2,1.6-10.1,4-14.7,6.8c4.5-3,9.4-5.5,14.6-7.2
				c2.6-0.8,5.3-1.5,8-1.9c1.3-0.2,2.7-0.3,4.1-0.5c1.4-0.1,2.7-0.1,4.1-0.1c5.5,0.1,10.9,1.2,16,3.1
				C502.2,420.5,507,423.2,511.2,426.6z"/>
		</g>
	</g>
	<path class="st13" d="M397.7,791.9c-0.5-1.6-1.7-3.7-2.5-5.3c-1.3-2.3-2.6-4-4-5.9c-1.4-1.9-2.2-3-3.6-4.4
		c-0.4-0.5-1.4-1.5-3.2-2.9c-1.8-1.5-4.5-3.4-8.1-5.5c-1.6-1.2-3-2-4.1-2.4c-0.8-0.4-0.5-0.2-3.5-1.4c-1.6-0.7-1.8-0.8-2.1-0.7
		c-1.9,0-3.3,3-3.9,4.2c-2,4.2-4,8.4-5.9,12.4c0,0-5.9,11.1-11.6,20.1c-5.1,8.1-10,14.2-13.1,18c-3.3-9.9-7.7-24.5-11.6-42.4
		c-1.1-5.1-2-10.7-5.8-32.3c-1.7-9.4-3.9-22.7-6.4-38.9c0.6-0.4,1.1-0.7,1.6-1.1c7-5.4,9.5-8.9,10.5-16.9c1-7.8,2.5-16.1-3.1-21.3
		c-3.3-3.1-3.8-4-7.1-4c0,0-0.2-0.4-0.5-1.1c-0.3-2.7-4.5-46.1-5.6-50.7c-2.7-10.7-16.5-8.9-16.8-0.8c-0.3,8.1,0.7,19.2,3.9,41.9
		c0,0-1.8-3.7-7.8-3.3c-6,0.3-6.6,3.8-6.6,3.8s-6-3.5-9.4-2.3c-3.6,1.2-5.3,3.1-5.3,3.1s-8.5-1.8-9.6,1.1c-5.5,15,1,50.3,19,55.3
		c7.8,47.2,15.6,94.3,23.5,141.5c5.5,18.6,18.5,31.2,30.9,30.9c10.2-0.2,18.5-9.1,22.6-13.5c0.9-0.9,1.7-2,3.3-4.1
		c6.1-7.7,8.6-12.4,13.4-19.7c6.1-9.4,12.4-18,15.1-21.5c2.6-3.5,4.9-7.2,7.5-10.8C394.9,801,399,796.7,397.7,791.9z"/>
	<path class="st5" d="M348.6,760.4c18,18,36.1,36.1,54.1,54.1c0-2.8-0.5-30.6-24.5-45.7C366.6,761.5,354.7,760.5,348.6,760.4z"/>
</g>
</svg>
