<?xml version="1.0" encoding="utf-8"?>
<!-- Generator: Adobe Illustrator 21.0.0, SVG Export Plug-In . SVG Version: 6.00 Build 0)  -->
<svg version="1.1" id="Layer_1" xmlns="http://www.w3.org/2000/svg" xmlns:xlink="http://www.w3.org/1999/xlink" x="0px" y="0px"
	 viewBox="0 0 1920 1080" style="enable-background:new 0 0 1920 1080;" xml:space="preserve">
<style type="text/css">
	.st0{fill:#FF1F37;}
	.st1{fill:#FF4A64;}
	.st2{fill:#F5EBEB;}
	.st3{fill:#DACDCD;}
	.st4{fill:#666666;}
	.st5{fill:#EDB996;}
	.st6{fill:#FFFFFF;}
	.st7{fill:#603813;stroke:#FFFFFF;stroke-width:6;stroke-miterlimit:10;}
	.st8{fill:none;stroke:#DACDCD;stroke-width:2;stroke-miterlimit:10;}
	.st9{fill:#AD9E9E;}
	.st10{fill:#F5F5F5;}
	.st11{fill:#F4F4F4;}
	.st12{fill:none;stroke:#AD9E9E;stroke-miterlimit:10;}
	.st13{fill:#FE7C52;}
	.st14{fill:#EF7554;}
	.st15{fill:#FF9376;}
	.st16{fill:#30A2DC;}
	.st17{fill:#E2684B;}
	.st18{fill:#D8A387;}
	.st19{fill:#E2B08F;}
	.st20{fill:#808080;}
	.st21{fill:#E6E6E6;}
	.st22{fill:#FC9F3A;}
	.st23{fill:#F98410;}
	.st24{fill:#DDA885;}
	.st25{fill:#F48873;}
	.st26{fill:#E87E70;}
	.st27{fill:#DD7168;}
	.st28{fill:#D36B66;}
	.st29{clip-path:url(#SVGID_2_);}
</style>
<g>
	<g>
		<g>
			<g>
				<g>
					<g>
						<polygon class="st0" points="1224.1,712.8 1205.9,703.7 1201.9,711.9 1220.2,721.1 						"/>
					</g>
				</g>
			</g>
			<g>
				<g>
					<g>
						<polygon class="st1" points="1224.1,712.8 1215,708.3 1211.1,716.5 1220.2,721.1 						"/>
					</g>
				</g>
			</g>
			<g>
				<g>
					<g>
						<polygon class="st2" points="1219.5,722.6 1210.1,717.9 1154.4,834.2 1163.9,838.9 						"/>
					</g>
				</g>
			</g>
			<g>
				<g>
					<g>
						<polygon class="st3" points="1210.7,718.2 1201.3,713.4 1145.6,829.7 1155,834.5 						"/>
					</g>
				</g>
			</g>
			<g>
				<g>
					<g>
						<polygon class="st4" points="1220.2,721.1 1202,712 1200.6,714.9 1218.8,724 						"/>
					</g>
				</g>
			</g>
			<polygon class="st5" points="1145.6,829.7 1143.4,855.8 1163.9,838.9 			"/>
		</g>
		<polygon class="st4" points="1143.4,855.8 1143.8,851.6 1146.8,853 		"/>
	</g>
	<rect x="556.8" y="553.8" class="st6" width="381.4" height="277"/>
	<g>
		<path class="st7" d="M797.3,446.6c-11.4,25.4-40.7,36.5-65.5,24.8c-24.8-11.7-35.6-41.7-24.2-67.1s40.7-36.5,65.5-24.8
			C797.9,391.2,808.7,421.2,797.3,446.6z"/>
		<path class="st6" d="M782.2,383.8l13.6-30.2c2.3-5.1,0.1-11.2-4.9-13.6c-5-2.4-10.9-0.1-13.2,5L764,375.2
			c-0.2,0.4-0.3,0.8-0.4,1.2l17.9,8.4C781.8,384.5,782,384.2,782.2,383.8z M773.1,379.5l13.6-30.2L773.1,379.5z"/>
	</g>
	<g>
		<path class="st2" d="M1483.5,780.7c-4.7,16.2-21.4,25.4-37.3,20.6l-6-1.8c-15.8-4.9-24.8-21.9-20.1-38.2l15-51.4
			c4.7-16.2,21.4-25.4,37.3-20.6l6,1.8c15.8,4.9,24.8,21.9,20.1,38.2L1483.5,780.7z"/>
		<path class="st3" d="M1463.3,726.1l-24.2-7.4l2.1-7c3.7-12.8,17-20.1,29.5-16.3l1.5,0.5L1463.3,726.1z"/>
		<path class="st3" d="M1490.5,734.4l-24.8-7.6l8.8-30.3l2.1,0.6c12.5,3.8,19.7,17.4,15.9,30.2L1490.5,734.4z"/>
		<path class="st8" d="M1420.8,458.3c0,0-7.4,25.4-11.6,39.8c-3.4,11.5,10.9,16.3,10.9,16.3l31.3,9.6c10.7,3.3,7.4,14,7.4,14
			l-15.6,53.2l9.9-33.8c0,0-7.4,25.4-11.6,39.8c-3.4,11.5,10.9,16.3,10.9,16.3l31.3,9.6c10.7,3.3,7.4,14,7.4,14l-15.6,53.2"/>
		<polygon class="st9" points="1355.4,717.5 871.4,569.3 916.7,414.4 1400.7,562.6 		"/>
		<g>
			<g>
				<polygon class="st10" points="941.8,465.5 917.3,458 924.6,432.9 949.1,440.4 				"/>
				<polygon class="st10" points="976.3,476.1 951.8,468.6 959.2,443.5 983.7,451 				"/>
				<polygon class="st10" points="1009.5,486.2 985,478.7 992.3,453.6 1016.8,461.1 				"/>
				<polygon class="st10" points="1042.6,496.3 1018.1,488.8 1025.4,463.8 1049.9,471.3 				"/>
				<polygon class="st10" points="1075.7,506.5 1051.2,499 1058.6,473.9 1083.1,481.4 				"/>
				<polygon class="st10" points="1108.9,516.6 1084.4,509.1 1091.7,484.1 1116.2,491.6 				"/>
				<polygon class="st10" points="1142,526.8 1117.5,519.3 1124.8,494.2 1149.3,501.7 				"/>
				<polygon class="st10" points="1175.1,536.9 1150.6,529.4 1158,504.4 1182.4,511.9 				"/>
				<polygon class="st10" points="1208.3,547.1 1183.8,539.6 1191.1,514.5 1215.6,522 				"/>
				<polygon class="st10" points="1241.4,557.2 1216.9,549.7 1224.2,524.6 1248.7,532.1 				"/>
				<polygon class="st10" points="1274.5,567.4 1250,559.9 1257.4,534.8 1281.8,542.3 				"/>
				<polygon class="st10" points="1307.7,577.5 1283.2,570 1290.5,544.9 1315,552.4 				"/>
				<polygon class="st10" points="1340.8,587.7 1316.3,580.2 1323.6,555.1 1348.1,562.6 				"/>
				<polygon class="st10" points="1373.9,597.8 1349.4,590.3 1356.8,565.2 1381.2,572.7 				"/>
			</g>
			<g>
				<polygon class="st10" points="931.9,499.4 907.4,491.9 914.7,466.8 939.2,474.3 				"/>
				<polygon class="st10" points="966.4,510 941.9,502.5 949.3,477.4 973.7,484.9 				"/>
				<polygon class="st10" points="999.6,520.1 975.1,512.6 982.4,487.6 1006.9,495.1 				"/>
				<polygon class="st10" points="1032.7,530.3 1008.2,522.8 1015.5,497.7 1040,505.2 				"/>
				<polygon class="st10" points="1065.8,540.4 1041.3,532.9 1048.7,507.8 1073.1,515.3 				"/>
				<polygon class="st10" points="1098.9,550.6 1074.5,543.1 1081.8,518 1106.3,525.5 				"/>
				<polygon class="st10" points="1132.1,560.7 1107.6,553.2 1114.9,528.1 1139.4,535.6 				"/>
				<polygon class="st10" points="1165.2,570.8 1140.7,563.4 1148,538.3 1172.5,545.8 				"/>
				<polygon class="st10" points="1198.3,581 1173.9,573.5 1181.2,548.4 1205.7,555.9 				"/>
				<polygon class="st10" points="1231.5,591.1 1207,583.6 1214.3,558.6 1238.8,566.1 				"/>
				<polygon class="st10" points="1264.6,601.3 1240.1,593.8 1247.4,568.7 1271.9,576.2 				"/>
				<polygon class="st10" points="1297.7,611.4 1273.3,603.9 1280.6,578.9 1305.1,586.4 				"/>
				<polygon class="st10" points="1330.9,621.6 1306.4,614.1 1313.7,589 1338.2,596.5 				"/>
				<polygon class="st10" points="1364,631.7 1339.5,624.2 1346.8,599.2 1371.3,606.7 				"/>
			</g>
			<g>
				<polygon class="st10" points="922.4,531.8 897.9,524.3 905.2,499.3 929.7,506.8 				"/>
				<polygon class="st10" points="956.9,542.4 932.5,534.9 939.8,509.9 964.3,517.4 				"/>
				<polygon class="st10" points="990.1,552.6 965.6,545.1 972.9,520 997.4,527.5 				"/>
				<polygon class="st10" points="1023.2,562.7 998.7,555.2 1006,530.1 1030.5,537.6 				"/>
				<polygon class="st10" points="1056.3,572.9 1031.9,565.4 1039.2,540.3 1063.7,547.8 				"/>
				<polygon class="st10" points="1089.5,583 1065,575.5 1072.3,550.4 1096.8,557.9 				"/>
				<polygon class="st10" points="1122.6,593.1 1098.1,585.7 1105.4,560.6 1129.9,568.1 				"/>
				<polygon class="st10" points="1155.7,603.3 1131.2,595.8 1138.6,570.7 1163.1,578.2 				"/>
				<polygon class="st10" points="1188.9,613.4 1164.4,605.9 1171.7,580.9 1196.2,588.4 				"/>
				<polygon class="st10" points="1222,623.6 1197.5,616.1 1204.8,591 1229.3,598.5 				"/>
				<polygon class="st10" points="1255.1,633.7 1230.6,626.2 1238,601.2 1262.5,608.7 				"/>
				<polygon class="st10" points="1288.3,643.9 1263.8,636.4 1271.1,611.3 1295.6,618.8 				"/>
				<polygon class="st10" points="1321.4,654 1296.9,646.5 1304.2,621.5 1328.7,629 				"/>
				<polygon class="st10" points="1354.5,664.2 1330,656.7 1337.4,631.6 1361.9,639.1 				"/>
			</g>
			<polygon class="st10" points="912.7,565 888.2,557.5 895.5,532.5 920,539.9 			"/>
			<polygon class="st10" points="947.3,575.6 922.8,568.1 930.1,543 954.6,550.5 			"/>
			<polygon class="st10" points="1146,636.5 955.9,578.3 963.2,553.2 1153.4,611.4 			"/>
			<polygon class="st10" points="1179.2,646.6 1154.7,639.1 1162,614.1 1186.5,621.6 			"/>
			<polygon class="st10" points="1212.3,656.8 1187.8,649.3 1195.1,624.2 1219.6,631.7 			"/>
			<polygon class="st10" points="1245.4,666.9 1221,659.4 1228.3,634.3 1252.8,641.8 			"/>
			<polygon class="st10" points="1311.7,687.2 1254.1,669.6 1261.4,644.5 1319,662.1 			"/>
		</g>
		<path class="st11" d="M1294.3,429.8c-2.5,8.5-11.3,13.4-19.6,10.9L1122,393.9c-8.4-2.6-13.1-11.6-10.6-20.1l0,0
			c2.5-8.6,11.3-13.4,19.6-10.9l152.6,46.7C1292,412.2,1296.8,421.2,1294.3,429.8L1294.3,429.8z"/>
		<g>
			<path class="st11" d="M1509.2,441.7L925.4,262.9c-19.7-6-40.4,5.4-46.3,25.6l655,200.6C1540,468.9,1528.8,447.7,1509.2,441.7z"/>
			<polygon class="st9" points="1532.1,496.1 877.1,295.5 879.2,288.5 1534.1,489 			"/>
		</g>
	</g>
	<polygon class="st12" points="892.6,684.1 843.8,634.2 910.4,615.9 	"/>
	<line class="st12" x1="917.3" y1="687.5" x2="867.4" y2="798.3"/>
	<ellipse class="st12" cx="707.5" cy="757" rx="33.3" ry="34.1"/>
	<g>
		<g>
			<g>
				<g>
					<polygon class="st13" points="648.8,548.4 677.3,524.4 849.4,738.4 820.9,762.5 					"/>
				</g>
			</g>
		</g>
		<g>
			<g>
				<g>
					<polygon class="st14" points="648.8,548.4 655.4,543 827.4,757 820.9,762.5 					"/>
				</g>
			</g>
		</g>
		<g>
			<g>
				<g>
					<polygon class="st15" points="669,531.5 675.5,526 847.5,740 841,745.5 					"/>
				</g>
			</g>
		</g>
		<g>
			<g>
				<path class="st16" d="M822.4,741.9c-1.6-2-1.3-4.9,0.6-6.5c1.9-1.6,4.7-1.3,6.3,0.6c1.6,2,1.3,4.9-0.6,6.5
					C826.9,744.2,824,743.9,822.4,741.9z"/>
			</g>
		</g>
		<g>
			<g>
				<path class="st17" d="M821.7,733.7c2.9-2.4,7.1-2,9.4,0.9c2.3,2.9,1.9,7.3-0.9,9.7c-2.9,2.4-7.1,2-9.4-0.9
					C818.4,740.4,818.8,736.1,821.7,733.7z M827.4,740.8c1-0.8,1.1-2.3,0.3-3.3c-0.8-1-2.3-1.1-3.2-0.3c-1,0.8-1.1,2.3-0.3,3.3
					C825,741.5,826.4,741.6,827.4,740.8z"/>
			</g>
		</g>
		<g>
			<g>
				<g>
					<polygon class="st15" points="801.8,738.8 808.4,733.3 809.1,734.2 802.6,739.7 					"/>
				</g>
			</g>
			<g>
				<g>
					<polygon class="st15" points="792,726.5 798.5,721 799.2,721.9 792.7,727.4 					"/>
				</g>
			</g>
			<g>
				<g>
					<polygon class="st15" points="782.1,714.2 788.6,708.7 789.3,709.6 782.8,715.1 					"/>
				</g>
			</g>
			<g>
				<g>
					<polygon class="st15" points="772.2,701.9 778.7,696.4 779.5,697.3 772.9,702.8 					"/>
				</g>
			</g>
			<g>
				<g>
					<polygon class="st15" points="762.3,689.6 768.9,684.1 769.6,685.1 763.1,690.6 					"/>
				</g>
			</g>
			<g>
				<g>
					<polygon class="st15" points="752.5,677.4 759,671.9 759.7,672.8 753.2,678.3 					"/>
				</g>
			</g>
			<g>
				<g>
					<polygon class="st15" points="742.6,665.1 749.1,659.6 749.8,660.5 743.3,666 					"/>
				</g>
			</g>
			<g>
				<g>
					<polygon class="st15" points="732.7,652.8 739.2,647.3 740,648.2 733.4,653.7 					"/>
				</g>
			</g>
			<g>
				<g>
					<polygon class="st15" points="722.8,640.5 729.3,635 730.1,635.9 723.6,641.4 					"/>
				</g>
			</g>
			<g>
				<g>
					<polygon class="st15" points="713,628.2 719.5,622.7 720.2,623.6 713.7,629.1 					"/>
				</g>
			</g>
			<g>
				<g>
					<polygon class="st15" points="703.1,615.9 709.6,610.4 710.3,611.3 703.8,616.8 					"/>
				</g>
			</g>
			<g>
				<g>
					<polygon class="st15" points="693.2,603.6 699.7,598.1 700.5,599.1 693.9,604.5 					"/>
				</g>
			</g>
			<g>
				<g>
					<polygon class="st15" points="683.3,591.3 689.8,585.8 690.6,586.8 684,592.3 					"/>
				</g>
			</g>
			<g>
				<g>
					<polygon class="st15" points="673.4,579.1 680,573.6 680.7,574.5 674.2,580 					"/>
				</g>
			</g>
			<g>
				<g>
					<polygon class="st15" points="663.6,566.8 670.1,561.3 670.8,562.2 664.3,567.7 					"/>
				</g>
			</g>
			<g>
				<g>
					<polygon class="st15" points="653.7,554.5 660.2,549 660.9,549.9 654.4,555.4 					"/>
				</g>
			</g>
		</g>
	</g>
	<g>
		<polygon class="st18" points="620.2,558.3 602.6,544.2 538.6,576.6 562.1,581.2 		"/>
		<polygon class="st19" points="645.1,561.8 627.6,547.8 562.4,581 586.9,585.7 		"/>
		<g>
			<polygon class="st5" points="511.5,677.8 615.1,696.4 632.6,593.8 538.6,576.6 523.8,606.3 			"/>
			<path class="st5" d="M511.6,677.2c-1.4,8,3.9,15.7,11.7,17.1l75.1,13.5c7.9,1.4,15.3-4,16.7-12l0,0c1.4-8-3.9-15.7-11.7-17.1
				l-75.1-13.5C520.5,663.8,513,669.2,511.6,677.2L511.6,677.2z"/>
			<polygon class="st5" points="512.8,785 578.2,796.8 596.4,690.5 531,678.8 			"/>
			<g>
				<polygon class="st20" points="559.4,728 612.4,737.6 583.6,915.1 529.3,915.1 				"/>
				<polygon class="st9" points="506.3,718.5 559.4,728 529.3,915.1 475.7,915.1 				"/>
			</g>
			<polygon class="st21" points="563.9,701.6 593.6,706.9 589.1,733.4 559.4,728 			"/>
			<g>
				<path class="st5" d="M608,602.4c2.2-1.1,16.5-7,32-13.2l6.5,19.3l22.5-8l-14.6-43.3c0,0-84.5,26.7-87,31.4l45.3,8.9
					C611.1,600.7,608.5,602.1,608,602.4z"/>
			</g>
			<path class="st5" d="M645.1,602.6c-1.2,6.9,3.3,13.5,10.1,14.7c6.7,1.2,13.2-3.4,14.4-10.3c1.2-6.9-3.3-13.5-10.1-14.7
				C652.7,591,646.3,595.6,645.1,602.6z"/>
			<polygon class="st5" points="645.6,609.1 640,589.2 655.6,598.4 			"/>
			<g>
				<g>
					<g>
						<g>
							<g>
								<polygon class="st0" points="533,594.3 538.9,571.3 548.9,574 543,597 								"/>
							</g>
						</g>
					</g>
					<g>
						<g>
							<g>
								<polygon class="st1" points="533,594.3 536,582.8 545.9,585.5 543,597 								"/>
							</g>
						</g>
					</g>
					<g>
						<g>
							<g>
								<polygon class="st22" points="544.7,597.5 547.8,585.6 687.8,623.3 684.7,635.2 								"/>
							</g>
						</g>
					</g>
					<g>
						<g>
							<g>
								<polygon class="st23" points="547.6,586.4 550.6,574.5 690.6,612.2 687.6,624.1 								"/>
							</g>
						</g>
					</g>
					<g>
						<g>
							<g>
								<polygon class="st4" points="543,597.1 548.9,574.1 552.4,575 546.5,598 								"/>
							</g>
						</g>
					</g>
					<polygon class="st5" points="690.6,612.2 714.3,629.7 684.7,635.2 					"/>
				</g>
				<polygon class="st4" points="714.3,629.7 710.5,626.8 709.5,630.6 				"/>
			</g>
			<path class="st24" d="M615,697.1l11.4-66.7l14.7-13.4l0,0c3-2.2,6.9-3.3,10.9-2.6c7.8,1.4,13.1,9,11.7,17
				c-0.4,2.3-1.4,4.4-2.6,6.2l0,0l-0.9,1c-0.1,0.2-0.3,0.3-0.4,0.5L615,697.1z"/>
		</g>
	</g>
	<g>
		<polygon class="st15" points="1084.4,716.7 1047.3,678.8 1064.7,661 1101.8,698.9 		"/>
		<polygon class="st25" points="1067,734.5 1030,696.6 1047.3,678.8 1084.4,716.7 		"/>
		<polygon class="st26" points="1049.6,752.3 1012.6,714.3 1030,696.6 1067,734.5 		"/>
		<polygon class="st27" points="1032.7,769.6 995.6,731.7 1013,713.9 1050.1,751.9 		"/>
		<polygon class="st28" points="1015.3,787.4 978.3,749.5 995.6,731.7 1032.7,769.6 		"/>
	</g>
	<g>
		<defs>
			<rect id="SVGID_1_" x="714.3" y="597" width="247.7" height="318.1"/>
		</defs>
		<clipPath id="SVGID_2_">
			<use xlink:href="#SVGID_1_"  style="overflow:visible;"/>
		</clipPath>
		<g class="st29">
			<g>
				<polygon class="st5" points="904.2,778.9 805.8,816.6 770.2,719.1 868.6,681.4 				"/>
				<path class="st5" d="M800.8,606.9c-5.7,2.2-8.6,8.7-6.5,14.6l29.5,80.6l20.8-8l-29.5-80.6C812.9,607.7,806.5,604.7,800.8,606.9z
					"/>
				<path class="st5" d="M771.3,608.8c-5.7,2.2-8.6,8.7-6.5,14.6l32.9,89.9l19.9-10.4l-32-87.5C783.5,609.6,777.1,606.6,771.3,608.8
					z"/>
				<path class="st5" d="M753,640.6c-5.6,2.2-8.5,8.6-6.4,14.3l30.1,82.4l20.4-7.8L767,647.1C764.9,641.3,758.7,638.4,753,640.6z"/>
				<path class="st5" d="M834.5,618.6c-5.4,2.1-8.1,8.2-6.1,13.7l21.3,58.3l20-6.1l-21.8-59.6C845.9,619.4,839.9,616.5,834.5,618.6z
					"/>
				<path class="st24" d="M806,817.3l-23.2-63.4l-16.9-10.4l0,0c-3.4-1.6-7.4-1.9-11.1-0.5c-7.4,2.9-11.2,11.3-8.4,19
					c0.8,2.2,2.1,4.1,3.7,5.6l0,0l1,0.9c0.2,0.1,0.3,0.3,0.5,0.4L806,817.3z"/>
				<path class="st5" d="M904,778.3c2.8,7.6-1,16.2-8.5,19l-71.4,27.4c-7.5,2.9-15.8-1-18.6-8.7l0,0c-2.8-7.6,1-16.2,8.5-19
					l71.4-27.4C892.9,766.8,901.2,770.7,904,778.3L904,778.3z"/>
				<polygon class="st5" points="922.2,884.6 860,908.4 823.1,807.4 885.3,783.5 				"/>
			</g>
			<g>
				<polygon class="st20" points="866.2,837.3 815.8,856.6 862.9,985.4 913.3,966.1 				"/>
				<polygon class="st9" points="916.7,818 866.2,837.3 913.3,966.1 963.8,946.7 				"/>
			</g>
		</g>
	</g>
</g>
</svg>
