<?xml version="1.0" encoding="utf-8"?>
<!-- Generator: Adobe Illustrator 21.0.0, SVG Export Plug-In . SVG Version: 6.00 Build 0)  -->
<svg version="1.1" id="Layer_1" xmlns="http://www.w3.org/2000/svg" xmlns:xlink="http://www.w3.org/1999/xlink" x="0px" y="0px"
	 viewBox="0 0 1920 1080" style="enable-background:new 0 0 1920 1080;" xml:space="preserve">
<style type="text/css">
	.st0{fill:#F5EBEB;}
	.st1{fill:#DACDCD;}
	.st2{fill:none;stroke:#DACDCD;stroke-width:2;stroke-miterlimit:10;}
	.st3{fill:#DFD3D2;}
	.st4{fill:#AD9E9E;}
	.st5{fill:#B3B3B3;}
	.st6{fill:#E6E6E6;}
	.st7{fill:#F4F4F4;}
	.st8{fill:#2FA3DD;}
	.st9{fill:#258CB0;}
	.st10{fill:#39B2E2;}
	.st11{fill:#FE7C52;}
	.st12{fill:#666666;}
	.st13{fill:#F2F2F2;}
	.st14{fill:#CCCCCC;}
	.st15{fill:#EDB996;}
	.st16{fill:#DDA885;}
	.st17{fill:#EFD6C5;}
	.st18{fill:#E8E2E2;}
	.st19{fill:#FF1F37;}
	.st20{fill:#FF4A64;}
	.st21{fill:#FC9F3A;}
	.st22{fill:#F98410;}
</style>
<g>
	<path class="st0" d="M1400.1,731.6c0,19.4-13.5,35.2-30.1,35.2h-6.3c-16.6,0-30.1-15.8-30.1-35.2v-61.6c0-19.4,13.5-35.2,30.1-35.2
		h6.3c16.6,0,30.1,15.8,30.1,35.2V731.6z"/>
	<path class="st1" d="M1365.2,678.4h-25.4v-8.4c0-15.4,10.7-27.9,23.9-27.9h1.6V678.4z"/>
	<path class="st1" d="M1393.8,678.4h-26v-36.3h2.2c13.2,0,23.9,12.5,23.9,27.9V678.4z"/>
	<path class="st2" d="M1248.8,398c0,0,0,30.4,0,47.7c0,13.8,15.1,14.2,15.1,14.2h32.9c11.2,0,11,12.9,11,12.9v63.8v-40.6
		c0,0,0,30.4,0,47.7c0,13.8,15.1,14.2,15.1,14.2h32.9c11.2,0,11,12.9,11,12.9v63.8"/>
	<g>
		<path class="st0" d="M770.2,410.2v170.4h470.9h1.3V410.2h-1.3H770.2z M1241.1,579.1H771.4V411.7h469.6V579.1z"/>
		<path class="st0" d="M753.8,372.1v309.4h504.7V372.1H753.8z M1051.2,645v13.2v11.7h-48.6h-2.5h-48.6v-11.7V645v-52.1h99.8V645z
			 M1243.6,582h-2.5H768.9V408.7h472.1h2.5V582z"/>
		<path class="st3" d="M771.4,579.1h469.6V411.7H771.4V579.1z M1204.7,425.2h24v28.1h-24V425.2z M1204.7,463.2h24v28.1h-24V463.2z
			 M1204.7,499.5h24v28.1h-24V499.5z M1196.3,564.7h-56.5v-28.1h56.5V564.7z M1172.2,425.2h24v28.1h-24V425.2z M1172.2,463.2h24
			v28.1h-24V463.2z M1172.2,499.5h24v28.1h-24V499.5z M1139.7,425.2h24v28.1h-24V425.2z M1139.7,463.2h24v28.1h-24V463.2z
			 M1139.7,499.5h24v28.1h-24V499.5z M1107.3,425.2h24v28.1h-24V425.2z M1107.3,463.2h24v28.1h-24V463.2z M1107.3,499.5h24v28.1h-24
			V499.5z M1107.3,536.7h24v28.1h-24V536.7z M1074.8,425.2h24v28.1h-24V425.2z M1074.8,463.2h24v28.1h-24V463.2z M1074.8,499.5h24
			v28.1h-24V499.5z M1074.8,536.7h24v28.1h-24V536.7z M1042.3,425.2h24v28.1h-24V425.2z M1042.3,463.2h24v28.1h-24V463.2z
			 M1042.3,499.5h24v28.1h-24V499.5z M1042.3,536.7h24v28.1h-24V536.7z M1009.8,425.2h24v28.1h-24V425.2z M1009.8,463.2h24v28.1h-24
			V463.2z M1009.8,499.5h24v28.1h-24V499.5z M977.3,425.2h24v28.1h-24V425.2z M977.3,463.2h24v28.1h-24V463.2z M977.3,499.5h24v28.1
			h-24V499.5z M944.8,425.2h24v28.1h-24V425.2z M944.8,463.2h24v28.1h-24V463.2z M944.8,499.5h24v28.1h-24V499.5z M912.3,425.2h24
			v28.1h-24V425.2z M912.3,463.2h24v28.1h-24V463.2z M912.3,499.5h24v28.1h-24V499.5z M879.8,425.2h24v28.1h-24V425.2z M879.8,463.2
			h24v28.1h-24V463.2z M879.8,499.5h24v28.1h-24V499.5z M847.3,425.2h24v28.1h-24V425.2z M847.3,463.2h24v28.1h-24V463.2z
			 M847.3,499.5h24v28.1h-24V499.5z M847.3,536.7h186.5v28.1H847.3V536.7z M814.8,425.2h24v28.1h-24V425.2z M814.8,463.2h24v28.1
			h-24V463.2z M814.8,499.5h24v28.1h-24V499.5z M814.8,536.7h24v28.1h-24V536.7z M780.9,425.2h24v28.1h-24V425.2z M780.9,463.2h24
			v28.1h-24V463.2z M780.9,499.5h24v28.1h-24V499.5z M780.9,536.7h24v28.1h-24V536.7z"/>
		<rect x="780.9" y="425.2" class="st4" width="24" height="28.1"/>
		<rect x="814.8" y="425.2" class="st4" width="24" height="28.1"/>
		<rect x="847.3" y="425.2" class="st4" width="24" height="28.1"/>
		<rect x="879.8" y="425.2" class="st4" width="24" height="28.1"/>
		<rect x="912.3" y="425.2" class="st4" width="24" height="28.1"/>
		<rect x="944.8" y="425.2" class="st4" width="24" height="28.1"/>
		<rect x="977.3" y="425.2" class="st4" width="24" height="28.1"/>
		<rect x="1009.8" y="425.2" class="st4" width="24" height="28.1"/>
		<rect x="1042.3" y="425.2" class="st4" width="24" height="28.1"/>
		<rect x="1074.8" y="425.2" class="st4" width="24" height="28.1"/>
		<rect x="1107.3" y="425.2" class="st4" width="24" height="28.1"/>
		<rect x="1139.7" y="425.2" class="st4" width="24" height="28.1"/>
		<rect x="1172.2" y="425.2" class="st4" width="24" height="28.1"/>
		<rect x="1204.7" y="425.2" class="st4" width="24" height="28.1"/>
		<rect x="780.9" y="463.2" class="st4" width="24" height="28.1"/>
		<rect x="814.8" y="463.2" class="st4" width="24" height="28.1"/>
		<rect x="847.3" y="463.2" class="st4" width="24" height="28.1"/>
		<rect x="879.8" y="463.2" class="st4" width="24" height="28.1"/>
		<rect x="912.3" y="463.2" class="st4" width="24" height="28.1"/>
		<rect x="944.8" y="463.2" class="st4" width="24" height="28.1"/>
		<rect x="977.3" y="463.2" class="st4" width="24" height="28.1"/>
		<rect x="1009.8" y="463.2" class="st4" width="24" height="28.1"/>
		<rect x="1042.3" y="463.2" class="st4" width="24" height="28.1"/>
		<rect x="1074.8" y="463.2" class="st4" width="24" height="28.1"/>
		<rect x="1107.3" y="463.2" class="st4" width="24" height="28.1"/>
		<rect x="1139.7" y="463.2" class="st4" width="24" height="28.1"/>
		<rect x="1172.2" y="463.2" class="st4" width="24" height="28.1"/>
		<rect x="1204.7" y="463.2" class="st4" width="24" height="28.1"/>
		<rect x="780.9" y="499.5" class="st4" width="24" height="28.1"/>
		<rect x="814.8" y="499.5" class="st4" width="24" height="28.1"/>
		<rect x="847.3" y="499.5" class="st4" width="24" height="28.1"/>
		<rect x="879.8" y="499.5" class="st4" width="24" height="28.1"/>
		<rect x="912.3" y="499.5" class="st4" width="24" height="28.1"/>
		<rect x="944.8" y="499.5" class="st4" width="24" height="28.1"/>
		<rect x="977.3" y="499.5" class="st4" width="24" height="28.1"/>
		<rect x="1009.8" y="499.5" class="st4" width="24" height="28.1"/>
		<rect x="1042.3" y="499.5" class="st4" width="24" height="28.1"/>
		<rect x="1074.8" y="499.5" class="st4" width="24" height="28.1"/>
		<rect x="1107.3" y="499.5" class="st4" width="24" height="28.1"/>
		<rect x="1139.7" y="499.5" class="st4" width="24" height="28.1"/>
		<rect x="1172.2" y="499.5" class="st4" width="24" height="28.1"/>
		<rect x="1204.7" y="499.5" class="st4" width="24" height="28.1"/>
		<rect x="780.9" y="536.7" class="st4" width="24" height="28.1"/>
		<rect x="814.8" y="536.7" class="st4" width="24" height="28.1"/>
		<rect x="847.3" y="536.7" class="st4" width="186.5" height="28.1"/>
		<rect x="1042.3" y="536.7" class="st4" width="24" height="28.1"/>
		<rect x="1074.8" y="536.7" class="st4" width="24" height="28.1"/>
		<rect x="1107.3" y="536.7" class="st4" width="24" height="28.1"/>
		<rect x="1139.7" y="536.7" class="st4" width="56.5" height="28.1"/>
		<polygon class="st3" points="1000,645 1002.6,645 1048.7,645 1048.7,595.9 953.9,595.9 953.9,645 		"/>
		<path class="st4" d="M951.4,645v13.2v11.7h48.6h2.5h48.6v-11.7V645v-52.1h-99.8V645z M1048.7,595.9V645h-46.1h-2.5h-46.1v-49.1
			H1048.7z M1002.6,667v-19.1h46.1v7.3V667H1002.6z M953.9,655.3v-7.3h46.1V667h-46.1V655.3z"/>
		<polygon class="st3" points="1000,647.9 953.9,647.9 953.9,655.3 953.9,667 1000,667 		"/>
		<polygon class="st3" points="1048.7,655.3 1048.7,647.9 1002.6,647.9 1002.6,667 1048.7,667 		"/>
		<path class="st5" d="M768.9,408.7V582h472.1h2.5V408.7h-2.5H768.9z M1242.3,410.2v170.4h-1.3H770.2V410.2h470.9H1242.3z"/>
		<rect x="768.9" y="380.9" class="st6" width="84.1" height="20.2"/>
		<rect x="1159.5" y="380.9" class="st6" width="84.1" height="20.2"/>
		<g>
			<path class="st7" d="M1253.1,330.2h-494c-16.6,0-30.1,15.8-30.1,35.2h554.2C1283.2,345.9,1269.7,330.2,1253.1,330.2z"/>
			<rect x="729" y="365.4" class="st4" width="554.2" height="6.8"/>
		</g>
	</g>
	<g>
		<g>
			<g>
				<g>
					<polygon class="st8" points="612.3,819 582.2,844.6 421.8,587.4 451.8,561.8 					"/>
				</g>
			</g>
		</g>
		<g>
			<g>
				<g>
					<polygon class="st9" points="612.3,819 605.4,824.9 445,567.7 451.8,561.8 					"/>
				</g>
			</g>
		</g>
		<g>
			<g>
				<g>
					<polygon class="st10" points="591,837.1 584.2,843 423.7,585.8 430.6,579.9 					"/>
				</g>
			</g>
		</g>
		<g>
			<g>
				<path class="st11" d="M449.1,585.3c1.5,2.4,1,5.7-1,7.4c-2,1.7-4.8,1.2-6.3-1.2c-1.5-2.4-1-5.7,1-7.4
					C444.8,582.4,447.6,582.9,449.1,585.3z"/>
			</g>
		</g>
		<g>
			<g>
				<path class="st9" d="M449.4,594.8c-3,2.6-7.2,1.8-9.4-1.7c-2.2-3.5-1.5-8.4,1.5-11c3-2.6,7.2-1.8,9.4,1.7
					C453,587.3,452.4,592.2,449.4,594.8z M444,586.2c-1,0.9-1.3,2.6-0.5,3.8c0.7,1.2,2.2,1.5,3.2,0.6c1-0.9,1.3-2.6,0.5-3.8
					C446.5,585.6,445.1,585.4,444,586.2z"/>
			</g>
		</g>
		<g>
			<g>
				<g>
					<polygon class="st10" points="469.6,590.3 462.7,596.1 462,595 468.9,589.2 					"/>
				</g>
			</g>
			<g>
				<g>
					<polygon class="st10" points="478.8,605.1 471.9,610.9 471.2,609.8 478.1,604 					"/>
				</g>
			</g>
			<g>
				<g>
					<polygon class="st10" points="488,619.8 481.1,625.7 480.4,624.6 487.3,618.7 					"/>
				</g>
			</g>
			<g>
				<g>
					<polygon class="st10" points="497.2,634.6 490.3,640.4 489.6,639.3 496.5,633.5 					"/>
				</g>
			</g>
			<g>
				<g>
					<polygon class="st10" points="506.4,649.4 499.5,655.2 498.9,654.1 505.7,648.3 					"/>
				</g>
			</g>
			<g>
				<g>
					<polygon class="st10" points="515.6,664.1 508.8,670 508.1,668.9 514.9,663 					"/>
				</g>
			</g>
			<g>
				<g>
					<polygon class="st10" points="524.8,678.9 518,684.7 517.3,683.6 524.2,677.8 					"/>
				</g>
			</g>
			<g>
				<g>
					<polygon class="st10" points="534,693.7 527.2,699.5 526.5,698.4 533.4,692.6 					"/>
				</g>
			</g>
			<g>
				<g>
					<polygon class="st10" points="543.3,708.4 536.4,714.3 535.7,713.2 542.6,707.3 					"/>
				</g>
			</g>
			<g>
				<g>
					<polygon class="st10" points="552.5,723.2 545.6,729 544.9,727.9 551.8,722.1 					"/>
				</g>
			</g>
			<g>
				<g>
					<polygon class="st10" points="561.7,738 554.8,743.8 554.1,742.7 561,736.9 					"/>
				</g>
			</g>
			<g>
				<g>
					<polygon class="st10" points="570.9,752.7 564,758.6 563.3,757.5 570.2,751.6 					"/>
				</g>
			</g>
			<g>
				<g>
					<polygon class="st10" points="580.1,767.5 573.2,773.3 572.5,772.2 579.4,766.4 					"/>
				</g>
			</g>
			<g>
				<g>
					<polygon class="st10" points="589.3,782.3 582.4,788.1 581.8,787 588.6,781.2 					"/>
				</g>
			</g>
			<g>
				<g>
					<polygon class="st10" points="598.5,797 591.7,802.9 591,801.8 597.8,795.9 					"/>
				</g>
			</g>
			<g>
				<g>
					<polygon class="st10" points="607.7,811.8 600.9,817.6 600.2,816.5 607,810.7 					"/>
				</g>
			</g>
		</g>
	</g>
	<path class="st2" d="M1258.5,614.2h11c16.6,0,30.1,15.8,30.1,35.2v151.4c0,19.4-13.5,35.2-30.1,35.2h-71.4"/>
	<path class="st12" d="M1033,759.6h-0.3h-3.3v0.2c-15.1,1.9-26.8,16.9-26.8,35v82.2c0,18.1,11.7,33,26.8,35v0.2h3.3h0.3h165V759.6
		H1033z"/>
	<rect x="1041.7" y="772.4" class="st4" width="143.1" height="127"/>
	<rect x="1015.3" y="872.7" class="st4" width="22" height="16.4"/>
	<rect x="1015.3" y="850.4" class="st4" width="22" height="16.4"/>
	<rect x="1015.3" y="799.1" class="st4" width="22" height="16.1"/>
	<rect x="1015.3" y="779.9" class="st4" width="22" height="16.1"/>
	<ellipse class="st4" cx="1026.3" cy="833.5" rx="11" ry="12.8"/>
	<ellipse class="st12" cx="1026.3" cy="833.5" rx="7.2" ry="8.4"/>
	<g>
		<g>
			<path class="st13" d="M701,631.1c1.3,6.8-2.4,13.5-8.1,15.1l-77.9,20.6c-5.8,1.5-11.6-2.7-12.9-9.5l-42.8-221.4
				c-1.3-6.8,2.4-13.5,8.1-15.1l77.9-20.6c5.8-1.5,11.6,2.7,12.9,9.5L701,631.1z"/>
		</g>
		<g>
			<path class="st13" d="M602.7,637.2l-35.3-182.5l90.4-23.9L693,613.3L602.7,637.2z M573.4,459l33.1,171.1l80.6-21.3l-33.1-171.1
				L573.4,459z"/>
		</g>
		<g>
			<path class="st14" d="M659.9,636.2c1.2,6.1-2.1,12.1-7.3,13.4c-5.2,1.4-10.3-2.4-11.5-8.5c-1.2-6.1,2.1-12.1,7.3-13.5
				C653.5,626.4,658.7,630.2,659.9,636.2z"/>
		</g>
		<g>
			<path class="st13" d="M648.8,644.5c-1.1,0-2.1-0.9-2.3-2.1l-1-4.9c-0.3-1.5,0.5-3,1.8-3.3l4.2-1.1c1.2-0.3,2.5,0.6,2.8,2.1l1,4.9
				c0.1,0.7,0,1.5-0.3,2.1c-0.3,0.6-0.9,1.1-1.5,1.2l-4.2,1.1C649.2,644.5,649,644.5,648.8,644.5z M652.1,634.4c-0.1,0-0.2,0-0.2,0
				l-4.2,1.1c-0.6,0.2-1,0.8-0.8,1.5l1,4.9c0.1,0.7,0.7,1.1,1.3,1l4.2-1.1c0.3-0.1,0.5-0.3,0.7-0.6c0.2-0.3,0.2-0.6,0.1-1l-1-4.9
				C653.1,634.9,652.6,634.4,652.1,634.4z"/>
		</g>
		<g>
			<path class="st14" d="M619.8,429.9c0.2,1.1-0.4,2.2-1.3,2.4l-15.3,4c-0.9,0.2-1.8-0.4-2.1-1.5l-0.3-1.4c-0.2-1.1,0.4-2.2,1.3-2.4
				l15.3-4c0.9-0.2,1.9,0.4,2.1,1.5L619.8,429.9z"/>
		</g>
		<g>
			<path class="st14" d="M611.1,422.5c0.3,1.5-0.5,3.1-1.8,3.4c-1.3,0.3-2.6-0.6-2.9-2.2c-0.3-1.5,0.5-3.1,1.8-3.4
				C609.5,420,610.8,421,611.1,422.5z"/>
		</g>
		<g>
			<g>
				<polygon class="st4" points="690,611 604.6,633.6 570.4,456.8 655.8,434.2 				"/>
			</g>
			<g>
				<path class="st14" d="M603.6,635.3l-34.8-179.6l87.9-23.2l34.8,179.6L603.6,635.3z M571.9,457.9l33.7,173.9l83-21.9L654.9,436
					L571.9,457.9z"/>
			</g>
		</g>
		<g>
			<polygon class="st12" points="605.5,631.8 654.9,436 688.5,609.9 			"/>
		</g>
	</g>
	<g>
		<rect x="775.9" y="608.7" class="st15" width="105.7" height="119.5"/>
		<path class="st15" d="M814.1,500.6c6.2,0,11.2,5.8,11.2,13v98.8h-22.3v-98.8C802.9,506.5,807.9,500.6,814.1,500.6z"/>
		<path class="st15" d="M842.5,490.6c6.2,0,11.2,5.8,11.2,13v110.3l-22.3-3V503.6C831.3,496.4,836.3,490.6,842.5,490.6z"/>
		<path class="st15" d="M870.7,517.2c6,0,10.9,5.7,10.9,12.8v101h-21.9V530C859.7,522.9,864.6,517.2,870.7,517.2z"/>
		<path class="st15" d="M786.3,527.2c5.8,0,10.5,5.5,10.5,12.2v71.4l-21,1.6v-73.1C775.9,532.6,780.5,527.2,786.3,527.2z"/>
		<path class="st16" d="M881.6,729.1v-77.7l12.3-18.1l0,0c2.6-3.1,6.3-5.1,10.3-5.1c8,0,14.5,7.6,14.5,16.9c0,2.7-0.6,5.2-1.6,7.5
			l0,0l-0.7,1.4c-0.1,0.2-0.2,0.4-0.3,0.6L881.6,729.1z"/>
		<path class="st15" d="M775.9,727.6c0,9.4,6.5,17,14.5,17h76.7c8,0,14.5-7.6,14.5-17l0,0c0-9.4-6.5-17-14.5-17h-76.7
			C782.4,710.6,775.9,718.2,775.9,727.6L775.9,727.6z"/>
		<rect x="795.3" y="725.4" class="st15" width="66.8" height="123.9"/>
	</g>
	<g>
		<rect x="1073.5" y="608.7" class="st15" width="105.7" height="119.5"/>
		<path class="st15" d="M1141,500.6c-6.2,0-11.2,5.8-11.2,13v98.8h22.3v-98.8C1152.1,506.5,1147.2,500.6,1141,500.6z"/>
		<path class="st15" d="M1112.6,490.6c-6.2,0-11.2,5.8-11.2,13v110.3l22.3-3V503.6C1123.7,496.4,1118.8,490.6,1112.6,490.6z"/>
		<path class="st15" d="M1084.4,517.2c-6,0-10.9,5.7-10.9,12.8v101h21.9V530C1095.3,522.9,1090.4,517.2,1084.4,517.2z"/>
		<path class="st15" d="M1168.7,527.2c-5.8,0-10.5,5.5-10.5,12.2v71.4l21,1.6v-73.1C1179.2,532.6,1174.5,527.2,1168.7,527.2z"/>
		<path class="st16" d="M1073.4,729.1v-77.7l-12.3-18.1l0,0c-2.6-3.1-6.3-5.1-10.3-5.1c-8,0-14.5,7.6-14.5,16.9
			c0,2.7,0.6,5.2,1.6,7.5l0,0l0.7,1.4c0.1,0.2,0.2,0.4,0.3,0.6L1073.4,729.1z"/>
		<path class="st15" d="M1179.2,727.6c0,9.4-6.5,17-14.5,17h-76.7c-8,0-14.5-7.6-14.5-17l0,0c0-9.4,6.5-17,14.5-17h76.7
			C1172.7,710.6,1179.2,718.2,1179.2,727.6L1179.2,727.6z"/>
		<rect x="1092.9" y="725.4" class="st15" width="66.8" height="123.9"/>
	</g>
	<g>
		<rect x="828.7" y="775.4" class="st9" width="54.2" height="157.9"/>
		<rect x="774.5" y="775.4" class="st8" width="54.2" height="157.9"/>
	</g>
	<ellipse class="st12" cx="868" cy="803" rx="9.7" ry="11.3"/>
	<g>
		<rect x="1069.1" y="775.4" class="st9" width="54.2" height="157.9"/>
		<rect x="1123.3" y="775.4" class="st8" width="54.2" height="157.9"/>
	</g>
	<ellipse class="st12" cx="1084" cy="803" rx="9.7" ry="11.3"/>
	<path class="st17" d="M1090.8,522.1h-14.3v12.5h0.1c0,0.2-0.1,0.3-0.1,0.5c0,1.8,1.2,3.2,2.7,3.2h8.8c1.5,0,2.7-1.4,2.7-3.2
		c0-0.2-0.1-0.3-0.1-0.5h0.1V522.1z"/>
	<path class="st17" d="M1119.3,495.4H1105v12.5h0.1c0,0.2-0.1,0.3-0.1,0.5c0,1.8,1.2,3.2,2.7,3.2h8.8c1.5,0,2.7-1.4,2.7-3.2
		c0-0.2-0.1-0.3-0.1-0.5h0.1V495.4z"/>
	<path class="st17" d="M1147,505.5H1134v11.4h0.1c0,0.1-0.1,0.3-0.1,0.4c0,1.6,1.1,2.9,2.5,2.9h8c1.4,0,2.5-1.3,2.5-2.9
		c0-0.1-0.1-0.3-0.1-0.4h0.1V505.5z"/>
	<path class="st17" d="M1174.5,533.2H1162v11h0.1c0,0.1-0.1,0.3-0.1,0.4c0,1.6,1.1,2.8,2.4,2.8h7.7c1.3,0,2.4-1.3,2.4-2.8
		c0-0.1-0.1-0.3-0.1-0.4h0.1V533.2z"/>
	<path class="st17" d="M863.4,525.4h14.3v12.5h-0.1c0,0.2,0.1,0.3,0.1,0.5c0,1.8-1.2,3.2-2.7,3.2h-8.8c-1.5,0-2.7-1.4-2.7-3.2
		c0-0.2,0.1-0.3,0.1-0.5h-0.1V525.4z"/>
	<path class="st17" d="M835,498.7h14.3v12.5h-0.1c0,0.2,0.1,0.3,0.1,0.5c0,1.8-1.2,3.2-2.7,3.2h-8.8c-1.5,0-2.7-1.4-2.7-3.2
		c0-0.2,0.1-0.3,0.1-0.5H835V498.7z"/>
	<path class="st17" d="M807.2,508.8h13.1v11.4h-0.1c0,0.1,0.1,0.3,0.1,0.4c0,1.6-1.1,2.9-2.5,2.9h-8c-1.4,0-2.5-1.3-2.5-2.9
		c0-0.1,0.1-0.3,0.1-0.4h-0.1V508.8z"/>
	<path class="st17" d="M779.7,536.5h12.6v11h-0.1c0,0.1,0.1,0.3,0.1,0.4c0,1.6-1.1,2.8-2.4,2.8h-7.7c-1.3,0-2.4-1.3-2.4-2.8
		c0-0.1,0.1-0.3,0.1-0.4h-0.1V536.5z"/>
	<rect x="828.7" y="744.6" class="st6" width="33.4" height="30.8"/>
	<rect x="1092.9" y="744.6" class="st6" width="30.4" height="30.8"/>
	<polygon class="st0" points="1481.7,538.2 1394.7,538.2 1394.7,411.7 1498.2,411.7 1498.2,517.2 	"/>
	<rect x="1401.5" y="422.7" class="st3" width="57.1" height="10.3"/>
	<rect x="1401.5" y="455.1" class="st3" width="57.1" height="10.3"/>
	<rect x="1457.4" y="439.3" class="st3" width="31.8" height="10.3"/>
	<rect x="1465.6" y="422.7" class="st3" width="23.5" height="10.3"/>
	<rect x="1401.5" y="471.8" class="st3" width="23.5" height="10.3"/>
	<rect x="1462.1" y="455.1" class="st3" width="18.6" height="10.3"/>
	<rect x="1483.5" y="455.1" class="st3" width="9.9" height="10.3"/>
	<rect x="1430.1" y="439.3" class="st3" width="23.5" height="10.3"/>
	<rect x="1400.6" y="439.3" class="st3" width="23.5" height="10.3"/>
	<polygon class="st18" points="1481.7,538.2 1482.3,518.5 1498.2,517.2 	"/>
	<g>
		<g>
			<g>
				<g>
					<g>
						<polygon class="st19" points="1407.4,253.3 1389,242.8 1385.1,252.3 1403.4,262.8 						"/>
					</g>
				</g>
			</g>
			<g>
				<g>
					<g>
						<polygon class="st20" points="1407.4,253.3 1398.2,248.1 1394.3,257.5 1403.4,262.8 						"/>
					</g>
				</g>
			</g>
			<g>
				<g>
					<g>
						<polygon class="st21" points="1402.8,264.5 1393.3,259.1 1337.3,392.7 1346.8,398.1 						"/>
					</g>
				</g>
			</g>
			<g>
				<g>
					<g>
						<polygon class="st22" points="1393.9,259.4 1384.4,254 1328.4,387.6 1337.9,393 						"/>
					</g>
				</g>
			</g>
			<g>
				<g>
					<g>
						<polygon class="st12" points="1403.5,262.9 1385.1,252.3 1383.7,255.7 1402.1,266.2 						"/>
					</g>
				</g>
			</g>
			<polygon class="st15" points="1328.4,387.6 1326.2,417.5 1346.8,398.1 			"/>
		</g>
		<polygon class="st12" points="1326.2,417.5 1326.6,412.6 1329.6,414.3 		"/>
	</g>
</g>
</svg>
