<?xml version="1.0" encoding="utf-8"?>
<!-- Generator: Adobe Illustrator 21.0.0, SVG Export Plug-In . SVG Version: 6.00 Build 0)  -->
<svg version="1.1" id="Layer_1" xmlns="http://www.w3.org/2000/svg" xmlns:xlink="http://www.w3.org/1999/xlink" x="0px" y="0px"
	 viewBox="0 0 1920 1080" style="enable-background:new 0 0 1920 1080;" xml:space="preserve">
<style type="text/css">
	.st0{fill:#1B5E20;}
	.st1{fill:#212121;}
	.st2{fill:#434343;}
	.st3{fill:#388E3C;}
	.st4{fill:#2E7D32;}
	.st5{fill:#D32E2E;}
	.st6{fill:#3E2723;}
	.st7{fill:#80DEEA;}
	.st8{opacity:0.2;fill:#212121;}
	.st9{fill:#E0E0E0;}
	.st10{fill:#F5F5F5;}
	.st11{opacity:0.2;fill:url(#SVGID_1_);}
	.st12{opacity:0.2;fill:url(#SVGID_2_);}
	.st13{fill:#26C6DA;}
	.st14{fill:#FAFBFB;}
	.st15{fill:none;}
	.st16{font-family:'BebasNeueBold';}
	.st17{font-size:65.1057px;}
	.st18{letter-spacing:19.3;}
	.st19{fill:#B71C1C;}
	.st20{fill:#757575;}
	.st21{fill:#43A047;}
	.st22{opacity:0.5;fill:url(#SVGID_3_);}
	.st23{fill:#FFE082;}
	.st24{opacity:0.5;fill:url(#SVGID_4_);}
	.st25{fill:#FFB74D;}
	.st26{fill:#FFCC80;}
	.st27{font-family:'DKKitsuneTail-Regular';}
	.st28{font-size:47.0208px;}
	.st29{fill:#BDBDBD;}
	.st30{fill:#C62828;}
	.st31{opacity:0.4;fill:#212121;}
	.st32{fill:#00ACC1;}
	.st33{fill:#4DD0E1;}
</style>
<g>
	<path class="st0" d="M1526.3,871.2c0,7.5-2,14.5-5.4,20.4H1459c-3.4-5.9-5.4-12.9-5.4-20.4c0-12.4,5.4-23.4,13.8-30.5
		c6-5.1,13.7-8.2,22-8.4c0.2,0,0.4,0,0.6,0C1510,832.3,1526.3,849.7,1526.3,871.2z"/>
	<g>
		<rect x="623" y="236.9" class="st1" width="18.9" height="128.3"/>
		<rect x="1321.9" y="236.9" class="st1" width="18.9" height="128.3"/>
	</g>
	<rect x="575.8" y="212.8" class="st2" width="812.1" height="130.2"/>
	<path class="st3" d="M1489.4,809.1v82.5H1323v-82.5c0-0.4,0-0.7,0-1.1c0-2,0.1-4,0.2-6c0.3-3.9,0.8-7.8,1.6-11.5
		c0.8-4.3,2-8.4,3.4-12.5c0.4-1.1,0.8-2.3,1.2-3.4c6.3-16,16.8-29.7,30.1-39.3c3.4-2.5,7-4.7,10.8-6.6c10.8-5.6,23-8.7,35.8-8.7
		c6.5,0,12.9,0.8,19,2.3C1462,731.5,1489.4,766.9,1489.4,809.1z"/>
	<path class="st0" d="M528.1,865.2c0,0.6,0,1.3-0.1,1.9c-0.1,1.6-0.2,3.3-0.5,4.9c-0.5,3.1-1.3,6.2-2.4,9c-0.1,0.2-0.2,0.4-0.3,0.7
		c-1.5,3.6-3.4,6.9-5.7,9.9h-59.5c-5.6-7.2-8.9-16.4-8.9-26.4c0-22.8,17.3-41.4,38.6-41.4c1,0,2,0,3,0.1c1.4,0.1,2.8,0.3,4.1,0.6
		c1.2,0.2,2.4,0.5,3.6,0.9c1.7,0.5,3.3,1.1,4.8,1.9c1.7,0.8,3.3,1.7,4.8,2.7C520.9,837.4,528.1,850.3,528.1,865.2z"/>
	<path class="st4" d="M649.1,847.3c0,6.1-0.6,12.1-1.8,17.9c-1,5.2-2.5,10.1-4.3,14.9c-1.6,4-3.4,7.8-5.5,11.5H501
		c-0.3-0.5-0.5-1-0.8-1.4c-6.8-12.6-10.7-27.2-10.7-42.8c0-8.1,1-15.9,3-23.3c1.1-4.1,2.5-8.2,4.1-12c2.3-5.4,5.2-10.6,8.4-15.4
		c8.5-12.4,20.1-22.2,33.5-28.2c9.5-4.2,19.9-6.6,30.8-6.6c8.4,0,16.5,1.4,24,3.9c3.7,1.3,7.3,2.8,10.8,4.6c2.5,1.3,4.9,2.7,7.2,4.2
		c0.7,0.5,1.3,0.9,2,1.4c0.9,0.7,1.8,1.3,2.7,2c2,1.5,3.9,3.2,5.8,4.9c2.5,2.4,4.9,4.9,7.2,7.6c3,3.6,5.7,7.4,8.1,11.5
		c1.1,1.9,2.2,3.9,3.2,6C645.9,819.7,649.1,833.1,649.1,847.3z"/>
	<rect x="538.5" y="458" class="st5" width="886.7" height="422.1"/>
	<g>
		<g>
			<g>
				<rect x="891.2" y="578" class="st6" width="181.3" height="313.6"/>
				<rect x="902" y="589.5" class="st7" width="159.8" height="290.6"/>
				<rect x="902" y="589.5" class="st8" width="159.8" height="6.2"/>
				<g>
					<ellipse class="st9" cx="921.3" cy="714.4" rx="6.9" ry="7.4"/>
					<ellipse class="st9" cx="921.3" cy="767.3" rx="6.9" ry="7.4"/>
					<path class="st10" d="M921.3,708.7c-2.2,0-3.9,1.9-3.9,4.2v55.9c0,2.3,1.8,4.2,3.9,4.2c2.2,0,3.9-1.9,3.9-4.2v-55.9
						C925.3,710.6,923.5,708.7,921.3,708.7z"/>
				</g>
			</g>
			<g>
				<path class="st10" d="M1072.5,622.3c-1.5,0-2.7,1.3-2.7,2.9v22.1c0,1.6,1.2,2.9,2.7,2.9c1.5,0,2.7-1.3,2.7-2.9v-22.1
					C1075.2,623.6,1074,622.3,1072.5,622.3z"/>
				<path class="st10" d="M1072.5,819.5c-1.5,0-2.7,1.3-2.7,2.9v22.1c0,1.6,1.2,2.9,2.7,2.9c1.5,0,2.7-1.3,2.7-2.9v-22.1
					C1075.2,820.8,1074,819.5,1072.5,819.5z"/>
			</g>
		</g>
		<g>
			<g>
				<rect x="593.4" y="578" class="st6" width="231.5" height="224"/>
				<rect x="604.1" y="589.5" class="st7" width="209.9" height="200.9"/>
				<rect x="604.1" y="589.5" class="st8" width="209.9" height="6.2"/>
			</g>
		</g>
		<g>
			<g>
				<rect x="1138.9" y="578" class="st6" width="231.5" height="224"/>
				<rect x="1149.7" y="589.5" class="st7" width="209.9" height="200.9"/>
				<rect x="1149.7" y="589.5" class="st8" width="209.9" height="6.2"/>
			</g>
		</g>
	</g>
	<path class="st9" d="M891.2,865.2v26.4H524.9V874c0-0.7,0.1-1.4,0.2-2.1c0.4-2,1.5-3.7,2.9-4.9c1.4-1.2,3.2-1.9,5.1-1.9H891.2z"/>
	<path class="st9" d="M1438.8,874v17.5h-366.3v-26.4h358C1435.1,865.2,1438.8,869.1,1438.8,874z"/>
	<rect x="582.6" y="790.4" class="st9" width="253" height="17.5"/>
	<rect x="1128.1" y="790.4" class="st9" width="253" height="17.5"/>
	<linearGradient id="SVGID_1_" gradientUnits="userSpaceOnUse" x1="819.4053" y1="891.711" x2="819.4053" y2="868.0822">
		<stop  offset="0" style="stop-color:#FFFFFF;stop-opacity:0"/>
		<stop  offset="1" style="stop-color:#000000"/>
	</linearGradient>
	<polygon class="st11" points="747.6,865.2 891.2,865.2 891.2,891.6 758.6,891.6 	"/>
	<linearGradient id="SVGID_2_" gradientUnits="userSpaceOnUse" x1="1255.6659" y1="891.7133" x2="1255.6659" y2="868.0847">
		<stop  offset="0" style="stop-color:#FFFFFF;stop-opacity:0"/>
		<stop  offset="1" style="stop-color:#000000"/>
	</linearGradient>
	<path class="st12" d="M1438.8,874v17.5h-366.3v-26.4h358C1435.1,865.2,1438.8,869.1,1438.8,874z"/>
	<rect x="604.1" y="778" class="st13" width="209.9" height="12.5"/>
	<g>
		<path class="st13" d="M656.5,754.3h-31.7c-1.7,0-3,1.4-3,3.2v21.3c0,1.8,1.4,3.2,3,3.2h31.7c1.7,0,3-1.4,3-3.2v-21.3
			C659.6,755.8,658.2,754.3,656.5,754.3z"/>
		<path class="st13" d="M640.7,745.3c-6.3,0-11.4,5.5-11.4,12.2c0,6.7,5.1,12.2,11.4,12.2c6.3,0,11.4-5.5,11.4-12.2
			C652.1,750.7,647,745.3,640.7,745.3z M640.7,766.5c-4.7,0-8.4-4-8.4-9s3.8-9,8.4-9c4.7,0,8.4,4,8.4,9S645.4,766.5,640.7,766.5z"/>
	</g>
	<rect x="1149.7" y="778" class="st13" width="209.9" height="12.5"/>
	<g>
		<path class="st13" d="M1244.7,754.6h-29c-1.5,0-2.8,1.3-2.8,3v19.4c0,1.6,1.2,3,2.8,3h29c1.5,0,2.8-1.3,2.8-3v-19.4
			C1247.5,755.9,1246.3,754.6,1244.7,754.6z"/>
		<path class="st13" d="M1230.3,746.3c-5.8,0-10.4,5-10.4,11.2c0,6.2,4.7,11.2,10.4,11.2c5.8,0,10.4-5,10.4-11.2
			C1240.7,751.3,1236,746.3,1230.3,746.3z M1230.3,765.7c-4.3,0-7.7-3.7-7.7-8.3c0-4.6,3.5-8.3,7.7-8.3c4.3,0,7.7,3.7,7.7,8.3
			C1238,762,1234.5,765.7,1230.3,765.7z"/>
	</g>
	<g>
		<path class="st13" d="M1293.5,754.6h-29c-1.5,0-2.8,1.3-2.8,3v19.4c0,1.6,1.2,3,2.8,3h29c1.5,0,2.8-1.3,2.8-3v-19.4
			C1296.2,755.9,1295,754.6,1293.5,754.6z"/>
		<path class="st13" d="M1279,746.3c-5.8,0-10.4,5-10.4,11.2c0,6.2,4.7,11.2,10.4,11.2s10.4-5,10.4-11.2
			C1289.4,751.3,1284.8,746.3,1279,746.3z M1279,765.7c-4.3,0-7.7-3.7-7.7-8.3c0-4.6,3.5-8.3,7.7-8.3s7.7,3.7,7.7,8.3
			C1286.7,762,1283.3,765.7,1279,765.7z"/>
	</g>
	<g>
		<path class="st13" d="M729.7,761.1h-23.9c-1.3,0-2.3,1.1-2.3,2.4v16c0,1.3,1,2.4,2.3,2.4h23.9c1.3,0,2.3-1.1,2.3-2.4v-16
			C732,762.2,731,761.1,729.7,761.1z"/>
		<path class="st13" d="M717.8,754.3c-4.7,0-8.6,4.1-8.6,9.2c0,5.1,3.9,9.2,8.6,9.2c4.7,0,8.6-4.1,8.6-9.2
			C726.4,758.4,722.6,754.3,717.8,754.3z M717.8,770.3c-3.5,0-6.4-3.1-6.4-6.8c0-3.8,2.9-6.8,6.4-6.8c3.5,0,6.4,3.1,6.4,6.8
			C724.2,767.3,721.3,770.3,717.8,770.3z"/>
	</g>
	<g>
		<path class="st13" d="M710.9,685.6v18.5c2.6,5.1,3.9,10.8,3.9,16.6v19.6c0,3.2-2.4,5.8-5.5,5.8h-15.2v32.2h1.3
			c0.8,0,1.5,0.7,1.5,1.6v10.5h-8.3V780c0-0.9,0.7-1.6,1.5-1.6h1.3v-32.2h-15.2c-3,0-5.5-2.6-5.5-5.8v-19.6c0-5.8,1.4-11.5,3.9-16.6
			v-18.5c0-3-0.7-5.9-2.1-8.5l-4-7.5c-1.4-2.7-1-6.1,1-8.2l0.8-0.9c0.5-0.6,1.3-0.9,2-0.9h10.7c0.5,0,0.9-0.4,0.9-1V657
			c0-0.5,0.4-1,0.9-1h6.4v-1.6c-2-0.7-3.4-2.6-3.4-4.9c0-2.9,2.2-5.2,4.8-5.2s4.8,2.3,4.8,5.2c0,2.3-1.4,4.3-3.4,4.9v1.6h6.4
			c0.5,0,0.9,0.4,0.9,1v1.7c0,0.5,0.4,1,0.9,1h10.7c0.7,0,1.5,0.3,2,0.9l0.8,0.9c2,2.2,2.4,5.6,1,8.2l-4,7.5
			C711.6,679.7,710.9,682.7,710.9,685.6z"/>
		<path class="st13" d="M789.7,685.6v18.5c2.6,5.1,4,10.8,4,16.6v19.6c0,3.2-2.4,5.8-5.5,5.8H773v32.2h1.3c0.8,0,1.5,0.7,1.5,1.6
			v10.5h-8.3V780c0-0.9,0.7-1.6,1.5-1.6h1.3v-32.2H755c-3,0-5.5-2.6-5.5-5.8v-19.6c0-5.8,1.4-11.5,3.9-16.6v-18.5
			c0-3-0.7-5.9-2.1-8.5l-4-7.5c-1.4-2.7-1-6.1,1-8.2l0.8-0.9c0.5-0.6,1.3-0.9,2-0.9H762c0.5,0,0.9-0.4,0.9-1V657c0-0.5,0.4-1,0.9-1
			h6.4v-1.6c-2-0.7-3.4-2.6-3.4-4.9c0-2.9,2.2-5.2,4.8-5.2c2.7,0,4.8,2.3,4.8,5.2c0,2.3-1.5,4.3-3.4,4.9v1.6h6.4
			c0.5,0,0.9,0.4,0.9,1v1.7c0,0.5,0.4,1,0.9,1h10.7c0.8,0,1.5,0.3,2,0.9l0.8,0.9c2,2.2,2.4,5.6,1,8.2l-4,7.5
			C790.4,679.7,789.7,682.7,789.7,685.6z"/>
	</g>
	<g>
		<path class="st13" d="M1218.7,660.5c-0.5-0.6-1.3-0.9-2-0.9h-10.7c-0.5,0-0.9-0.4-0.9-1V657c0-0.5-0.4-1-0.9-1h-6.4v-1.6
			c2-0.7,3.4-2.6,3.4-4.9c0-2.9-2.2-5.2-4.8-5.2s-4.8,2.3-4.8,5.2c0,2.3,1.4,4.3,3.4,4.9v1.6h-6.4c-0.5,0-0.9,0.4-0.9,1v1.7
			c0,0.5-0.4,1-0.9,1H1176c-0.8,0-1.5,0.3-2,0.9l-0.8,0.9c-2,2.2-2.5,5.5-1,8.2l4,7.5c1.4,2.6,2.1,5.5,2.1,8.5v18.5
			c-2.6,5.1-3.9,10.8-3.9,16.6v19.6c0,3.2,2.4,5.9,5.5,5.9h15.2v32.2h-1.3c-0.8,0-1.5,0.7-1.5,1.6v10.5h2.7h2.8h2.7V780
			c0-0.9-0.7-1.6-1.5-1.6h-1.3v-32.2h15.2c3,0,5.5-2.6,5.5-5.9v-19.6c0-5.8-1.4-11.5-3.9-16.6v-18.5c0-3,0.7-5.9,2.1-8.5l4-7.5
			c1.4-2.7,1-6-1-8.2L1218.7,660.5z"/>
		<path class="st13" d="M1333.1,677.2l4-7.5c1.4-2.7,1-6-1-8.2l-0.8-0.9c-0.5-0.6-1.3-0.9-2-0.9h-10.7c-0.5,0-0.9-0.4-0.9-1V657
			c0-0.5-0.4-1-0.9-1h-6.3v-1.6c2-0.7,3.4-2.6,3.4-4.9c0-2.9-2.2-5.2-4.8-5.2c-2.7,0-4.8,2.3-4.8,5.2c0,2.3,1.4,4.3,3.4,4.9v1.6
			h-6.4c-0.5,0-0.9,0.4-0.9,1v1.7c0,0.5-0.4,1-0.9,1h-10.7c-0.8,0-1.5,0.3-2,0.9l-0.8,0.9c-2,2.2-2.5,5.5-1,8.2l4,7.5
			c1.4,2.6,2.1,5.5,2.1,8.5v18.5c-2.6,5.1-3.9,10.8-3.9,16.6v19.6c0,3.2,2.4,5.9,5.5,5.9h15.2v32.2h-1.3c-0.8,0-1.5,0.7-1.5,1.6
			v10.5h2.7h2.8h2.7V780c0-0.9-0.6-1.6-1.5-1.6h-1.3v-32.2h15.2c3,0,5.5-2.6,5.5-5.9v-19.6c0-5.8-1.4-11.5-3.9-16.6v-18.5
			C1331,682.7,1331.7,679.7,1333.1,677.2z"/>
	</g>
	<g>
		<polygon class="st14" points="814.1,662.6 814.1,669.9 739,589.5 745.8,589.5 		"/>
		<polygon class="st14" points="814.1,685.5 814.1,711.9 699.8,589.5 724.4,589.5 		"/>
	</g>
	<g>
		<polygon class="st14" points="1061.8,707.7 1061.8,717.6 942.1,589.5 951.4,589.5 		"/>
		<polygon class="st14" points="1061.8,642.2 1061.8,681.7 975.7,589.5 1012.5,589.5 		"/>
	</g>
	<g>
		<polygon class="st14" points="1359.6,724.8 1359.6,732.1 1226.4,589.5 1233.2,589.5 		"/>
		<polygon class="st14" points="1359.6,673.1 1359.6,699.4 1256.9,589.5 1281.6,589.5 		"/>
	</g>
	<rect x="678.9" y="254.7" class="st15" width="605.9" height="46.5"/>
	<text transform="matrix(0.9342 0 0 1 861.419 300.2832)" class="st14 st16 st17 st18">MIMAKE</text>
	<g>
		<rect x="535.2" y="531.8" class="st19" width="22.1" height="13"/>
		<rect x="562.1" y="531.8" class="st19" width="22.1" height="13"/>
		<rect x="548.1" y="550" class="st19" width="22.1" height="13"/>
		
			<rect x="548.1" y="513.6" transform="matrix(-1 -1.224647e-16 1.224647e-16 -1 1118.3755 1040.23)" class="st19" width="22.1" height="13"/>
	</g>
	<g>
		<rect x="535.2" y="826.1" class="st19" width="22.1" height="13"/>
		<rect x="562.1" y="826.1" class="st19" width="22.1" height="13"/>
		<rect x="548.1" y="844.3" class="st19" width="22.1" height="13"/>
	</g>
	<g>
		<g>
			<rect x="821.6" y="543.5" class="st19" width="22.1" height="13"/>
			<rect x="848.6" y="543.5" class="st19" width="22.1" height="13"/>
			<rect x="834.6" y="561.7" class="st19" width="22.1" height="13"/>
			
				<rect x="834.6" y="525.3" transform="matrix(-1 -1.224647e-16 1.224647e-16 -1 1691.3191 1063.6216)" class="st19" width="22.1" height="13"/>
		</g>
		<g>
			<rect x="875.5" y="543.5" class="st19" width="22.1" height="13"/>
			<rect x="861.6" y="561.7" class="st19" width="22.1" height="13"/>
			
				<rect x="861.6" y="525.3" transform="matrix(-1 -1.224647e-16 1.224647e-16 -1 1745.2175 1063.6216)" class="st19" width="22.1" height="13"/>
		</g>
	</g>
	<g>
		<rect x="1079.1" y="717.3" class="st19" width="22.1" height="13"/>
		<rect x="1106.1" y="717.3" class="st19" width="22.1" height="13"/>
		<rect x="1092.1" y="735.5" class="st19" width="22.1" height="13"/>
		
			<rect x="1092.1" y="699.1" transform="matrix(-1 -1.224647e-16 1.224647e-16 -1 2206.2764 1411.212)" class="st19" width="22.1" height="13"/>
	</g>
	<g>
		<g>
			<rect x="1138.6" y="825.2" class="st19" width="22.1" height="13"/>
			<rect x="1165.6" y="825.2" class="st19" width="22.1" height="13"/>
			<rect x="1151.6" y="843.4" class="st19" width="22.1" height="13"/>
		</g>
		<g>
			<rect x="1111.7" y="825.2" class="st19" width="22.1" height="13"/>
			<rect x="1124.7" y="843.4" class="st19" width="22.1" height="13"/>
		</g>
	</g>
	<g>
		<rect x="1381.7" y="623.2" class="st19" width="22.1" height="13"/>
		<rect x="1408.6" y="623.2" class="st19" width="22.1" height="13"/>
		<rect x="1394.7" y="641.4" class="st19" width="22.1" height="13"/>
		
			<rect x="1394.7" y="605.1" transform="matrix(-1 -1.224647e-16 1.224647e-16 -1 2811.4377 1223.0667)" class="st19" width="22.1" height="13"/>
	</g>
	<g>
		<rect x="1381.7" y="826.1" class="st19" width="22.1" height="13"/>
		<rect x="1408.6" y="826.1" class="st19" width="22.1" height="13"/>
		<rect x="1394.7" y="844.3" class="st19" width="22.1" height="13"/>
		
			<rect x="1394.7" y="807.9" transform="matrix(-1 -1.224647e-16 1.224647e-16 -1 2811.4377 1628.8313)" class="st19" width="22.1" height="13"/>
	</g>
	<g>
		<rect x="1171.8" y="516.2" class="st19" width="22.1" height="13"/>
		<rect x="1198.8" y="516.2" class="st19" width="22.1" height="13"/>
		<rect x="1184.8" y="534.4" class="st19" width="22.1" height="13"/>
	</g>
	<g>
		
			<rect x="692.8" y="830.4" transform="matrix(-1 -1.224647e-16 1.224647e-16 -1 1407.7531 1673.78)" class="st19" width="22.1" height="13"/>
		
			<rect x="665.9" y="830.4" transform="matrix(-1 -1.224647e-16 1.224647e-16 -1 1353.8547 1673.78)" class="st19" width="22.1" height="13"/>
		
			<rect x="679.9" y="812.2" transform="matrix(-1 -1.224647e-16 1.224647e-16 -1 1381.7809 1637.4265)" class="st19" width="22.1" height="13"/>
	</g>
	<g>
		
			<rect x="846.1" y="846" transform="matrix(-1 -1.224647e-16 1.224647e-16 -1 1714.3737 1704.9188)" class="st19" width="22.1" height="13"/>
		
			<rect x="860.1" y="827.8" transform="matrix(-1 -1.224647e-16 1.224647e-16 -1 1742.2999 1668.5653)" class="st19" width="22.1" height="13"/>
	</g>
	<g>
		
			<rect x="1072.1" y="543.5" transform="matrix(-1 -1.224647e-16 1.224647e-16 -1 2166.3413 1099.9751)" class="st19" width="22.1" height="13"/>
		
			<rect x="1086.1" y="525.3" transform="matrix(-1 -1.224647e-16 1.224647e-16 -1 2194.2673 1063.6216)" class="st19" width="22.1" height="13"/>
	</g>
	<g>
		
			<rect x="1362" y="543" transform="matrix(-1 -1.224647e-16 1.224647e-16 -1 2746.1653 1098.8889)" class="st19" width="22.1" height="13"/>
		
			<rect x="1349.1" y="524.8" transform="matrix(-1 -1.224647e-16 1.224647e-16 -1 2720.1931 1062.5354)" class="st19" width="22.1" height="13"/>
	</g>
	<g>
		
			<rect x="548.1" y="693.4" transform="matrix(-1 -1.224647e-16 1.224647e-16 -1 1118.3755 1399.7253)" class="st19" width="22.1" height="13"/>
		
			<rect x="535.2" y="675.2" transform="matrix(-1 -1.224647e-16 1.224647e-16 -1 1092.4034 1363.3718)" class="st19" width="22.1" height="13"/>
	</g>
	<rect x="570.5" y="212.8" class="st20" width="822.7" height="13.9"/>
	<rect x="623" y="343.1" width="18.9" height="7.8"/>
	<rect x="1321.9" y="343.1" width="18.9" height="7.8"/>
	<path class="st4" d="M1471.2,860.2c0,11.9-4,22.8-10.5,31.3h-71c-2.7-3.5-4.9-7.3-6.6-11.5c-1.9-4.6-3.2-9.6-3.7-14.9
		c-0.2-1.6-0.2-3.3-0.2-4.9c0-7.6,1.6-14.8,4.5-21.2c2.1-4.8,5-9.2,8.4-13c1.7-1.9,3.5-3.6,5.5-5.2c5.6-4.5,12.1-7.6,19.2-9.1
		c2.7-0.5,5.6-0.8,8.4-0.8c18.9,0,35.1,12.2,42.2,29.7C1469.8,846.7,1471.2,853.3,1471.2,860.2z"/>
	<path class="st21" d="M1366.9,774.6h-224.5c-5.2,0-9.5,4.6-9.5,10.2v5.6h243.5v-5.6C1376.4,779.2,1372.1,774.6,1366.9,774.6z"/>
	<path class="st21" d="M821.4,774.6H596.9c-5.2,0-9.5,4.6-9.5,10.2v5.6h243.5v-5.6C830.9,779.2,826.6,774.6,821.4,774.6z"/>
	<linearGradient id="SVGID_3_" gradientUnits="userSpaceOnUse" x1="981.869" y1="867.0477" x2="981.869" y2="502.9142">
		<stop  offset="0" style="stop-color:#FFFFFF;stop-opacity:0"/>
		<stop  offset="1" style="stop-color:#000000;stop-opacity:0.7"/>
	</linearGradient>
	<polygon class="st22" points="682.8,865.2 1425.2,865.2 1425.2,458 538.5,458 538.5,520.2 	"/>
	<g>
		<path class="st23" d="M604.9,226.7c0,5.7,4.3,10.2,9.6,10.2c5.3,0,9.6-4.6,9.6-10.2H604.9z"/>
		<path class="st23" d="M788.6,226.7c0,5.7,4.3,10.2,9.6,10.2c5.3,0,9.6-4.6,9.6-10.2H788.6z"/>
		<path class="st23" d="M972.3,226.7c0,5.7,4.3,10.2,9.6,10.2c5.3,0,9.6-4.6,9.6-10.2H972.3z"/>
		<path class="st23" d="M1156,226.7c0,5.7,4.3,10.2,9.6,10.2c5.3,0,9.6-4.6,9.6-10.2H1156z"/>
		<path class="st23" d="M1339.7,226.7c0,5.7,4.3,10.2,9.6,10.2c5.3,0,9.6-4.6,9.6-10.2H1339.7z"/>
	</g>
	<linearGradient id="SVGID_4_" gradientUnits="userSpaceOnUse" x1="981.869" y1="275.5332" x2="981.869" y2="227.2464">
		<stop  offset="0" style="stop-color:#FFFFFF;stop-opacity:0"/>
		<stop  offset="1" style="stop-color:#000000;stop-opacity:0.7"/>
	</linearGradient>
	<polygon class="st24" points="1387.9,226.7 1387.9,274.3 584.2,274.3 575.8,245.2 575.8,226.7 	"/>
	<g>
		<g>
			<rect x="500.2" y="820.9" class="st25" width="9.7" height="70.7"/>
			<rect x="608.5" y="820.9" class="st25" width="9.7" height="70.7"/>
			<rect x="496.6" y="702" class="st26" width="125.1" height="179"/>
			
				<rect x="478.7" y="737.4" transform="matrix(-1.836970e-16 1 -1 -1.836970e-16 1350.6771 232.3023)" class="st1" width="161" height="108.2"/>
		</g>
		<rect x="521.4" y="774.6" class="st15" width="75.6" height="33.8"/>
		<text transform="matrix(0.9342 0 0 1 529.4293 807.3247)" class="st10 st27 st28">BUK</text>
	</g>
	<g>
		<path class="st29" d="M1470.2,428.7H493.5c-3.3,0-6,2.9-6,6.4c0,3.6,2.7,6.4,6,6.4h976.7c3.3,0,6-2.9,6-6.4
			C1476.2,431.6,1473.5,428.7,1470.2,428.7z"/>
		<rect x="524.9" y="390.7" class="st9" width="913.9" height="12.7"/>
		<rect x="524.9" y="365.3" class="st9" width="913.9" height="12.7"/>
		<rect x="532.9" y="378" class="st30" width="898" height="12.7"/>
		<rect x="532.9" y="378" class="st31" width="898" height="6.4"/>
		<path class="st32" d="M1389.4,428.7v34.3c0,21.9,16.6,39.7,37,39.7h0c20.5,0,37-17.8,37-39.7v-34.3H1389.4z"/>
		<path class="st9" d="M1315.3,428.7v34.3c0,21.9,16.6,39.7,37,39.7l0,0c20.5,0,37-17.8,37-39.7v-34.3H1315.3z"/>
		<path class="st32" d="M1241.2,428.7v34.3c0,21.9,16.6,39.7,37,39.7h0c20.5,0,37-17.8,37-39.7v-34.3H1241.2z"/>
		<path class="st9" d="M1167.1,428.7v34.3c0,21.9,16.6,39.7,37,39.7l0,0c20.5,0,37-17.8,37-39.7v-34.3H1167.1z"/>
		<path class="st32" d="M1093,428.7v34.3c0,21.9,16.6,39.7,37,39.7h0c20.5,0,37-17.8,37-39.7v-34.3H1093z"/>
		<path class="st9" d="M1018.9,428.7v34.3c0,21.9,16.6,39.7,37,39.7l0,0c20.5,0,37-17.8,37-39.7v-34.3H1018.9z"/>
		<path class="st32" d="M944.8,428.7v34.3c0,21.9,16.6,39.7,37,39.7h0c20.5,0,37-17.8,37-39.7v-34.3H944.8z"/>
		<path class="st9" d="M870.7,428.7v34.3c0,21.9,16.6,39.7,37,39.7h0c20.5,0,37-17.8,37-39.7v-34.3H870.7z"/>
		<path class="st32" d="M796.6,428.7v34.3c0,21.9,16.6,39.7,37,39.7l0,0c20.5,0,37-17.8,37-39.7v-34.3H796.6z"/>
		<path class="st9" d="M722.6,428.7v34.3c0,21.9,16.6,39.7,37,39.7h0c20.5,0,37-17.8,37-39.7v-34.3H722.6z"/>
		<path class="st32" d="M648.5,428.7v34.3c0,21.9,16.6,39.7,37,39.7l0,0c20.5,0,37-17.8,37-39.7v-34.3H648.5z"/>
		<path class="st9" d="M574.4,428.7v34.3c0,21.9,16.6,39.7,37,39.7h0c20.5,0,37-17.8,37-39.7v-34.3H574.4z"/>
		<path class="st32" d="M500.3,428.7v34.3c0,21.9,16.6,39.7,37,39.7l0,0c20.5,0,37-17.8,37-39.7v-34.3H500.3z"/>
		<polyline class="st33" points="595.2,403.4 574.4,428.7 500.3,428.7 524.9,403.4 		"/>
		<polyline class="st14" points="665.5,403.4 648.5,428.7 574.4,428.7 595.2,403.4 		"/>
		<polyline class="st33" points="735.8,403.4 722.6,428.7 648.5,428.7 665.5,403.4 		"/>
		<polyline class="st14" points="806.1,403.4 796.6,428.7 722.6,428.7 735.8,403.4 		"/>
		<polyline class="st33" points="876.4,403.4 870.7,428.7 796.6,428.7 806.1,403.4 		"/>
		<polyline class="st14" points="946.7,403.4 944.8,428.7 870.7,428.7 876.4,403.4 		"/>
		<polyline class="st33" points="1017,403.4 1018.9,428.7 944.8,428.7 946.7,403.4 		"/>
		<polyline class="st14" points="1087.3,403.4 1093,428.7 1018.9,428.7 1017,403.4 		"/>
		<polyline class="st33" points="1157.6,403.4 1167.1,428.7 1093,428.7 1087.3,403.4 		"/>
		<polyline class="st14" points="1227.9,403.4 1241.2,428.7 1167.1,428.7 1157.6,403.4 		"/>
		<polyline class="st33" points="1298.2,403.4 1315.3,428.7 1241.2,428.7 1227.9,403.4 		"/>
		<polyline class="st14" points="1368.5,403.4 1389.4,428.7 1315.3,428.7 1298.2,403.4 		"/>
		<polyline class="st33" points="1438.8,403.4 1463.4,428.7 1389.4,428.7 1368.5,403.4 		"/>
	</g>
</g>
</svg>
