<?xml version="1.0" encoding="utf-8"?>
<!-- Generator: Adobe Illustrator 21.0.0, SVG Export Plug-In . SVG Version: 6.00 Build 0)  -->
<svg version="1.1" id="Layer_1" xmlns="http://www.w3.org/2000/svg" xmlns:xlink="http://www.w3.org/1999/xlink" x="0px" y="0px"
	 viewBox="0 0 1920 1080" style="enable-background:new 0 0 1920 1080;" xml:space="preserve">
<style type="text/css">
	.st0{fill:#FFFFFF;}
	.st1{opacity:0.2;}
	.st2{fill:#62239E;}
	.st3{fill:#C2D342;}
	.st4{fill:#AEB73E;}
	.st5{opacity:0.3;}
	.st6{fill:#4E2C09;}
	.st7{fill:#A34428;}
	.st8{fill:#79A109;}
	.st9{opacity:0.5;}
	.st10{fill:#576D06;}
	.st11{enable-background:new    ;}
	.st12{fill:#C65C38;}
	.st13{opacity:0.3;fill:none;stroke:#FFFFFF;stroke-width:1.5769;stroke-miterlimit:10;}
	.st14{opacity:0.4;}
	.st15{fill:#BA9458;}
	.st16{fill:#C66340;}
	.st17{fill:#FFDB97;}
	.st18{fill:#0B2025;}
	.st19{fill:#FFEDD4;}
	.st20{fill:#D0B987;}
	.st21{fill:#FFE5A4;}
	.st22{fill:#D03C30;}
	.st23{fill:#FF5F38;}
	.st24{fill:#FC5640;}
	.st25{fill:#EF4933;}
	.st26{fill:#F9E4C2;}
	.st27{fill:#155650;}
	.st28{fill:#E0AF73;}
	.st29{fill:#0A3530;}
	.st30{fill:#C97257;}
	.st31{fill:#887551;}
	.st32{fill:#C32F23;}
	.st33{fill:#DBBC82;}
	.st34{opacity:0.6;}
	.st35{fill:#693701;}
	.st36{fill:#412201;}
	.st37{fill:#DDB192;}
	.st38{fill:#C0B19E;}
	.st39{fill:#231F20;}
	.st40{fill:#0E7263;}
	.st41{fill:#11CEB7;}
	.st42{fill:#00A79D;}
	.st43{fill:#5B4337;}
	.st44{fill:#2E2336;}
	.st45{fill:#33363A;}
	.st46{fill:#939598;}
	.st47{fill:#D1D3D4;}
	.st48{fill:#B21B0F;}
	.st49{fill:#93110A;}
	.st50{fill:#E54B1C;}
	.st51{fill:#DD840E;}
	.st52{fill:#FFCC1F;}
	.st53{fill:#F9A423;}
	.st54{fill:#B2142B;}
	.st55{fill:#FF4545;}
	.st56{fill:#D3243E;}
	.st57{fill:#E8E9EA;}
</style>
<g>
	<g>
		<polygon class="st0" points="938,910.1 861.1,969.3 858.4,967.2 854.2,970.5 865.1,978.8 869.3,975.5 865.9,973 942.9,913.8 		"/>
	</g>
	<g class="st1">
		<g>
			<path class="st2" d="M1316.9,584.2L1194.2,679c-4.5,3.5-4.5,9.2,0,12.7l44.6,35.3c4.4,3.5,11.8,3.6,16.2,0.2L1397,619
				c4.5-3.4,7.8-11.9,7.3-18.8l-3.9-56.9c-0.5-6.9-4.6-15.2-9.2-18.4l-88.7-62.8c-4.6-3.2-12-3-16.4,0.4l-46.5,36
				c-4.5,3.5-4.5,9.1,0,12.6l77.4,60.4C1321.4,575.1,1321.4,580.7,1316.9,584.2z"/>
		</g>
	</g>
	<g class="st1">
		<g>
			<path class="st2" d="M801.1,698.1l330.5-256.5c4.5-3.5,11.8-3.5,16.2,0l28.6,22.3c4.5,3.5,11.8,3.5,16.2,0l44-34.3
				c4.5-3.5,4.4-9.1-0.1-12.5L929.3,186.7c-4.5-3.4-11.9-3.3-16.3,0.1L623.6,408.1c-4.5,3.4-8.1,11.9-8.1,18.8v227.3
				c0,6.9,3.7,15.4,8.1,18.9l341.8,265.5c4.5,3.5,11.8,3.4,16.2,0l185.9-145.6c4.5-3.5,4.4-9.1-0.1-12.5l-45.5-34.3
				c-4.5-3.4-11.8-3.3-16.3,0.1l-122.5,95.1c-4.5,3.5-11.8,3.4-16.2-0.1L801,710.7C796.6,707.2,796.6,701.5,801.1,698.1z"/>
		</g>
	</g>
	<g>
		<g>
			<path class="st3" d="M806,687.9l330.5-256.5c2.6-2.1,6.1-3.2,9.7-3.2c3.7,0,7.1,1.1,9.8,3.2l28.6,22.3c1.6,1.3,4,2,6.5,2
				c2.5,0,4.8-0.7,6.5-2l44-34.3c1.2-0.9,1.7-1.9,1.7-2.4c0-0.5-0.5-1.5-1.7-2.4L934.2,184.2c-1.7-1.2-4.1-2-6.6-2
				c-2.5,0-4.9,0.7-6.6,2L460.5,531.9c-1.2,0.9-1.7,1.9-1.7,2.3c0,0.4,0.5,1.3,1.7,2.3l148.1,109.7c4.5,3.4,11.9,8.9,16.4,12.4
				l348.5,269.9c1.6,1.3,4,2,6.4,2c2.5,0,4.9-0.7,6.5-2l185.9-145.6c1.2-0.9,1.7-1.9,1.7-2.5c0-0.6-0.5-1.6-1.7-2.5l-36.2-27.8
				c-1.6-1.3-4-2-6.5-2c-2.5,0-4.9,0.7-6.5,2l-122.5,95.1c-2.6,2.1-6.1,3.2-9.7,3.2c-3.7,0-7.1-1.1-9.8-3.2L806,708.2
				c-3.2-2.5-5-6.2-5-10.1S802.8,690.4,806,687.9z"/>
		</g>
		<g>
			<polygon class="st4" points="927.7,186.7 927.7,186.7 927.7,186.7 			"/>
			<path class="st4" d="M807.6,691.8l330.5-256.5c2.2-1.7,5.2-2.6,8.1-2.6c2.9,0,5.9,0.9,8.1,2.6l28.6,22.3c2.2,1.7,5.2,2.6,8.1,2.6
				c2.9,0,5.9-0.9,8.1-2.6l44-34.3c4.5-3.5,4.4-9.1-0.1-12.5L935.8,180.4c-2.2-1.7-5.2-2.5-8.2-2.5c-3,0-6,0.9-8.2,2.6L458.9,528.1
				c-4.5,3.4-4.5,8.9,0,12.3L607.1,650c4.5,3.3,11.9,8.9,16.3,12.4l348.5,269.9c2.2,1.7,5.1,2.6,8.1,2.6c3,0,5.9-0.9,8.2-2.6
				L1174,786.6c4.5-3.5,4.4-9.2,0-12.6l-36.2-27.8c-2.2-1.7-5.2-2.6-8.1-2.6c-3,0-5.9,0.9-8.2,2.6L999,841.3
				c-2.2,1.7-5.2,2.6-8.1,2.6c-3,0-5.9-0.9-8.1-2.6L807.6,704.4C803.1,700.9,803.2,695.2,807.6,691.8z M797.7,698.1
				c0,5.6,2.4,10.7,6.6,14l175.2,136.9c3.1,2.5,7.2,3.8,11.4,3.8c4.2,0,8.2-1.3,11.4-3.8l122.5-95.1c1.2-0.9,3-1.4,4.9-1.4
				c1.9,0,3.7,0.5,4.8,1.4l34.4,26.5L984.8,924.6c-1.1,0.9-3,1.4-4.9,1.4c-1.9,0-3.7-0.5-4.8-1.4L626.7,654.8
				c-4.5-3.5-11.9-9.1-16.4-12.5l-146-108.1l458.5-346.1c1.2-0.9,3.1-1.4,5-1.4h0h0h0c1.9,0,3.8,0.5,5,1.4l305.4,229l-42.2,32.9
				c-1.1,0.9-2.9,1.4-4.8,1.4c-1.9,0-3.7-0.5-4.8-1.4l-28.6-22.3c-3.1-2.5-7.2-3.8-11.4-3.8c-4.2,0-8.2,1.3-11.4,3.8L804.3,684.1
				C800.1,687.4,797.7,692.5,797.7,698.1z"/>
		</g>
		<g>
			<path class="st0" d="M809,695l330.5-256.5c1.7-1.3,4.1-2.1,6.7-2.1c2.6,0,5,0.8,6.7,2.1l28.6,22.3c2.6,2,6,3.1,9.5,3.1
				c3.6,0,6.9-1.1,9.5-3.1l44-34.3c3-2.4,4.7-5.8,4.7-9.6c0-3.7-1.8-7.2-4.8-9.5L937.2,177.1c-2.6-1.9-6-3-9.5-3c-3.6,0-7,1.1-9.6,3
				L457.5,524.8c-3.1,2.3-4.8,5.8-4.8,9.5c0,3.7,1.8,7.1,4.9,9.4l148.1,109.7c4.5,3.3,11.8,8.9,16.3,12.3l348.5,269.9
				c2.6,2,5.9,3.1,9.5,3.1c3.6,0,7-1.1,9.6-3.1l185.9-145.6c3-2.4,4.7-5.9,4.7-9.6c0-3.7-1.8-7.2-4.8-9.6l-36.2-27.8
				c-2.6-2-5.9-3.1-9.5-3.1c-3.6,0-7,1.1-9.6,3.1L997.6,838c-1.7,1.3-4.1,2.1-6.7,2.1c-2.6,0-5-0.8-6.7-2.1L809,701.1
				c-1.2-1-1.9-2.1-1.9-3C807.1,697.1,807.8,696,809,695z M806.2,707.7l175.2,136.9c2.6,2,6,3.1,9.6,3.1c3.5,0,6.9-1.1,9.5-3.1
				l122.5-95.1c1.7-1.3,4.2-2.1,6.8-2.1c2.5,0,5,0.8,6.7,2.1l36.2,27.8c1.2,0.9,1.9,2.1,2,3c0,1-0.7,2.1-1.9,3L986.7,928.9
				c-1.7,1.3-4.2,2.1-6.7,2.1c-2.5,0-5-0.8-6.7-2.1L624.8,659.1c-4.5-3.5-11.8-9-16.4-12.4L460.3,537c-1.2-0.9-1.9-2-1.9-2.8
				c0-0.8,0.8-1.9,1.9-2.8l460.6-347.7c1.7-1.3,4.2-2.1,6.8-2.1c2.6,0,5.1,0.7,6.8,2l307.3,230.4c1.2,0.9,2,2,2,2.9s-0.7,2-1.9,3
				l-44,34.3c-1.7,1.3-4.2,2.1-6.7,2.1c-2.5,0-5-0.8-6.7-2.1l-28.6-22.3c-2.6-2-6-3.1-9.5-3.1c-3.6,0-6.9,1.1-9.5,3.1L806.2,688.5
				c-3,2.3-4.8,5.8-4.8,9.6S803.2,705.3,806.2,707.7z"/>
		</g>
	</g>
	<g class="st1">
		<polygon class="st2" points="994.4,402.4 1010.8,389.5 940.5,333.4 912.9,323 889.9,332.1 961.6,389.8 		"/>
	</g>
	<g>
		<g class="st5">
			<ellipse class="st2" cx="1182.4" cy="409.9" rx="23.3" ry="18.5"/>
		</g>
		<g>
			<g>
				<path class="st6" d="M1179.7,361.7c-0.1,1-0.2,2.1-0.2,3.1l0,5.1c0,9.2,5.6,16.6,12.5,16.6c1.8,0,3.5-0.5,5.1-1.5l-1.4-4
					c-1.2,0.7-2.4,1.1-3.8,1.1c-5,0-9.2-5.5-9.2-12.2l0-5.1c0-0.8,0-1.5,0.2-2.3L1179.7,361.7z"/>
			</g>
		</g>
		<g>
			<path class="st7" d="M1198.5,415.9L1198.5,415.9v-58.6h-8.2v58.6v0c0,1.4,1.8,2.6,4.1,2.6
				C1196.7,418.5,1198.5,417.3,1198.5,415.9z"/>
		</g>
		<g>
			<ellipse class="st8" cx="1192.2" cy="331.4" rx="31.8" ry="42.7"/>
		</g>
		<g class="st9">
			<path class="st10" d="M1183.8,290.2c-13.5,4.9-23.4,21.5-23.4,41.2c0,23.6,14.2,42.7,31.8,42.7c6.9,0,13.2-2.9,18.4-7.9
				c-2.7,1-5.5,1.5-8.4,1.5c-17.6,0-31.8-19.1-31.8-42.7C1170.5,310.6,1175.8,297.9,1183.8,290.2z"/>
		</g>
		<g>
			<ellipse class="st8" cx="1210.9" cy="323.3" rx="19.3" ry="26"/>
		</g>
		<g>
			<ellipse class="st8" cx="1188.2" cy="300.7" rx="22.9" ry="30.8"/>
		</g>
		<g>
			<ellipse class="st8" cx="1170.2" cy="321.6" rx="16.2" ry="21.7"/>
		</g>
	</g>
	<g class="st1">
		<polygon class="st2" points="713.2,467.8 705.3,493.7 776.2,550.8 797.2,556.7 818.2,540.1 784.5,525 740.1,490.3 747.5,485 		"/>
	</g>
	<g>
		<g>
			<path class="st3" d="M1331.2,587.6L1208.3,683c-1.2,0.9-1.7,1.9-1.7,2.5c0,0.6,0.5,1.5,1.7,2.5l35.9,27.6c1.7,1.3,4.1,2,6.6,2
				c2.5,0,4.8-0.7,6.5-2l192.9-145.8c1.2-0.9,1.7-1.9,1.7-2.3c0-0.4-0.5-1.3-1.7-2.2l-35.9-26.3c-4.5-3.3-11.9-8.6-16.5-11.9
				l-85.7-60.8c-1.6-1.1-3.9-1.8-6.3-1.8c-2.7,0-5.2,0.8-6.9,2.1l-45,35.1c-1.3,1-1.7,2-1.7,2.5c0,0.5,0.4,1.5,1.7,2.5l77.4,60.5
				c3.2,2.5,5,6.2,5,10.1C1336.1,581.5,1334.3,585.2,1331.2,587.6z"/>
		</g>
		<g>
			<path class="st4" d="M1329.5,583.8l-122.9,95.4c-4.5,3.5-4.5,9.1,0,12.6l35.9,27.6c2.3,1.7,5.2,2.6,8.2,2.6
				c2.9,0,5.9-0.8,8.1-2.5l192.9-145.8c4.5-3.4,4.5-8.9-0.1-12.2l-35.9-26.3c-4.5-3.3-12-8.7-16.5-11.9l-85.7-60.8
				c-2.2-1.5-5-2.3-7.8-2.3c-3.1,0-6.3,0.9-8.6,2.7l-45,35.1c-4.5,3.5-4.5,9.2,0,12.7l77.4,60.5C1334,574.7,1334,580.4,1329.5,583.8
				z M1339.4,577.5c0-5.6-2.4-10.7-6.6-14l-75.7-59.2l43.3-33.8c1.2-1,3.3-1.6,5.3-1.6c1.8,0,3.6,0.5,4.8,1.3l85.7,60.8
				c4.6,3.2,11.9,8.5,16.5,11.9l33.7,24.7l-190.8,144.2c-1.2,0.9-3,1.4-4.9,1.4c-1.9,0-3.8-0.5-5-1.4l-34.1-26.2l121.1-94
				C1337,588.2,1339.4,583.1,1339.4,577.5z"/>
		</g>
		<g>
			<path class="st0" d="M1328.1,580.5l-122.9,95.4c-3,2.3-4.8,5.8-4.8,9.6c0,3.7,1.7,7.2,4.8,9.5l35.9,27.6c2.6,2,6,3.1,9.6,3.1h0
				c3.5,0,6.9-1.1,9.5-3l192.9-145.8c3.1-2.3,4.8-5.8,4.8-9.5c0-3.7-1.8-7.1-4.9-9.4l-35.9-26.3c-4.5-3.3-12-8.7-16.6-11.9
				l-85.7-60.8c-2.5-1.8-5.7-2.7-9.1-2.7c-3.8,0-7.3,1.2-10,3.3l-45,35.1c-3,2.4-4.7,5.8-4.7,9.6c0,3.7,1.7,7.2,4.7,9.6l77.4,60.5
				c1.2,1,1.9,2.1,1.9,3.1C1330.1,578.5,1329.3,579.6,1328.1,580.5z M1330.9,567.9l-77.4-60.5c-1.2-1-1.9-2.1-1.9-3.1
				c0-1,0.7-2.1,1.9-3.1l45-35.1c1.8-1.4,4.4-2.2,7.2-2.2c2.5,0,4.8,0.7,6.5,1.9l85.7,60.8c4.6,3.2,12,8.6,16.5,11.9l35.9,26.3
				c1.4,1,1.9,2.1,1.9,2.8c0,0.6-0.5,1.7-1.9,2.8l-192.9,145.8c-1.7,1.3-4.2,2-6.7,2c-2.6,0-5.1-0.8-6.8-2.1l-35.9-27.6
				c-1.2-0.9-1.9-2.1-1.9-3c0-0.9,0.7-2.1,1.9-3l122.9-95.4c3-2.3,4.8-5.8,4.8-9.6C1335.7,573.8,1334,570.3,1330.9,567.9z"/>
		</g>
	</g>
	<g>
		<g>
			<g>
				<path class="st0" d="M799.9,528.6l18.5,14.4l31.5,24.5L1030,426.7l-31.5-24.5L980,387.9l-36.6-28.4l-18.5-14.4l-31.5-24.5
					L713.3,461.3l31.5,24.5l18.5,14.4L799.9,528.6z M799.9,525l-31.9-24.8l11.7-9.1l31.9,24.8L799.9,525z M943.4,363.1l31.9,24.8
					l-11.7,9.1l-31.9-24.8L943.4,363.1z M924.9,348.7l16.2,12.6l-14,10.9l36.6,28.4l14-10.9l16.2,12.6l-32.1,25.1l-69-53.5
					L924.9,348.7z M944.6,417.6c-11,2.7-23.1,0.4-31.4-6c-8.3-6.4-11.2-15.8-7.8-24.4L944.6,417.6z M893.4,324.3l29.2,22.7
					l-34.4,26.9l14.6,11.3c-4.6,9.8-1.4,20.8,8.1,28.2c9.6,7.4,23.7,9.8,36.3,6.2l14.6,11.3l34.4-26.9l29.2,22.7l-86.6,67.6L901,465
					c14.3-12.1,13.9-31.1-1.3-42.9c-15.2-11.8-39.6-12.1-55.1-0.9l-37.8-29.3L893.4,324.3z M868.1,446.8c1.5,1.2,3.7,1.4,5.5,0.6
					l22.7,17.6c-14.3,10.2-36.6,9.9-50.5-0.9c-13.9-10.8-14.3-28.2-1.3-39.3l22.7,17.6C866.4,443.8,866.7,445.6,868.1,446.8z
					 M875.8,445.5c0.6-1.3,0.3-2.8-1.1-3.8c-1.3-1-3.3-1.3-4.9-0.8L846.9,423c14.3-10.2,36.6-9.9,50.5,0.9
					c13.9,10.8,14.3,28.2,1.3,39.3L875.8,445.5z M717.9,461.3l86.6-67.6l37.8,29.3c-14.3,12.1-13.9,31.1,1.3,42.9
					c15.2,11.8,39.5,12.1,55.1,0.9l37.8,29.3l-86.6,67.6l-29.2-22.7l34.4-26.9l-14.6-11.3c4.6-9.8,1.4-20.8-8.1-28.2
					c-9.6-7.4-23.7-9.8-36.3-6.2l-14.6-11.3L747.1,484L717.9,461.3z M837.9,500.9l-39.2-30.4c11-2.7,23.1-0.4,31.4,6
					C838.4,482.9,841.3,492.3,837.9,500.9z M781.6,460.7l11.3,8.8l46.4,36l11.3,8.8l-32.1,25.1l-16.2-12.6l14-10.9l-36.6-28.4
					l-14,10.9l-16.2-12.6L781.6,460.7z"/>
			</g>
			<g>
				<g>
					<path class="st0" d="M809.4,497.8c1.8-1.4,1.8-3.7,0-5.1c-1.8-1.4-4.8-1.4-6.6,0c-1.8,1.4-1.8,3.7,0,5.1
						C804.6,499.2,807.6,499.2,809.4,497.8z"/>
				</g>
			</g>
			<g>
				<g>
					<path class="st0" d="M940.5,395.4c1.8-1.4,1.8-3.7,0-5.1c-1.8-1.4-4.8-1.4-6.6,0c-1.8,1.4-1.8,3.7,0,5.1
						C935.7,396.8,938.7,396.8,940.5,395.4z"/>
				</g>
			</g>
		</g>
		<g>
			<g class="st11">
				<g>
					<path class="st12" d="M705.9,572.6c30.7,23.8,69.8,37.7,110,39c2.1,0.1,4.2,0.1,6.3,0.1c39.1,0,76.4-12.2,104.8-34.4
						l108.7-84.9c30.6-23.9,46.4-55.6,44.5-89c-1.9-32.3-20.2-63.5-51.7-87.9c-30.7-23.8-69.8-37.7-110-39c-2.1-0.1-4.2-0.1-6.3-0.1
						c-39.1,0-76.4,12.2-104.8,34.4l-108.7,84.9c-30.6,23.9-46.4,55.6-44.5,89C656.1,517,674.4,548.2,705.9,572.6z M722.5,418.5
						l108.7-84.9c21.9-17.1,50.8-26.5,81.2-26.5c33.7,0,66.6,11.2,92.9,31.6c25.6,19.8,39.6,44.6,39.7,69.8
						c0,22.7-11.7,44.4-33.1,61.1l-108.7,84.9c-21.9,17.1-50.8,26.5-81.2,26.5c-33.7,0-66.7-11.2-92.9-31.6
						c-25.6-19.8-39.6-44.6-39.7-69.8C689.3,456.9,701.1,435.2,722.5,418.5z"/>
					<path class="st0" d="M705.2,574.2c30.9,24,70.2,37.9,110.7,39.2c2.1,0.1,4.2,0.1,6.3,0.1c39.4,0,76.9-12.3,105.5-34.7
						l108.7-84.9c31.1-24.3,47.2-56.6,45.2-90.8c-1.9-32.9-20.5-64.6-52.4-89.4c-30.9-24-70.2-37.9-110.7-39.2
						c-2.1-0.1-4.2-0.1-6.3-0.1c-39.4,0-76.9,12.3-105.5,34.7l-108.7,84.9c-31.1,24.3-47.2,56.6-45.2,90.8
						C654.7,517.8,673.3,549.5,705.2,574.2z M699.4,397.3L808,312.4c28.2-22,65.2-34.2,104.1-34.2c2.1,0,4.2,0,6.3,0.1
						c40,1.3,78.8,15.1,109.3,38.7c31,24.1,49.1,54.8,51,86.4c1.9,32.7-13.6,63.7-43.8,87.3l-108.7,84.9
						c-28.2,22-65.2,34.2-104.1,34.2c-2.1,0-4.2,0-6.3-0.1c-40-1.3-78.9-15.1-109.3-38.7c-31-24.1-49.1-54.8-51-86.4
						C653.7,451.9,669.2,420.9,699.4,397.3z"/>
					<path class="st0" d="M728.3,551c26.5,20.5,59.7,31.8,93.6,31.8c30.7,0,59.8-9.5,81.9-26.8l108.7-84.9
						c21.8-17.1,33.8-39.3,33.8-62.7c0-25.9-14.4-51.2-40.4-71.4c-26.5-20.5-59.7-31.9-93.6-31.8c-30.7,0-59.8,9.5-81.9,26.8
						l-108.7,84.9c-21.8,17.1-33.9,39.3-33.8,62.7C688,505.5,702.3,530.8,728.3,551z M723.2,420.2l108.7-84.9
						c21.7-17,50.3-26.3,80.5-26.3v-1.9v1.9c33.4,0,66.2,11.1,92.2,31.3c25.1,19.5,38.9,43.7,39,68.1c0,22-11.5,43.1-32.4,59.4
						l-108.7,84.9c-21.7,17-50.3,26.3-80.5,26.3c-33.4,0-66.2-11.1-92.2-31.3c-25.1-19.5-38.9-43.7-39-68.1
						C690.7,457.6,702.2,436.5,723.2,420.2z"/>
				</g>
			</g>
		</g>
		<g>
			<g>
				<path class="st13" d="M705.9,572.6c30.7,23.8,69.8,37.7,110,39c2.1,0.1,4.2,0.1,6.3,0.1c39.1,0,76.4-12.2,104.8-34.4l108.7-84.9
					c30.6-23.9,46.4-55.6,44.5-89c-1.9-32.3-20.2-63.5-51.7-87.9c-30.7-23.8-69.8-37.7-110-39c-2.1-0.1-4.2-0.1-6.3-0.1
					c-39.1,0-76.4,12.2-104.8,34.4l-108.7,84.9c-30.6,23.9-46.4,55.6-44.5,89C656.1,517,674.4,548.2,705.9,572.6z"/>
				<path class="st13" d="M713.6,564.9c29.2,22.7,66.2,35.6,104.3,36.5c2,0,4,0.1,6.1,0c32.5-0.4,63.4-9.8,88.1-26.8
					c2.4-1.6,7.8-5.6,10-7.4l102.7-80.3c2.6-2.1,8-6.4,10.3-8.6c22.7-20.6,34.5-46.3,33.3-73.3c-1.3-29.9-18.2-59-47.7-81.8
					c-28.8-22.3-65.1-35.2-102.6-36.5c-2-0.1-4-0.1-6-0.1c-36.3,0-70.7,11.3-96.9,31.8l-104.3,81.5c-3.5,2.7-11.1,9-14,12.1
					c-21.2,20.1-32.1,45-31,71C667.2,512.9,684.1,542,713.6,564.9z"/>
				<path class="st13" d="M721.3,557.1c27.7,21.5,62.7,33.6,98.6,34.1c1.9,0,3.9,0,5.8,0c30.4-0.7,59.2-10.1,81.9-26.6
					c1.2-0.8,8.5-6.4,9.6-7.3l96.8-75.6c1.3-1,8.3-6.6,9.4-7.7c22-18.6,33.8-42.4,33.2-67.2c-0.6-27.5-16.2-54.5-43.7-75.8
					c-26.8-20.8-60.5-32.8-95.1-34c-1.9-0.1-3.7-0.1-5.6-0.1c-33.4,0-65,10.4-89.1,29.2l-100,78.2c-1.8,1.4-12,9.6-13.5,11.1
					c-21.3,18.4-32.6,41.7-32.1,66.1C678.3,508.8,693.8,535.8,721.3,557.1z"/>
				<path class="st13" d="M821.9,581c30.5,0,59.3-9.4,81.2-26.5l108.7-84.9c21.4-16.7,33.1-38.4,33.1-61.1
					c0-25.2-14.1-49.9-39.7-69.8c-26.3-20.4-59.2-31.6-92.9-31.6c-30.5,0-59.3,9.4-81.2,26.5l-108.7,84.9
					c-21.4,16.7-33.2,38.4-33.1,61.1c0,25.2,14.1,49.9,39.7,69.8C755.3,569.7,788.3,581,821.9,581z"/>
			</g>
		</g>
	</g>
	<g>
		<g>
			<g>
				<g class="st14">
					<polygon class="st2" points="969.8,763.5 982,763.9 1189.7,598.7 1099.7,535.7 1075.8,450.6 804.9,658.6 872.6,720.8 
						965.6,767 					"/>
				</g>
				<g>
					<g>
						<g class="st11">
							<g>
								<g>
									<polygon class="st15" points="988.2,772.3 875.7,683.8 875.7,699.1 988.2,787.7 									"/>
								</g>
							</g>
							<g>
								<g>
									<polygon class="st16" points="1252.2,567.4 1139.7,478.9 875.7,683.8 988.2,772.3 									"/>
								</g>
							</g>
							<g>
								<g>
									<polygon class="st17" points="1252.2,567.4 988.2,772.3 988.2,787.7 1252.2,582.8 									"/>
								</g>
							</g>
						</g>
					</g>
					<g class="st5">
						<polygon class="st18" points="987.3,755.7 892.9,670.4 875.7,683.8 954.1,745.7 						"/>
					</g>
					<g>
						<g class="st11">
							<g>
								<g>
									<polygon class="st19" points="1235.7,464.7 1139.9,389.8 1085.2,432.3 1181.1,507.2 									"/>
								</g>
							</g>
							<g>
								<g>
									<polygon class="st20" points="1042.5,574.3 946.6,499.4 946.7,539.8 1042.5,614.7 									"/>
								</g>
							</g>
							<g>
								<g>
									<polygon class="st19" points="1085.1,391.9 946.6,499.4 1042.5,574.3 1181,466.8 									"/>
								</g>
							</g>
							<g>
								<g>
									<polygon class="st19" points="1042.5,614.7 946.7,539.8 892,582.2 987.9,657.1 									"/>
								</g>
							</g>
							<g>
								<g>
									<polygon class="st20" points="987.9,657.1 892,582.2 892.2,681.5 988.1,756.4 									"/>
								</g>
							</g>
							<g>
								<g>
									<polygon class="st21" points="988.1,756.4 1042.7,713.9 1119.1,654.7 1118.2,620.2 1143.2,636 1181.3,606.4 1235.9,564 
										1235.7,464.7 1181.1,507.2 1181,466.8 1042.5,574.3 1042.5,614.7 987.9,657.1 									"/>
								</g>
							</g>
						</g>
						<g>
							<polygon class="st20" points="1140.9,589.5 1120.4,589.5 1120.4,620.8 1143.2,636 1143.1,616.2 							"/>
						</g>
					</g>
					<g>
						<g class="st11">
							<g>
								<g>
									<polygon class="st22" points="1048.8,558.2 952.9,483.3 952.9,494.8 1048.8,569.7 									"/>
								</g>
							</g>
							<g>
								<g>
									<polygon class="st23" points="1078.2,386 952.9,483.3 1048.8,558.2 1174.1,460.9 									"/>
								</g>
							</g>
							<g>
								<g>
									<polygon class="st24" points="1174.1,460.9 1048.8,558.2 1048.8,569.7 1174.1,472.1 									"/>
								</g>
							</g>
						</g>
					</g>
					<g>
						<g class="st11">
							<g>
								<g>
									<polygon class="st23" points="946.7,528.7 892,571.1 898.2,576.1 952.9,533.7 									"/>
								</g>
							</g>
							<g>
								<g>
									<polygon class="st25" points="952.9,533.7 898.2,576.1 898.3,587.6 952.9,545.2 									"/>
								</g>
							</g>
						</g>
					</g>
					<g>
						<g class="st11">
							<g>
								<g>
									<polygon class="st20" points="1068,520.1 972.1,445.2 972.2,468.6 1068,543.5 									"/>
								</g>
							</g>
							<g>
								<g>
									<polygon class="st19" points="1058.7,378 972.1,445.2 1068,520.1 1154.5,452.9 									"/>
								</g>
							</g>
							<g>
								<g>
									<polygon class="st21" points="1154.5,452.9 1068,520.1 1068,543.5 1154.6,476.3 									"/>
								</g>
							</g>
						</g>
					</g>
					<g>
						<g class="st11">
							<g class="st9">
								<g class="st14">
									<path class="st2" d="M1111.3,507.3c6.2-4.8,11.1-16.4,11.1-25.9c0-9.5-5.5-14.1-11.6-9.3c-4.8,3.7-19.7,15.5-19.7,15.5
										l9.3,7.1c0,0-0.3,2.8-0.3,4C1100.1,508.2,1105.1,512,1111.3,507.3z"/>
								</g>
							</g>
						</g>
					</g>
					<g>
						<g>
							<g>
								<polygon class="st0" points="1057.5,623.3 1061,620.6 1071.5,612.5 1072.7,611.5 1072.7,609.7 1072.6,580.8 1072.6,575.4 
									1069.1,578.1 1058.6,586.2 1057.4,587.2 1057.4,589 1057.5,617.9 								"/>
							</g>
							<g>
								<polygon class="st0" points="1077.5,607.9 1081,605.2 1091.5,597.1 1092.7,596.1 1092.7,594.3 1092.6,565.4 1092.6,560 
									1089.1,562.7 1078.6,570.8 1077.4,571.8 1077.4,573.6 1077.5,602.5 								"/>
							</g>
							<g>
								<polygon class="st0" points="1097.7,592.7 1101.3,590 1111.7,581.8 1112.9,580.9 1112.9,579.1 1112.9,550.2 1112.9,544.7 
									1109.3,547.5 1098.8,555.6 1097.6,556.5 1097.7,558.4 1097.7,587.2 								"/>
							</g>
							<g>
								<polygon class="st0" points="1117.8,577.3 1121.3,574.6 1131.8,566.4 1133,565.5 1133,563.7 1132.9,534.8 1132.9,529.3 
									1129.4,532.1 1118.9,540.2 1117.7,541.1 1117.7,543 1117.7,571.8 								"/>
							</g>
							<g>
								<polygon class="st0" points="1135.9,562.4 1139.4,559.7 1149.9,551.5 1151.1,550.6 1151.1,548.8 1151.1,519.9 1151,514.4 
									1147.5,517.2 1137,525.3 1135.8,526.2 1135.8,528.1 1135.9,556.9 								"/>
							</g>
							<g>
								<polygon class="st0" points="1155.9,547 1159.5,544.3 1170,536.1 1171.2,535.2 1171.1,533.4 1171.1,504.5 1171.1,499 
									1167.5,501.8 1157,509.9 1155.9,510.8 1155.9,512.7 1155.9,541.5 								"/>
							</g>
							<g>
								<polygon class="st0" points="999.1,727.2 1002.6,724.5 1013.1,716.4 1014.3,715.4 1014.3,713.6 1014.2,684.7 1014.2,679.3 
									1010.7,682 1000.2,690.1 999,691.1 999,692.9 999.1,721.8 								"/>
							</g>
							<g>
								<polygon class="st0" points="1019.3,712 1022.8,709.3 1033.3,701.1 1034.5,700.2 1034.5,698.4 1034.4,669.5 1034.4,664 
									1030.9,666.8 1020.4,674.9 1019.2,675.8 1019.2,677.7 1019.3,706.5 								"/>
							</g>
							<g>
								<polygon class="st0" points="1039.3,696.6 1042.8,693.9 1053.3,685.7 1054.5,684.8 1054.5,683 1054.5,654.1 1054.4,648.6 
									1050.9,651.4 1040.4,659.5 1039.2,660.4 1039.2,662.3 1039.3,691.1 								"/>
							</g>
							<g>
								<polygon class="st0" points="1057.5,681.7 1061,679 1071.5,670.8 1072.7,669.9 1072.7,668.1 1072.6,639.2 1072.6,633.7 
									1069.1,636.5 1058.6,644.6 1057.4,645.5 1057.4,647.4 1057.5,676.3 								"/>
							</g>
							<g>
								<polygon class="st0" points="1155.7,607.3 1159.2,604.6 1169.7,596.4 1170.9,595.5 1170.9,593.7 1170.8,564.8 1170.8,559.3 
									1167.3,562.1 1156.8,570.2 1155.6,571.1 1155.6,573 1155.6,601.8 								"/>
							</g>
							<g>
								<polygon class="st0" points="1175.7,591.9 1179.2,589.2 1189.7,581 1190.9,580.1 1190.9,578.3 1190.8,549.4 1190.8,543.9 
									1187.3,546.6 1176.8,554.8 1175.6,555.7 1175.6,557.5 1175.7,586.4 								"/>
							</g>
							<g>
								<polygon class="st26" points="1193.8,577 1197.4,574.3 1207.9,566.1 1209.1,565.2 1209,563.4 1209,534.5 1209,529 
									1205.4,531.8 1195,539.9 1193.8,540.8 1193.8,542.7 1193.8,571.5 								"/>
							</g>
							<g>
								<polygon class="st26" points="1213.9,561.6 1217.4,558.9 1227.9,550.7 1229.1,549.8 1229.1,548 1229,519.1 1229,513.6 
									1225.5,516.4 1215,524.5 1213.8,525.4 1213.8,527.3 1213.9,556.1 								"/>
							</g>
						</g>
						<g>
							<g class="st11">
								<g>
									<g>
										<g>
											<polygon class="st27" points="1071.4,573.9 1058.6,583.8 1058.7,616.4 1071.5,606.4 											"/>
										</g>
										<g>
											<path class="st28" d="M1057.5,619.1l3.5-2.7l10.5-8.1l1.2-0.9l0-1.8l-0.1-28.9l0-5.5l-3.5,2.7l-10.5,8.1l-1.2,0.9l0,1.8
												l0.1,28.9L1057.5,619.1z M1070.3,576.6l0.1,28.9l-10.5,8.1l-0.1-28.9L1070.3,576.6z"/>
										</g>
									</g>
								</g>
							</g>
						</g>
						<g>
							<g class="st11">
								<g>
									<g>
										<g>
											<polygon class="st27" points="1091.5,558.5 1078.6,568.4 1078.7,601 1091.5,591 											"/>
										</g>
										<g>
											<path class="st28" d="M1077.5,603.7l3.5-2.7l10.5-8.1l1.2-0.9l0-1.8l-0.1-28.9l0-5.5l-3.5,2.7l-10.5,8.1l-1.2,0.9l0,1.8
												l0.1,28.9L1077.5,603.7z M1090.3,561.2l0.1,28.9l-10.5,8.1l-0.1-28.9L1090.3,561.2z"/>
										</g>
									</g>
								</g>
							</g>
						</g>
						<g>
							<g class="st11">
								<g>
									<g>
										<g>
											<polygon class="st27" points="1111.7,543.2 1098.8,553.2 1098.9,585.7 1111.7,575.8 											"/>
										</g>
										<g>
											<path class="st28" d="M1097.7,588.5l3.5-2.7l10.5-8.1l1.2-0.9l0-1.8l-0.1-28.9l0-5.5l-3.5,2.7l-10.5,8.1l-1.2,0.9l0,1.8
												l0.1,28.9L1097.7,588.5z M1110.5,546l0.1,28.9l-10.5,8.1l-0.1-28.9L1110.5,546z"/>
										</g>
									</g>
								</g>
							</g>
						</g>
						<g>
							<g class="st11">
								<g>
									<g>
										<g>
											<polygon class="st27" points="1131.7,527.8 1118.9,537.8 1118.9,570.3 1131.8,560.4 											"/>
										</g>
										<g>
											<path class="st28" d="M1117.8,573.1l3.5-2.7l10.5-8.1l1.2-0.9l0-1.8l-0.1-28.9l0-5.5l-3.5,2.7l-10.5,8.1l-1.2,0.9l0,1.8
												l0.1,28.9L1117.8,573.1z M1130.5,530.6l0.1,28.9l-10.5,8.1l-0.1-28.9L1130.5,530.6z"/>
										</g>
									</g>
								</g>
							</g>
						</g>
						<g>
							<g class="st11">
								<g>
									<g>
										<g>
											<polygon class="st27" points="1149.9,512.9 1137,522.9 1137.1,555.4 1149.9,545.5 											"/>
										</g>
										<g>
											<path class="st28" d="M1135.9,558.2l3.5-2.7l10.5-8.1l1.2-0.9l0-1.8l-0.1-28.9l0-5.5l-3.5,2.7l-10.5,8.1l-1.2,0.9l0,1.8
												l0.1,28.9L1135.9,558.2z M1148.7,515.7l0.1,28.9l-10.5,8.1l-0.1-28.9L1148.7,515.7z"/>
										</g>
									</g>
								</g>
							</g>
						</g>
						<g>
							<g class="st11">
								<g>
									<g>
										<g>
											<polygon class="st27" points="1169.9,497.5 1157,507.5 1157.1,540 1170,530.1 											"/>
										</g>
										<g>
											<path class="st28" d="M1155.9,542.8l3.5-2.7l10.5-8.1l1.2-0.9l0-1.8l-0.1-28.9l0-5.5l-3.5,2.7l-10.5,8.1l-1.2,0.9l0,1.8
												l0.1,28.9L1155.9,542.8z M1168.7,500.3l0.1,28.9l-10.5,8.1l-0.1-28.9L1168.7,500.3z"/>
										</g>
									</g>
								</g>
							</g>
						</g>
					</g>
					<g>
						<g>
							<g class="st11">
								<g>
									<g>
										<g>
											<polygon class="st27" points="1013,677.8 1000.2,687.7 1000.2,720.3 1013.1,710.3 											"/>
										</g>
										<g>
											<path class="st28" d="M999.1,723l3.5-2.7l10.5-8.1l1.2-0.9l0-1.8l-0.1-28.9l0-5.5l-3.5,2.7l-10.5,8.1l-1.2,0.9l0,1.8
												l0.1,28.9L999.1,723z M1011.8,680.5l0.1,28.9l-10.5,8.1l-0.1-28.9L1011.8,680.5z"/>
										</g>
									</g>
								</g>
							</g>
						</g>
						<g>
							<g class="st11">
								<g>
									<g>
										<g>
											<polygon class="st27" points="1033.2,662.5 1020.4,672.5 1020.5,705 1033.3,695.1 											"/>
										</g>
										<g>
											<path class="st28" d="M1019.3,707.8l3.5-2.7l10.5-8.1l1.2-0.9l0-1.8l-0.1-28.9l0-5.5l-3.5,2.7l-10.5,8.1l-1.2,0.9l0,1.8
												l0.1,28.9L1019.3,707.8z M1032.1,665.3l0.1,28.9l-10.5,8.1l-0.1-28.9L1032.1,665.3z"/>
										</g>
									</g>
								</g>
							</g>
						</g>
						<g>
							<g class="st11">
								<g>
									<g>
										<g>
											<polygon class="st27" points="1053.3,647.1 1040.4,657.1 1040.5,689.6 1053.3,679.7 											"/>
										</g>
										<g>
											<path class="st28" d="M1039.3,692.4l3.5-2.7l10.5-8.1l1.2-0.9l0-1.8l-0.1-28.9l0-5.5l-3.5,2.7l-10.5,8.1l-1.2,0.9l0,1.8
												l0.1,28.9L1039.3,692.4z M1052.1,649.9l0.1,28.9l-10.5,8.1l-0.1-28.9L1052.1,649.9z"/>
										</g>
									</g>
								</g>
							</g>
						</g>
						<g>
							<g class="st11">
								<g>
									<g>
										<g>
											<polygon class="st27" points="1071.4,632.3 1058.6,642.2 1058.7,674.8 1071.5,664.8 											"/>
										</g>
										<g>
											<path class="st28" d="M1057.5,677.5l3.5-2.7l10.5-8.1l1.2-0.9l0-1.8l-0.1-28.9l0-5.5l-3.5,2.7l-10.5,8.1l-1.2,0.9l0,1.8
												l0.1,28.9L1057.5,677.5z M1070.3,635l0.1,28.9l-10.5,8.1l-0.1-28.9L1070.3,635z"/>
										</g>
									</g>
								</g>
							</g>
						</g>
					</g>
					<g>
						<g>
							<g class="st11">
								<g>
									<g>
										<g>
											<polygon class="st29" points="961.7,671.5 961.7,703.2 974,712.8 974.1,681.1 											"/>
										</g>
										<g>
											<path class="st30" d="M975,715l0-4.4l0.1-28.9l0-1.5l-0.9-0.7l-10.5-8.1l-2.8-2.2l0,4.4l-0.1,28.9l0,1.5l0.9,0.7
												l10.5,8.1L975,715z M962.7,673.6l10.5,8.1l-0.1,28.9l-10.5-8.1L962.7,673.6z"/>
										</g>
									</g>
								</g>
							</g>
						</g>
						<g>
							<g class="st11">
								<g>
									<g>
										<g>
											<polygon class="st29" points="941.7,656.1 941.7,687.8 954,697.4 954.1,665.7 											"/>
										</g>
										<g>
											<path class="st30" d="M954.9,699.6l0-4.4l0.1-28.9l0-1.5l-0.9-0.7l-10.5-8.1l-2.8-2.2v4.4v28.9v1.5l0.9,0.7l10.4,8.1
												L954.9,699.6z M942.6,658.2l10.5,8.1l-0.1,28.9l-10.4-8.1V658.2z"/>
										</g>
									</g>
								</g>
							</g>
						</g>
						<g>
							<g class="st11">
								<g>
									<g>
										<g>
											<polygon class="st29" points="923.5,641.2 923.5,673 935.8,682.6 935.9,650.8 											"/>
										</g>
										<g>
											<path class="st30" d="M936.8,684.7l0-4.4l0.1-28.9l0-1.5l-0.9-0.7l-10.5-8.1l-2.8-2.2l0,4.4l-0.1,28.9l0,1.5l0.9,0.7
												l10.5,8.1L936.8,684.7z M924.5,643.4l10.5,8.1l-0.1,28.9l-10.5-8.1L924.5,643.4z"/>
										</g>
									</g>
								</g>
							</g>
						</g>
						<g>
							<g class="st11">
								<g>
									<g>
										<g>
											<polygon class="st29" points="903.5,625.8 903.4,657.5 915.8,667.1 915.9,635.4 											"/>
										</g>
										<g>
											<path class="st30" d="M916.7,669.3l0-4.4l0.1-28.9l0-1.5l-0.9-0.7l-10.5-8.1l-2.8-2.2l0,4.4l-0.1,28.9l0,1.5l0.9,0.7
												l10.5,8.1L916.7,669.3z M904.4,628l10.5,8.1l-0.1,28.9l-10.5-8.1L904.4,628z"/>
										</g>
									</g>
								</g>
							</g>
						</g>
					</g>
					<g>
						<g>
							<g class="st11">
								<g>
									<g>
										<g>
											<polygon class="st27" points="1169.6,557.8 1156.8,567.8 1156.8,600.3 1169.7,590.4 											"/>
										</g>
										<g>
											<path class="st28" d="M1155.7,603.1l3.5-2.7l10.5-8.1l1.2-0.9l0-1.8l-0.1-28.9l0-5.5l-3.5,2.7l-10.5,8.1l-1.2,0.9l0,1.8
												l0.1,28.9L1155.7,603.1z M1168.4,560.6l0.1,28.9l-10.5,8.1l-0.1-28.9L1168.4,560.6z"/>
										</g>
									</g>
								</g>
							</g>
						</g>
						<g>
							<g class="st11">
								<g>
									<g>
										<g>
											<polygon class="st27" points="1189.6,542.4 1176.8,552.4 1176.9,584.9 1189.7,574.9 											"/>
										</g>
										<g>
											<path class="st28" d="M1175.7,587.7l3.5-2.7l10.5-8.1l1.2-0.9l0-1.8l-0.1-28.9l0-5.5l-3.5,2.7l-10.5,8.1l-1.2,0.9l0,1.8
												l0.1,28.9L1175.7,587.7z M1188.5,545.2l0.1,28.9l-10.5,8.1l-0.1-28.9L1188.5,545.2z"/>
										</g>
									</g>
								</g>
							</g>
						</g>
						<g>
							<g class="st11">
								<g>
									<g>
										<g>
											<polygon class="st27" points="1207.8,527.5 1195,537.5 1195,570 1207.9,560.1 											"/>
										</g>
										<g>
											<path class="st28" d="M1193.8,572.8l3.5-2.7l10.5-8.1l1.2-0.9l0-1.8l-0.1-28.9l0-5.5l-3.5,2.7l-10.5,8.1l-1.2,0.9l0,1.8
												l0.1,28.9L1193.8,572.8z M1206.6,530.3l0.1,28.9l-10.5,8.1l-0.1-28.9L1206.6,530.3z"/>
										</g>
									</g>
								</g>
							</g>
						</g>
						<g>
							<g class="st11">
								<g>
									<g>
										<g>
											<polygon class="st27" points="1227.8,512.1 1215,522.1 1215,554.6 1227.9,544.7 											"/>
										</g>
										<g>
											<path class="st28" d="M1213.9,557.4l3.5-2.7l10.5-8.1l1.2-0.9l0-1.8l-0.1-28.9l0-5.5l-3.5,2.7l-10.5,8.1l-1.2,0.9l0,1.8
												l0.1,28.9L1213.9,557.4z M1226.7,514.9l0.1,28.9l-10.5,8.1l-0.1-28.9L1226.7,514.9z"/>
										</g>
									</g>
								</g>
							</g>
						</g>
					</g>
					<g>
						<g class="st11">
							<g>
								<g>
									<polygon class="st31" points="987.9,645.6 987.9,657.1 994.1,652.2 994.1,640.6 									"/>
								</g>
							</g>
							<g>
								<g>
									<polygon class="st23" points="994.1,640.6 904.5,571.1 898.3,576.1 987.9,645.6 									"/>
								</g>
							</g>
						</g>
					</g>
					<g>
						<g class="st11">
							<g>
								<g>
									<polygon class="st22" points="898.2,576.1 892,571.1 892,582.7 898.3,587.6 									"/>
								</g>
								<g>
									<polygon class="st32" points="898.3,587.6 987.9,657.1 987.9,645.6 985.8,644 981.6,640.6 981.6,640.7 898.3,576.1 
																			"/>
								</g>
							</g>
							<g>
								<g>
									<polygon class="st23" points="1036.3,598.2 981.6,640.6 987.8,645.6 1042.5,603.2 									"/>
								</g>
							</g>
							<g>
								<g>
									<polygon class="st25" points="1042.5,603.2 987.8,645.6 987.9,657.1 1042.5,614.7 									"/>
								</g>
							</g>
						</g>
					</g>
					<g>
						<g class="st11">
							<g>
								<g>
									<polygon class="st23" points="1139.9,378.6 1104.2,406.3 1110.5,411.3 1146.1,383.6 									"/>
								</g>
							</g>
							<g>
								<g>
									<polygon class="st25" points="1146.1,383.6 1110.5,411.3 1118,417 1146.1,395.1 									"/>
								</g>
							</g>
						</g>
					</g>
					<g>
						<g class="st11">
							<g>
								<g>
									<polygon class="st31" points="1229.4,458.1 1229.4,469.6 1235.6,464.7 1235.6,453.1 									"/>
								</g>
							</g>
							<g>
								<g>
									<polygon class="st32" points="1229.4,458.1 1139.8,388.5 1139.8,400.1 1229.4,469.6 									"/>
								</g>
							</g>
							<g>
								<g>
									<polygon class="st23" points="1235.6,453.1 1146,383.6 1139.5,388.3 1229.4,458.1 									"/>
								</g>
							</g>
						</g>
					</g>
					<g>
						<g class="st11">
							<g>
								<g>
									<polygon class="st23" points="1181.1,485.7 1181,495.5 1235.7,453.1 1229.5,448.1 									"/>
								</g>
							</g>
							<g>
								<g>
									<polygon class="st25" points="1235.7,453.1 1181,495.5 1181.1,507.1 1235.7,464.7 									"/>
								</g>
							</g>
						</g>
					</g>
					<g>
						<g class="st11">
							<g>
								<g>
									<polygon class="st33" points="1142.1,576.9 1137,580.5 1142.1,584.5 1147.2,581 									"/>
								</g>
							</g>
							<g>
								<g>
									<polygon class="st31" points="1142.1,584.5 1137,580.5 1137.1,642.4 1142.3,646.4 									"/>
								</g>
							</g>
							<g>
								<g>
									<polygon class="st26" points="1147.2,581 1142.1,584.5 1142.3,646.4 1147.4,642.9 									"/>
								</g>
							</g>
						</g>
					</g>
					<g>
						<g class="st11">
							<g class="st34">
								<g class="st34">
									<polygon class="st2" points="1121.2,596.9 1121.2,648.4 1139.7,644.5 1139.6,582.6 									"/>
								</g>
							</g>
							<g>
								<g>
									<polygon class="st35" points="1134.4,578.4 1116,592.7 1121.1,596.7 1139.5,582.4 									"/>
								</g>
							</g>
							<g>
								<g>
									<polygon class="st35" points="1116,592.7 1097.8,606.9 1102.9,610.9 1121.1,596.7 									"/>
								</g>
							</g>
							<g>
								<g>
									<polygon class="st36" points="1102.9,610.9 1097.8,606.9 1097.9,668.8 1103,672.8 									"/>
								</g>
							</g>
							<g>
								<g>
									<g>
										<polygon class="st27" points="1119.9,599.5 1104.1,611.8 1104.2,670 1119.9,657.6 										"/>
									</g>
									<g>
										<path class="st28" d="M1121.1,596.7l-18.2,14.1l0.1,61.9l18.1-14.3V596.7z M1118.7,656.7l-13.4,10.6l-0.1-54.5l13.5-10.5
											V656.7z"/>
									</g>
								</g>
							</g>
						</g>
					</g>
					<g>
						<g class="st11">
							<g>
								<g>
									<polygon class="st33" points="1099.6,608.2 1094.4,611.8 1099.6,615.8 1104.7,612.2 									"/>
								</g>
							</g>
							<g>
								<g>
									<polygon class="st37" points="1094.6,611.8 1094.6,673.7 1099.6,677.7 1099.6,615.8 									"/>
								</g>
							</g>
							<g>
								<g>
									<polygon class="st26" points="1099.6,615.8 1099.6,677.7 1104.8,674.2 1104.8,612.2 									"/>
								</g>
							</g>
						</g>
					</g>
					<g>
						<g class="st11">
							<g>
								<g>
									<polygon class="st23" points="1139.9,573.6 1114.9,579.4 1125.8,587.6 1150.8,581.7 									"/>
								</g>
							</g>
							<g>
								<g>
									<polygon class="st22" points="1114.9,579.4 1089,613.1 1099.9,621.2 1125.8,587.6 									"/>
								</g>
							</g>
							<g>
								<g>
									<polygon class="st26" points="1099.9,621.2 1150.8,581.7 1125.8,589.7 									"/>
								</g>
							</g>
						</g>
					</g>
				</g>
				<g class="st14">
					<polygon class="st2" points="946.7,528.7 921.8,547.7 933,549.2 933,560.1 1026.1,606.3 1030.3,602.7 1042.5,603.2 
						952.9,534.6 952.9,533.7 					"/>
				</g>
				<g class="st14">
					<polygon class="st2" points="972.1,468.6 952.9,483.3 1007.2,525.5 1068.1,543.4 					"/>
				</g>
				<g class="st14">
					<polygon class="st2" points="1089,613.1 1089,678.2 1099.6,677.7 1099.6,620.9 					"/>
				</g>
			</g>
			<g>
				<polygon class="st24" points="1143,587.8 1150.8,581.7 1125.8,587.6 1099.9,621.2 1108,615 1125.8,591.8 				"/>
			</g>
		</g>
	</g>
	<g>
		<g>
			<polygon class="st38" points="1058.6,392.6 990.8,445.2 1068,505.5 1135.8,452.9 			"/>
		</g>
		<g>
			<polygon class="st21" points="1058.8,392.2 990.8,445.2 998,450.6 1058.8,403.3 			"/>
		</g>
	</g>
	<g class="st14">
		<polygon class="st2" points="1223.1,453.4 1140,388.8 1134.1,404.6 1211.4,462.2 		"/>
	</g>
	<g class="st14">
		<polygon class="st2" points="1058.8,392.2 1052.9,407.9 1124.2,461.9 1135.8,452.9 		"/>
	</g>
	<g class="st14">
		<polygon class="st2" points="952.9,494.7 946.2,499.4 1036.4,569.4 1048.9,569.7 		"/>
	</g>
	<g>
		<path class="st23" d="M1103.3,490.4c0.1-0.8,0.3-1.6,0.4-2.4c1-4.9,2.9-9.7,5.4-13.5c2.6-4,6.8-8.6,11.1-7.6
			c0.2,0.1,0.4,0.1,0.6,0.2c0.2,0.1,0.4,0.2,0.6,0.3c0.2,0.1,0.4,0.2,0.6,0.4c0,0,0,0,0.1,0l-0.9-0.7l-7.6-6.4
			c-0.2-0.1-0.4-0.3-0.6-0.4c-0.2-0.1-0.4-0.2-0.6-0.3c-0.2-0.1-0.4-0.1-0.6-0.2l0,0l0,0c-4.1-0.9-7.8,3.1-10.4,6.9
			c-2.7,4-4.8,8.9-5.8,14.1h0c-0.1,0.6-0.2,1.1-0.3,1.7c0-0.1,0-0.2,0,0c-0.1,0.4,0,0.2,0,0c-0.1,0.6-0.2,1.3-0.3,2L1103.3,490.4z"
			/>
	</g>
	<g>
		<g>
			<path class="st0" d="M1117.9,505.9c6.2-4.8,11.1-16.4,11.1-25.9c0-9.5-5-13.3-11.2-8.6c-6.2,4.8-11.1,16.4-11.1,25.9
				C1106.7,506.8,1111.7,510.6,1117.9,505.9z"/>
		</g>
	</g>
	<g>
		<path class="st25" d="M1103.1,490.3c-0.6,4.7-0.4,11,3,13.6l3.8,3c-4.1-3.2-3.6-11.2-2.5-16.4c1-4.9,2.9-9.7,5.4-13.5
			c2.6-4,6.8-8.6,11.1-7.6c0.2,0,0.4,0.1,0.6,0.2c0.2,0.1,0.4,0.2,0.6,0.3c0.2,0.1,0.4,0.2,0.6,0.4c0,0,0,0,0.1,0l-0.9-0.7l-3-2.3
			c-0.2-0.1-0.4-0.3-0.6-0.4c-0.2-0.1-0.4-0.2-0.6-0.3c-0.2-0.1-0.4-0.1-0.6-0.2l0,0l0,0c-4.1-0.9-8.1,3.2-10.7,7
			c-0.5,0.8-1,1.6-1.5,2.5l-8.3-6.4c-1.9,3.4-3.3,7.3-4.2,11.3h0c-0.1,0.6-0.2,1.1-0.3,1.7c0-0.1,0-0.2,0,0c-0.1,0.4,0,0.2,0,0
			c-0.1,0.6-0.2,1.3-0.3,2L1103.1,490.3z"/>
	</g>
	<g>
		<g class="st5">
			<ellipse class="st2" cx="783.2" cy="719.1" rx="23.3" ry="18.5"/>
		</g>
		<g>
			<g>
				<path class="st7" d="M792.7,696c-1.3,0-2.6-0.4-3.8-1.1l-1.4,4c1.6,1,3.3,1.5,5.1,1.5c6.8,0,12.4-7.4,12.5-16.6l0-5.1
					c0-1-0.1-2.1-0.2-3.1l-3.2,0.8c0.1,0.8,0.2,1.5,0.2,2.3l0,5.1C801.9,690.5,797.8,696,792.7,696z"/>
			</g>
		</g>
		<g>
			<path class="st7" d="M792.6,732.3L792.6,732.3v-58.6h-8.2v58.6v0c0,1.4,1.8,2.6,4.1,2.6C790.7,734.9,792.6,733.7,792.6,732.3z"/>
		</g>
		<g>
			<ellipse class="st8" cx="786.2" cy="647.8" rx="31.8" ry="42.7"/>
		</g>
		<g class="st9">
			<path class="st10" d="M777.9,606.5c-13.5,4.9-23.4,21.5-23.4,41.2c0,23.6,14.2,42.7,31.8,42.7c6.9,0,13.2-2.9,18.4-7.9
				c-2.7,1-5.5,1.5-8.4,1.5c-17.6,0-31.8-19.1-31.8-42.7C764.5,627,769.8,614.3,777.9,606.5z"/>
		</g>
		<g>
			<ellipse class="st8" cx="807.8" cy="646.9" rx="19.3" ry="26"/>
		</g>
		<g>
			<ellipse class="st8" cx="781.6" cy="621.7" rx="19.8" ry="26.6"/>
		</g>
		<g>
			<ellipse class="st8" cx="763.9" cy="640.1" rx="16.2" ry="21.7"/>
		</g>
	</g>
	<g>
		<g class="st5">
			<ellipse class="st2" cx="651.1" cy="600" rx="23.3" ry="18.5"/>
		</g>
		<g>
			<g>
				<path class="st7" d="M641.6,559c-0.1,1-0.2,2.1-0.2,3.1l0,5.1c0,9.2,5.6,16.6,12.5,16.6c1.8,0,3.5-0.5,5.1-1.5l-1.4-4
					c-1.2,0.7-2.4,1.1-3.8,1.1c-5,0-9.2-5.5-9.2-12.2l0-5.1c0-0.8,0-1.5,0.2-2.3L641.6,559z"/>
			</g>
		</g>
		<g>
			<path class="st7" d="M660.4,613.2L660.4,613.2v-58.6l-8.2,0v58.6v0c0,1.4,1.8,2.6,4.1,2.6C658.5,615.8,660.4,614.6,660.4,613.2z"
				/>
		</g>
		<g>
			<ellipse class="st8" cx="654" cy="528.7" rx="31.8" ry="42.7"/>
		</g>
		<g class="st9">
			<path class="st10" d="M645.7,487.4c-13.5,4.9-23.4,21.5-23.4,41.2c0,23.6,14.2,42.7,31.8,42.7c6.9,0,13.2-2.9,18.4-7.9
				c-2.7,1-5.5,1.5-8.4,1.5c-17.6,0-31.8-19.1-31.8-42.7C632.3,507.9,637.6,495.2,645.7,487.4z"/>
		</g>
		<g>
			<ellipse class="st8" cx="675.6" cy="527.8" rx="19.3" ry="26"/>
		</g>
		<g>
			<ellipse class="st8" cx="649.4" cy="502.6" rx="19.8" ry="26.6"/>
		</g>
		<g>
			<ellipse class="st8" cx="631.7" cy="521" rx="16.2" ry="21.7"/>
		</g>
	</g>
	<g>
		<g class="st5">
			<ellipse class="st2" cx="921.1" cy="220.6" rx="23.3" ry="18.5"/>
		</g>
		<g>
			<g>
				<path class="st6" d="M917.2,177.1c-0.1,1-0.2,2.1-0.2,3.1l0,5.1c0,9.2,5.6,16.6,12.5,16.6c1.8,0,3.5-0.5,5.1-1.5l-1.4-4
					c-1.2,0.7-2.4,1.1-3.8,1.1c-5,0-9.2-5.5-9.2-12.2l0-5.1c0-0.8,0-1.5,0.2-2.3L917.2,177.1z"/>
			</g>
		</g>
		<g>
			<path class="st7" d="M936,231.2L936,231.2v-58.6h-8.2v58.6v0c0,1.4,1.8,2.6,4.1,2.6C934.2,233.8,936,232.7,936,231.2z"/>
		</g>
		<g>
			<ellipse class="st8" cx="929.7" cy="146.7" rx="31.8" ry="42.7"/>
		</g>
		<g class="st9">
			<path class="st10" d="M921.3,105.5c-13.5,4.9-23.4,21.5-23.4,41.2c0,23.6,14.2,42.7,31.8,42.7c6.9,0,13.2-2.9,18.4-7.9
				c-2.7,1-5.5,1.5-8.4,1.5c-17.6,0-31.8-19.1-31.8-42.7C908,125.9,913.2,113.3,921.3,105.5z"/>
		</g>
		<g>
			<ellipse class="st8" cx="949.4" cy="150.8" rx="21.2" ry="28.6"/>
		</g>
		<g>
			<ellipse class="st8" cx="930.1" cy="113.1" rx="20.3" ry="27.3"/>
		</g>
		<g>
			<ellipse class="st8" cx="910.5" cy="132.4" rx="16.2" ry="21.7"/>
		</g>
		<g>
			<ellipse class="st8" cx="921.3" cy="156.1" rx="15.7" ry="21.1"/>
		</g>
		<g>
			<ellipse class="st8" cx="954.4" cy="122.5" rx="14" ry="18.9"/>
		</g>
	</g>
	<g>
		<g class="st5">
			<ellipse class="st2" cx="848.6" cy="772.9" rx="23.3" ry="18.5"/>
		</g>
		<g>
			<g>
				<path class="st7" d="M841.7,733.1c-0.1,1-0.2,2.1-0.2,3.1l0,5.1c0,9.2,5.6,16.6,12.5,16.6c1.8,0,3.5-0.5,5.1-1.5l-1.4-4
					c-1.2,0.7-2.4,1.1-3.8,1.1c-5,0-9.2-5.5-9.2-12.2l0-5.1c0-0.8,0-1.5,0.2-2.3L841.7,733.1z"/>
			</g>
		</g>
		<g>
			<path class="st7" d="M860.5,787.2L860.5,787.2v-58.6h-8.2v58.6v0c0,1.4,1.8,2.6,4.1,2.6C858.7,789.8,860.5,788.6,860.5,787.2z"/>
		</g>
		<g>
			<ellipse class="st8" cx="854.2" cy="702.7" rx="31.8" ry="42.7"/>
		</g>
		<g class="st9">
			<path class="st10" d="M845.8,661.5c-13.5,4.9-23.4,21.5-23.4,41.2c0,23.6,14.2,42.7,31.8,42.7c6.9,0,13.2-2.9,18.4-7.9
				c-2.7,1-5.5,1.5-8.4,1.5c-17.6,0-31.8-19.1-31.8-42.7C832.5,681.9,837.8,669.2,845.8,661.5z"/>
		</g>
		<g>
			<ellipse class="st8" cx="874.8" cy="688" rx="19.3" ry="26"/>
		</g>
		<g>
			<ellipse class="st8" cx="844.9" cy="679.2" rx="19.8" ry="26.6"/>
		</g>
		<g>
			<ellipse class="st8" cx="832.8" cy="697.6" rx="16.2" ry="21.7"/>
		</g>
	</g>
	<g class="st5">
		<path class="st2" d="M890.8,333.9l21.8-8.1l26.3,9.3c0.1,0,0.2,0.1,0.4,0.1c0.6,0,1.2-0.6,1.4-1.4c0.2-1-0.3-2-1-2.3l-26.7-9.5
			c-0.2-0.1-0.5-0.1-0.7,0l-22.2,8.2c-0.7,0.3-1.2,1.3-1,2.3C889.3,333.6,890.1,334.2,890.8,333.9z"/>
	</g>
	<g class="st5">
		<path class="st2" d="M961.7,390.7c0.1,0,0.2,0,0.4-0.1l21.8-8.1l25.4,8c0.8,0.2,1.5-0.4,1.7-1.4c0.2-1-0.3-2-1.1-2.3l-25.8-8.1
			c-0.2-0.1-0.5-0.1-0.7,0l-22.2,8.2c-0.7,0.3-1.2,1.3-1,2.3C960.5,390.2,961.1,390.7,961.7,390.7z"/>
	</g>
	<g>
		<g class="st5">
			<ellipse class="st2" cx="921.8" cy="830.9" rx="23.3" ry="18.5"/>
		</g>
		<g>
			<path class="st7" d="M933.8,844.9L933.8,844.9v-58.6h-8.2v58.6v0c0,1.4,1.8,2.6,4.1,2.6C932,847.5,933.8,846.3,933.8,844.9z"/>
		</g>
		<g>
			<ellipse class="st8" cx="927.5" cy="760.4" rx="31.8" ry="42.7"/>
		</g>
		<g class="st9">
			<path class="st10" d="M919.1,719.2c-13.5,4.9-23.4,21.5-23.4,41.2c0,23.6,14.2,42.7,31.8,42.7c6.9,0,13.2-2.9,18.4-7.9
				c-2.7,1-5.5,1.5-8.4,1.5c-17.6,0-31.8-19.1-31.8-42.7C905.8,739.6,911.1,726.9,919.1,719.2z"/>
		</g>
		<g>
			<ellipse class="st8" cx="947.2" cy="763.3" rx="19.3" ry="26"/>
		</g>
		<g>
			<ellipse class="st8" cx="921.9" cy="739.4" rx="19.8" ry="26.6"/>
		</g>
		<g>
			<ellipse class="st8" cx="906.1" cy="762.8" rx="16.2" ry="21.7"/>
		</g>
	</g>
	<g>
		<g class="st5">
			<ellipse class="st2" cx="1307.1" cy="498.1" rx="23.3" ry="18.5"/>
		</g>
		<g>
			<g>
				<path class="st6" d="M1303.2,455.4c-0.1,1-0.2,2.1-0.2,3.1l0,5.1c0,9.2,5.6,16.6,12.5,16.6c1.8,0,3.5-0.5,5.1-1.5l-1.4-4
					c-1.2,0.7-2.4,1.1-3.8,1.1c-5,0-9.2-5.5-9.2-12.2l0-5.1c0-0.8,0-1.5,0.2-2.3L1303.2,455.4z"/>
			</g>
		</g>
		<g>
			<path class="st7" d="M1322,509.6L1322,509.6V451h-8.2v58.6v0c0,1.4,1.8,2.6,4.1,2.6C1320.1,512.2,1322,511,1322,509.6z"/>
		</g>
		<g>
			<ellipse class="st8" cx="1315.6" cy="425.1" rx="31.8" ry="42.7"/>
		</g>
		<g class="st9">
			<path class="st10" d="M1307.3,383.9c-13.5,4.9-23.4,21.5-23.4,41.2c0,23.6,14.2,42.7,31.8,42.7c6.9,0,13.2-2.9,18.4-7.9
				c-2.7,1-5.5,1.5-8.4,1.5c-17.6,0-31.8-19.1-31.8-42.7C1293.9,404.3,1299.2,391.6,1307.3,383.9z"/>
		</g>
		<g>
			<ellipse class="st8" cx="1328.9" cy="398.7" rx="20.9" ry="28.1"/>
		</g>
		<g>
			<ellipse class="st8" cx="1308.7" cy="407.2" rx="22.4" ry="30.1"/>
		</g>
		<g>
			<ellipse class="st8" cx="1293.6" cy="419.1" rx="16.2" ry="21.7"/>
		</g>
		<g>
			<ellipse class="st8" cx="1304.2" cy="390.9" rx="16.2" ry="21.7"/>
		</g>
		<g>
			<ellipse class="st8" cx="1333.6" cy="435.9" rx="19.3" ry="25.9"/>
		</g>
	</g>
	<g class="st5">
		<path class="st2" d="M748.5,484.6c0.3-1-0.1-2.1-0.9-2.4l-34.2-15.8c-0.7-0.3-1.4,0.1-1.7,1c-0.3,0.9-0.1,1.9,0.6,2.4l71.3,56.7
			c0.1,0.1,0.2,0.1,0.3,0.2l34.2,14.4c0.1,0.1,0.3,0.1,0.4,0.1c0.6,0,1.2-0.5,1.3-1.3c0.2-1-0.2-2.1-0.9-2.4l-34-14.3L725.5,476
			l21.2,9.8C747.4,486.1,748.2,485.6,748.5,484.6z"/>
	</g>
	<g class="st5">
		<path class="st2" d="M784.7,523.2c-0.7-0.3-1.5,0.2-1.8,1.2l-6.6,24.9c-0.1,0.5-0.1,1.1,0.1,1.6c0.2,0.5,0.5,0.8,0.9,0.9l18.9,5
			c0.1,0,0.2,0,0.3,0c0.7,0,1.2-0.6,1.4-1.5c0.2-1-0.3-2-1.1-2.2l-17.3-4.6l6-22.8C785.8,524.6,785.4,523.5,784.7,523.2z"/>
	</g>
	<g class="st5">
		<path class="st2" d="M713.4,466.5c-0.7-0.4-1.5,0.1-1.8,1.1l-6.6,24.3c-0.1,0.5-0.1,1,0.1,1.5c0.2,0.5,0.5,0.8,0.9,1l18.9,7.1
			c0.1,0,0.3,0.1,0.4,0.1c0.6,0,1.2-0.5,1.4-1.4c0.2-1-0.2-2-1-2.3l-17.4-6.5l6-22.3C714.5,467.9,714.1,466.8,713.4,466.5z"/>
	</g>
	<g class="st9">
		<polygon class="st0" points="994.7,375.6 995,403.6 1012.2,391 1009,344.1 938.4,288.3 923.4,294.3 923.6,345.6 941.5,333.7 		"/>
	</g>
	<g class="st5">
		<path class="st2" d="M925,348.5c0.3-1-0.1-2.1-0.9-2.4l-33.3-15.8c-0.7-0.3-1.4,0.1-1.7,1c-0.3,0.9-0.1,1.9,0.6,2.4l71.3,56.7
			c0.1,0.1,0.2,0.1,0.3,0.2l33.3,13.1c0.1,0.1,0.3,0.1,0.4,0.1c0.6,0,1.2-0.5,1.3-1.4c0.2-1-0.2-2.1-1-2.3l-33.1-13l-58.8-46.8
			l19.7,9.4C924,350,924.8,349.5,925,348.5z"/>
	</g>
	<g>
		<path class="st0" d="M939.7,289.5c0-0.5-0.2-1-0.6-1.4c-0.3-0.3-0.7-0.4-1.1-0.3l-14.1,4.2c-0.8,0.2-1.2,1.2-1.1,2.3
			c0.2,1,0.9,1.7,1.7,1.4L937,292l2.3,40.5c0,0.6,0.3,1.2,0.7,1.5l70.6,57.1c0.2,0.2,0.5,0.3,0.7,0.3c0.3,0,0.5-0.1,0.7-0.3
			c0.4-0.4,0.7-1,0.7-1.7l-2.4-43.9c0-0.6-0.3-1.1-0.6-1.4c-0.3-0.3-0.8-0.4-1.2-0.3l-14.1,5.5c-0.7,0.3-1.2,1.3-1,2.3
			c0.2,1,1,1.6,1.7,1.3l12.4-4.8l2.1,38L942,331.2L939.7,289.5z"/>
	</g>
	<g>
		<path class="st0" d="M818.4,541.2c0.8,0,1.4-0.8,1.4-1.9V488c0-0.7-0.3-1.3-0.7-1.6l-71.3-56.7c-0.4-0.3-1-0.4-1.4,0
			c-0.4,0.3-0.7,1-0.7,1.6V484c0,1,0.6,1.9,1.4,1.9c0.8,0,1.4-0.8,1.4-1.9v-49.4l68.5,54.5v50.3C817,540.4,817.6,541.2,818.4,541.2z
			"/>
	</g>
	<g>
		<path class="st0" d="M747.9,432.1c0.5-0.8,0.5-2-0.1-2.7c-0.6-0.7-1.5-0.6-2,0.1l-12.3,18.5c-0.2,0.2-0.3,0.5-0.3,0.8l-8.1,48.7
			c-0.1,0.8,0.1,1.6,0.6,2l70.6,57.1c0.2,0.2,0.5,0.3,0.7,0.3c0.2,0,0.4-0.1,0.6-0.2c0.4-0.2,0.7-0.7,0.8-1.3l8-48.2l13-18.1
			c0.5-0.8,0.5-1.9,0-2.7c-0.6-0.7-1.4-0.7-2,0l-13.3,18.5c-0.2,0.2-0.3,0.6-0.4,0.9l-7.7,46.2L728,497.2l7.8-46.9L747.9,432.1z"/>
	</g>
	<g>
		<path class="st0" d="M995.1,403.6c0.8,0,1.4-0.8,1.4-1.9v-50.1c0-0.7-0.3-1.3-0.7-1.6l-71.3-56.7c-0.4-0.3-1-0.4-1.4,0
			c-0.4,0.3-0.7,1-0.7,1.6v52.7c0,1,0.6,1.9,1.4,1.9s1.4-0.8,1.4-1.9v-49.4l68.5,54.5v49C993.7,402.8,994.4,403.6,995.1,403.6z"/>
	</g>
	<g class="st9">
		<polygon class="st0" points="818.4,488.4 746.4,430.2 734.3,448.9 726.2,498.3 797,555.4 818.2,540.1 		"/>
	</g>
	<g class="st9">
		<path class="st0" d="M735,449.1l-8.8,49.2c0.5,0.2,20.9-15.5,20.9-15.5v-51.5L735,449.1z"/>
	</g>
	<g class="st9">
		<path class="st0" d="M938.3,289.7l-14.4,5.3l0.7,0.3c0.7,0,14.8,12.3,14.8,12.3L938.3,289.7z"/>
	</g>
	<g>
		<polygon class="st0" points="876.6,862.5 799.7,921.7 797,919.6 792.8,922.9 803.7,931.2 807.9,927.9 804.5,925.4 881.5,866.2 		
			"/>
	</g>
	<g>
		<polygon class="st0" points="815.2,815.2 738.3,874.4 735.6,872.4 731.4,875.7 742.3,883.9 746.5,880.6 743.1,878.1 820.1,818.9 
					"/>
	</g>
	<g>
		<polygon class="st0" points="754.1,768 677.1,827.2 674.4,825.1 670.2,828.4 681.1,836.6 685.3,833.3 681.9,830.9 758.9,771.6 		
			"/>
	</g>
	<g>
		<polygon class="st0" points="694.5,722.3 617.6,781.5 614.9,779.4 610.7,782.7 621.6,790.9 625.8,787.6 622.4,785.2 699.4,725.9 
					"/>
	</g>
	<g>
		<g class="st5">
			<g>
				<path class="st2" d="M844.9,962.2c1.3,1.1,3.5,1.1,4.8,0.1l66.2-51.9c1.3-1,1.3-2.7,0-3.8l-45.8-34.4c-1.4-1-3.5-1-4.9,0.1
					l-62.6,50.6c-1.3,1.1-1.3,2.8,0,3.9L844.9,962.2z"/>
			</g>
		</g>
		<g>
			<path class="st39" d="M860.4,957.3l5.1-18.8l-0.6-3.2c-0.6-0.4-4.8-2.8-5.5-2.9c-3.4-0.1-6.5,5.2-7.2,11.6
				c-0.6,6.3,1.6,11.2,6.3,13L860.4,957.3z"/>
		</g>
		<g>
			<path class="st39" d="M900.9,925.3l5.1-18.8l-0.6-3.2c-0.6-0.4-4.8-2.8-5.5-2.9c-3.4-0.1-6.5,5.2-7.2,11.6
				c-0.6,6.3,1.6,11.2,6.3,13L900.9,925.3z"/>
		</g>
		<g>
			<g class="st11">
				<g>
					<g>
						<polygon class="st40" points="819.6,916.2 817.5,934.6 845.6,957.2 896.1,897.6 						"/>
					</g>
				</g>
				<g>
					<g>
						<polygon class="st41" points="886.6,867 833.3,905.2 819.6,916.2 843.8,934.1 909.9,884.9 						"/>
					</g>
				</g>
			</g>
		</g>
		<g>
			<g class="st11">
				<g>
					<g>
						<polygon class="st40" points="835.5,887.7 833.3,905.2 858.2,923.9 877.5,889.9 						"/>
					</g>
				</g>
				<g>
					<g>
						<polygon class="st41" points="868.8,862.2 835.5,887.7 856.6,904 890,878.4 						"/>
					</g>
				</g>
				<g>
					<polygon class="st42" points="845.6,957.2 914.7,903.8 909.9,884.9 894.8,895.7 890,878.4 856.6,904 858.2,923.5 843.8,934.1 
											"/>
				</g>
			</g>
		</g>
		<g>
			<polygon class="st43" points="837.1,892.5 835.8,903.9 855.5,918.7 854.4,905.6 			"/>
		</g>
		<g>
			<g>
				<polygon class="st43" points="887.8,884.5 876.1,893.4 878.4,908 891.5,897.7 				"/>
			</g>
			<g>
				<polygon class="st43" points="873.9,895.1 860.3,905.4 861.6,920.8 875.9,909.4 				"/>
			</g>
		</g>
		<g>
			<polygon class="st44" points="845.1,951.2 818.2,930.1 817.2,930.5 816.9,935.4 844.5,958.2 845.6,957.2 			"/>
		</g>
		<g>
			<polygon class="st45" points="913.3,898.3 845.1,951.2 844.5,958.2 915.4,903.4 914.4,898.3 			"/>
		</g>
		<g>
			<g>
				<path class="st45" d="M868.1,947.6c0.9-6.4-1.1-12.2-4.5-12.9c-3.4-0.7-6.8,4-7.7,10.4c-0.9,6.4,1.1,12.2,4.5,12.9
					C863.8,958.8,867.2,954.1,868.1,947.6z"/>
			</g>
			<g>
				<path class="st46" d="M865.8,947.4c0.5-3.4-0.7-6.4-2.6-6.8c-1.9-0.4-3.9,2-4.3,5.4c-0.5,3.4,0.7,6.4,2.6,6.8
					C863.4,953.1,865.3,950.7,865.8,947.4z"/>
			</g>
		</g>
		<g>
			<g>
				<path class="st45" d="M908.7,915.1c0.9-6.4-1.1-12.2-4.5-12.9c-3.4-0.7-6.8,4-7.7,10.4c-0.9,6.4,1.1,12.2,4.5,12.9
					C904.4,926.2,907.8,921.6,908.7,915.1z"/>
			</g>
			<g>
				<path class="st46" d="M906.4,914.8c0.5-3.4-0.7-6.4-2.6-6.8c-1.9-0.4-3.8,2-4.3,5.4c-0.5,3.4,0.7,6.4,2.6,6.8
					C904,920.6,905.9,918.2,906.4,914.8z"/>
			</g>
		</g>
		<g>
			<path class="st47" d="M905.3,914.6c0.3-1.9-0.2-3.7-1.2-4.4l-1.2,3.6l-0.2-3.9c-1,0.4-1.9,1.8-2.2,3.6c-0.3,2.3,0.5,4.4,1.8,4.7
				C903.7,918.6,905,916.9,905.3,914.6z"/>
		</g>
		<g>
			<path class="st47" d="M864.7,947.1c0.3-1.9-0.2-3.7-1.2-4.4l-1.2,3.6l-0.2-3.9c-1,0.4-1.9,1.8-2.2,3.6c-0.3,2.3,0.5,4.4,1.8,4.7
				C863,951,864.4,949.4,864.7,947.1z"/>
		</g>
		<g>
			<polygon class="st48" points="846.2,939.1 845.9,938.8 844.3,939.9 839.6,936.3 839.2,936.6 839.5,940.6 845.1,945.2 			"/>
		</g>
		<g>
			<polygon class="st49" points="839.2,936.5 839.2,940.9 844.7,945.6 844.3,940.5 			"/>
		</g>
		<g>
			<polygon class="st50" points="846.2,939.1 844.3,940.5 844.7,945.5 846.6,943.9 			"/>
		</g>
		<g>
			<polygon class="st48" points="819.1,920.4 818.6,924.5 824.2,929.1 824.2,924.4 			"/>
		</g>
		<g>
			<polygon class="st49" points="818.8,920.6 818.4,924.7 823.9,929.3 823.9,924.6 			"/>
		</g>
		<g>
			<polygon class="st47" points="834.8,933.7 827.9,928.4 827.9,933.9 834.7,939.3 			"/>
		</g>
	</g>
	<g>
		<g>
			<g class="st5">
				<g>
					<path class="st2" d="M724.6,867.1c1.3,1.1,3.5,1.1,4.9,0l66.8-51.2c1.3-1,1.3-2.7,0-3.7l-45.6-33c-1.4-1-3.6-0.9-4.9,0.1
						l-64.1,49.9c-1.3,1-1.3,2.8,0,3.8L724.6,867.1z"/>
				</g>
			</g>
			<g>
				<path class="st39" d="M745.1,862.1l5.1-18.8l-0.6-3.2c-0.6-0.4-4.8-2.8-5.5-2.9c-3.4-0.1-6.5,5.2-7.2,11.6
					c-0.6,6.3,1.6,11.2,6.3,13L745.1,862.1z"/>
			</g>
			<g>
				<path class="st39" d="M785.6,830.2l5.1-18.8l-0.6-3.2c-0.6-0.4-4.8-2.8-5.5-2.9c-3.4-0.1-6.5,5.1-7.2,11.6
					c-0.6,6.3,1.6,11.2,6.3,13L785.6,830.2z"/>
			</g>
			<g>
				<g class="st11">
					<g>
						<g>
							<polygon class="st51" points="704.2,821 702.2,839.4 730.3,862.1 780.8,802.4 							"/>
						</g>
					</g>
					<g>
						<g>
							<polygon class="st52" points="771.2,771.8 718,810 704.2,821 728.5,839 794.6,789.7 							"/>
						</g>
					</g>
				</g>
			</g>
			<g>
				<g class="st11">
					<g>
						<g>
							<polygon class="st51" points="717.8,794.9 707.7,818.8 732.6,837.5 751.9,803.5 							"/>
						</g>
					</g>
					<g>
						<g>
							<polygon class="st52" points="753.5,767 717.8,794.9 738.9,811.1 774.7,783.3 							"/>
						</g>
					</g>
					<g>
						<polygon class="st53" points="794.6,789.7 779.5,800.6 774.7,783.3 738.9,811.1 732.9,835.7 728.5,839 730.3,862.1 
							799.3,808.6 						"/>
					</g>
				</g>
			</g>
			<g>
				<g>
					<polygon class="st43" points="772.5,789.3 760.8,798.3 763.1,812.8 776.2,802.6 					"/>
				</g>
				<g>
					<polygon class="st43" points="742.5,812.3 739,831.3 760.6,814.3 758.6,799.9 					"/>
				</g>
			</g>
			<g>
				<polygon class="st44" points="729.8,856 702.9,834.9 701.9,835.4 701.6,840.3 729.2,863 730.3,862.1 				"/>
			</g>
			<g>
				<polygon class="st45" points="797.9,803.2 729.8,856 729.2,863 800.1,808.3 799,803.2 				"/>
			</g>
			<g>
				<g>
					<path class="st45" d="M752.8,852.5c0.9-6.4-1.1-12.2-4.5-12.9c-3.4-0.7-6.8,4-7.7,10.4c-0.9,6.4,1.1,12.2,4.5,12.9
						C748.4,863.6,751.9,858.9,752.8,852.5z"/>
				</g>
				<g>
					<path class="st46" d="M750.5,852.2c0.5-3.4-0.7-6.4-2.6-6.8c-1.9-0.4-3.9,2-4.3,5.4c-0.5,3.4,0.7,6.4,2.6,6.8
						C748.1,858,750,855.5,750.5,852.2z"/>
				</g>
			</g>
			<g>
				<g>
					<path class="st45" d="M793.4,820c0.9-6.4-1.1-12.2-4.5-12.9c-3.4-0.7-6.8,4-7.7,10.4c-0.9,6.4,1.1,12.2,4.5,12.9
						C789.1,831.1,792.5,826.4,793.4,820z"/>
				</g>
				<g>
					<path class="st46" d="M791.1,819.7c0.5-3.4-0.7-6.4-2.6-6.8c-1.9-0.4-3.8,2-4.3,5.4c-0.5,3.4,0.7,6.4,2.6,6.8
						C788.7,825.4,790.6,823,791.1,819.7z"/>
				</g>
			</g>
			<g>
				<path class="st47" d="M790,819.4c0.3-1.9-0.2-3.7-1.2-4.4l-1.2,3.6l-0.2-3.9c-1,0.4-1.9,1.8-2.2,3.6c-0.3,2.3,0.5,4.4,1.8,4.7
					C788.3,823.4,789.7,821.8,790,819.4z"/>
			</g>
			<g>
				<path class="st47" d="M749.4,851.9c0.3-1.9-0.2-3.7-1.2-4.4l-1.2,3.6l-0.2-3.9c-1,0.4-1.9,1.8-2.2,3.6c-0.3,2.3,0.5,4.4,1.8,4.7
					C747.7,855.9,749,854.2,749.4,851.9z"/>
			</g>
			<g>
				<polygon class="st48" points="730.9,844 730.6,843.6 728.9,844.7 724.3,841.1 723.8,841.4 724.2,845.5 729.7,850.1 				"/>
			</g>
			<g>
				<polygon class="st49" points="723.8,841.4 723.8,845.8 729.3,850.4 728.9,845.3 				"/>
			</g>
			<g>
				<polygon class="st50" points="730.9,844 729,845.3 729.4,850.3 731.3,848.8 				"/>
			</g>
			<g>
				<polygon class="st48" points="703.8,825.2 703.3,829.3 708.9,834 708.9,829.2 				"/>
			</g>
			<g>
				<polygon class="st49" points="703.5,825.4 703,829.5 708.6,834.2 708.6,829.4 				"/>
			</g>
			<g>
				<polygon class="st0" points="712.6,833.3 712.6,838.7 719.4,844.1 719.4,838.5 				"/>
			</g>
		</g>
		<g>
			<polygon class="st43" points="718.5,800.2 711.4,818.1 730.2,831.6 735.1,812.6 			"/>
		</g>
	</g>
	<g>
		<g class="st5">
			<g>
				<path class="st2" d="M664.6,821.5c1.3,1,3.5,1,4.9,0l66.5-51.6c1.3-1,1.3-2.7-0.1-3.6l-47-32.7c-1.4-1-3.6-0.9-4.9,0.2
					L621.1,784c-1.3,1.1-1.3,2.8,0,3.8L664.6,821.5z"/>
			</g>
		</g>
		<g>
			<path class="st39" d="M685.1,809.8l5.1-18.8l-0.6-3.2c-0.6-0.4-4.8-2.8-5.5-2.9c-3.4-0.1-6.5,5.2-7.2,11.6
				c-0.6,6.3,1.6,11.2,6.3,13L685.1,809.8z"/>
		</g>
		<g>
			<path class="st39" d="M725.6,777.8l5.1-18.8l-0.6-3.2c-0.6-0.4-4.8-2.8-5.5-2.9c-3.4-0.1-6.5,5.1-7.2,11.6
				c-0.6,6.3,1.6,11.2,6.3,13L725.6,777.8z"/>
		</g>
		<g>
			<g class="st11">
				<g>
					<g>
						<polygon class="st54" points="644.2,768.7 642.2,787.1 670.3,809.7 720.8,750.1 						"/>
					</g>
				</g>
				<g>
					<g>
						<polygon class="st55" points="711.2,719.5 658,757.7 644.2,768.7 668.5,786.7 734.6,737.4 						"/>
					</g>
				</g>
			</g>
		</g>
		<g>
			<g class="st11">
				<g>
					<g>
						<polygon class="st54" points="660.2,740.3 658,757.7 682.9,776.4 702.2,742.4 						"/>
					</g>
				</g>
				<g>
					<g>
						<polygon class="st55" points="693.5,714.7 660.2,740.3 681.3,756.5 714.7,730.9 						"/>
					</g>
				</g>
				<g>
					<polygon class="st56" points="670.3,809.7 739.3,756.3 734.6,737.4 719.5,748.2 714.7,730.9 681.3,756.5 682.8,776 
						668.5,786.7 					"/>
				</g>
			</g>
		</g>
		<g>
			<polygon class="st43" points="661.8,745 660.5,756.4 680.1,771.2 679.1,758.1 			"/>
		</g>
		<g>
			<g>
				<polygon class="st43" points="712.5,737 700.8,746 703.1,760.5 716.2,750.2 				"/>
			</g>
			<g>
				<polygon class="st43" points="698.6,747.6 685,757.9 686.2,773.3 700.6,761.9 				"/>
			</g>
		</g>
		<g>
			<polygon class="st47" points="669.8,803.7 642.8,782.6 641.8,783 641.6,787.9 669.2,810.7 670.3,809.7 			"/>
		</g>
		<g>
			<polygon class="st57" points="737.9,750.8 669.8,803.7 669.2,810.7 740.1,756 739,750.8 			"/>
		</g>
		<g>
			<g>
				<path class="st45" d="M692.8,800.2c0.9-6.4-1.1-12.2-4.5-12.9c-3.4-0.7-6.8,4-7.7,10.4c-0.9,6.4,1.1,12.2,4.5,12.9
					C688.4,811.3,691.9,806.6,692.8,800.2z"/>
			</g>
			<g>
				<path class="st46" d="M690.4,799.9c0.5-3.4-0.7-6.4-2.6-6.8c-1.9-0.4-3.9,2-4.3,5.4c-0.5,3.4,0.7,6.4,2.6,6.8
					C688,805.6,690,803.2,690.4,799.9z"/>
			</g>
		</g>
		<g>
			<g>
				<path class="st45" d="M733.4,767.7c0.9-6.4-1.1-12.2-4.5-12.9c-3.4-0.7-6.8,4-7.7,10.4c-0.9,6.4,1.1,12.2,4.5,12.9
					C729.1,778.8,732.5,774.1,733.4,767.7z"/>
			</g>
			<g>
				<path class="st46" d="M731.1,767.4c0.5-3.4-0.7-6.4-2.6-6.8c-1.9-0.4-3.8,2-4.3,5.4c-0.5,3.4,0.7,6.4,2.6,6.8
					C728.7,773.1,730.6,770.7,731.1,767.4z"/>
			</g>
		</g>
		<g>
			<path class="st47" d="M730,767.1c0.3-1.9-0.2-3.7-1.2-4.4l-1.2,3.6l-0.2-3.9c-1,0.4-1.9,1.8-2.2,3.6c-0.3,2.3,0.5,4.4,1.8,4.7
				C728.3,771.1,729.7,769.4,730,767.1z"/>
		</g>
		<g>
			<path class="st47" d="M689.4,799.6c0.3-1.9-0.2-3.7-1.2-4.4l-1.2,3.6l-0.2-3.9c-1,0.4-1.9,1.8-2.2,3.6c-0.3,2.3,0.5,4.4,1.8,4.7
				C687.7,803.6,689,801.9,689.4,799.6z"/>
		</g>
		<g>
			<polygon class="st48" points="670.9,791.6 670.6,791.3 668.9,792.4 664.3,788.8 663.8,789.1 664.2,793.1 669.7,797.8 			"/>
		</g>
		<g>
			<polygon class="st49" points="663.8,789 663.8,793.5 669.3,798.1 668.9,793 			"/>
		</g>
		<g>
			<polygon class="st50" points="670.9,791.6 669,793 669.4,798 671.3,796.5 			"/>
		</g>
		<g>
			<polygon class="st48" points="643.8,772.9 643.3,777 648.9,781.6 648.9,776.9 			"/>
		</g>
		<g>
			<polygon class="st49" points="643.5,773.1 643,777.2 648.6,781.9 648.6,777.1 			"/>
		</g>
		<g>
			<polygon class="st47" points="652.6,781 652.6,786.4 659.4,791.8 659.4,786.2 			"/>
		</g>
	</g>
</g>
</svg>
